<svg xmlns="http://www.w3.org/2000/svg" viewBox="0 0 983.43 948.91"><defs><style>.cls-1{fill:#fbee74;}.cls-2{fill:#1d1d1b;}.cls-3{fill:#b17f4a;}.cls-4{fill:#fff;}.cls-5{fill:#e30613;}.cls-6{fill:#d10a1e;}</style></defs><g id="Warstwa_2" data-name="Warstwa 2"><g id="Warstwa_1-2" data-name="Warstwa 1"><path d="M829.67,269.15c5.64,9.63,10.85,18.69,16.24,27.64,1.72,2.87,3.91,5.46,5.83,8.21a6.38,6.38,0,0,1,.67,1.82c1.9,6.06,3.3,12.35,5.94,18.07a10.67,10.67,0,0,0,7.4,5.16c11.66,1.16,21.17,7.17,31.06,12.43,13.23,7,27.15,10.59,42,6.8,14.64-3.73,25.78-13.17,36.06-23.69.93-.95.92-2.77,1.46-4.15s1-3.06,2-4c.46-.42,2.9.3,3.34,1.11.95,1.73,2.2,4.35,1.53,5.74a55.44,55.44,0,0,1-23.49,24.82c-2.88,1.61-5.58,3.56-8.45,5.21-11.65,6.68-24.24,5.61-36.9,4.62-12.39-1-22.7-7.19-33.5-12.33-3.75-1.78-7.88-2.75-13.46-4.64,4,13.24,8.65,25.26,11.27,37.7s3.29,25.43,5,39.75l30.21-20.83,1.92,1.72c-1.1,2.33-1.67,5.22-3.41,6.88-4.3,4.1-9.09,7.71-13.79,11.38-3.82,3-7.91,5.65-11.65,8.73-1.22,1-2.54,3-2.41,4.39,1.63,17.24-4.72,33.25-7.55,49.78a193.64,193.64,0,0,1-6,26c-2.19,6.86-6.14,13.14-8.85,19.86-2.22,5.51-3.81,11.28-5.57,17a3.76,3.76,0,0,0,.11,2.91c3.45,4.34.69,8.38-.74,12.2-3.53,9.39-7,18.85-11.44,27.84-7,14.37-14.76,28.41-22.3,42.53-5.44,10.19-11.06,20.29-16.59,30.43-.87,1.59-1.59,3.27-2.56,4.8-2.73,4.35-2.09,6.3,3.25,7.42s10.83,2.28,16.24,2.25c10.22-.06,20.56-.16,30.62-1.72,10.37-1.62,19.62-6.86,28.07-13.1a123.94,123.94,0,0,0,13.18-11.26c1.79-1.76,2.57-4.55,3.8-6.87l-.91-1.51c3.06-.28,7.14-1.92,9-.55,3.73,2.82.74,6.86-1,9.78-5.7,9.42-14,16-23.5,21.52-10.94,6.38-21.78,12.86-34.54,14.43-13.85,1.7-27.77,1.9-41.51-1.42-3.67-.89-7.28-2.08-11-2.68a5.29,5.29,0,0,0-3.94,1.66c-10.77,11.63-21,23.8-32.26,34.93-5.79,5.72-13.34,9.68-20.15,14.36-11.06,7.59-22,15.3-33.29,22.61-13.85,9-27.87,17.73-41.95,26.37-10.58,6.5-21.34,12.7-32,19-2.74,1.61-1.81,3.25-.54,5.32,5.83,9.51,14.83,15.23,24.6,19.48a250.64,250.64,0,0,1,34.4,18.4c14.09,8.93,27.31,4.72,38.46-6.52,1.39-1.41,2.61-3,4-4.38,1-1,2.26-1.93,3.48-2.95,3.82,1.27,4.69,4,2.66,6.9-6.67,9.61-15.17,17.27-26.3,21.26-9.86,3.54-19.59,1.35-28-4.1a196.61,196.61,0,0,0-37.28-19.24c-10.62-4.07-19-11.69-25.32-21.27-3.33-5-4.44-4.92-9.53-2.35-15,7.54-29.73,15.52-45.16,21.93a322.89,322.89,0,0,1-41.82,13.7c-8.74,2.3-18.09,2.17-27.11,3.53-18.48,2.77-36.93,5.77-55.37,8.78a61.11,61.11,0,0,0-7.51,2.17c1.61,2.23,2.89,4.8,4.86,6.65,13.84,13,11.37,29.78,10.56,46.05-.41,8.25-1.52,16.48-2.68,24.67-.46,3.2-1.91,6.25-3,9.75-4-2.21-8.67,4-12.61-1.3-2.17-2.91-4.5-5.69-7.62-9.62,5.3-.1,8.64-5.33,12.14,1l1.14-.65c1.26-11.57,3.06-23.11,3.58-34.71.28-6.31-1.52-12.73-2.55-19.08a6.45,6.45,0,0,0-1.82-3.46c-5.26-5-10.29-10.28-16.14-14.44-2.9-2.07-7.47-2.86-11.16-2.57-16.71,1.28-33.35,3.37-50.06,4.71-6.88.55-13.87.08-20.79-.23-4-.18-6.54,1.23-7.21,5.14a57.4,57.4,0,0,0-.86,9.88c.05,5.76,1,11.58.54,17.28a95.21,95.21,0,0,1-3.59,18.28c-1.21,4.22-9.77,7.07-13.08,4.92-2.92-1.89-4.06-4.69-.84-6.79,6.95-4.53,6.93-11.27,7.29-18.35.5-9.86,1.67-19.68,2.63-30.28-4.43-.4-8.95-1-13.48-1.18-6-.22-12,0-17.92-.13-4.58-.06-9.27-.83-12.77,3.42-.54.66-2.11.75-3.16.65a85.59,85.59,0,0,1-9-1.32,103.8,103.8,0,0,1-13.48-3.38C238.41,860.26,223,855,208.25,848.45c-6.38-2.85-11.64-8.5-17-13.34-7.46-6.75-14.53-13.94-22.84-22-3.47,2.83-8.05,5.73-11.56,9.6-5.65,6.22-11.32,12.65-15.69,19.78a51.94,51.94,0,0,0-5.88,42.72c.92,3.24-3.72,10-8,11.68-1.68.67-3.45,1.1-6.69,2.12.17-5,0-9.41.52-13.75,1.37-11.43,2.17-23,4.81-34.18,3.65-15.41,14-26.83,25.43-37.31,3.89-3.57,7.45-7.5,11.36-11.48C156,791.9,148.67,781.85,142.7,771c-7-12.6-13.18-25.67-18.87-38.9C119.38,721.8,116,711,112.56,700.24A104.33,104.33,0,0,1,109,683.88c-.5-3.36-1.87-4-5-3.64-8.38,1-16.79,1.55-25.19,2.38-2.28.23-4.51,1-6.8,1.18-2.07.17-4.73.65-6.15-.37-2-1.44-3.08-4.14-4.56-6.3,2-1.3,4-3.48,6.09-3.69,3.72-.36,7.58.87,11.35.74a159.81,159.81,0,0,0,18.3-1.58c7.09-1.07,8.56-4.09,7.4-11C102,647.13,100,632.54,97.77,618c-.43-2.76-.77-5.74-2-8.12-3.93-7.29-.2-15-1.56-22.33-1.42-7.67-2.78-15.37-3.53-23.13-1.43-14.92-1.5-30-3.83-44.81-2.52-16-3-32.18-5.13-48.2a149.25,149.25,0,0,1-.86-18.93c0-2.86-.63-3.6-3.62-3.47-10.86.48-19.51,5.6-27.71,12.1-9.62,7.63-19.47,14.92-26.81,25-5.91,8.14-10.2,16.71-9.6,27.09a7.36,7.36,0,0,0,.27,2.46c1.66,3.75,2.82,8.58,7.82,8.61s4-5.37,4.36-8.09c.7-4.83,3.36-5.37,6.89-5,4.76.51,3.83,5.13,2.93,7-3.16,6.45-4.49,14.32-12.66,17.48-3.56,1.37-6.2,1.47-9-1.07-9.11-8.3-11.27-19-9.31-30.39,4-23.16,19.17-38.31,37.8-50.65C49,449,56.07,444.72,63.31,440.83a30.86,30.86,0,0,1,10.93-3.19c5.84-.66,6.7-4.46,6.57-9-.25-9.12-.68-18.24-1.1-27.35a9.89,9.89,0,0,0-.77-4.29c-2.2-3.85-3.39-7.05,1.6-10,1.29-.75,1.61-3.81,1.72-5.85a208.72,208.72,0,0,1,10.81-56.76c4-11.71,9.05-23.08,14.13-34.37,5.6-12.45,11.82-24.62,17.68-36.94,2.31-4.85,4.38-9.79,6.57-14.69l-1.12-1.21c-3.55,2.4-8.1,4.08-10.44,7.35-5.24,7.27-10,14.74-13.17,23.56a123.35,123.35,0,0,1-28,44.56c-9.23,9.58-18.15,19.25-29.92,26C37.89,344.89,26.22,348.33,14,350.3a19.8,19.8,0,0,1-8.84-1.12c-4.78-1.56-6.48-6.32-4.2-12,3.47-8.67,7.11-17.29,11-25.76,5.47-11.8,10.83-23.68,17-35.09,7.25-13.35,15.71-26,23-39.36,9.88-18,27.31-28.06,42.2-40.73,5.37-4.57,11.9-7.79,18-11.56,7.81-4.88,15.49-10,23.54-14.46C144,165.63,153,162.32,161,157.43c9.71-5.92,18.76-12.64,23.62-23.92,2.44-5.68,5.71-11,5.89-17.27.14-4.74,2.52-6,7.1-5.18.2-1.64,0-3.27.63-4.44a53.33,53.33,0,0,1,4.21-5.82c1.48,1.39,3,2.69,4.42,4.17s2.38,3,3.56,4.53a27.68,27.68,0,0,0,3.1-3.87C216.9,99.7,228.94,94.55,237,97.4c6.81,2.41,11.56.46,16-3.77,8.84-8.48,19.59-14,30.12-19.75,9.79-5.38,20-10,29.92-15.16,9.09-4.67,18-9.74,27.18-14.18,7.24-3.49,14.16-7.94,22.7-8.13,2.48-.06,5.16-1.32,7.36-2.67,10.91-6.7,22.92-9.58,35.44-11.31C424.87,19.78,444.18,18,463,12.59c8.33-2.4,17.29-2.69,26-3.77,6.57-.82,13.16-1.76,19.76-1.95,11.81-.33,23.64-.06,35.46-.18,11.53-.12,22.67,1.49,33.35,6.12,4,1.74,7,2.35,11-2.59S599.55,2,605.86.63c6.68-1.42,14.09-.13,21.06.85,5.16.72,10.07,3,15.17,4.29C649,7.45,654.32,11.68,659,16.52c9.91,10.38,18.94,21.62,29.12,31.71,4.95,4.9,11.38,8.59,17.67,11.81,11.63,6,23.81,10.89,35.47,16.82a62.21,62.21,0,0,1,23.67,20.91c5,7.39,9.79,15.06,13.29,23.2,2.82,6.56,3.49,14,5.24,21.07,2.47,9.89,8.83,17.3,16.18,23.8,11.07,9.8,23.36,17.86,32.79,29.95,7.49,9.59,15.68,18.77,22,29.19,6.73,11.14,6.18,26.59-5.55,36.28-3.9,3.23-9.64,4.24-14.56,6.24C832.91,268,831.52,268.49,829.67,269.15Zm29.08,242.49c2.28-6.86,5-13.71,6.78-20.8,1.69-6.71,2.18-13.71,3.56-20.51,2-9.89,6.24-19.32,6-29.66,0-1.92-.39-3.84-.6-5.76a37.1,37.1,0,0,0-5.49,1.4c-9.73,4.14-19.64,5.82-30,2.71-8.61-2.58-14.77-8.37-19.68-15.52-2.13-3.1-4-5-8-3.18a45,45,0,0,1-9.43,3.07c-18.53,3.67-37.16,6.82-55.61,10.83-16.81,3.66-33.43,8.23-50.15,12.34-10.93,2.7-21.78,5.89-32.85,7.79-11.87,2-24,2.75-35.93,4.17-17.92,2.11-35.8,4.56-53.75,6.45-19.62,2.07-39.29,3.78-59,5.43-15.84,1.33-31.69,2.39-47.54,3.42-3.55.23-4,1.75-3.36,4.85,2,9.76,3.84,19.55,5.44,29.38,1,6.12,6.58,14.44,14.05,15.42,3.12.41,6.19,1.19,9.28,1.8.17.66.35,1.31.52,2-3.52,1.67-7,4.58-10.58,4.79-12.39.69-23-7.18-24.5-20.24-1.2-10.52-2.76-21-4.43-31.48-.24-1.49-2-3.8-3.14-3.88a60.77,60.77,0,0,0-10.83.7c-7.74.83-15.46,1.94-23.22,2.57-5.44.44-10.93.14-16.38.41-13.44.66-26.87,1.46-40.31,2.22-17.08,1-34.16,1.84-51.23,2.92-20.37,1.3-40.79,4.42-61.09,3.74-21.57-.72-42.19,4.56-63.33,6.08-14.19,1-28.32,3-42.47,4.5A131.4,131.4,0,0,0,99.65,511.8c-3.87,1.82-5.08,4.95-4.39,9,.9,5.22,2,10.41,2.67,15.65q2.59,19.09,4.88,38.22c.76,6.41,1,12.88,1.8,19.27a7.42,7.42,0,0,0,2.74,4.8c9,5.82,18.28,11.23,27.31,17,5.72,3.66,7,3.39,8.88-3.17,2.48-8.68,4.32-17.54,10.37-24.8,5.48-6.58,20-11.52,28.08-9.08a5.14,5.14,0,0,1,2.58,1.39c3.33,4.46,7,8.68,7.21,14.81.2,4.55-3.22,6.14-5.94,6.89-3.18.89-3.49-2.54-3.61-5.1a11.38,11.38,0,0,0-.33-2.47c-1.65-6-10.12-9.13-14.45-5.07a39.61,39.61,0,0,0-7.72,9.65c-4.34,8-8.19,16.28-12,24.56-.46,1,.41,2.86,1.09,4.07,2,3.61,4.29,7.11,6.47,10.66.69,0,2.47-.55,3.48.09,5.78,3.72,11.71,7.32,17,11.71,14.73,12.29,30.91,21.69,49.65,26.28,4.33,1.06,9.81,3.85,12.85-1a224.9,224.9,0,0,0,14.36-27.05c2.78-6.13,3.64-13.12,6.33-19.3,4.93-11.36,3.22-21.48-3.42-31.56-2.35-3.57-4.52-8.14-4.51-12.25,0-10.62,1.36-21.23,8-30.26a6.49,6.49,0,0,0,1.53-3.08c.21-3.35,2.43-4.52,5.06-4.08,2.17.36,4.91,1.48,5.93,3.16.78,1.27-.43,4.09-1.3,6-2.28,4.93-5.61,9.49-7.13,14.62-1.78,6-2.72,13,1.21,18.29,8.65,11.68,10.39,24,5.46,37.35-1.42,3.83-3.28,7.5-4.93,11.25-3.87,8.73-7.6,17.53-11.64,26.17-2.49,5.32-5.44,10.42-8.47,16.16,2.23.44,3.8.85,5.4,1,7.74,1,15.48,1.93,23.24,2.75a124.31,124.31,0,0,0,15.27,1.19c13.36-.21,26.71-.77,40.07-1.29,8.71-.35,17.42-.86,26.76-1.33-5.06-5.66-10.3-9.86-13.31-15.3-3.69-6.64-9.06-11-14.75-15.33a6.65,6.65,0,0,1-2.24-3.53c-2.19-9.48-4.42-18.95-6.21-28.51-2.33-12.39-.85-24.69,2-36.83,1-4.42,3.88-6.42,8.65-6.25,2,.07,4.82-.77,6-2.23,10.78-13.26,24.93-13.74,37.85-3.9,11.57,8.83,23.75,16.41,37.81,20.28,8.27,2.28,16.82,3.54,25.42.58A34.09,34.09,0,0,1,446.85,590c10.06-.22,20.14.2,30.2,0,6.92-.17,13.84-1,20.75-1.57,19.83-1.7,38.63-6.66,55.31-18,3.26-2.21,6-5.12,9.18-7.5,5.39-4.08,11-7.9,16.3-12.07a5.6,5.6,0,0,0,1.88-4.14c-.59-6.88,1.35-9.08,8.16-9.34,1.5-.06,3.87-1.23,4.25-2.4,1.24-3.79,4.25-3,6.53-2.62.91.13,1.63,2.94,2.09,4.62.91,3.4.5,7.82,2.55,10.13,6.2,7,13.76,12.79,20,19.78,6.6,7.44,12.26,15.71,18.31,23.64a2.9,2.9,0,0,1,.49,1.39c1,9.92,2.24,19.78,7.62,28.56.33.54-.15,1.56-.22,2.37-.43,5.13-.84,10.27-1.26,15.32,1.34.81,3.93,1.48,4.19,2.66.88,4,5.37,7.73,1.23,12.43-1.2,1.36-1.55,3.67-1.81,5.61-.63,4.59,2.39,9.73,5.46,9.18a161.3,161.3,0,0,0,19.77-4.38c10-3.15,19.82-6.92,29.66-10.58,7.26-2.69,14.54-5.35,21.6-8.5,8.89-4,17.68-8.21,26.3-12.75,3.41-1.79,8.43-4.3,8.94-7.16,1.86-10.44,2.88-20.95-2.21-31.38-7.17-14.67-26.56-18.16-36.71-5.63-1,1.25-3.66,2.47-4.93,2-3.78-1.38-5.43-8.24-2.28-10.73,4.84-3.85,10.11-8.41,15.85-9.64,27.81-5.93,44,20.25,40.81,41.25-.38,2.53-.36,5.11-.61,9,7.51-5.76,14.16-10.51,20.4-15.74,9.18-7.69,18.25-15.55,27-23.73,3.32-3.1,5.68-7.24,8.37-11,5.15-7.12,12.22-13,14.35-22.09,1-4.17,2.83-8.16,3.55-12.36.84-4.84,1.58-9.9,1.08-14.74C848.1,511.47,849.81,509.36,858.75,511.64ZM812.42,411.08c-2.92-4.57-4.59-9.31-7.93-11.95-5.39-4.27-11.71-7.49-17.94-10.54-5.57-2.73-11.66-4.36-17.29-7-4.09-1.91-5-5.5-3-9,2.37-4.08,6-2.27,8.68-1,9.6,4.59,18.77,10.11,28.52,14.32a24.33,24.33,0,0,1,13.2,12.44c1.11,2.35,2.79,4.43,4,6.73s2.27,2.58,4.69,1.47c3.85-1.77,8-2.77,12-4.33,8.53-3.38,17.16-6.57,25.45-10.48,5.87-2.77,6.9-5.66,5-11.72-3.63-11.4-7.56-22.71-11.52-34-.45-1.27-1.9-2.19-3.12-3.54-.89,2.12-1.58,3.45-2,4.86a29,29,0,0,0-1,4.8c-.33,2.81-1.56,3-3.63,1.48-3.51-2.59-5.38-7.93-3.43-11.85,1.67-3.34,4.17-6.26,6.75-10-1.68-3.68-3.67-8.43-6-13-.74-1.44-2.39-3.31-3.72-3.38-6.39-.33-12.83.05-19.23-.18-2.12-.08-4.28-1.08-6.28-1.95-3.35-1.46-6.45-3.71-9.92-4.62-4.73-1.24-9.9-.89-14.54-2.34-11.78-3.67-23-8.72-35.58-10.15-9.08-1-17.91-4.26-26.88-6.36-13.17-3.09-26.41-5.87-39.53-9.12a253.88,253.88,0,0,1-27-7.76c-7.73-2.84-15-6.46-23.68-5-2.36.38-5.27-1.52-7.69-2.82-2.72-1.46-5-4.38-7.77-5-12.44-2.8-25-5.2-37.54-7.36-8.87-1.53-17.86-2.34-26.75-3.71-3.59-.55-6.16-.22-7.05,3.9-3.43,15.74-13.1,27.43-25.37,36.91-6.88,5.33-14.73,9.52-22.5,13.51a20.3,20.3,0,0,1-11.22,2.05c-7.7-1-11.29-4.24-11.62-9.78-.67-11.42-.86-22.88-1.35-34.31-.24-5.64-.58-11.27-1.16-16.87-.11-1.08-1.49-2.79-2.43-2.9-7.73-.87-15.48-1.88-23.23-2-10.74-.12-21.49.59-32.23.81-6.77.14-13.54,0-20.61,0-.47,3.78-.5,6.79-1.25,9.61-1.94,7.29-3.48,14.82-6.59,21.61-2.12,4.62-6.17,8.66-10.14,12a141.42,141.42,0,0,1-19.57,14.29,16.48,16.48,0,0,1-17.94-.13c-6.93-4.38-8.52-10.91-7.32-18.38,1.46-9.14,3.29-18.22,4.86-27.34a21.76,21.76,0,0,0-.14-4.33,22.23,22.23,0,0,0-4.64.28c-7,1.93-13.92,4.23-21,6s-7,1.58-6.81,8.85,1.69,14.64.07,21.36c-5,20.7-21.25,37.46-45.48,35.35-4.95-.43-8-3-8.87-7.77-1.23-6.65-1.62-13.14.9-19.72,1.63-4.23,2.23-8.86,3.58-14.57-4.23,1.67-7.53,2.46-10.27,4.15C242,285.6,236.1,290.21,229.7,294c-4.91,2.94-5.63,7-5.42,12.12a61.42,61.42,0,0,1-1.07,14.71c-1.9,9.23-8.88,14.83-15.85,20.32-12.78,10.07-24.36,8.64-33.62-4.51-2-2.79-4.23-2.81-6.37-1.41a144.8,144.8,0,0,0-12.12,9.12c-5.22,4.26-10.15,8.87-15.41,13.07-6.09,4.85-12.52,9.29-18.56,14.2-1.59,1.3-2.19,3.76-3.44,5.55-1.54,2.21-3.18,6-5,6.12-9.86.64-14.18,9.36-21.39,13.73-1,.59-1.52,2.58-1.55,3.93-.22,9.92-.23,19.85-.35,29.78,0,2.79,1.19,4.41,4,4.61,5,.34,10,1.16,14.91.84,7.28-.47,15.21-1.19,20.37-6.64,5.61-5.94,9.64-13.36,14.42-20.1,2.59-3.64,5-7.49,8-10.71,4-4.18,9.64-4.47,15.38-1.23-1,.76-1.85,1.36-2.66,2-3.47,2.69-7.67,4.82-10.22,8.2C148,415.51,143.05,424,137.45,432c-4.32,6.16-9.11,12.14-17.28,13.23a184.84,184.84,0,0,1-21.12,2c-11.48.21-9.86-.18-9.21,11.15.38,6.6,1.68,13.14,2.41,19.72.48,4.23.33,8.56,1.23,12.68.27,1.26,3.23,3,4.71,2.78,13.11-1.89,26.33-2,39.45-4.74,26.8-5.59,54.62-3.4,81.51-9.4,6-1.34,12.54-.15,18.8-.5,24.72-1.41,49.42-3,74.13-4.45,20.07-1.16,40.14-2.14,60.21-3.27,15.08-.84,30.16-1.68,45.22-2.73,10.76-.75,21.48-1.88,32.22-2.78,3.56-.3,4.64-1.9,3.4-5.3a73.77,73.77,0,0,1-3.5-10.79c-3.45-17.35-14.38-30.32-25.46-43-5-5.71-12-9.24-15.38-16.93-1.91-4.4,0-6.34,2.2-8.43,2.34-2.26,5.24-2.74,7.68.56,3.48,4.72,6.57,9.95,10.86,13.79A67,67,0,0,1,443,411.9c1.58,2.71,3.07,5.59,5.17,7.86a42.93,42.93,0,0,1,10.24,20c1.89,8.1,4.34,16.06,6.64,24.46,5.37-.9,11.19-2.3,17.08-2.8,13.55-1.14,27.14-1.68,40.69-2.77,21.63-1.74,43.28-3.37,64.85-5.72,18.52-2,36.86-5.8,55.41-7.25,24.26-1.9,47.6-8.06,71.21-13.06,8.9-1.88,17.71-4.22,26.62-6.08,8.46-1.77,17-3.07,25.48-4.8,5.94-1.2,11.8-2.81,17.7-4.18C793.25,415.46,802.45,413.37,812.42,411.08ZM335,857.26c19.84-1.4,38-2.6,56.22-4,6.6-.51,13.2-1.28,19.72-2.38a5.6,5.6,0,0,0,3.67-3.65c1.32-7.48,2.05-15.06,3.2-22.57,1.34-8.79,1.71-17.92,8.79-24.76,3.21-3.1,5.85-6.79,9.07-9.87,5.31-5.1,10.55-10.37,16.5-14.61,2.1-1.5,6.32-.69,9.27.13.7.2.52,4.73.14,7.17-.19,1.2-1.61,2.39-2.72,3.25-6,4.67-12.26,9.13-18.23,13.89-2.16,1.73-4.69,3.78-5.54,6.21-4.31,12.41-9.76,24.59-9,38.26.33,5.89.32,6.2,5.71,5.14,13.34-2.61,26.64-5.48,40-7.92,9.95-1.81,20-4.08,30-4.45,21.6-.77,41.71-7.14,61.43-14.94,15.53-6.15,30.62-13.41,45.88-20.21,2.57-1.14,4.2-2.73,2.23-5.77-4.81-7.46-9.06-15.35-14.52-22.3-3.17-4-8.11-7-14.67-5.31.68,1.08,1.23,1.58,1.3,2.13.2,1.82.23,3.67.32,5.51-1.65-.24-3.47-.13-4.92-.81a45.93,45.93,0,0,1-7.26-4.33c-3.76-2.68-3.39-8.94.55-11.36,8.8-5.41,24.43-3.34,31,4.67a177.76,177.76,0,0,1,12.59,17.91c2.35,3.68,3.94,7.85,6.27,12.63,34.82-22.61,70.5-42.26,102.61-66.41-5.15-1-10.17-1.36-14.76-3-11.78-4.16-21.69-10.44-24.79-23.93-1.92-8.37-5.95-14.47-15.91-15.68-6.32-.77-12.31-4.19-18.5-6.26a7.91,7.91,0,0,0-3.83.08c-15.07,2.93-30.19,5.67-45.2,8.94-20.1,4.39-40.59,4-60.92,5.27-17.78,1.16-35.65.93-53.48,1.24-8.2.15-16.42-.15-24.61.2-18.06.77-36.11,1.91-54.16,2.71-4.25.19-8.63-1-12.78-.39-6.94,1-13.43.63-19.88-2.28a15.13,15.13,0,0,0-7.23-1.3c-12.62,1-25.14-1.52-37.86-.19-12.5,1.3-25.3-.32-37.82.86-13.67,1.3-26.77-1.51-40.12-2.81a30.68,30.68,0,0,0-12.49,1.34c-5.42,1.84-6.24,1.8-8.9-3.33a9.41,9.41,0,0,0-4.82-3.79c-6.79-2.57-13.79-4.58-20.57-7.18a117.56,117.56,0,0,1-35.92-21.38c-7.54-6.61-15.73-12.46-23.49-18.82-2.85-2.33-4.74-1.46-6.46,1.13-1.94,2.89-3.47,6.12-5.73,8.72-5.24,6-11,11.61-16.17,17.63-1.36,1.56-2.59,4.29-2.2,6.12a176.87,176.87,0,0,0,5.57,19.93c3.66,10.7,7.45,21.38,11.71,31.85,3.8,9.34,8.12,18.48,12.58,27.54,3.5,7.12,7.44,14,11.4,20.93,3.65,6.35,7.86,12.38,11.29,18.83,2.11,4,3.51,4.69,7.62,2.33,5.3-3,10.51-6.42,16.16-8.62,7.7-3,13.08-8.34,17.63-14.78q5.31-7.5,10-15.39c2.15-3.58,4.7-4.06,9-1.94-2.54,5.74-4.55,11.52-7.51,16.76-6.43,11.36-12.52,23-26.73,27.08-5,1.42-9.56,4.48-14.11,7.16-2.16,1.27-4.08,3.35-1.1,6,5.06,4.43,9.89,9.16,15.21,13.24,6.56,5,13.17,10.18,20.4,14.06,8.42,4.51,17.8,7.21,26.29,11.6a45,45,0,0,0,23.95,4.94c13.62-.88,27.06.21,40.53,1.69,7.65.84,10.52-.33,13.87-7.62,3.08-6.7,5.32-13.79,7.78-20.77a4.34,4.34,0,0,0-.33-3.37c-3.85-6-7.36-12.26-12-17.61-7-8.1-11.41-16.61-9.1-27.58.92-4.38,1.3-8.94,2.77-13.12,1.55-4.4,3.17-9.48,6.42-12.43,6.49-5.87,20-5.68,26.87,0,1.79,1.48,1.43,5.56,2.06,8.45a34.81,34.81,0,0,1-6.08-.51c-1.55-.39-2.84-1.73-4.37-2.31-4.11-1.58-8.33-2.21-10.9,2.38-2.26,4-4.9,8.27-5.61,12.7-1,6.39-1.29,13.1,2.82,19,3.19,4.61,5.91,9.54,9.05,14.19,2.16,3.21,4.68,6.18,7,9.21l7.94-5.79c-2.78,5.89-7.15,10.62-5,17.63.45,1.45-.18,3.27-.43,4.89C337.69,840.73,336.43,848.51,335,857.26ZM311.79,244a18.23,18.23,0,0,0,2.66-.15c9.77-2.48,19.55-4.93,29.26-7.6.88-.24,1.78-1.84,2-2.93.72-4.73.57-9.67,1.83-14.24,5.11-18.6,9.2-37.4,11-56.61,2-20.51,3.11-41,1.26-61.68-.66-7.39-1-15.19.6-22.33,2.12-9.45,6-18.56,9.73-27.56,1.32-3.17,3.44-7.82,8.76-4,.55.39,1.87.06,2.66-.3,5.82-2.63,7.37-2.06,10.23,3.85,1,2.07,2.16,4.08,3.11,6.18,5.9,13.07,11.76,25.89,7.59,41.13-2.62,9.6-3.75,19.73-4.46,29.7a201.36,201.36,0,0,0,.21,29.06c1.07,14.47,3.48,28.84,4.24,43.31.41,7.82-1.28,15.78-2.31,23.65-.36,2.76-.13,4.87,3,5.05,5.59.33,11.22.51,16.81.35,11.77-.35,23.52-1.18,35.29-1.37,7.08-.11,14.18.62,21.49,1a37.53,37.53,0,0,0,.54-4.2q.19-21.21.29-42.43c0-2.78-.52-5.57-.44-8.35.33-12,1-23.91,1.17-35.87.18-11.26-.16-22.53-.07-33.8.13-15.36.44-30.71.72-46.07,0-.75.17-2,.63-2.19,5-2.38,5.43-7.57,7.48-11.8,3.38-7,7.88-12.85,15.92-15.19,1.28-.38,3-3,2.7-4.22-.48-2.07-2-4.78-3.72-5.47-2.28-.88-5.29-.41-7.87.09-15.88,3.09-31.68,6.67-47.61,9.45-14.51,2.53-29.2,4-43.72,6.44a191.91,191.91,0,0,0-26.36,6.33c-7.08,2.26-13.62,6.16-20.58,8.84-9,3.46-18.19,6.43-28.46,10,2.25,1.84,3.38,2.5,4.16,3.45,2.69,3.23,6.36,6.17,7.65,9.92a66.22,66.22,0,0,1,3,30.43c-1.15,8.62-2.69,17.2-4.3,25.75-2,10.69-3.83,21.45-6.53,32-2.58,10.08-6.4,19.83-9.26,29.84-4.36,15.27-9.25,30.45-10.66,46.41A38.73,38.73,0,0,0,311.79,244ZM818,270.88c-7.5-2.15-14.15-2.67-19.22-5.78-11.45-7-16.51-19.58-23.07-30.6-5.33-8.95-9.58-18.53-14.56-27.69-2.92-5.36-6.53-10.34-9.46-15.69-5.59-10.2-7.73-22-15.26-31.36-6.85-8.47-12.81-17.68-20-25.86a352.53,352.53,0,0,0-25.05-25.51C681.24,98.89,670.53,90,660,80.85c-.75-.65-2-.74-3.17-1.15-.17.89-.42,1.4-.31,1.81,5.41,20.2,10.92,40.37,16.24,60.6,1.84,7,3.08,14.14,4.8,21.17,1.06,4.33,3.29,8.51,3.59,12.85.58,8.31.21,16.68.12,25-.17,15.57-4.66,29.86-12.74,43.13-2.79,4.57-5.17,9.39-7.64,13.91,5.88,2.11,11.36,4.45,17,6.06,16.35,4.62,32.74,9.12,49.2,13.32,11.83,3,23.8,5.47,35.7,8.22,12.65,2.94,25.36,5.67,37.91,9,10.87,2.89,22.85,2.09,32.43,9.51.66.52,2.07.07,4.38.07C830.47,292.23,823.9,281,818,270.88Zm-328-197c.49,2,2.29,5.62,1.46,6.39-4.62,4.23-1.68,9.19-1.89,13.65-.93,19.84-1.33,39.7-2.11,59.55-.28,7-1.45,13.93-1.62,20.9s.68,13.9.63,20.84c-.08,10.08-.5,20.15-.91,30.22-.13,3.12,1.1,4.66,4.19,4.91,4.47.36,8.92.84,13.38,1.21,12.95,1.09,25.91,2,38.84,3.27,5.57.55,7.23-.52,7.5-6.06.34-6.74.66-13.49,1.25-20.21.26-3.05,1.39-6,1.7-9.06.82-8.28,1.4-16.59,2.11-24.89,1.27-15,2.92-30,3.68-45,.34-6.67-1.46-13.42-1.7-20.15-.33-9.55.29-19.15-.25-28.69-.81-14.25-6.3-27-14.86-38.25-3.12-4.12-7.29-7.3-13.14-6.84a23,23,0,0,1-7.27-.17c-9.24-2.32-16.57,1.81-22.43,7.75-5.56,5.64-5.25,17.08-.91,24.17l2.52,4.14Zm183.4,119.43,1.32-.24c-1.8-8.69-3.5-17.41-5.43-26.08-3.14-14.11-6.57-28.16-9.64-42.29-3.24-14.87-6-29.85-9.45-44.66-1-4.13-3.44-8-5.85-11.64-1.39-2.08-4.06-3.28-6.11-4.93-8.37-6.74-16.69-13.54-25.11-20.21-1.66-1.32-3-1.61-3.63,1.46-1.09,5-1.76,10.63-8,12.57-.33.11-.62.8-.69,1.25-1,6.85-2.86,13.7.28,20.52a14.72,14.72,0,0,1,1.28,4.72c1.68,19.16,3.38,38.32,4.83,57.5.58,7.76.5,15.57.84,23.35.26,5.91-.16,12,1.25,17.67,4.26,17.09,9.48,33.93,13.89,51,2.6,10.07,7.5,17.49,18.31,19.58,1.86.36,4.41,1,5.65.15,7.44-5.25,13.83-11.55,18.3-19.69C672.42,220.75,673.11,207.06,673.46,193.26Zm175.91,44c-2-5-3.41-10.25-6.08-14.82-2.8-4.8-6.69-9-10.26-13.32-5.45-6.58-10.57-13.52-16.7-19.41s-13.18-10.87-20.09-15.9C781,162.72,774,147.07,770.12,129.31,765.88,110,756,94.38,738.05,84.79,722.5,76.46,707,68,691.24,60.09,681.17,55,673.87,47.2,667,38.69c-3.09-3.85-6-7.89-9.29-11.56-7.47-8.31-17.55-12.77-27.55-16.74C619,6,607.45,5.3,597.21,13.5c-1.15.92-2.09,3.56-1.58,4.74S599.36,21,600,20.51c4.73-3.49,7.44.38,10.9,2.26a22.14,22.14,0,0,0,8.21,2.55c3.59.34,7.52-1.11,10.85-.19a59.19,59.19,0,0,1,29.91,19.42C672.34,59.38,685,74.08,697.22,89.09c6.7,8.22,12.49,17.17,19.15,25.42,9.68,12,20.28,23.26,29.5,35.58,6.86,9.17,11.68,19.85,18.25,29.26,9.16,13.1,19.12,25.65,28.73,38.43,8.72,11.61,17.39,23.26,26.21,34.79,1.05,1.36,3,3,4.47,2.92a60.61,60.61,0,0,0,12.78-1.76C843.14,252,848.34,244.7,849.37,237.24ZM194.2,161.33l-1.29-1.19c-2.34,1.84-5.32,3.24-6.91,5.58-6.41,9.47-12.5,19.16-18.51,28.89-4.94,8-10,16-14.32,24.3-5.37,10.32-9.92,21.07-15.07,31.52-5.66,11.46-12.18,22.52-17.28,34.22-6.6,15.14-12.81,30.52-18,46.19-4.34,13.12-7,26.8-10.31,40.27-.88,3.66-1,7.42,2.24,10.79a50.15,50.15,0,0,0,4.5-3.41c6.23-5.95,12-12.38,18.66-17.87,8.76-7.29,18.16-13.83,27.21-20.79,3.76-2.89,7.25-6.14,11-9s8.25-5.37,12-8.55a9,9,0,0,0,2.53-6,101.5,101.5,0,0,1,5.15-28.45A211.42,211.42,0,0,0,184,255.41c3.41-20.88,6.12-41.89,8.55-62.91C193.79,182.19,193.71,171.73,194.2,161.33Zm-10.52-7-.43-.62c-2.44,1.21-4.95,2.31-7.31,3.65q-13.38,7.64-26.67,15.42c-12.9,7.57-25.9,15-38.59,22.92a218.29,218.29,0,0,0-19.61,14.26c-5.94,4.71-12.27,9.26-17,15a212.13,212.13,0,0,0-18.66,26.61Q42.61,272.89,31.24,295c-6,11.63-11,23.72-16.25,35.71-3,7-.56,10.59,6.52,8.61,8.38-2.35,17.09-5.13,24.25-9.86,10.54-7,20.45-14.75,29-24.7,9.16-10.69,15.75-22.51,22.12-34.7,1.18-2.26,1.18-5.12,2.3-7.42,2.89-5.93,5.92-11.8,9.2-17.51,4.93-8.56,11.63-15,21.43-18,4.86-1.51,9.39-3.84,11.92-9a169.19,169.19,0,0,1,9.75-17.32c6.79-10.54,13.84-20.92,20.95-31.25C176,164.31,179.91,159.36,183.68,154.31Zm126-81.1c-11.23,0-18.58,5.72-26.14,10.27-11,6.63-21.46,14.14-31.89,21.63-2.32,1.67-4.79,4.71-5.09,7.36-1.42,12.57-1.35,25.33-3.31,37.79-1.45,9.17-5.14,18-7.95,26.92-3.11,9.9-6.4,19.75-9.53,29.65-3.62,11.43-7.92,22.4-5.48,35.21,2.17,11.43,1.78,23.4,1.95,35.13.06,4.06,1.15,6.89,3.94,9,5.49-2.79,10.78-5.27,15.87-8.13a74,74,0,0,0,8.76-6.12c2.69-2.06,4.9-5.41,7.87-6.27,3.65-1,5-2.72,5.24-6,.57-9.5,1.1-19,1.65-28.5.48-8.19.72-16.4,1.52-24.55.45-4.57,1.95-9,2.77-13.57.64-3.57.72-7.26,1.48-10.8,2.53-11.79,5.45-23.5,7.86-35.32,3.23-15.83,9.06-30.71,16-45.17C299.66,92.39,304.51,83.27,309.63,73.21ZM613.57,244.53a22.3,22.3,0,0,0-.39-4.24c-2-7.44-4.24-14.85-6.33-22.29-.7-2.53-1.12-5.14-1.84-7.66-1.45-5.06-4-10-4.35-15.15-1.32-18.32-1.6-36.72-2.88-55.05s-.54-37-7-54.83c-2.95-8.16-3.59-17.14-5.28-25.75-.62-3.14.76-5.08,3.63-6.21,1.14-.45,2.62-.87,3.18-1.77,1.91-3.09,3.43-6.43,5.2-9.61,2.06-3.72,1.45-6.1-2.5-8.47-7.76-4.67-16.15-7.16-24.72-9.85-12.38-3.89-25-4.9-37.67-6.37a73,73,0,0,0-13.31-.13c-1.16.08-2.21,2-3.31,3.07,1.41.85,2.71,2.13,4.22,2.47,4.94,1.11,10.21,1.21,14.88,2.95,6.36,2.35,12.23,5.7,19.1,7.07,3.44.68,7.15,3.67,9.27,6.66a31.38,31.38,0,0,1,5.84,21.17c-.71,8.48-1.59,17-2,25.46-.51,11.54-.57,23.09-.87,34.63-.27,10-.15,20-1,29.86-1.2,13.19-3.34,26.29-4.84,39.45s-2.59,26.42-4.08,39.6c-.72,6.4-.94,6.31,5.37,7.24C579,239.32,596.05,241.9,613.57,244.53ZM521,673l.17,1.3c8.75-1.34,17.5-2.76,26.27-4,15.23-2.18,30.53-4,45.69-6.54a53,53,0,0,0,15.74-5.67c6.6-3.51,12.49-8.35,19-12,8.07-4.51,12.17-10.5,10.69-20.08-1-6.41-4.46-10-10.7-8.25-10,2.77-19.85,6.18-29.58,9.81-5.86,2.19-11.22,5.74-17.09,7.92-6.28,2.33-12.89,3.78-19.35,5.63-18.74,5.34-37.06,12.29-56.57,14.59-7,.83-14.05,1.88-21.09,2.06-7.4.19-14.72-.2-21.29,4.15-3,2-6.33,3.18-9.45.2-4.79-4.59-10.76-3.32-16.38-3.33-8.48,0-17,1.18-25.4.3-5.85-.62-10.9-.75-16.2,2.13-2.75,1.49-5.64,1.17-8.86-1.59a29.61,29.61,0,0,0-14-6.38c-7.17-1.12-14.63-.33-21.95-.66-3.1-.14-4.53.85-4.07,3.88a12.5,12.5,0,0,0,1.61,5.15c6.85,9.76,16.13,16.78,27.61,19.39,7.8,1.77,16.2,1.13,24.34,1.12,12.65,0,25.33-1,37.95-.43s24.74.12,36.82-3.31a58.64,58.64,0,0,1,10.15-2.23C497,675,509,674.07,521,673ZM275.6,257.88c7.19-3,12.87-5.62,18.77-7.63,5.22-1.79,8.32-4.65,8.47-10.45A57.6,57.6,0,0,1,304,228c4-16.55,8.07-33.08,12.42-49.54,2.52-9.56,5.82-18.9,8.36-28.45,1.71-6.41,2.4-13.08,4.07-19.5,3.37-12.89,6.23-25.85,5.6-39.23-.21-4.35-1.66-8.74-3.18-12.87-.55-1.49-2.91-2.41-4.59-3.31-.29-.15-1.81,1-1.93,1.67-1,5.49-3.47,3.24-6.81.43-2.74,4.43-5.76,8.49-8,13-24,48.77-30.91,101.5-35.47,154.74C274.2,249,275.2,253.24,275.6,257.88Zm460,462.77c18.71-11.8,32.64-28.26,46.07-45.23-14-9.21-18.86-22.33-18.41-39.34-27.7,18.18-58.19,27.42-89.17,39.26,2.4.53,3.3.95,4.17.89,7.12-.5,9.37,4.7,11.57,9.87,1,2.28,1.73,4.66,2.5,7,4.64,14.25,21.45,26,36.22,24.21C732.68,716.84,734.31,717.89,735.62,720.65ZM590.12,556.26C585,560.33,581,563.49,577,566.71c-11.1,9-22.36,17.33-35.77,23-17.83,7.61-36.32,11.21-55.37,12.31-13.3.77-26.68.22-40,.31-1,0-1.95.49-2.93.49-9.5,0-18.63,3.75-28.51,1.16-16.57-4.34-31.78-11.15-45-21.93-11.27-9.16-26.67-4.79-30.91,9.21-1.61,5.31.73,9.14,6.09,10.23,7.78,1.57,15.53,3.26,23.29,4.88,10.36,2.17,20.81,3.92,31,6.57,15.27,3.95,30.5,7.34,46.46,6.61,18.92-.88,37.87-1.22,56.48-1.78,1.63-5,7.45-8.09,9.05-5.45,2.29,3.78,4.35,1.77,6.54,1,3.25-1.2,6.3-3,9.59-4.05,8-2.5,16.06-4.68,24.07-7.07,1.7-.51,4.38-1.05,4.72-2.15,1.24-4.06,5.4-4.33,7.36-4,5.94,1.09,8.72-2.37,11-6.31,5.36-9.36,10.31-18.95,15.32-28.51C590,560.26,589.79,558.89,590.12,556.26ZM353.77,229.43c1.08,4.52,4.27,4.55,8.09,3.47a65,65,0,0,1,10.55-2.46c5.42-.58,10.94-.34,16.34-1,1.58-.19,4-2.13,4.19-3.48a128,128,0,0,0,.89-19.17c-.55-13.23-1.66-26.43-2.47-39.66-.93-15.18-2.35-30.36-2.44-45.55-.05-7.46,2.45-14.92,3.74-22.39.65-3.7,2-7.5,1.59-11.11-.59-5.72-2.17-11.36-3.63-16.95-1.32-5.08-2.43-9.63-9.87-10-4.27-.19-6.22,1-6.91,3.92-1.66,7.06-3.36,14.27-3.6,21.47-.38,11.23.9,22.52.63,33.76-.34,13.55-1.24,27.1-2.5,40.6-1,10.64-2.48,21.27-4.5,31.76-2.12,11-5.07,21.88-7.78,32.78C355.75,226.77,354.66,227.93,353.77,229.43Zm-173,82.48c1.53,0,3.52.61,4.72-.1,8.36-5,16.56-10.25,24.82-15.41,5.82-3.64,5.51-4.13,4.05-11.09a177.48,177.48,0,0,1-3.21-24.1c-.56-8-.3-16.16-.25-24.25,0-5.67-.59-11.56.68-17,2.06-8.8,5.61-17.23,8.22-25.91,4.89-16.27,9.86-32.53,14.16-49,1.63-6.18,1.5-12.83,2.19-19.41l-11.87,6c-6.37-4-6.37-4-11.81,1.74-.22.24-.56.37-.79.61-6.62,7.05-8.48,15.66-8.42,25,.06,8.89.26,17.82-.34,26.68-.52,7.7-2.12,15.33-3.17,23-.47,3.45-.68,6.93-1.16,10.38q-2.13,15.51-4.39,31c-.93,6.33-1.62,12.74-3.11,19-2.49,10.43-5.61,20.72-8.28,31.11C181.89,303.79,181.52,307.57,180.78,311.91Zm392.06,293c1.93,4.78,3.47,9.12,5.45,13.25,1,2.1,3.1,3.55-.42,5.47-3.1,1.7-5.41,2.2-7.59-1.16a93.26,93.26,0,0,0-6.58-9.17,5.72,5.72,0,0,0-4.1-1.91c-4.11.27-8.41.44-12.24,1.78-10.1,3.53-20,7.61-29.94,11.6-1.3.52-3.06,1.64-3.3,2.77-1.35,6.06.12,11.86,1.84,17.62,10.6-3.26,20.62-6.09,30.46-9.43,16.81-5.71,33.73-11.18,50.16-17.85a200.9,200.9,0,0,1,39.52-11.48c-.93-3.13-1.17-6.8-3-9.43a192.63,192.63,0,0,0-15.52-20.4c-5.4-6.06-11.72-11.29-18.55-17.75C592.25,576.3,587.15,593.42,572.84,604.89ZM488,241.77c0,2-.15,3.95,0,5.85,1.11,12.27,2.47,24.52,3.38,36.81.56,7.5,5.1,10.85,12.12,8,9.08-3.72,16.62-9.57,23.47-16.65,6.29-6.5,12.67-12.67,15.93-21.44,2.31-6.23,2.15-6.93-4.64-7.61C521.73,245.05,505.16,243.45,488,241.77ZM838.43,574.66l-1.31-.74c-2.63,3.29-5.17,6.64-7.89,9.84-4,4.68-7.55,10-12.29,13.73-12.1,9.62-24.76,18.53-37.17,27.75-3.95,2.94-8.33,5.73-6.38,11.84,2.28,7.18,4.26,14.5,7.15,21.44,1,2.4,4.22,4,6.7,5.56.68.42,2.85-.42,3.5-1.31a77.09,77.09,0,0,0,5.82-9.2c5.1-9.39,8.93-19.73,15.33-28.1,11.43-15,17.91-32.4,26.9-48.55C839.08,576.4,838.57,575.43,838.43,574.66Zm-492.07-305,.41.08c0,1.5,0,3,0,4.49.22,11.35,6.62,21.31,18.91,11.32,6.85-5.56,13.69-11.7,18.58-18.91,3.84-5.66,4.72-13.34,6.85-20.14,1.53-4.87.76-6-4.48-5.77-8.27.37-16.63.49-24.77,1.81-4.53.74-10.44,1.6-11.95,7.23C348.17,256.27,347.5,263,346.36,269.68ZM302.19,258.3c-6.59,1.7-11.74,2.74-16.69,4.37-7.64,2.52-16,4.58-15.73,15.35a2.09,2.09,0,0,1-.64,1.3c-5.42,5.63-4.34,13.09-5,19.79-.86,8.4,4.39,12.61,12.22,10.8,10.37-2.4,22-16.76,22.8-25.41C299.91,276.33,301,268.2,302.19,258.3Zm78.06,362.42c-8.26-2.4-16.35-4.65-24.37-7.13-4.59-1.42-8.61-1.7-13.13,1.11s-4.95,3.75-3.07,8.93c1,2.76,0,6.23-.05,9.38l-7.84-.46a5.25,5.25,0,0,0-1,.12c-.43,7.14.81,9.38,9.21,11.27,13.29,3,26.87,2.57,41.35,2.43C381,637.24,380.61,628.8,380.25,620.72Zm69.26,9.94c-1.56-.32-2.2-.49-2.85-.58-11.43-1.45-22.89-2.74-34.29-4.41-5.68-.83-11.24-2.47-16.9-3.53-3.39-.64-5.42.87-5.68,4.49-.28,4-.94,7.91-.91,11.87.05,7.52,1.68,9.36,9.33,10,3.5.29,7.1-.91,10.63-.8,11.91.4,23.82,1.15,35.74,1.56,1,0,2.88-1.3,3-2.2C448.45,641.71,448.9,636.33,449.51,630.66Zm35.7,17.06.05.59c2.3-.13,4.62-.13,6.9-.4,9.85-1.16,9.82-1.19,10.46-10.92a27.55,27.55,0,0,1,.8-3.88c.65-3.16.09-5-3.87-4.91-7.69.24-15.41-.11-23.1.2a80.84,80.84,0,0,0-13.65,1.92c-1.52.33-3.67,1.91-3.92,3.22a76.2,76.2,0,0,0-1.31,13.73c0,3,1.63,3.86,5,3.24C470.06,649.14,477.67,648.6,485.21,647.72Zm341.57-230.9c3.16,3.08,5.8,5.94,8.74,8.44,9.87,8.39,27.22,8.63,37.24.58.79-.63,1.76-1.87,1.64-2.69-.95-6.89-2.14-13.75-3.49-22-2.76,2.67-4.47,4.54-6.41,6.12a11.78,11.78,0,0,1-4,1.93c-1.78.54-3.87.35-5.47,1.17-3.49,1.8-6.67,4.2-10.16,6A4.62,4.62,0,0,1,841,416C836.43,412.91,832.23,412.8,826.78,416.82ZM109.84,638.38l-.44.06c1,5.8,1.75,11.64,3,17.37.58,2.63,2.71,3.58,4.73,1.13,4.64-5.6,9.72-11,13.35-17.21,2.1-3.6,6.19-8.84,1.3-13a97.28,97.28,0,0,0-18.52-12.44c-5.34-2.72-6.93-1-6.17,5C107.91,625.66,108.92,632,109.84,638.38Zm532.83,10.46a176.47,176.47,0,0,1-34.44,20.85c-12.4,5.69-25.58,7.42-38.5,10.87,25.13.74,49.24-5.4,72.94-9.85ZM214.84,305.9c-3.53,1.33-7.21,2.17-10.32,4-6.81,4-13.44,8.27-19.91,12.78-2.74,1.9-3.73,4.61-.37,7.34,1.11.9,1.45,2.91,2.61,3.53,2.77,1.48,6.06,3.84,8.7,3.37C208.05,334.71,218.76,321.47,214.84,305.9Zm461.1-229a37.28,37.28,0,0,0-2.21-3.44c-5.61-6.91-10.89-14.15-17-20.58-5.28-5.53-11.43-10.28-17.47-15-1.43-1.11-4-.82-6-1.17l-1.06,1.64C646.48,51.42,658.19,67.22,675.94,76.89ZM229.51,103.83c-4.67,2.73-8.93,5-12.86,7.7-.92.64-.72,2.91-1,4.42,1.68.31,3.62,1.31,5,.8a65.84,65.84,0,0,0,10.47-5.2c1.19-.7,2.66-2.53,2.47-3.57C233.33,106.72,231.49,105.74,229.51,103.83ZM805.23,253.26a18.07,18.07,0,0,0-1.31-2.6c-4.12-5.72-8.56-11.24-12.32-17.19-1.59-2.5-2.84-4.34-6.63-4.33C791.11,238.26,794.22,248.84,805.23,253.26ZM328,618.58l1.71-.23c0-5.71,0-11.42,0-17.12,0-.66-.74-1.86-1.05-1.83-.84.07-2.29.62-2.33,1.07C325.78,606.6,323.18,613,328,618.58ZM190.58,145.79c1.29-1.39,2.93-2.61,3.79-4.24a51.18,51.18,0,0,0,2.59-7.19c-2.37,1-4.92,1.7-7,3.08C188,138.71,188.62,144.24,190.58,145.79ZM330,843.6c-2.36,3.47-4,5.81-5.55,8.17-.67,1-1.28,2.05-1.92,3.08.65.36,1.53,1.19,1.92,1,1.35-.66,3.23-1.42,3.65-2.59C329.06,850.62,329.26,847.71,330,843.6ZM628.8,609.88l.5,2.24L643.45,609l-.22-1.55Z"/><path class="cls-1" d="M858.75,511.64c-8.94-2.28-10.65-.17-9.77,8.3.5,4.84-.24,9.9-1.08,14.74-.72,4.2-2.58,8.19-3.55,12.36-2.13,9.13-9.2,15-14.35,22.09-2.69,3.74-5,7.88-8.37,11-8.76,8.18-17.83,16-27,23.73-6.24,5.23-12.89,10-20.4,15.74.25-3.93.23-6.51.61-9,3.14-21-13-47.18-40.81-41.25-5.74,1.23-11,5.79-15.85,9.64-3.15,2.49-1.5,9.35,2.28,10.73,1.27.47,3.91-.75,4.93-2,10.15-12.53,29.54-9,36.71,5.63,5.09,10.43,4.07,20.94,2.21,31.38-.51,2.86-5.53,5.37-8.94,7.16-8.62,4.54-17.41,8.78-26.3,12.75-7.06,3.15-14.34,5.81-21.6,8.5-9.84,3.66-19.66,7.43-29.66,10.58A161.3,161.3,0,0,1,658,668c-3.07.55-6.09-4.59-5.46-9.18.26-1.94.61-4.25,1.81-5.61,4.14-4.7-.35-8.41-1.23-12.43-.26-1.18-2.85-1.85-4.19-2.66.42-5,.83-10.19,1.26-15.32.07-.81.55-1.83.22-2.37-5.38-8.78-6.58-18.64-7.62-28.56a2.9,2.9,0,0,0-.49-1.39c-6.05-7.93-11.71-16.2-18.31-23.64-6.21-7-13.77-12.79-20-19.78-2-2.31-1.64-6.73-2.55-10.13-.46-1.68-1.18-4.49-2.09-4.62-2.28-.33-5.29-1.17-6.53,2.62-.38,1.17-2.75,2.34-4.25,2.4-6.81.26-8.75,2.46-8.16,9.34a5.6,5.6,0,0,1-1.88,4.14c-5.32,4.17-10.91,8-16.3,12.07-3.15,2.38-5.92,5.29-9.18,7.5-16.68,11.32-35.48,16.28-55.31,18-6.91.59-13.83,1.4-20.75,1.57-10.06.24-20.14-.18-30.2,0a34.09,34.09,0,0,0-10.17,1.92c-8.6,3-17.15,1.7-25.42-.58-14.06-3.87-26.24-11.45-37.81-20.28-12.92-9.84-27.07-9.36-37.85,3.9-1.18,1.46-4,2.3-6,2.23C324.83,577,322,579,321,583.45c-2.84,12.14-4.32,24.44-2,36.83,1.79,9.56,4,19,6.21,28.51a6.65,6.65,0,0,0,2.24,3.53c5.69,4.37,11.06,8.69,14.75,15.33,3,5.44,8.25,9.64,13.31,15.3-9.34.47-18.05,1-26.76,1.33-13.36.52-26.71,1.08-40.07,1.29a124.31,124.31,0,0,1-15.27-1.19c-7.76-.82-15.5-1.79-23.24-2.75-1.6-.2-3.17-.61-5.4-1,3-5.74,6-10.84,8.47-16.16,4-8.64,7.77-17.44,11.64-26.17,1.65-3.75,3.51-7.42,4.93-11.25,4.93-13.4,3.19-25.67-5.46-37.35-3.93-5.31-3-12.29-1.21-18.29,1.52-5.13,4.85-9.69,7.13-14.62.87-1.88,2.08-4.7,1.3-6-1-1.68-3.76-2.8-5.93-3.16-2.63-.44-4.85.73-5.06,4.08a6.49,6.49,0,0,1-1.53,3.08c-6.64,9-8,19.64-8,30.26,0,4.11,2.16,8.68,4.51,12.25,6.64,10.08,8.35,20.2,3.42,31.56-2.69,6.18-3.55,13.17-6.33,19.3a224.9,224.9,0,0,1-14.36,27.05c-3,4.82-8.52,2-12.85,1-18.74-4.59-34.92-14-49.65-26.28-5.26-4.39-11.19-8-17-11.71-1-.64-2.79-.09-3.48-.09-2.18-3.55-4.43-7.05-6.47-10.66-.68-1.21-1.55-3.07-1.09-4.07,3.8-8.28,7.65-16.56,12-24.56a39.61,39.61,0,0,1,7.72-9.65c4.33-4.06,12.8-.91,14.45,5.07a11.38,11.38,0,0,1,.33,2.47c.12,2.56.43,6,3.61,5.1,2.72-.75,6.14-2.34,5.94-6.89-.26-6.13-3.88-10.35-7.21-14.81a5.14,5.14,0,0,0-2.58-1.39c-8.11-2.44-22.6,2.5-28.08,9.08-6,7.26-7.89,16.12-10.37,24.8-1.87,6.56-3.16,6.83-8.88,3.17-9-5.78-18.3-11.19-27.31-17a7.42,7.42,0,0,1-2.74-4.8c-.82-6.39-1-12.86-1.8-19.27q-2.25-19.12-4.88-38.22c-.71-5.24-1.77-10.43-2.67-15.65-.69-4,.52-7.17,4.39-9a131.4,131.4,0,0,1,41.84-12.24c14.15-1.54,28.28-3.48,42.47-4.5,21.14-1.52,41.76-6.8,63.33-6.08,20.3.68,40.72-2.44,61.09-3.74,17.07-1.08,34.15-2,51.23-2.92,13.44-.76,26.87-1.56,40.31-2.22,5.45-.27,10.94,0,16.38-.41,7.76-.63,15.48-1.74,23.22-2.57a60.77,60.77,0,0,1,10.83-.7c1.17.08,2.9,2.39,3.14,3.88,1.67,10.46,3.23,21,4.43,31.48,1.49,13.06,12.11,20.93,24.5,20.24,3.6-.21,7.06-3.12,10.58-4.79-.17-.65-.35-1.3-.52-2-3.09-.61-6.16-1.39-9.28-1.8-7.47-1-13.06-9.3-14.05-15.42-1.6-9.83-3.48-19.62-5.44-29.38-.63-3.1-.19-4.62,3.36-4.85,15.85-1,31.7-2.09,47.54-3.42,19.67-1.65,39.34-3.36,59-5.43,17.95-1.89,35.83-4.34,53.75-6.45,12-1.42,24.06-2.13,35.93-4.17,11.07-1.9,21.92-5.09,32.85-7.79,16.72-4.11,33.34-8.68,50.15-12.34,18.45-4,37.08-7.16,55.61-10.83a45,45,0,0,0,9.43-3.07c4-1.78,5.89.08,8,3.18,4.91,7.15,11.07,12.94,19.68,15.52,10.38,3.11,20.29,1.43,30-2.71a37.1,37.1,0,0,1,5.49-1.4c.21,1.92.56,3.84.6,5.76.23,10.34-4,19.77-6,29.66-1.38,6.8-1.87,13.8-3.56,20.51C863.75,497.93,861,504.78,858.75,511.64ZM719.28,496.83c-14,2.1-23.83,5.49-28.95,15.89a41,41,0,0,0-4.14,19.52c.06,1.75.94,3.46,1.44,5.19,1.86-.72,4.52-.92,5.41-2.28a22,22,0,0,0,3.24-8.67c1.65-11.64,17.08-22.23,28.45-13.29a38.43,38.43,0,0,0,9.2,5.7c15.69,6.22,31.41,12.38,47.31,18a33.08,33.08,0,0,0,14.46,1.66c12.25-1.45,22.66-8,33.17-13.88,9.57-5.37,18.64-11.46,24.87-20.84a31.69,31.69,0,0,0,4.12-7.82c.31-1-1.48-3.49-2.71-3.83-1.56-.43-5.07.57-5.1,1.09-.32,6.29-5.06,9.46-8.88,13.18-8.53,8.3-19.17,13.24-29.81,18.15-8.29,3.82-16.56,6.57-25.74,2.55-5.43-2.39-11.33-3.71-16.77-6.08-11-4.8-21.85-9.93-32.72-15C729.52,503,725.05,494.82,719.28,496.83Z"/><path class="cls-1" d="M812.42,411.08c-10,2.29-19.17,4.38-28.35,6.52-5.9,1.37-11.76,3-17.7,4.18-8.47,1.73-17,3-25.48,4.8-8.91,1.86-17.72,4.2-26.62,6.08-23.61,5-46.95,11.16-71.21,13.06-18.55,1.45-36.89,5.24-55.41,7.25-21.57,2.35-43.22,4-64.85,5.72-13.55,1.09-27.14,1.63-40.69,2.77-5.89.5-11.71,1.9-17.08,2.8-2.3-8.4-4.75-16.36-6.64-24.46a42.93,42.93,0,0,0-10.24-20c-2.1-2.27-3.59-5.15-5.17-7.86a67,67,0,0,0-13.45-16.37c-4.29-3.84-7.38-9.07-10.86-13.79-2.44-3.3-5.34-2.82-7.68-.56-2.18,2.09-4.11,4-2.2,8.43,3.34,7.69,10.4,11.22,15.38,16.93,11.08,12.71,22,25.68,25.46,43a73.77,73.77,0,0,0,3.5,10.79c1.24,3.4.16,5-3.4,5.3-10.74.9-21.46,2-32.22,2.78-15.06,1.05-30.14,1.89-45.22,2.73-20.07,1.13-40.14,2.11-60.21,3.27-24.71,1.43-49.41,3-74.13,4.45-6.26.35-12.79-.84-18.8.5-26.89,6-54.71,3.81-81.51,9.4-13.12,2.74-26.34,2.85-39.45,4.74-1.48.21-4.44-1.52-4.71-2.78-.9-4.12-.75-8.45-1.23-12.68-.73-6.58-2-13.12-2.41-19.72-.65-11.33-2.27-10.94,9.21-11.15a184.84,184.84,0,0,0,21.12-2c8.17-1.09,13-7.07,17.28-13.23,5.6-8,10.5-16.49,16.38-24.27,2.55-3.38,6.75-5.51,10.22-8.2.81-.63,1.65-1.23,2.66-2-5.74-3.24-11.42-3-15.38,1.23-3.05,3.22-5.43,7.07-8,10.71-4.78,6.74-8.81,14.16-14.42,20.1-5.16,5.45-13.09,6.17-20.37,6.64-4.93.32-9.94-.5-14.91-.84-2.84-.2-4.06-1.82-4-4.61.12-9.93.13-19.86.35-29.78,0-1.35.57-3.34,1.55-3.93,7.21-4.37,11.53-13.09,21.39-13.73,1.79-.12,3.43-3.91,5-6.12,1.25-1.79,1.85-4.25,3.44-5.55,6-4.91,12.47-9.35,18.56-14.2,5.26-4.2,10.19-8.81,15.41-13.07a144.8,144.8,0,0,1,12.12-9.12c2.14-1.4,4.41-1.38,6.37,1.41,9.26,13.15,20.84,14.58,33.62,4.51,7-5.49,13.95-11.09,15.85-20.32a61.42,61.42,0,0,0,1.07-14.71c-.21-5.16.51-9.18,5.42-12.12,6.4-3.83,12.31-8.44,18.66-12.36,2.74-1.69,6-2.48,10.27-4.15-1.35,5.71-1.95,10.34-3.58,14.57-2.52,6.58-2.13,13.07-.9,19.72.89,4.78,3.92,7.34,8.87,7.77,24.23,2.11,40.48-14.65,45.48-35.35,1.62-6.72.12-14.22-.07-21.36s-.21-7.07,6.81-8.85,13.95-4.08,21-6a22.23,22.23,0,0,1,4.64-.28,21.76,21.76,0,0,1,.14,4.33c-1.57,9.12-3.4,18.2-4.86,27.34-1.2,7.47.39,14,7.32,18.38a16.48,16.48,0,0,0,17.94.13A141.42,141.42,0,0,0,381,283.63c4-3.38,8-7.42,10.14-12,3.11-6.79,4.65-14.32,6.59-21.61.75-2.82.78-5.83,1.25-9.61,7.07,0,13.84.12,20.61,0,10.74-.22,21.49-.93,32.23-.81,7.75.09,15.5,1.1,23.23,2,.94.11,2.32,1.82,2.43,2.9.58,5.6.92,11.23,1.16,16.87.49,11.43.68,22.89,1.35,34.31.33,5.54,3.92,8.78,11.62,9.78a20.3,20.3,0,0,0,11.22-2.05c7.77-4,15.62-8.18,22.5-13.51,12.27-9.48,21.94-21.17,25.37-36.91.89-4.12,3.46-4.45,7.05-3.9,8.89,1.37,17.88,2.18,26.75,3.71,12.56,2.16,25.1,4.56,37.54,7.36,2.82.63,5,3.55,7.77,5,2.42,1.3,5.33,3.2,7.69,2.82,8.71-1.42,15.95,2.2,23.68,5a253.88,253.88,0,0,0,27,7.76c13.12,3.25,26.36,6,39.53,9.12,9,2.1,17.8,5.33,26.88,6.36,12.55,1.43,23.8,6.48,35.58,10.15,4.64,1.45,9.81,1.1,14.54,2.34,3.47.91,6.57,3.16,9.92,4.62,2,.87,4.16,1.87,6.28,1.95,6.4.23,12.84-.15,19.23.18,1.33.07,3,1.94,3.72,3.38,2.36,4.56,4.35,9.31,6,13-2.58,3.75-5.08,6.67-6.75,10-2,3.92-.08,9.26,3.43,11.85,2.07,1.53,3.3,1.33,3.63-1.48a29,29,0,0,1,1-4.8c.42-1.41,1.11-2.74,2-4.86,1.22,1.35,2.67,2.27,3.12,3.54,4,11.29,7.89,22.6,11.52,34,1.93,6.06.9,8.95-5,11.72-8.29,3.91-16.92,7.1-25.45,10.48-4,1.56-8.16,2.56-12,4.33-2.42,1.11-3.55.72-4.69-1.47s-2.9-4.38-4-6.73a24.33,24.33,0,0,0-13.2-12.44c-9.75-4.21-18.92-9.73-28.52-14.32-2.69-1.29-6.31-3.1-8.68,1-2,3.51-1.11,7.1,3,9,5.63,2.62,11.72,4.25,17.29,7,6.23,3.05,12.55,6.27,17.94,10.54C807.83,401.77,809.5,406.51,812.42,411.08Zm-120.71,3.69c2.38.47,4.15,1.25,5.79,1.05,4.26-.53,8.49-1.38,12.69-2.32a36,36,0,0,0,7-2.25c5.67-2.55,11.37-5.06,16.83-8,6.25-3.38,12.76-6.65,15.37-14.1,1.81-5.16,2.83-10.89,5.8-15.29,3.53-5.23,2.57-10.59,1.49-15.31a40.7,40.7,0,0,0-24.24-29.29,193.73,193.73,0,0,0-27.07-9.56c-7.22-1.95-14.91-3.38-22.32-3.11-9.51.35-19,2.56-28.4,4.11-10.85,1.77-21.71,4.18-30.55,11-7.52,5.76-14.18,12.68-21,19.36-3.57,3.52-7.65,7.13-9.61,11.53a217.62,217.62,0,0,0-9.86,28c-1.53,5.3-4,11.21,1.76,16.09,3.48,3,6,7.63,10,9.27,12.37,5.2,24.53,2.07,36.16-3.33,6-2.8,12.4-6.6,18.76-3.35,11.05,5.64,23.37,5.35,34.83,8.89C688,419,691.3,417.74,691.71,414.77ZM189.42,421.3c.75,7.44.31,15,5.42,21,11.85,13.88,27.21,16.2,43.88,12.12,7.81-1.91,15.06-6.06,22.87-8,8.65-2.16,17.64-2.9,26.47-4.33,6.55-1.06,13.11-2.05,19.6-3.39,14-2.89,25.2-11.16,35.64-20.13,9.14-7.86,17.51-16.63,20-29.44,1.86-9.38-2.22-20.83-10-26.21-7.42-5.15-15.92-6.1-24.45-7.55-9.11-1.56-18.46-2.86-27.08-6-18-6.52-35.69-13.5-55.38-12-4.08.32-8.2,0-12.3.18-3,.15-6.52.61-6.56,4.51-.06,5.1-1,9.28-6,11.77-1.11.56-1.88,1.84-2.74,2.85A170.78,170.78,0,0,0,200.66,382C193.4,394.43,190.53,407.57,189.42,421.3Z"/><path class="cls-1" d="M335,857.26c1.39-8.75,2.65-16.53,3.86-24.32.25-1.62.88-3.44.43-4.89-2.19-7,2.18-11.74,5-17.63l-7.94,5.79c-2.32-3-4.84-6-7-9.21-3.14-4.65-5.86-9.58-9.05-14.19-4.11-5.94-3.85-12.65-2.82-19,.71-4.43,3.35-8.65,5.61-12.7,2.57-4.59,6.79-4,10.9-2.38,1.53.58,2.82,1.92,4.37,2.31a34.81,34.81,0,0,0,6.08.51c-.63-2.89-.27-7-2.06-8.45-6.84-5.64-20.38-5.83-26.87,0-3.25,2.95-4.87,8-6.42,12.43-1.47,4.18-1.85,8.74-2.77,13.12-2.31,11,2.14,19.48,9.1,27.58,4.6,5.35,8.11,11.65,12,17.61a4.34,4.34,0,0,1,.33,3.37c-2.46,7-4.7,14.07-7.78,20.77-3.35,7.29-6.22,8.46-13.87,7.62-13.47-1.48-26.91-2.57-40.53-1.69A45,45,0,0,1,241.58,849c-8.49-4.39-17.87-7.09-26.29-11.6-7.23-3.88-13.84-9-20.4-14.06-5.32-4.08-10.15-8.81-15.21-13.24-3-2.61-1.06-4.69,1.1-6,4.55-2.68,9.12-5.74,14.11-7.16,14.21-4,20.3-15.72,26.73-27.08,3-5.24,5-11,7.51-16.76-4.29-2.12-6.84-1.64-9,1.94q-4.72,7.88-10,15.39c-4.55,6.44-9.93,11.78-17.63,14.78-5.65,2.2-10.86,5.58-16.16,8.62-4.11,2.36-5.51,1.64-7.62-2.33-3.43-6.45-7.64-12.48-11.29-18.83-4-6.89-7.9-13.81-11.4-20.93-4.46-9.06-8.78-18.2-12.58-27.54-4.26-10.47-8-21.15-11.71-31.85a176.87,176.87,0,0,1-5.57-19.93c-.39-1.83.84-4.56,2.2-6.12,5.22-6,10.93-11.62,16.17-17.63,2.26-2.6,3.79-5.83,5.73-8.72,1.72-2.59,3.61-3.46,6.46-1.13,7.76,6.36,15.95,12.21,23.49,18.82A117.56,117.56,0,0,0,206.1,679c6.78,2.6,13.78,4.61,20.57,7.18a9.41,9.41,0,0,1,4.82,3.79c2.66,5.13,3.48,5.17,8.9,3.33A30.68,30.68,0,0,1,252.88,692c13.35,1.3,26.45,4.11,40.12,2.81,12.52-1.18,25.32.44,37.82-.86,12.72-1.33,25.24,1.24,37.86.19a15.13,15.13,0,0,1,7.23,1.3c6.45,2.91,12.94,3.29,19.88,2.28,4.15-.6,8.53.58,12.78.39,18.05-.8,36.1-1.94,54.16-2.71,8.19-.35,16.41,0,24.61-.2,17.83-.31,35.7-.08,53.48-1.24,20.33-1.31,40.82-.88,60.92-5.27,15-3.27,30.13-6,45.2-8.94a7.91,7.91,0,0,1,3.83-.08c6.19,2.07,12.18,5.49,18.5,6.26,10,1.21,14,7.31,15.91,15.68,3.1,13.49,13,19.77,24.79,23.93,4.59,1.62,9.61,2,14.76,3-32.11,24.15-67.79,43.8-102.61,66.41-2.33-4.78-3.92-8.95-6.27-12.63a177.76,177.76,0,0,0-12.59-17.91c-6.61-8-22.24-10.08-31-4.67-3.94,2.42-4.31,8.68-.55,11.36a45.93,45.93,0,0,0,7.26,4.33c1.45.68,3.27.57,4.92.81-.09-1.84-.12-3.69-.32-5.51-.07-.55-.62-1.05-1.3-2.13,6.56-1.65,11.5,1.27,14.67,5.31,5.46,7,9.71,14.84,14.52,22.3,2,3,.34,4.63-2.23,5.77-15.26,6.8-30.35,14.06-45.88,20.21-19.72,7.8-39.83,14.17-61.43,14.94-10.05.37-20.06,2.64-30,4.45-13.37,2.44-26.67,5.31-40,7.92-5.39,1.06-5.38.75-5.71-5.14-.78-13.67,4.67-25.85,9-38.26.85-2.43,3.38-4.48,5.54-6.21,6-4.76,12.18-9.22,18.23-13.89,1.11-.86,2.53-2.05,2.72-3.25.38-2.44.56-7-.14-7.17-3-.82-7.17-1.63-9.27-.13-5.95,4.24-11.19,9.51-16.5,14.61-3.22,3.08-5.86,6.77-9.07,9.87-7.08,6.84-7.45,16-8.79,24.76-1.15,7.51-1.88,15.09-3.2,22.57a5.6,5.6,0,0,1-3.67,3.65c-6.52,1.1-13.12,1.87-19.72,2.38C373.08,854.66,354.88,855.86,335,857.26Z"/><path class="cls-1" d="M311.79,244a38.73,38.73,0,0,1-.41-6.15c1.41-16,6.3-31.14,10.66-46.41,2.86-10,6.68-19.76,9.26-29.84,2.7-10.52,4.52-21.28,6.53-32,1.61-8.55,3.15-17.13,4.3-25.75a66.22,66.22,0,0,0-3-30.43c-1.29-3.75-5-6.69-7.65-9.92-.78-1-1.91-1.61-4.16-3.45,10.27-3.59,19.46-6.56,28.46-10,7-2.68,13.5-6.58,20.58-8.84a191.91,191.91,0,0,1,26.36-6.33c14.52-2.48,29.21-3.91,43.72-6.44C462.36,25.63,478.16,22.05,494,19c2.58-.5,5.59-1,7.87-.09,1.75.69,3.24,3.4,3.72,5.47.27,1.19-1.42,3.84-2.7,4.22-8,2.34-12.54,8.19-15.92,15.19-2.05,4.23-2.46,9.42-7.48,11.8-.46.22-.62,1.44-.63,2.19-.28,15.36-.59,30.71-.72,46.07-.09,11.27.25,22.54.07,33.8-.2,12-.84,23.91-1.17,35.87-.08,2.78.44,5.57.44,8.35q-.07,21.21-.29,42.43a37.53,37.53,0,0,1-.54,4.2c-7.31-.37-14.41-1.1-21.49-1-11.77.19-23.52,1-35.29,1.37-5.59.16-11.22,0-16.81-.35-3.08-.18-3.31-2.29-3-5.05,1-7.87,2.72-15.83,2.31-23.65-.76-14.47-3.17-28.84-4.24-43.31a201.36,201.36,0,0,1-.21-29.06c.71-10,1.84-20.1,4.46-29.7,4.17-15.24-1.69-28.06-7.59-41.13-.95-2.1-2.11-4.11-3.11-6.18-2.86-5.91-4.41-6.48-10.23-3.85-.79.36-2.11.69-2.66.3-5.32-3.82-7.44.83-8.76,4-3.74,9-7.61,18.11-9.73,27.56-1.6,7.14-1.26,14.94-.6,22.33,1.85,20.64.71,41.17-1.26,61.68-1.84,19.21-5.93,38-11,56.61-1.26,4.57-1.11,9.51-1.83,14.24-.17,1.09-1.07,2.69-2,2.93-9.71,2.67-19.49,5.12-29.26,7.6A18.23,18.23,0,0,1,311.79,244Z"/><path class="cls-1" d="M818,270.88c5.88,10.1,12.45,21.35,19.52,33.48-2.31,0-3.72.45-4.38-.07-9.58-7.42-21.56-6.62-32.43-9.51-12.55-3.32-25.26-6-37.91-9-11.9-2.75-23.87-5.19-35.7-8.22-16.46-4.2-32.85-8.7-49.2-13.32-5.69-1.61-11.17-3.95-17-6.06,2.47-4.52,4.85-9.34,7.64-13.91,8.08-13.27,12.57-27.56,12.74-43.13.09-8.34.46-16.71-.12-25-.3-4.34-2.53-8.52-3.59-12.85-1.72-7-3-14.18-4.8-21.17-5.32-20.23-10.83-40.4-16.24-60.6-.11-.41.14-.92.31-1.81,1.18.41,2.42.5,3.17,1.15,10.55,9.11,21.26,18,31.45,27.54a352.53,352.53,0,0,1,25.05,25.51c7.16,8.18,13.12,17.39,20,25.86,7.53,9.33,9.67,21.16,15.26,31.36,2.93,5.35,6.54,10.33,9.46,15.69,5,9.16,9.23,18.74,14.56,27.69,6.56,11,11.62,23.57,23.07,30.6C803.87,268.21,810.52,268.73,818,270.88Z"/><path class="cls-2" d="M490.06,73.83l10.17-2.34-2.52-4.14c-4.34-7.09-4.65-18.53.91-24.17,5.86-5.94,13.19-10.07,22.43-7.75a23,23,0,0,0,7.27.17c5.85-.46,10,2.72,13.14,6.84,8.56,11.28,14,24,14.86,38.25.54,9.54-.08,19.14.25,28.69.24,6.73,2,13.48,1.7,20.15-.76,15-2.41,30-3.68,45-.71,8.3-1.29,16.61-2.11,24.89-.31,3-1.44,6-1.7,9.06-.59,6.72-.91,13.47-1.25,20.21-.27,5.54-1.93,6.61-7.5,6.06-12.93-1.28-25.89-2.18-38.84-3.27-4.46-.37-8.91-.85-13.38-1.21-3.09-.25-4.32-1.79-4.19-4.91.41-10.07.83-20.14.91-30.22.05-6.94-.79-13.9-.63-20.84s1.34-13.92,1.62-20.9c.78-19.85,1.18-39.71,2.11-59.55.21-4.46-2.73-9.42,1.89-13.65C492.35,79.45,490.55,75.8,490.06,73.83Z"/><path class="cls-2" d="M673.46,193.26c-.35,13.8-1,27.49-7.93,40-4.47,8.14-10.86,14.44-18.3,19.69-1.24.88-3.79.21-5.65-.15-10.81-2.09-15.71-9.51-18.31-19.58-4.41-17.06-9.63-33.9-13.89-51-1.41-5.64-1-11.76-1.25-17.67-.34-7.78-.26-15.59-.84-23.35-1.45-19.18-3.15-38.34-4.83-57.5A14.72,14.72,0,0,0,601.18,79c-3.14-6.82-1.24-13.67-.28-20.52.07-.45.36-1.14.69-1.25,6.21-1.94,6.88-7.55,8-12.57.67-3.07,2-2.78,3.63-1.46,8.42,6.67,16.74,13.47,25.11,20.21,2.05,1.65,4.72,2.85,6.11,4.93,2.41,3.59,4.88,7.51,5.85,11.64,3.47,14.81,6.21,29.79,9.45,44.66,3.07,14.13,6.5,28.18,9.64,42.29,1.93,8.67,3.63,17.39,5.43,26.08Z"/><path class="cls-2" d="M849.37,237.24c-1,7.46-6.23,14.76-13.06,16.49a60.61,60.61,0,0,1-12.78,1.76c-1.48,0-3.42-1.56-4.47-2.92-8.82-11.53-17.49-23.18-26.21-34.79-9.61-12.78-19.57-25.33-28.73-38.43-6.57-9.41-11.39-20.09-18.25-29.26-9.22-12.32-19.82-23.59-29.5-35.58-6.66-8.25-12.45-17.2-19.15-25.42-12.25-15-24.88-29.71-37.34-44.54A59.19,59.19,0,0,0,630,25.13c-3.33-.92-7.26.53-10.85.19a22.14,22.14,0,0,1-8.21-2.55c-3.46-1.88-6.17-5.75-10.9-2.26-.65.48-3.85-1-4.38-2.27s.43-3.82,1.58-4.74c10.24-8.2,21.8-7.55,33-3.11,10,4,20.08,8.43,27.55,16.74,3.3,3.67,6.2,7.71,9.29,11.56,6.85,8.51,14.15,16.34,24.22,21.4C707,68,722.5,76.46,738.05,84.79,756,94.38,765.88,110,770.12,129.31c3.89,17.76,10.9,33.41,26.12,44.48,6.91,5,14,10,20.09,15.9s11.25,12.83,16.7,19.41c3.57,4.32,7.46,8.52,10.26,13.32C846,227,847.39,232.28,849.37,237.24Z"/><path class="cls-1" d="M194.2,161.33c-.49,10.4-.41,20.86-1.61,31.17-2.43,21-5.14,42-8.55,62.91a211.42,211.42,0,0,1-8.24,32.43,101.5,101.5,0,0,0-5.15,28.45,9,9,0,0,1-2.53,6c-3.7,3.18-8,5.6-12,8.55s-7.28,6.11-11,9c-9,7-18.45,13.5-27.21,20.79-6.61,5.49-12.43,11.92-18.66,17.87a50.15,50.15,0,0,1-4.5,3.41c-3.21-3.37-3.12-7.13-2.24-10.79,3.27-13.47,6-27.15,10.31-40.27,5.18-15.67,11.39-31,18-46.19,5.1-11.7,11.62-22.76,17.28-34.22,5.15-10.45,9.7-21.2,15.07-31.52,4.33-8.33,9.38-16.3,14.32-24.3,6-9.73,12.1-19.42,18.51-28.89,1.59-2.34,4.57-3.74,6.91-5.58Z"/><path class="cls-2" d="M183.68,154.31c-3.77,5.05-7.7,10-11.27,15.19-7.11,10.33-14.16,20.71-20.95,31.25a169.19,169.19,0,0,0-9.75,17.32c-2.53,5.17-7.06,7.5-11.92,9-9.8,3-16.5,9.49-21.43,18-3.28,5.71-6.31,11.58-9.2,17.51-1.12,2.3-1.12,5.16-2.3,7.42-6.37,12.19-13,24-22.12,34.7-8.53,9.95-18.44,17.74-29,24.7-7.16,4.73-15.87,7.51-24.25,9.86-7.08,2-9.55-1.66-6.52-8.61,5.23-12,10.29-24.08,16.25-35.71q11.34-22.08,24.12-43.43A212.13,212.13,0,0,1,74,225c4.78-5.76,11.11-10.31,17-15a218.29,218.29,0,0,1,19.61-14.26c12.69-7.92,25.69-15.35,38.59-22.92q13.28-7.8,26.67-15.42c2.36-1.34,4.87-2.44,7.31-3.65Z"/><path class="cls-1" d="M309.63,73.21c-5.12,10.06-10,19.18-14.45,28.48-7,14.46-12.8,29.34-16,45.17-2.41,11.82-5.33,23.53-7.86,35.32-.76,3.54-.84,7.23-1.48,10.8-.82,4.54-2.32,9-2.77,13.57-.8,8.15-1,16.36-1.52,24.55-.55,9.5-1.08,19-1.65,28.5-.2,3.32-1.59,5-5.24,6-3,.86-5.18,4.21-7.87,6.27A74,74,0,0,1,242,278c-5.09,2.86-10.38,5.34-15.87,8.13-2.79-2.1-3.88-4.93-3.94-9-.17-11.73.22-23.7-1.95-35.13-2.44-12.81,1.86-23.78,5.48-35.21,3.13-9.9,6.42-19.75,9.53-29.65,2.81-8.94,6.5-17.75,7.95-26.92,2-12.46,1.89-25.22,3.31-37.79.3-2.65,2.77-5.69,5.09-7.36,10.43-7.49,20.91-15,31.89-21.63C291.05,78.93,298.4,73.16,309.63,73.21Z"/><path class="cls-1" d="M613.57,244.53c-17.52-2.63-34.6-5.21-51.69-7.75-6.31-.93-6.09-.84-5.37-7.24,1.49-13.18,2.58-26.41,4.08-39.6s3.64-26.26,4.84-39.45c.89-9.9.77-19.9,1-29.86.3-11.54.36-23.09.87-34.63.37-8.5,1.25-17,2-25.46a31.38,31.38,0,0,0-5.84-21.17c-2.12-3-5.83-6-9.27-6.66-6.87-1.37-12.74-4.72-19.1-7.07-4.67-1.74-9.94-1.84-14.88-2.95-1.51-.34-2.81-1.62-4.22-2.47,1.1-1.07,2.15-3,3.31-3.07a73,73,0,0,1,13.31.13c12.65,1.47,25.29,2.48,37.67,6.37,8.57,2.69,17,5.18,24.72,9.85,4,2.37,4.56,4.75,2.5,8.47-1.77,3.18-3.29,6.52-5.2,9.61-.56.9-2,1.32-3.18,1.77-2.87,1.13-4.25,3.07-3.63,6.21,1.69,8.61,2.33,17.59,5.28,25.75,6.47,17.87,5.73,36.46,7,54.83s1.56,36.73,2.88,55.05c.37,5.13,2.9,10.09,4.35,15.15.72,2.52,1.14,5.13,1.84,7.66,2.09,7.44,4.28,14.85,6.33,22.29A22.3,22.3,0,0,1,613.57,244.53Z"/><path class="cls-3" d="M521,673c-12,1-24,2-35.93,3.14a58.64,58.64,0,0,0-10.15,2.23c-12.08,3.43-24.31,3.88-36.82,3.31s-25.3.43-37.95.43c-8.14,0-16.54.65-24.34-1.12-11.48-2.61-20.76-9.63-27.61-19.39a12.5,12.5,0,0,1-1.61-5.15c-.46-3,1-4,4.07-3.88,7.32.33,14.78-.46,21.95.66a29.61,29.61,0,0,1,14,6.38c3.22,2.76,6.11,3.08,8.86,1.59,5.3-2.88,10.35-2.75,16.2-2.13,8.36.88,16.92-.32,25.4-.3,5.62,0,11.59-1.26,16.38,3.33,3.12,3,6.48,1.76,9.45-.2,6.57-4.35,13.89-4,21.29-4.15,7-.18,14.07-1.23,21.09-2.06,19.51-2.3,37.83-9.25,56.57-14.59,6.46-1.85,13.07-3.3,19.35-5.63,5.87-2.18,11.23-5.73,17.09-7.92,9.73-3.63,19.58-7,29.58-9.81,6.24-1.73,9.7,1.84,10.7,8.25,1.48,9.58-2.62,15.57-10.69,20.08-6.53,3.65-12.42,8.49-19,12a53,53,0,0,1-15.74,5.67c-15.16,2.57-30.46,4.36-45.69,6.54-8.77,1.26-17.52,2.68-26.27,4Z"/><path class="cls-2" d="M275.6,257.88c-.4-4.64-1.4-8.88-1.05-13,4.56-53.24,11.46-106,35.47-154.74,2.2-4.47,5.22-8.53,8-13,3.34,2.81,5.8,5.06,6.81-.43.12-.69,1.64-1.82,1.93-1.67,1.68.9,4,1.82,4.59,3.31,1.52,4.13,3,8.52,3.18,12.87.63,13.38-2.23,26.34-5.6,39.23-1.67,6.42-2.36,13.09-4.07,19.5-2.54,9.55-5.84,18.89-8.36,28.45C312.11,194.9,308,211.43,304,228a57.6,57.6,0,0,0-1.2,11.82c-.15,5.8-3.25,8.66-8.47,10.45C288.47,252.26,282.79,254.92,275.6,257.88Z"/><path class="cls-1" d="M735.62,720.65c-1.31-2.76-2.94-3.81-7-3.32-14.77,1.78-31.58-10-36.22-24.21-.77-2.36-1.52-4.74-2.5-7-2.2-5.17-4.45-10.37-11.57-9.87-.87.06-1.77-.36-4.17-.89,31-11.84,61.47-21.08,89.17-39.26-.45,17,4.45,30.13,18.41,39.34C768.26,692.39,754.33,708.85,735.62,720.65Z"/><path class="cls-3" d="M590.12,556.26c-.33,2.63-.16,4-.69,5-5,9.56-10,19.15-15.32,28.51-2.26,3.94-5,7.4-11,6.31-2-.36-6.12-.09-7.36,4-.34,1.1-3,1.64-4.72,2.15-8,2.39-16.09,4.57-24.07,7.07-3.29,1-6.34,2.85-9.59,4.05-2.19.81-4.25,2.82-6.54-1-1.6-2.64-7.42.49-9.05,5.45-18.61.56-37.56.9-56.48,1.78-16,.73-31.19-2.66-46.46-6.61-10.23-2.65-20.68-4.4-31-6.57-7.76-1.62-15.51-3.31-23.29-4.88-5.36-1.09-7.7-4.92-6.09-10.23,4.24-14,19.64-18.37,30.91-9.21,13.25,10.78,28.46,17.59,45,21.93,9.88,2.59,19-1.16,28.51-1.16,1,0,1.95-.49,2.93-.49,13.35-.09,26.73.46,40-.31,19-1.1,37.54-4.7,55.37-12.31,13.41-5.71,24.67-14.08,35.77-23C581,563.49,585,560.33,590.12,556.26Z"/><path class="cls-2" d="M353.77,229.43c.89-1.5,2-2.66,2.32-4,2.71-10.9,5.66-21.76,7.78-32.78,2-10.49,3.51-21.12,4.5-31.76,1.26-13.5,2.16-27,2.5-40.6.27-11.24-1-22.53-.63-33.76.24-7.2,1.94-14.41,3.6-21.47.69-2.93,2.64-4.11,6.91-3.92,7.44.35,8.55,4.9,9.87,10,1.46,5.59,3,11.23,3.63,16.95.37,3.61-.94,7.41-1.59,11.11-1.29,7.47-3.79,14.93-3.74,22.39.09,15.19,1.51,30.37,2.44,45.55.81,13.23,1.92,26.43,2.47,39.66a128,128,0,0,1-.89,19.17c-.15,1.35-2.61,3.29-4.19,3.48-5.4.67-10.92.43-16.34,1a65,65,0,0,0-10.55,2.46C358,234,354.85,234,353.77,229.43Z"/><path class="cls-2" d="M180.78,311.91c.74-4.34,1.11-8.12,2-11.76,2.67-10.39,5.79-20.68,8.28-31.11,1.49-6.21,2.18-12.62,3.11-19q2.28-15.51,4.39-31c.48-3.45.69-6.93,1.16-10.38,1.05-7.67,2.65-15.3,3.17-23,.6-8.86.4-17.79.34-26.68-.06-9.35,1.8-18,8.42-25,.23-.24.57-.37.79-.61,5.44-5.77,5.44-5.77,11.81-1.74l11.87-6c-.69,6.58-.56,13.23-2.19,19.41-4.3,16.43-9.27,32.69-14.16,49-2.61,8.68-6.16,17.11-8.22,25.91-1.27,5.42-.65,11.31-.68,17,0,8.09-.31,16.2.25,24.25a177.48,177.48,0,0,0,3.21,24.1c1.46,7,1.77,7.45-4.05,11.09-8.26,5.16-16.46,10.42-24.82,15.41C184.3,312.52,182.31,311.91,180.78,311.91Z"/><path class="cls-4" d="M572.84,604.89c14.31-11.47,19.41-28.59,26.24-46.09,6.83,6.46,13.15,11.69,18.55,17.75A192.63,192.63,0,0,1,633.15,597c1.78,2.63,2,6.3,3,9.43a200.9,200.9,0,0,0-39.52,11.48c-16.43,6.67-33.35,12.14-50.16,17.85-9.84,3.34-19.86,6.17-30.46,9.43-1.72-5.76-3.19-11.56-1.84-17.62.24-1.13,2-2.25,3.3-2.77,9.93-4,19.84-8.07,29.94-11.6,3.83-1.34,8.13-1.51,12.24-1.78a5.72,5.72,0,0,1,4.1,1.91,93.26,93.26,0,0,1,6.58,9.17c2.18,3.36,4.49,2.86,7.59,1.16,3.52-1.92,1.43-3.37.42-5.47C576.31,614,574.77,609.67,572.84,604.89Z"/><path class="cls-2" d="M488,241.77c17.14,1.68,33.71,3.28,50.28,4.93,6.79.68,7,1.38,4.64,7.61-3.26,8.77-9.64,14.94-15.93,21.44-6.85,7.08-14.39,12.93-23.47,16.65-7,2.88-11.56-.47-12.12-8-.91-12.29-2.27-24.54-3.38-36.81C487.87,245.72,488,243.8,488,241.77Z"/><path class="cls-1" d="M838.43,574.66c.14.77.65,1.74.36,2.26-9,16.15-15.47,33.59-26.9,48.55-6.4,8.37-10.23,18.71-15.33,28.1a77.09,77.09,0,0,1-5.82,9.2c-.65.89-2.82,1.73-3.5,1.31-2.48-1.53-5.7-3.16-6.7-5.56-2.89-6.94-4.87-14.26-7.15-21.44-1.95-6.11,2.43-8.9,6.38-11.84,12.41-9.22,25.07-18.13,37.17-27.75,4.74-3.77,8.3-9,12.29-13.73,2.72-3.2,5.26-6.55,7.89-9.84Z"/><path class="cls-2" d="M346.36,269.68c1.14-6.64,1.81-13.41,3.56-19.89,1.51-5.63,7.42-6.49,11.95-7.23,8.14-1.32,16.5-1.44,24.77-1.81,5.24-.24,6,.9,4.48,5.77-2.13,6.8-3,14.48-6.85,20.14-4.89,7.21-11.73,13.35-18.58,18.91-12.29,10-18.69,0-18.91-11.32,0-1.5,0-3,0-4.49Z"/><path class="cls-2" d="M302.19,258.3c-1.17,9.9-2.28,18-3.07,26.2-.82,8.65-12.43,23-22.8,25.41-7.83,1.81-13.08-2.4-12.22-10.8.69-6.7-.39-14.16,5-19.79a2.09,2.09,0,0,0,.64-1.3c-.27-10.77,8.09-12.83,15.73-15.35C290.45,261,295.6,260,302.19,258.3Z"/><path class="cls-4" d="M380.25,620.72c.36,8.08.74,16.52,1.15,25.65-14.48.14-28.06.57-41.35-2.43-8.4-1.89-9.64-4.13-9.21-11.28a6.29,6.29,0,0,1,1-.11l7.84.46c.08-3.15,1-6.62.05-9.38-1.88-5.18-1.38-6.16,3.07-8.93s8.54-2.53,13.13-1.11C363.9,616.07,372,618.32,380.25,620.72Z"/><path class="cls-4" d="M449.51,630.66c-.61,5.67-1.06,11.05-1.9,16.38-.15.9-2,2.24-3,2.2-11.92-.41-23.83-1.16-35.74-1.56-3.53-.11-7.13,1.09-10.63.8-7.65-.62-9.28-2.46-9.33-10,0-4,.63-7.91.91-11.87.26-3.62,2.29-5.13,5.68-4.49,5.66,1.06,11.22,2.7,16.9,3.53,11.4,1.67,22.86,3,34.29,4.41C447.31,630.17,448,630.34,449.51,630.66Z"/><path class="cls-4" d="M485.21,647.72c-7.54.88-15.15,1.42-22.61,2.79-3.4.62-5-.26-5-3.24a76.2,76.2,0,0,1,1.31-13.73c.25-1.31,2.4-2.89,3.92-3.22a80.84,80.84,0,0,1,13.65-1.92c7.69-.31,15.41,0,23.1-.2,4-.12,4.52,1.75,3.87,4.91a27.55,27.55,0,0,0-.8,3.88c-.64,9.73-.61,9.76-10.46,10.92-2.28.27-4.6.27-6.9.4Z"/><path class="cls-1" d="M826.78,416.82c5.45-4,9.65-3.91,14.19-.85a4.62,4.62,0,0,0,3.94.38c3.49-1.79,6.67-4.19,10.16-6,1.6-.82,3.69-.63,5.47-1.17a11.78,11.78,0,0,0,4-1.93c1.94-1.58,3.65-3.45,6.41-6.12,1.35,8.26,2.54,15.12,3.49,22,.12.82-.85,2.06-1.64,2.69-10,8.05-27.37,7.81-37.24-.58C832.58,422.76,829.94,419.9,826.78,416.82Z"/><path class="cls-1" d="M109.84,638.38c-.92-6.37-1.93-12.72-2.73-19.11-.76-6,.83-7.68,6.17-5a97.28,97.28,0,0,1,18.52,12.44c4.89,4.14.8,9.38-1.3,13-3.63,6.21-8.71,11.61-13.35,17.21-2,2.45-4.15,1.5-4.73-1.13-1.27-5.73-2-11.57-3-17.37Z"/><path class="cls-3" d="M642.67,648.84v21.87c-23.7,4.45-47.81,10.59-72.94,9.85,12.92-3.45,26.1-5.18,38.5-10.87A176.47,176.47,0,0,0,642.67,648.84Z"/><path class="cls-2" d="M214.84,305.9c3.92,15.57-6.79,28.81-19.29,31-2.64.47-5.93-1.89-8.7-3.37-1.16-.62-1.5-2.63-2.61-3.53-3.36-2.73-2.37-5.44.37-7.34,6.47-4.51,13.1-8.81,19.91-12.78C207.63,308.07,211.31,307.23,214.84,305.9Z"/><path class="cls-2" d="M675.94,76.89c-17.75-9.67-29.46-25.47-43.75-38.58l1.06-1.64c2,.35,4.55.06,6,1.17,6,4.75,12.19,9.5,17.47,15,6.14,6.43,11.42,13.67,17,20.58A37.28,37.28,0,0,1,675.94,76.89Z"/><path class="cls-2" d="M229.51,103.83c2,1.91,3.82,2.89,4.05,4.15.19,1-1.28,2.87-2.47,3.57a65.84,65.84,0,0,1-10.47,5.2c-1.38.51-3.32-.49-5-.8.31-1.51.11-3.78,1-4.42C220.58,108.8,224.84,106.56,229.51,103.83Z"/><path class="cls-2" d="M805.23,253.26c-11-4.42-14.12-15-20.26-24.12,3.79,0,5,1.83,6.63,4.33,3.76,5.95,8.2,11.47,12.32,17.19A18.07,18.07,0,0,1,805.23,253.26Z"/><path class="cls-4" d="M328,618.58c-4.79-5.58-2.19-12-1.71-18.11,0-.45,1.49-1,2.33-1.07.31,0,1,1.17,1.05,1.83.08,5.7,0,11.41,0,17.12Z"/><path class="cls-2" d="M190.58,145.79c-2-1.55-2.58-7.08-.66-8.35,2.12-1.38,4.67-2.08,7-3.08a51.18,51.18,0,0,1-2.59,7.19C193.51,143.18,191.87,144.4,190.58,145.79Z"/><path class="cls-2" d="M330,843.6c-.74,4.11-.94,7-1.9,9.67-.42,1.17-2.3,1.93-3.65,2.59-.39.18-1.27-.65-1.92-1,.64-1,1.25-2.08,1.92-3.08C326,849.41,327.64,847.07,330,843.6Z"/><path class="cls-4" d="M628.8,609.88l14.43-2.39.22,1.55-14.15,3.08Z"/><path d="M719.28,496.83c5.77-2,10.24,6.13,16.85,9.23,10.87,5.08,21.72,10.21,32.72,15,5.44,2.37,11.34,3.69,16.77,6.08,9.18,4,17.45,1.27,25.74-2.55,10.64-4.91,21.28-9.85,29.81-18.15,3.82-3.72,8.56-6.89,8.88-13.18,0-.52,3.54-1.52,5.1-1.09,1.23.34,3,2.85,2.71,3.83a31.69,31.69,0,0,1-4.12,7.82c-6.23,9.38-15.3,15.47-24.87,20.84-10.51,5.9-20.92,12.43-33.17,13.88a33.08,33.08,0,0,1-14.46-1.66c-15.9-5.62-31.62-11.78-47.31-18a38.43,38.43,0,0,1-9.2-5.7c-11.37-8.94-26.8,1.65-28.45,13.29a22,22,0,0,1-3.24,8.67c-.89,1.36-3.55,1.56-5.41,2.28-.5-1.73-1.38-3.44-1.44-5.19a41,41,0,0,1,4.14-19.52C695.45,502.32,705.25,498.93,719.28,496.83Z"/><path d="M691.71,414.77c-.41,3-3.68,4.2-6.6,3.3-11.46-3.54-23.78-3.25-34.83-8.89-6.36-3.25-12.72.55-18.76,3.35-11.63,5.4-23.79,8.53-36.16,3.33-3.93-1.64-6.49-6.32-10-9.27-5.75-4.88-3.29-10.79-1.76-16.09a217.62,217.62,0,0,1,9.86-28c2-4.4,6-8,9.61-11.53,6.78-6.68,13.44-13.6,21-19.36,8.84-6.78,19.7-9.19,30.55-11,9.45-1.55,18.89-3.76,28.4-4.11,7.41-.27,15.1,1.16,22.32,3.11a193.73,193.73,0,0,1,27.07,9.56,40.7,40.7,0,0,1,24.24,29.29c1.08,4.72,2,10.08-1.49,15.31-3,4.4-4,10.13-5.8,15.29-2.61,7.45-9.12,10.72-15.37,14.1-5.46,2.95-11.16,5.46-16.83,8a36,36,0,0,1-7,2.25c-4.2.94-8.43,1.79-12.69,2.32C695.86,416,694.09,415.24,691.71,414.77Zm21.92-12.65.27-2c-2.63-.86-5.31-1.57-7.87-2.6-9.66-3.91-12.58-7.8-9.5-18.56a16.56,16.56,0,0,1,5.29-8.16c7.53-5.77,15.5-11.06,25-13.09,5.59-1.19,11.28-2,17.47-3-2.91-5.15-5.88-9.88-11.39-12.62a150.43,150.43,0,0,0-33.61-12,87.8,87.8,0,0,0-34-1.17c-3.18.5-5.25,1.77-6,5.48-.46,2.16-3,3.87-4.68,5.79l-5.29-5.56c-1.89.44-4.89,1.25-7.92,1.84-13.69,2.66-18.08,7.23-20.38,20.68-.35,2-2.13,3.75-3.25,5.61l-1.8-.59-.81-8.23-2-1.56c-.84,1.63-1.34,3.59-2.56,4.86-8.8,9.17-13.38,20.1-14.73,32.66-1.06,9.9,5,16.87,14.85,15.15,6.86-1.2,14.11-3.06,20-6.64,9.62-5.92,18.79-6.2,28.72-2a85,85,0,0,0,11.07,4.25c4.75,1.27,9.84,1.38,14.48,2.93C695,407,704.06,402.35,713.63,402.12Z"/><path d="M189.42,421.3c1.11-13.73,4-26.87,11.24-39.29a170.78,170.78,0,0,1,18.19-25.33c.86-1,1.63-2.29,2.74-2.85,5-2.49,5.95-6.67,6-11.77,0-3.9,3.53-4.36,6.56-4.51,4.1-.19,8.22.14,12.3-.18,19.69-1.53,37.4,5.45,55.38,12,8.62,3.13,18,4.43,27.08,6,8.53,1.45,17,2.4,24.45,7.55,7.75,5.38,11.83,16.83,10,26.21-2.53,12.81-10.9,21.58-20,29.44-10.44,9-21.65,17.24-35.64,20.13-6.49,1.34-13.05,2.33-19.6,3.39-8.83,1.43-17.82,2.17-26.47,4.33-7.81,1.94-15.06,6.09-22.87,8-16.67,4.08-32,1.76-43.88-12.12C189.73,436.28,190.17,428.74,189.42,421.3Zm26.9-45.72-1.41-.95c-1.73,2.39-3.65,4.67-5.17,7.19-6.22,10.35-8.05,22-9.13,33.7-.33,3.66-.52,7.85.9,11.06,6.26,14.25,20.55,19.66,35.32,17.13,6.8-1.17,13.35-3.85,20-5.93,5.51-1.73,10.87-4.16,16.49-5.28,11.83-2.34,23.91-3.47,35.63-6.2,7.17-1.66,14.91-4.05,20.51-8.49,8-6.32,14.68-14.46,21.07-22.5,7.89-9.91,4.76-20.35-7.27-24.48-7.3-2.51-15.08-3.65-22.67-5.23-10.65-2.21-21.71-2.51-31.43-8.62-3.78-2.38-8.79-4.19-13.1-3.94s-7.46-1.07-11.23-2.26c-4.77-1.5-10.08-1.29-15.15-1.82-.43.71-.87,1.41-1.3,2.11,10.32,1.83,11.34,9.38,11.53,16.93.08,3.2-.84,7.11-2.76,9.55-4.62,5.85-10,11.1-15.29,16.4a5.55,5.55,0,0,1-4.14,1.34c-4.06-.56-8.28-1-12-2.59-2.31-1-4.41-3.54-5.58-5.9C218.38,383.3,217.54,379.34,216.32,375.58Zm36.9-6.81c-3.41-2.34-5.24-4.35-7.44-4.92-3-.79-6.73,2.63-5.93,5.5.54,1.94,3.25,4.95,4.4,4.7C247,373.47,249.3,371.23,253.22,368.77Z"/><path class="cls-5" d="M713.63,402.12c-9.57.23-18.67,4.84-28.67,1.49-4.64-1.55-9.73-1.66-14.48-2.93a85,85,0,0,1-11.07-4.25c-9.93-4.23-19.1-3.95-28.72,2-5.84,3.58-13.09,5.44-20,6.64-9.83,1.72-15.91-5.25-14.85-15.15,1.35-12.56,5.93-23.49,14.73-32.66,1.22-1.27,1.72-3.23,2.56-4.86l2,1.56.81,8.23,1.8.59c1.12-1.86,2.9-3.61,3.25-5.61,2.3-13.45,6.69-18,20.38-20.68,3-.59,6-1.4,7.92-1.84l5.29,5.56c1.63-1.92,4.22-3.63,4.68-5.79.79-3.71,2.86-5,6-5.48a87.8,87.8,0,0,1,34,1.17,150.43,150.43,0,0,1,33.61,12c5.51,2.74,8.48,7.47,11.39,12.62-6.19,1-11.88,1.81-17.47,3-9.52,2-17.49,7.32-25,13.09a16.56,16.56,0,0,0-5.29,8.16c-3.08,10.76-.16,14.65,9.5,18.56,2.56,1,5.24,1.74,7.87,2.6Z"/><path class="cls-6" d="M216.32,375.58c1.22,3.76,2.06,7.72,3.8,11.22,1.17,2.36,3.27,4.93,5.58,5.9,3.72,1.55,7.94,2,12,2.59a5.55,5.55,0,0,0,4.14-1.34c5.27-5.3,10.67-10.55,15.29-16.4,1.92-2.44,2.84-6.35,2.76-9.55-.19-7.55-1.21-15.1-11.53-16.93.43-.7.87-1.4,1.3-2.11,5.07.53,10.38.32,15.15,1.82,3.77,1.19,6.92,2.52,11.23,2.26s9.32,1.56,13.1,3.94c9.72,6.11,20.78,6.41,31.43,8.62,7.59,1.58,15.37,2.72,22.67,5.23,12,4.13,15.16,14.57,7.27,24.48-6.39,8-13.1,16.18-21.07,22.5-5.6,4.44-13.34,6.83-20.51,8.49-11.72,2.73-23.8,3.86-35.63,6.2-5.62,1.12-11,3.55-16.49,5.28-6.63,2.08-13.18,4.76-20,5.93-14.77,2.53-29.06-2.88-35.32-17.13-1.42-3.21-1.23-7.4-.9-11.06,1.08-11.74,2.91-23.35,9.13-33.7,1.52-2.52,3.44-4.8,5.17-7.19Z"/><path class="cls-4" d="M253.22,368.77c-3.92,2.46-6.27,4.7-9,5.28-1.15.25-3.86-2.76-4.4-4.7-.8-2.87,2.89-6.29,5.93-5.5C248,364.42,249.81,366.43,253.22,368.77Z"/></g></g></svg>