<svg xmlns="http://www.w3.org/2000/svg" viewBox="0 0 1092.71 531.3"><defs><style>.cls-1{fill:#29235c;}.cls-2{fill:#7d4e24;}.cls-3{fill:#fff;}.cls-4{fill:#cac584;}.cls-5{fill:#cad400;}.cls-6{fill:#1d1d1b;}.cls-7{fill:#e30613;}.cls-8{fill:#b17f4a;}</style></defs><g id="Warstwa_2" data-name="Warstwa 2"><g id="Warstwa_1-2" data-name="Warstwa 1"><path class="cls-1" d="M830.3,457.6c-2.92-1.82-5.23-4.61-7.81-7-.13-.12-.36-.25-.35-.36.19-4.5-3.94-4.83-6.47-6.63-5.71-4.09-11.54-8-17.23-12.11a25,25,0,0,1-3.83-3.8c-3.16-3.52-6.75-5.19-11.55-3.42-1.38.51-3.08.12-4.61.27-2.15.21-4.27.66-6.42.79a24.65,24.65,0,0,1-4.18-.35,23.12,23.12,0,0,0-3-.38c-6.9.12-12.95-2.67-19-5.42-1.9-.87-3.94-1.45-5.91-2.17-4.26-1.54-8.65-1.49-13.07-1.19-5.85.38-11.71.63-17.55,1.11a13.79,13.79,0,0,1-9.28-2.79,32.48,32.48,0,0,0-19.71-6.08c-6.1.13-11.68-2.37-17.73-1.89-4.7.38-9.1-1.51-13.19-3.7-5.58-3-10.83-6.71-16.6-9.28a106.37,106.37,0,0,0-15-5.46c-7.67-2.11-15.29-2.18-23-1.95-4.26.13-8.52,1.12-12.73,1.91s-8.29,1.81-12.55,2.75a26.16,26.16,0,0,1-1.35-2.9,6.27,6.27,0,0,1-1.28-.3c-.57-.2-1.12-.43-1.71-.58a.62.62,0,0,1-.32-.22c.1,8,.3,16.09-.18,24.11-.33,5.48-1.12,11.19-4,16.24-.94,1.62-1.19,3.62-1.8,5.44a22.43,22.43,0,0,1-5.53,9.13A36,36,0,0,1,543,449c-5.39,2.45-10.85,4.38-16.93,4.61-4.88.2-9.73,1.28-14.59,2a4,4,0,0,1-1.09.05c-6.9-1-13.68.71-20.45,1.32-13.11,1.19-26.22,1.21-39.34,1.53-4.22.11-8.45,1.07-12.65.94a134.14,134.14,0,0,1-17.67-1.72c-2.74-.46-5.26-2.26-7.88-3.47-.3-.13-.77-.53-.82-.47-2.14,2.13-3.82-.23-4.76-1.09-4.75-4.3-10.55-6.82-16-10-4.6-2.71-9.63-4.8-13.93-7.9s-7.91-7-11.66-10.66a38,38,0,0,1-6.34-7.33c-2.6-4.37-4.11-9.41-6.93-13.6-3.38-5-3.36-10.95-5.57-16.24-.9-2.16-1-4.68-1.3-7.05-.47-3.74-.94-7.49-1.14-11.25-.15-2.58-1.19-5.12-.21-7.81.27-.75-.68-1.95-1.27-3.45-4.91,2.51-9.35,5-13.94,7.08-2.87,1.33-6,2-8.92,3.26q-14.7,6.39-29.28,13c-5.5,2.49-10.93,5.13-16.35,7.79-2.84,1.39-5.55,3-8.39,4.42s-6.08,2.08-8.56,3.88c-4.46,3.23-9.91,4.54-14.15,8.33s-9.11,6.29-13.66,9.45c-1.72,1.19-3.23,2.67-4.92,3.9-4.36,3.18-8.8,6.24-13.15,9.44-5.65,4.16-11.26,8.38-16.86,12.6-5.39,4.06-10.69,8.23-16.14,12.22-6.36,4.65-12.85,9.14-19.26,13.72-1.84,1.32-3.65,2.68-5.41,4.11q-7.8,6.33-15.56,12.75-3.42,2.83-6.73,5.81a6.35,6.35,0,0,0-1,1.66c.6.25,1.24.79,1.8.71,3.57-.48,7.12-1.09,10.68-1.66.45-.08.89-.19,1.34-.23,6.45-.59,12.89-1.24,19.34-1.72s13.05-.34,19.46-1.28c10.81-1.58,21.7-1.41,32.52-2.29,6.94-.56,13.83-2.25,20.88-2.51,3.3-.13,6.57-.81,9.87-1,6.61-.46,13.22-.78,19.82-1.18,5.52-.33,11.09-.33,16.54-1.11a248.46,248.46,0,0,1,30.82-2.26c2.91-.06,5.83-.14,8.73-.35,4.42-.3,8.95-.19,13.2-1.22,8.91-2.15,18-2.58,27-3.25q9.75-.74,19.5-1.6c7.79-.69,15.57-1.51,23.36-2.15,5.19-.42,10.39-.91,15.58-.85,12.36.13,24.71.73,37.06.76,2.92,0,5.85.15,8.76.07,6.92-.17,13.87-.41,20.75-1.15,4.73-.51,9.38.22,14.08.09,9.92-.27,19.91.64,29.76-.26a274.29,274.29,0,0,1,29.64-.63c5.49.1,11,1.2,16.43,1.8,1.44.15,2.91.05,4.36.15,5.58.37,11.25.3,16.72,1.28,11.65,2.1,23.34.59,35,.95,10.19.32,20.39,0,30.58.18,5.6.11,11.19.9,16.79,1.18,2.57.13,5.16-.38,7.74-.33,5.14.11,10.28.35,15.42.67,2.58.17,5.15,1,7.71.91,11.74-.27,23.46-.75,35.19-1.14,8.25-.28,16.5-.78,24.75-.73,9.32.06,18.63.57,27.94,1,5.78.27,11.56.73,17.33,1.15q5.65.42,11.3,1c2.93.29,5.84.89,8.78,1a42.47,42.47,0,0,0,6.65-.82c-1.37-2.15-2.52-3.66-3.35-5.32A26.37,26.37,0,0,0,830.3,457.6Z"/><path d="M1092.52,464.83c-1.11.25-2.23.43-3.31.78-.44.14-.72.83-1.17.95-6,1.66-12,3.64-18.35,3.31-1.84-.1-3.64-.84-5.48-1-6-.45-12.09-1-18.14-1-5-.05-10,.6-15.07.81-3.76.16-7.53.11-11.29.16-14.55.21-29.1.33-43.65.65-10.18.22-20.36.71-30.54,1.08-.91,0-1.82,0-2.73.13-5.66.59-11.32,1.54-17,1.73-10.35.33-20.73.16-31.09.33-2.13,0-4.24.89-6.37.94-5.56.14-11.12,0-16.68.06-4,0-8.16-.29-12.11.34-7.28,1.16-7.71,1.68-10.92-3.94a64,64,0,0,1-3-6.76c3.57.4,6.66.66,9.72,1.12,1.55.24,3.37.46,4.51,1.38,2,1.58,3.11.37,3.9-.87,1-1.59-.22-2.7-1.69-3.22-3.51-1.26-7.1-2.29-10.57-3.65-5.28-2.07-9.46-5.61-13.33-9.74-2.52-2.7-5.41-5.54-8.71-6.89a73,73,0,0,1-15.5-8.84c-4.1-3-8.13-6-12.16-9.08s-8.11-5.72-13.47-5c-2.21.28-4.42,1-6.61.93-4-.08-7.89-.77-11.84-.85a36.91,36.91,0,0,1-15.06-3.92A56.21,56.21,0,0,0,745,411c-4.06-1-8.28-1.49-12.44-2.18-.17,0-.35.09-.53.12a118.19,118.19,0,0,1-11.89,1.82c-3.19.19-6.42-.52-9.64-.77-4.7-.38-8-3.73-11.91-5.68-1.94-1-3.86-2.28-5.93-2.62-4.25-.69-8.59-.82-12.89-1.21-5.89-.53-11.92-.51-17.64-1.81a79.36,79.36,0,0,1-16-6c-4.85-2.29-9.18-5.63-14-7.95-7.17-3.44-15.07-5-22.82-5.76-7.92-.74-16,.48-24,.85a2,2,0,0,0-.54.09c-4.35,1.06-8.7,2.11-13,3.23a6.31,6.31,0,0,0-2.36,1.1,3.28,3.28,0,0,0-1.33,2l.12,0,.11,0,.43,0a.67.67,0,1,1,0,1.33,5.14,5.14,0,0,1-.55-.06,26.16,26.16,0,0,0,1.35,2.9c4.26-.94,8.38-2,12.55-2.75s8.47-1.78,12.73-1.91c7.7-.23,15.32-.16,23,1.95a106.37,106.37,0,0,1,15,5.46c5.77,2.57,11,6.28,16.6,9.28,4.09,2.19,8.49,4.08,13.19,3.7,6-.48,11.63,2,17.73,1.89a32.48,32.48,0,0,1,19.71,6.08,13.79,13.79,0,0,0,9.28,2.79c5.84-.48,11.7-.73,17.55-1.11,4.42-.3,8.81-.35,13.07,1.19,2,.72,4,1.3,5.91,2.17,6.09,2.75,12.14,5.54,19,5.42a23.12,23.12,0,0,1,3,.38,24.65,24.65,0,0,0,4.18.35c2.15-.13,4.27-.58,6.42-.79,1.53-.15,3.23.24,4.61-.27,4.8-1.77,8.39-.1,11.55,3.42a25,25,0,0,0,3.83,3.8c5.69,4.1,11.52,8,17.23,12.11,2.53,1.8,6.66,2.13,6.47,6.63,0,.11.22.24.35.36,2.58,2.36,4.89,5.15,7.81,7a26.37,26.37,0,0,1,9.79,11c.83,1.66,2,3.17,3.35,5.32a42.47,42.47,0,0,1-6.65.82c-2.94-.1-5.85-.7-8.78-1q-5.64-.56-11.3-1c-5.77-.42-11.55-.88-17.33-1.15-9.31-.43-18.62-.94-27.94-1-8.25-.05-16.5.45-24.75.73-11.73.39-23.45.87-35.19,1.14-2.56.06-5.13-.74-7.71-.91-5.14-.32-10.28-.56-15.42-.67-2.58-.05-5.17.46-7.74.33-5.6-.28-11.19-1.07-16.79-1.18-10.19-.22-20.39.14-30.58-.18-11.65-.36-23.34,1.15-35-.95-5.47-1-11.14-.91-16.72-1.28-1.45-.1-2.92,0-4.36-.15-5.48-.6-10.94-1.7-16.43-1.8a274.29,274.29,0,0,0-29.64.63c-9.85.9-19.84,0-29.76.26-4.7.13-9.35-.6-14.08-.09-6.88.74-13.83,1-20.75,1.15-2.91.08-5.84-.06-8.76-.07-12.35,0-24.7-.63-37.06-.76-5.19-.06-10.39.43-15.58.85-7.79.64-15.57,1.46-23.36,2.15q-9.75.87-19.5,1.6c-9,.67-18.08,1.1-27,3.25-4.25,1-8.78.92-13.2,1.22-2.9.21-5.82.29-8.73.35a248.46,248.46,0,0,0-30.82,2.26c-5.45.78-11,.78-16.54,1.11-6.6.4-13.21.72-19.82,1.18-3.3.23-6.57.91-9.87,1-7.05.26-13.94,2-20.88,2.51-10.82.88-21.71.71-32.52,2.29-6.41.94-13,.79-19.46,1.28s-12.89,1.13-19.34,1.72c-.45,0-.89.15-1.34.23-3.56.57-7.11,1.18-10.68,1.66-.56.08-1.2-.46-1.8-.71a6.35,6.35,0,0,1,1-1.66q3.3-3,6.73-5.81,7.75-6.42,15.56-12.75c1.76-1.43,3.57-2.79,5.41-4.11,6.41-4.58,12.9-9.07,19.26-13.72,5.45-4,10.75-8.16,16.14-12.22,5.6-4.22,11.21-8.44,16.86-12.6,4.35-3.2,8.79-6.26,13.15-9.44,1.69-1.23,3.2-2.71,4.92-3.9,4.55-3.16,9.57-5.79,13.66-9.45s9.69-5.1,14.15-8.33c2.48-1.8,5.73-2.52,8.56-3.88s5.55-3,8.39-4.42c5.42-2.66,10.85-5.3,16.35-7.79q14.59-6.62,29.28-13c2.9-1.26,6.05-1.93,8.92-3.26,4.59-2.12,9-4.57,13.94-7.08.59,1.5,1.54,2.7,1.27,3.45-1,2.69.06,5.23.21,7.81.2,3.76.67,7.51,1.14,11.25.3,2.37.4,4.89,1.3,7.05,2.21,5.29,2.19,11.22,5.57,16.24,2.82,4.19,4.33,9.23,6.93,13.6a38,38,0,0,0,6.34,7.33c3.75,3.7,7.41,7.6,11.66,10.66s9.33,5.19,13.93,7.9c5.4,3.17,11.2,5.69,16,10,.94.86,2.62,3.22,4.76,1.09.05-.06.52.34.82.47,2.62,1.21,5.14,3,7.88,3.47A134.14,134.14,0,0,0,438,459.42c4.2.13,8.43-.83,12.65-.94,13.12-.32,26.23-.34,39.34-1.53,6.77-.61,13.55-2.32,20.45-1.32a4,4,0,0,0,1.09-.05c4.86-.68,9.71-1.76,14.59-2,6.08-.23,11.54-2.16,16.93-4.61a36,36,0,0,0,10.3-7.61,22.43,22.43,0,0,0,5.53-9.13c.61-1.82.86-3.82,1.8-5.44,2.92-5.05,3.71-10.76,4-16.24.48-8,.28-16.07.18-24.11a.72.72,0,0,1-.14-.6.6.6,0,0,1,.13-.25A178.37,178.37,0,0,1,566,359.3a19.78,19.78,0,0,1,.83-3c1-3.29,1.95-6.59,3-9.86a31.82,31.82,0,0,1,1.72-4c1.19-2.49,2.89-4.83,3.59-7.45a122.36,122.36,0,0,0,2.74-14.23c.91-6.4,1.68-12.82,2.19-19.26.35-4.53-.12-9.14.32-13.67.42-4.33,1.62-8.59,2.35-12.9.79-4.71,1.43-9.45,2.14-14.22,1.1,0,1.77-.21,2.14,0,4.47,2.89,9.17,2.58,13.86.87,3.62-1.33,7.52-2.61,8.49-7.07a41.38,41.38,0,0,0,1.29-9.2c-.07-4.32-.3-8.9-5.56-10.67-.14,0-.21-.28-.32-.41-2.59-3.37-6.26-5-10.13-6.29l-5-1.69c1.09-1.3,1.86-2.3,2.72-3.23,2.2-2.37,4.7-4.68,4.8-8.13.28-10.16,0-20.25-3.69-30-2.72-7.23-6.94-12.77-14.61-15.18a3.54,3.54,0,0,1-1.91-1.91c-1-2.73-1.85-5.54-2.76-8.31-.68-2.08-1.77-4.11-2-6.25-.89-7.53-1.6-15.09-2.18-22.65-.55-7-.7-14-2.89-20.81-1-2.92-1.75-5.92-3-8.72-1.58-3.56-3.68-6.89-5.27-10.45-1.51-3.34-2.46-6.94-4-10.27-3.71-8-7.88-15.84-13.62-22.62-4.15-4.91-8.65-9.55-13.08-14.22C522.8,37.93,516.16,34,509.7,30c-5.57-3.49-11.49-6.45-17.31-9.54-3.26-1.73-6.55-3.41-9.95-4.82-6.87-2.84-13.77-5.6-20.75-8.15-5.26-1.92-10.57-3.83-16.32-3.75-1.91,0-3.82-.25-5.73-.24a95.58,95.58,0,0,0-10.58.36c-4,.49-8,1.49-12,2.29a30.71,30.71,0,0,0-4.69,1.08c-5.05,1.87-10.05,3.89-15.08,5.83-4.59,1.77-9.2,3.6-12.74,7.15-1.64,1.65-3.25,1.72-5.33,1.45-1.93-.24-4.15-.51-5.85.2A90.11,90.11,0,0,0,359.9,28.5c-4.22,2.65-8.89,4.94-11.61,9.51-.16.26-.65.3-.92.53-4.53,3.8-9.25,7.25-11.32,13.37-.9,2.67-2.32,6.27-6.86,6,0,1.1.07,2.08,0,3.05-.26,3-.53,6.06-.9,9.07-.29,2.34-.95,4.64-1,7-.07,1.75.8,3.53.73,5.27-.24,6.38-.7,12.76-1.09,19.14,0,.27-.06.54-.09.81-.65,5.63-1.65,11.25-1.82,16.89-.16,5.48.53,11,.86,16.47.39,6.31.83,12.63,1.19,18.94.16,2.63.08,5.27.31,7.89.21,2.36.7,4.7,1,6.6-5.27,0-10-.16-14.74.08-1.73.09-3.45,1-5.09,1.79a28.5,28.5,0,0,0-5.59,2.91c-2.49,1.86-5.12,3.78-6.93,6.23-1.6,2.19-1.88,5.31-3.26,7.71a27.62,27.62,0,0,0-3.36,15c.31,11-1.26,22.13,1.51,33,.9,3.53,1.3,7.19,2.12,10.75.61,2.64,1.92,5.16,2.24,7.82.7,6,4.29,10,8.61,13.43,6.42,5.11,14.55,5.68,22.16,6.72,4.41.61,6.6,3.43,8.94,5.8a29.81,29.81,0,0,1,6.22,10.64A72,72,0,0,1,344.89,306,140.11,140.11,0,0,1,346,324.89c0,6.57-.63,13.14-1,19.71a2.62,2.62,0,0,1,0,.28c-.55,3.41-1.3,6.67-5.17,8-2.81.94-5.59,1.94-8.36,3q-4.74,1.77-9.43,3.63c-2.74,1.09-5.45,2.24-8.17,3.37-1.86.77-3.7,1.61-5.6,2.28-4.22,1.5-8.48,2.9-12.72,4.38-5.82,2-10.33,6.48-16.28,8.51-5.65,1.92-10.87,5.11-16.27,7.78-1.71.85-3.38,1.79-5.06,2.72-4.82,2.67-9.76,5.16-14.42,8.09s-8.74,6.21-13.18,9.21c-3.28,2.21-6.78,4.09-10,6.33s-6,4.62-9,6.87c-2.66,2-5.46,3.74-8.1,5.73-3.47,2.63-6.75,5.52-10.29,8.06-4.45,3.18-9.35,5.8-13.52,9.29-2.5,2.1-5,3.95-7.71,5.8-3.17,2.2-6,4.91-9.39,7s-6.39,5.25-9.64,7.83c-4.48,3.54-9.1,6.89-13.55,10.47-4.67,3.77-9.1,7.84-13.83,11.52-2.68,2.08-5.29,4-4.78,8.34a117.7,117.7,0,0,0-29.77,2.35c-6.4,1.42-13,1.69-19.57,2.63a36.47,36.47,0,0,0-7.87,1.91C57,502.33,50.9,505,44.74,507.67c-3.56,1.53-7.15,3-10.61,4.77s-6.2,4.4-10.27,4.55c-.81,0-1.58.73-2.39,1.06a53.72,53.72,0,0,1-6.66,2.61c-3.65.94-7.41,1.45-11.09,2.27S-1,526.06,1,529.2c1.41,2.18,3.05,2.55,5.77,1.63,5.2-1.76,10.76-2.45,16-4.18a147.54,147.54,0,0,0,15.12-6.31c5.35-2.46,10.51-5.33,15.88-7.73A64.54,64.54,0,0,1,64,509.1c5.45-1.41,11-2.58,16.49-3.7,2.13-.43,4.37-.31,6.51-.67,5.54-1,11-2.23,16.59-3,6.6-.93,13.27-1.41,19.89-2.2,7.06-.85,14.08-1.92,21.14-2.75s14.16-1.57,21.26-2.17q8.67-.75,17.38-1.05c9.19-.32,18.39-.35,27.57-.73a78.28,78.28,0,0,0,10.74-1.46c4.48-.81,8.88-2.2,13.39-2.72,7.18-.83,14.42-1.23,21.65-1.67,7.75-.47,15.52-.78,23.29-1.18,5.87-.3,11.75-.56,17.62-1,10.27-.74,20.53-1.6,30.8-2.41,2.63-.21,5.28-.25,7.88-.61,4.14-.58,8.22-1.5,12.36-2s8.39-.64,12.58-1.06c7.19-.71,14.36-1.51,21.54-2.29,4.3-.46,8.59-1.09,12.89-1.44,6.14-.49,12.3-1.12,18.45-1.12,7.66,0,15.33.8,23,.81,3.36,0,6.69-1.32,10.13-.22a9.66,9.66,0,0,0,3.23.14c3.58-.15,7.16-.5,10.74-.52,3.05,0,6.11.53,9.16.48,3.29-.05,6.58-.74,9.87-.76,17.4-.09,34.8-.18,52.2,0,11.41.12,22.84-1.1,34.23.94a123.57,123.57,0,0,0,14.56,1.21c10,.56,20.06,1,30.1,1.5a14.55,14.55,0,0,0,2.71-.2,30.57,30.57,0,0,1,4.52-.65c11.72.21,23.43.55,35.15.77,6.06.11,12.13-.1,18.19.11,7.46.25,14.91,1,22.38,1.14q14.19.33,28.41.11c7.63-.13,15.25-.91,22.88-.95,7.41,0,14.83.54,22.25.77,11.78.37,23.56.63,35.34,1,4.26.14,8.5.65,12.75.79,7.95.26,15.9.52,23.84.49,4.2,0,8.26-.39,10.17,4.5a2.17,2.17,0,0,0,1,.85c1,.55,2.42,1.71,2.95,1.4a4.52,4.52,0,0,0,1.89-3.11c.18-1.93,1.1-2.55,2.77-2.52,2.61.05,5.11-.63,7.85-.21s6-.66,9-.81c7.92-.41,15.86-1.07,23.77-.8,3,.11,5.75-.22,8.62-.3,11-.29,22-.21,33-2.06,6.3-1.06,12.83-.81,19.26-1.11,4.46-.22,8.92-.41,13.37-.54,15.7-.44,31.4-1.14,47.1-1.14,7.18,0,14.33-1.23,21.53-.29,5,.65,10,.84,15,1.13,4.81.27,9.63.36,14.44.62,5.2.29,9.94-1.54,14.78-3,2.69-.81,5.22-2,6.43-4.63C1093,467.72,1092.53,466.17,1092.52,464.83ZM558.77,400.66A67,67,0,0,1,557,417.05a80.23,80.23,0,0,1-7,17c-2.15,4-6.05,6.69-10.33,8.52a59.82,59.82,0,0,1-24.77,4.64c-3.65-.05-7.31,1-11,1.27-2.62.22-5.29-.09-7.91.12-8.64.7-17.27,1.6-25.91,2.27-3.1.25-6.23,0-9.34.12-5.77.27-11.67,0-17.25,1.22-4.88,1-9.13.06-13.57-1.21-2.9-.83-5.92-1.32-8.69-2.45-2.49-1-4.63-2.86-7.07-4-4.94-2.4-10-4.57-15-6.91A12.76,12.76,0,0,1,395,435c-2.3-2.59-6.64-1.76-8.28-5.22-7.19-2.7-11.31-9.08-16.8-13.84-3.59-3.13-4.7-7.63-6.66-11.6-2.73-5.54-4.82-11.42-7-17.22a40.09,40.09,0,0,1-1.19-5.52c-1.86-8.46-1.88-17-1.7-25.64,0-.92,1-1.89,1.65-2.69a13.43,13.43,0,0,1,2.19-1.68c-.49-.44-.71-.77-1-.86-3.7-1.14-2.87-4.18-2.83-6.82.12-7.64.32-15.29.46-22.93,0-2.38,0-4.77,0-7.74,2.92,3.3,5.66,5.9,7.81,8.93,3.39,4.8,6.9,9.63,9.39,14.91,2.58,5.49,6.34,9.94,10.23,14.33a162.93,162.93,0,0,0,13.11,13.3A57.66,57.66,0,0,0,409,374.8c3.5,1.57,7,3.24,10.55,4.61,1.89.72,4,.76,6,1.34,5.63,1.68,11.22,3.49,16.83,5.23,5.13,1.59,10.29,3.09,15.4,4.77,1.46.47,2.74,1.49,4.17,2.11a52.13,52.13,0,0,0,26.34,3.79A126.7,126.7,0,0,0,504,394.21c4.36-1,8.51-2.93,12.8-4.33,3.1-1,6.31-1.67,9.38-2.77,3.3-1.18,6.54-2.59,9.72-4.08,4.9-2.29,9.79-4.62,14.57-7.17,1.72-.92,3-2.59,4.63-3.75a13.37,13.37,0,0,1,2.9-1.22,6.68,6.68,0,0,1,.25,1.13C558.49,381.57,558.9,391.12,558.77,400.66ZM591.2,237.84c2.57-.58,4.83-1.15,6.08,1.75a2.42,2.42,0,0,0,2.09-.1c1.22-1.42,1.92-.87,2.94.24,4.08,4.45,3.54,12.24-3.56,14.46-1.68.52-3.34,1.39-5,1.5-4.59.32-7-2.85-5.73-7.18C589,245,590.11,241.44,591.2,237.84Zm-6.32-57.78a55.42,55.42,0,0,1,2.53,6.29c1.07,2.87,2.66,5.69,3,8.65.6,4.84,3.08,9.63.87,14.67-.56,1.26-.69,2.69-1.16,4-.16.44-.77.72-1.18,1.07a6.68,6.68,0,0,1-1.07-1.6,14.21,14.21,0,0,1-.41-2.69c-.47-4-.66-8.05-1.44-12-1.12-5.63-2.69-11.17-4-16.75a26.86,26.86,0,0,1-.23-3.79C583.24,178.88,584.46,179.26,584.88,180.06Zm-245,94.54c-2.1-3-.65-5.55-.29-8.29.13-1,1.06-1.8,1.41-2.77.68-1.94-.16-3.23-1.94-4.1s-2,.72-2.86,1.5c-1.67,1.47-3.48,3.42-5.47,3.75-4.17.69-8.51,2.12-12.73-.53-1.48-.92-3.6-.76-5.31-1.4a7.34,7.34,0,0,1-5-6.12c-1.42-8-.22-15.87.36-23.78.27-3.66,1.34-7.27,2.13-10.89.12-.55.67-1,1-1.5.65-.94,1.83-1.86,1.86-2.81.14-4.43,3.65-6.77,5.88-9.85A5.19,5.19,0,0,1,322.4,206c4.48-.36,6.16,1,6.68,5.51.94,8.27,0,16.26-3.83,23.82-.85,1.69-.82,3.83-1.63,5.55-1.1,2.31-2.74,4.35-3.9,6.64-.45.87-.68,2.65-.19,3.07,2,1.72,5,1.67,5.78.06a98.66,98.66,0,0,0,5.1-11.19,73.49,73.49,0,0,0,4-23.36c0-1.77.81-3.56.71-5.32a34.79,34.79,0,0,0-1.31-8.07c-1.33-4.27-7.52-6.26-10.83-4.31-1.64,1-3.44,1.68-5.14,2.58-4.77,2.52-6.69,7.24-8.81,11.73a76.91,76.91,0,0,0-3.63,9.28,43.24,43.24,0,0,0-1.31,6.82c-.46,3.08-.69,6.19-1.2,9.25-.35,2.16-1,4.26-1.68,7.13-.87-1.44-1.94-2.51-2.19-3.75a102.74,102.74,0,0,1-2.21-21.22c0-3.69-.85-7.38-.82-11.07a63.91,63.91,0,0,1,1.11-11.8,34.39,34.39,0,0,1,3.19-8.16,50.17,50.17,0,0,1,4.55-7.54c2.06-2.8,5.16-4.05,8.53-4.72,1-.2,2-.86,3-1,3-.34,5.66.48,8.52,1.46,3.28,1.13,7,1,10.56,1.19.42,0,1.35-1.26,1.3-1.87-.28-3.11-.92-6.19-1.21-9.31-.3-3.34-.32-6.71-.51-10.07-.33-5.65-.55-11.32-1.09-16.95-.33-3.45-1.29-6.85-1.76-10.29a16.78,16.78,0,0,1,.36-4,29.84,29.84,0,0,0,.39-3.74,106.24,106.24,0,0,1,1.95-21.77c.7-3.7.12-7.63.37-11.44.44-6.85.66-13.75,1.79-20.5.63-3.77,2.61-7.43,4.49-10.86A59.63,59.63,0,0,1,348.78,47a70.11,70.11,0,0,1,9.83-8.66A91.78,91.78,0,0,1,367,32.86c.63-.4,1.59-.88,2.16-.68,4,1.48,7-.84,10.26-2.4A9.78,9.78,0,0,1,384,28.9c2.71.15,4.37-1,6.11-3a15.74,15.74,0,0,1,5.82-4.13c4.81-1.84,9.78-3.29,14.75-4.67,2.58-.71,5.31-.83,7.93-1.41,3.82-.85,7.59-1.91,11.4-2.8a41.51,41.51,0,0,1,5-.81c12.2-1.27,23.33,2.21,34.16,7.45,4.63,2.24,9.66,3.65,14.44,5.59a82.42,82.42,0,0,1,8.16,3.9c4.07,2.22,8.13,4.49,12.06,7,5.24,3.28,11,5.76,15.33,10.44,1.68,1.82,4.1,2.94,5.86,4.7,2.85,2.85,5.5,5.92,8.11,9a91.25,91.25,0,0,1,6.58,8.39,71.49,71.49,0,0,1,5.38,9.63c1.92,4.2,3.26,8.66,5.21,12.84,2.19,4.7,4.82,9.2,7.19,13.82a17.75,17.75,0,0,1,1.36,3.69c1.07,4.2,2.11,8.42,3,12.66.32,1.49.14,3.08.33,4.61s.59,3.3.86,5a3.35,3.35,0,0,1,.13,1.61c-2.2,5.38.14,10.62.78,15.8.68,5.47,1.61,11,4,16.19a54.64,54.64,0,0,1,2.79,9.17,11.78,11.78,0,0,1,0,2.85l-.69.28c-1.42-1.92-2.72-3.93-4.29-5.71a20,20,0,0,0-4.2-3.71c-3.23-2.09-7.14-2.83-9.84-6.06-2.49-3-8.35-2.78-12-1.71-6.25,1.83-10.32,6.86-15.85,9.66-3.14,1.59-5.91,3.56-6.87,7.28-.09.34-1,.47-2.4,1.05,1.82-6.27,1.21-12.22,6.94-16.7a17.13,17.13,0,0,1,10.62-4.09,129.22,129.22,0,0,0,14.67-1.59,51,51,0,0,0,7.71-2.34c1.73-.58,3.4-1.59,5.16-1.79,2.58-.29,2.66-1.7,2.2-4.35-2.37.4-4.76.85-7.16,1.2-3.45.51-6.89,1.15-10.36,1.36-5.81.34-11.67.1-17.45.68-3.62.36-6.75,2.26-9.84,4.55-4.09,3-6.33,7-8.36,11.33a12.26,12.26,0,0,0-.78,2.45c-.63,2.94-1.42,5.86-1.78,8.83a92.15,92.15,0,0,0-.61,10.5c0,6.36,0,12.74.32,19.1.13,2.39,1.2,4.73,1.83,7.09.45,1.68,1,3.35,1.31,5.06a39.71,39.71,0,0,0,7.78,17.46,35.09,35.09,0,0,1,4,8c.88,2.2-2.16,6.33-4.82,6.52-6.86.5-13.73.79-20.59,1.21q-8.62.51-17.24,1.12c-1.62.12-3.31.89-4.8.56s-2-4.5-.92-6.69a3.08,3.08,0,0,0,.55-1.43c-.41-3.61,1.64-6.42,2.88-9.52s1.78-6.27,3.23-9.12a35.06,35.06,0,0,0,3.9-16.54c0-5.11.6-10.23,1-15.34.51-6.2,1.24-12.4,1.6-18.61.15-2.76.43-6-.76-8.25-2.87-5.53-6.76-10.39-13.16-12.42a14.45,14.45,0,0,1-4.6-2.08c-4.4-3.41-9.55-4.28-14.8-4.32-9.91-.1-19.84-.15-29.72.48-4.1.26-8.09,2.3-12.12,3.58a17.55,17.55,0,0,0-3.56,1.43c-5.35,3.11-10.64,6.31-16,9.45-2,1.19-4.17,2.23-6.14,3.51a8.89,8.89,0,0,0-1.74,2.19c-2.07,2.71-4.24,5.34-6.18,8.13-1.74,2.5-3.74,5-4.66,7.82-.7,2.15.12,4.79.25,7,3.68.78,5.16-.37,5.45-3.32a6.22,6.22,0,0,1,1.07-2.63c3.11-4.67,6.16-9.55,10.64-12.92,4.65-3.5,10.17-5.85,14.85-9.32,3.7-2.73,7.81-3.78,12-4.84a97.87,97.87,0,0,1,29.28-3.25c5.29.28,10.05,2.07,14.91,3.71,2.24.76,4.41,1.75,6.67,2.44,4.64,1.41,7.25,4.95,9.28,8.94a33,33,0,0,1,2.17,6.79,6.74,6.74,0,0,1-.23,2.61c-.12.7-.5,1.37-.55,2.07-.58,7.92-.72,15.91-1.79,23.76-.83,6-.87,12.26-4.92,17.69-2.32,3.11-3,7.49-4.22,11.36-.92,2.89-1.09,6.1-2.44,8.74s-1.6,5.38-1.79,8.24a13,13,0,0,0,1.21,5.58c1,1.78,2.53,2,4.31,2.13,2.44.2,4.88,1,7.29.85,4-.22,8.06.33,12.07.12a177,177,0,0,0,20.72-1.81c4.86-.82,10-.35,14.63-2.87,3.14-1.69,5.09-3.68,5.19-7.21a25,25,0,0,0-4.12-14l-6.52-10.7a1,1,0,0,1-.13-.23c-.8-4-1.73-7.89-2.34-11.88q-1.08-7-1.66-14.08c-.16-1.87.43-3.79.49-5.69.1-2.89,0-5.79,0-9.35,1.76.83,3,1.54,4.35,2,2,.75,4.15,1.87,6.25,1.92,10.19.24,20.39.12,30.58.26,3.26,0,6.52.81,9.76.67a17.8,17.8,0,0,0,6.35-2c.55-.25.62-1.77.75-2.73.17-1.28-.74-3.11,2.34-3.08.47,4.49.77,9,1.49,13.49a94.53,94.53,0,0,0,2.46,9.42,12.75,12.75,0,0,1,.57,1.75c.49,4.41.89,8.84,1.42,13.25.17,1.46.91,2.89.9,4.33,0,4.16-.34,8.32-.53,12.49-.17,3.52-.25,7-.56,10.55a3.69,3.69,0,0,1-1.37,2.4c-2.52,1.8-2.51,4.66-2.84,7.13-.58,4.21-.38,8.53-.71,12.79a27.92,27.92,0,0,1-1.21,6.27c-1.25,4-.87,7.71-.11,11.79s-.21,8.22-.44,12.35c-.08,1.4-.24,2.79-.36,4.19-.41,4.92-.81,9.84-1.26,14.75a18.43,18.43,0,0,1-.54,2c-.52,2.43-.88,4.9-1.53,7.29-.88,3.26-1.82,6.52-3,9.67-1.78,4.71-3.84,9.31-5.72,14-1.34,3.33-2.19,6.93-4,10a19.19,19.19,0,0,1-5.84,5.75c-7.26,4.95-15.53,7.82-23.67,10.93-4.23,1.61-8.36,3.46-12.58,5.1a21.69,21.69,0,0,1-4,.85c-6.24,1.13-12.59,1.83-18.68,3.47-6.78,1.82-13.53.88-20.23.55-3.16-.15-6.36-2.28-9.21-4-.95-.58-.89-2.8-1.42-4.79-.69.07-1.78.16-2.85.33-1.37.21-2.83.94-4.08.67-4.08-.88-8-2.46-12.13-3.14-7.11-1.17-13.31-5.31-20.8-5.57-3.4-.12-6.6-3.34-10.06-4.74-8.27-3.34-13.61-10.12-19.48-16.23a174.76,174.76,0,0,1-13.39-15.27c-3.59-4.73-6.26-10.14-9.58-15.09-1.61-2.4-3.93-4.31-5.65-6.64-2.28-3.09-4.29-6.37-6.42-9.57-.33-.5-.57-1.22-1-1.44-2.64-1.25-2.66-3.65-2.63-6,0-2.73-1.19-4.23-3.62-5.49-1.45-.75-2.41-2.68-3.31-4.24C344.2,282.42,342.47,278.22,339.89,274.6Zm207.7-103.49a7.82,7.82,0,0,1-.34-2.51,10.38,10.38,0,0,1,2.35-.1c2.15.39,4.75.31,6.31,1.53a43.17,43.17,0,0,1,7.37,7.89c1.23,1.62-.08,2.7-1.83,2.81-1.9.12-3.82,0-5.73,0v0c-1.83,0-3.65.09-5.47,0-1.53-.11-2.48-.5-1.57-2.54C549.77,175.78,548.77,173.39,547.59,171.11Zm-13,7.56c.14,1.3-.4,2.25-2,2.2-2.36-.07-4.74,0-7.09-.13a2.35,2.35,0,0,1-1.8-1.12,2.47,2.47,0,0,1,.72-2.1c2.85-2.38,5.83-4.59,8.71-6.92a6.66,6.66,0,0,0,1.58-2c.84-1.55,1.86-1.71,3.8-.31C533.18,170.5,534.12,174.64,534.55,178.67Z"/><path d="M135.88,3.82,134.12,0h3.59Z"/><path class="cls-2" d="M574.38,181c.47,4.49.77,9,1.49,13.49a94.53,94.53,0,0,0,2.46,9.42,12.75,12.75,0,0,1,.57,1.75c.49,4.41.89,8.84,1.42,13.25.17,1.46.91,2.89.9,4.33,0,4.16-.34,8.32-.53,12.49-.17,3.52-.25,7-.56,10.55a3.69,3.69,0,0,1-1.37,2.4c-2.52,1.8-2.51,4.66-2.84,7.13-.58,4.21-.38,8.53-.71,12.79a27.92,27.92,0,0,1-1.21,6.27c-1.25,4-.87,7.71-.11,11.79s-.21,8.22-.44,12.35c-.08,1.4-.24,2.79-.36,4.19-.41,4.92-.81,9.84-1.26,14.75a18.43,18.43,0,0,1-.54,2c-.52,2.43-.88,4.9-1.53,7.29-.88,3.26-1.82,6.52-3,9.67-1.78,4.71-3.84,9.31-5.72,14-1.34,3.33-2.19,6.93-4,10a19.19,19.19,0,0,1-5.84,5.75c-7.26,4.95-15.53,7.82-23.67,10.93-4.23,1.61-8.36,3.46-12.58,5.1a21.69,21.69,0,0,1-4,.85c-6.24,1.13-12.59,1.83-18.68,3.47-6.78,1.82-13.53.88-20.23.55-3.16-.15-6.36-2.28-9.21-4-.95-.58-.89-2.8-1.42-4.79-.69.07-1.78.16-2.85.33-1.37.21-2.83.94-4.08.67-4.08-.88-8-2.46-12.13-3.14-7.11-1.17-13.31-5.31-20.8-5.57-3.4-.12-6.6-3.34-10.06-4.74-8.27-3.34-13.61-10.12-19.48-16.23a174.76,174.76,0,0,1-13.39-15.27c-3.59-4.73-6.26-10.14-9.58-15.09-1.61-2.4-3.93-4.31-5.65-6.64-2.28-3.09-4.29-6.37-6.42-9.57-.33-.5-.57-1.22-1-1.44-2.64-1.25-2.66-3.65-2.63-6,0-2.73-1.19-4.23-3.62-5.49-1.45-.75-2.41-2.68-3.31-4.24-2.23-3.88-4-8.08-6.54-11.7-2.1-3-.65-5.55-.29-8.29.13-1,1.06-1.8,1.41-2.77.68-1.94-.16-3.23-1.94-4.1s-2,.72-2.86,1.5c-1.67,1.47-3.48,3.42-5.47,3.75-4.17.69-8.51,2.12-12.73-.53-1.48-.92-3.6-.76-5.31-1.4a7.34,7.34,0,0,1-5-6.12c-1.42-8-.22-15.87.36-23.78.27-3.66,1.34-7.27,2.13-10.89.12-.55.67-1,1-1.5.65-.94,1.83-1.86,1.86-2.81.14-4.43,3.65-6.77,5.88-9.85A5.19,5.19,0,0,1,322.4,206c4.48-.36,6.16,1,6.68,5.51.94,8.27,0,16.26-3.83,23.82-.85,1.69-.82,3.83-1.63,5.55-1.1,2.31-2.74,4.35-3.9,6.64-.45.87-.68,2.65-.19,3.07,2,1.72,5,1.67,5.78.06a98.66,98.66,0,0,0,5.1-11.19,73.49,73.49,0,0,0,4-23.36c0-1.77.81-3.56.71-5.32a34.79,34.79,0,0,0-1.31-8.07c-1.33-4.27-7.52-6.26-10.83-4.31-1.64,1-3.44,1.68-5.14,2.58-4.77,2.52-6.69,7.24-8.81,11.73a76.91,76.91,0,0,0-3.63,9.28,43.24,43.24,0,0,0-1.31,6.82c-.46,3.08-.69,6.19-1.2,9.25-.35,2.16-1,4.26-1.68,7.13-.87-1.44-1.94-2.51-2.19-3.75a102.74,102.74,0,0,1-2.21-21.22c0-3.69-.85-7.38-.82-11.07a63.91,63.91,0,0,1,1.11-11.8,34.39,34.39,0,0,1,3.19-8.16,50.17,50.17,0,0,1,4.55-7.54c2.06-2.8,5.16-4.05,8.53-4.72,1-.2,2-.86,3-1,3-.34,5.66.48,8.52,1.46,3.28,1.13,7,1,10.56,1.19.42,0,1.35-1.26,1.3-1.87-.28-3.11-.92-6.19-1.21-9.31-.3-3.34-.32-6.71-.51-10.07-.33-5.65-.55-11.32-1.09-16.95-.33-3.45-1.29-6.85-1.76-10.29a16.78,16.78,0,0,1,.36-4,29.84,29.84,0,0,0,.39-3.74,106.24,106.24,0,0,1,1.95-21.77c.7-3.7.12-7.63.37-11.44.44-6.85.66-13.75,1.79-20.5.63-3.77,2.61-7.43,4.49-10.86A59.63,59.63,0,0,1,348.78,47a70.11,70.11,0,0,1,9.83-8.66A91.78,91.78,0,0,1,367,32.86c.63-.4,1.59-.88,2.16-.68,4,1.48,7-.84,10.26-2.4A9.78,9.78,0,0,1,384,28.9c2.71.15,4.37-1,6.11-3a15.74,15.74,0,0,1,5.82-4.13c4.81-1.84,9.78-3.29,14.75-4.67,2.58-.71,5.31-.83,7.93-1.41,3.82-.85,7.59-1.91,11.4-2.8a41.51,41.51,0,0,1,5-.81c12.2-1.27,23.33,2.21,34.16,7.45,4.63,2.24,9.66,3.65,14.44,5.59a82.42,82.42,0,0,1,8.16,3.9c4.07,2.22,8.13,4.49,12.06,7,5.23,3.28,11,5.76,15.33,10.44,1.68,1.82,4.1,2.94,5.86,4.7,2.85,2.85,5.5,5.92,8.11,9a91.25,91.25,0,0,1,6.58,8.39,71.49,71.49,0,0,1,5.38,9.63c1.92,4.2,3.26,8.66,5.21,12.84,2.19,4.7,4.82,9.2,7.19,13.82a17.75,17.75,0,0,1,1.36,3.69c1.07,4.2,2.11,8.42,3,12.66.32,1.49.15,3.08.33,4.61s.59,3.3.86,5a3.35,3.35,0,0,1,.13,1.61c-2.2,5.38.14,10.62.78,15.8.68,5.47,1.61,11,4,16.19a54.64,54.64,0,0,1,2.79,9.17,11.78,11.78,0,0,1,0,2.85l-.69.28c-1.42-1.92-2.72-3.93-4.29-5.71a20,20,0,0,0-4.2-3.71c-3.23-2.09-7.14-2.83-9.84-6.06-2.49-3-8.35-2.78-12-1.71-6.25,1.83-10.32,6.86-15.85,9.66-3.14,1.59-5.91,3.56-6.87,7.28-.09.34-1,.47-2.4,1.05,1.82-6.27,1.21-12.22,6.94-16.7a17.13,17.13,0,0,1,10.62-4.09,129.22,129.22,0,0,0,14.67-1.59,51,51,0,0,0,7.71-2.34c1.73-.58,3.4-1.59,5.16-1.79,2.58-.29,2.66-1.7,2.2-4.35-2.37.4-4.76.85-7.16,1.2-3.45.51-6.89,1.15-10.36,1.36-5.81.34-11.67.1-17.45.68-3.62.36-6.75,2.26-9.84,4.55-4.09,3-6.33,7-8.36,11.33a12.26,12.26,0,0,0-.78,2.45c-.63,2.94-1.42,5.86-1.78,8.83a92.15,92.15,0,0,0-.61,10.5c0,6.36,0,12.74.32,19.1.13,2.39,1.2,4.73,1.83,7.09.45,1.68,1,3.35,1.31,5.06a39.71,39.71,0,0,0,7.78,17.46,35.09,35.09,0,0,1,4,8c.88,2.2-2.16,6.33-4.82,6.52-6.86.5-13.73.79-20.59,1.21q-8.62.51-17.24,1.12c-1.62.12-3.31.89-4.8.56s-2-4.5-.92-6.69a3.08,3.08,0,0,0,.55-1.43c-.41-3.61,1.64-6.42,2.88-9.52s1.78-6.27,3.23-9.12a35.06,35.06,0,0,0,3.9-16.54c0-5.11.6-10.23,1-15.34.51-6.2,1.24-12.4,1.6-18.61.15-2.76.43-6-.76-8.25-2.87-5.53-6.76-10.39-13.16-12.42a14.45,14.45,0,0,1-4.6-2.08c-4.4-3.41-9.55-4.28-14.8-4.32-9.91-.1-19.84-.15-29.72.48-4.1.26-8.09,2.3-12.12,3.58a17.55,17.55,0,0,0-3.56,1.43c-5.35,3.11-10.64,6.31-16,9.45-2,1.19-4.16,2.23-6.14,3.51a8.89,8.89,0,0,0-1.74,2.19c-2.07,2.71-4.24,5.34-6.18,8.13-1.74,2.5-3.74,5-4.66,7.82-.7,2.15.12,4.79.25,7,3.68.78,5.16-.37,5.45-3.32a6.22,6.22,0,0,1,1.07-2.63c3.11-4.67,6.16-9.55,10.64-12.92,4.65-3.5,10.17-5.85,14.85-9.32,3.7-2.73,7.81-3.78,12-4.84a97.87,97.87,0,0,1,29.28-3.25c5.29.28,10.05,2.07,14.91,3.71,2.24.76,4.41,1.75,6.67,2.44,4.64,1.41,7.25,4.95,9.28,8.94a33,33,0,0,1,2.17,6.79,6.74,6.74,0,0,1-.23,2.61c-.12.7-.5,1.37-.55,2.07-.58,7.92-.72,15.91-1.79,23.76-.83,6-.87,12.26-4.92,17.69-2.32,3.11-3,7.49-4.22,11.36-.92,2.89-1.09,6.1-2.44,8.74a19.93,19.93,0,0,0-1.79,8.24,13,13,0,0,0,1.21,5.58c1,1.78,2.53,2,4.31,2.13,2.44.2,4.88,1,7.29.85,4-.22,8.06.33,12.07.12a177,177,0,0,0,20.72-1.81c4.86-.82,10-.35,14.63-2.87,3.14-1.69,5.09-3.68,5.19-7.21a25,25,0,0,0-4.12-14l-6.52-10.7a1,1,0,0,1-.13-.23c-.8-4-1.73-7.89-2.34-11.88q-1.08-7-1.66-14.08c-.16-1.87.43-3.79.49-5.69.1-2.89,0-5.79,0-9.35,1.76.83,3,1.54,4.35,2,2,.75,4.15,1.87,6.25,1.92,10.19.24,20.39.12,30.58.26,3.26,0,6.52.81,9.76.67a17.8,17.8,0,0,0,6.35-2c.55-.25.62-1.77.75-2.73C572.21,182.76,571.3,180.93,574.38,181ZM542.92,304.54c-.17-1.27.05-2.68-.5-3.12s-2-.39-3-.29a4.11,4.11,0,0,0-1.94.9c-1.23,1-2.09.94-3.49-.06-2.57-1.83-5-4.28-8.5-4.24a29.48,29.48,0,0,1-3.64,0c-1.54-.18-3.06-.84-4.58-.81-2.2.05-4.4.56-6.61.8-1.53.16-3.15-.08-4.61.31-3.27.9-6.5,2-9.68,3.17A95.57,95.57,0,0,0,485,305.78c-2.18,1.12-3.74,3.4-5.79,4.86-4.57,3.24-8.74,6.81-11.88,11.54-2.52,3.81-3.81,7.77-2.52,12.31.16.55.29,1.33.69,1.55,3.23,1.84,6.11,4.53,10.34,3.84,3.1-.5,6.25-.63,9.37-1,5.71-.69,11.4-1.57,17.13-2.14s10.92-1.37,16.2-3.76c6.72-3,14.05-4.71,21-7.37a24.06,24.06,0,0,0,8.31-5.07c3.77-3.77,4-8.75.19-12.34A44.9,44.9,0,0,0,542.92,304.54ZM528.2,270.33c-2.73-1.05-4.38.23-5.91,1.91s-3.13,3.44-4.75,5.1c-1,1.06-2.06,1.77-2.52-.5a3.42,3.42,0,0,0-.87-1.59c-.59-.61-1.39-1.53-2-1.47a4,4,0,0,0-2.8,1.44c-1.52,2.57-2.7,5.33-4.45,8.92-1.24-1.84-2.52-2.92-2.63-4.11-.25-2.52-2.24-2.86-3.69-2.84-1.86,0-2.37,1.82-2.66,3.66a36.38,36.38,0,0,1-1.85,5.79l-.95-.1c-.63-1.58-1-3.33-2-4.67a5,5,0,0,0-3.19-1.72c-.51-.06-1.41,1.32-1.79,2.19-.65,1.5-1,3.12-1.7,5.23a8.59,8.59,0,0,1-1.54-1.87c-.27-.63.06-1.56-.27-2.12a6.14,6.14,0,0,0-2.27-2.63c-1.26-.56-2.36.11-2.72,1.72a25.61,25.61,0,0,1-1.36,3.95,21.81,21.81,0,0,1-1.35,2.46c-.73-1.16-.52-2.2-.93-2.88-.69-1.17-1.56-2.59-2.7-3-1.61-.63-2.78.36-3.31,2.23-.94,3.23-2.16,6.38-3.35,9.8-1-.74-1.9-1.09-2.18-1.73a6.6,6.6,0,0,0-6.64-4.24,44.76,44.76,0,0,0-4.46.51,40.22,40.22,0,0,0,.68,4.53c.89,3.29,1.94,6.53,2.89,9.81.78,2.67,1.51,5.36,2.39,8.5,3.13-2,3.73-5.62,7-6,.12,0,.3-.48.29-.73-.13-3.8,3.42-5.26,4.82-7.93,4,3.07,5.22-1.9,7.34-2.4,1.95.76,3.81,2.22,5,1.8,1.83-.62,3.22-2.56,4.83-4a3.29,3.29,0,0,1,1,.39c2.39,2,4.37,1.75,6.27-.77a14.17,14.17,0,0,1,3.14-2.71c.49-.37,1.54-.78,1.78-.56,3.14,2.87,5,.55,7.38-1.33,1.64-1.3,3.35-4.1,6.26-1.69.25.21,1.22-.16,1.67-.5a60.72,60.72,0,0,0,5.81-4.78c1.89-1.85,3.7-2.64,6.17-1.15a2.62,2.62,0,0,0,2.25.19c2.69-1.71,4.33-.38,5.26,1.92,1.11,2.74,3.1,3.37,5.71,3.37.8,0,2.21.34,2.29.74.54,2.66,2.63,2.45,5,3,.42-2.44,1.12-4.66,1.13-6.88,0-3.92-2-5.62-5.6-4.48-2.69.86-3.6-.3-4.1-2.41a3.94,3.94,0,0,0-4.66-2.76C530,274.6,529.17,272.55,528.2,270.33ZM420.37,194.39c.87,2.32,1.25,5.55,3,7.58,2.75,3.15,7,3.29,11,2.75,5.1-.68,10.17-1.61,15.24-2.47a8.91,8.91,0,0,0,2.75-.86c2.64-1.46,5.05-3.61,7.87-4.44,4-1.17,6-4,7.33-7.29,1.76-4.43,3.38-8.93,1.83-14-.81-2.64-2.72-3.72-4.36-5.37-2.74-2.75-4.1-3.1-7.79-1.88-3,1-6.09,1.6-9.05,2.64a36.44,36.44,0,0,0-8.31,3.66c-2.86,1.94-5.19,4.66-7.83,7-1.21,1.07-2.27,2-4.39,1.63a5,5,0,0,0-5.39,2.95C421.34,188.56,421.09,191.18,420.37,194.39Z"/><path class="cls-2" d="M357.17,351.58c-.49-.44-.71-.77-1-.86-3.7-1.14-2.87-4.18-2.83-6.82.12-7.64.32-15.29.46-22.93,0-2.38,0-4.77,0-7.74,2.92,3.3,5.66,5.9,7.81,8.93,3.39,4.8,6.9,9.63,9.39,14.91,2.58,5.49,6.34,9.94,10.23,14.33a162.93,162.93,0,0,0,13.11,13.3A57.66,57.66,0,0,0,409,374.8c3.5,1.57,7,3.24,10.55,4.61,1.89.72,4,.76,6,1.34,5.63,1.68,11.22,3.49,16.83,5.23,5.14,1.59,10.29,3.09,15.4,4.77,1.46.47,2.74,1.49,4.17,2.11a52.13,52.13,0,0,0,26.34,3.79A126.7,126.7,0,0,0,504,394.21c4.36-1,8.51-2.93,12.8-4.33,3.1-1,6.31-1.67,9.38-2.77,3.3-1.18,6.54-2.59,9.72-4.08,4.9-2.29,9.79-4.62,14.57-7.17,1.72-.92,3-2.59,4.63-3.75a13.37,13.37,0,0,1,2.9-1.22,6.68,6.68,0,0,1,.25,1.13c.2,9.55.61,19.1.48,28.64A67,67,0,0,1,557,417.05a80.23,80.23,0,0,1-7,17c-2.15,4-6.05,6.69-10.33,8.52a59.82,59.82,0,0,1-24.77,4.64c-3.65-.05-7.31,1-11,1.27-2.62.22-5.29-.09-7.91.12-8.64.7-17.27,1.6-25.91,2.27-3.1.25-6.23,0-9.34.12-5.77.27-11.67,0-17.25,1.22-4.88,1-9.13.06-13.57-1.21-2.9-.83-5.92-1.32-8.69-2.45-2.49-1-4.63-2.86-7.07-4-4.94-2.4-10-4.57-15-6.91A12.71,12.71,0,0,1,395,435c-2.3-2.59-6.64-1.76-8.28-5.22-7.19-2.7-11.32-9.08-16.8-13.84-3.59-3.13-4.7-7.63-6.66-11.6-2.73-5.54-4.82-11.42-7-17.22a40.09,40.09,0,0,1-1.19-5.52c-1.86-8.46-1.88-17-1.7-25.64,0-.92,1-1.89,1.65-2.69A13.43,13.43,0,0,1,357.17,351.58Z"/><path class="cls-2" d="M581.81,177.92c1.43,1,2.65,1.34,3.07,2.14a55.42,55.42,0,0,1,2.53,6.29c1.07,2.87,2.66,5.69,3,8.65.6,4.84,3.08,9.63.87,14.67-.56,1.26-.69,2.69-1.16,4-.16.44-.77.72-1.18,1.07a6.68,6.68,0,0,1-1.07-1.6,14.21,14.21,0,0,1-.41-2.69c-.47-4-.66-8.05-1.44-12-1.12-5.63-2.69-11.17-4-16.75A26.86,26.86,0,0,1,581.81,177.92Z"/><path class="cls-3" d="M555.72,180.79c-1.83,0-3.65.09-5.47,0-1.53-.11-2.48-.5-1.57-2.54,1.09-2.45.09-4.84-1.09-7.12a7.82,7.82,0,0,1-.34-2.51,10.38,10.38,0,0,1,2.35-.1c2.15.39,4.75.31,6.31,1.53a43.17,43.17,0,0,1,7.37,7.89c1.23,1.62-.08,2.7-1.83,2.81-1.9.12-3.82,0-5.73,0Z"/><path class="cls-3" d="M538.47,168.27c-5.29,2.23-4.35,6.37-3.92,10.4.14,1.3-.4,2.25-2,2.2-2.36-.07-4.74,0-7.09-.13a2.35,2.35,0,0,1-1.8-1.12,2.47,2.47,0,0,1,.72-2.1c2.85-2.38,5.83-4.59,8.71-6.92a6.66,6.66,0,0,0,1.58-2C535.51,167,536.53,166.87,538.47,168.27Z"/><path d="M542.92,304.54a44.9,44.9,0,0,1,5.09,3.65c3.85,3.59,3.58,8.57-.19,12.34a24.06,24.06,0,0,1-8.31,5.07c-6.92,2.66-14.25,4.33-21,7.37-5.28,2.39-10.62,3.21-16.2,3.76s-11.42,1.45-17.13,2.14c-3.12.38-6.27.51-9.37,1-4.23.69-7.11-2-10.34-3.84-.4-.22-.53-1-.69-1.55-1.29-4.54,0-8.5,2.52-12.31,3.14-4.73,7.31-8.3,11.88-11.54,2.05-1.46,3.61-3.74,5.79-4.86a95.57,95.57,0,0,1,11.34-4.57c3.18-1.17,6.41-2.27,9.68-3.17,1.46-.39,3.08-.15,4.61-.31,2.21-.24,4.41-.75,6.61-.8,1.52,0,3,.63,4.58.81a29.48,29.48,0,0,0,3.64,0c3.55,0,5.93,2.41,8.5,4.24,1.4,1,2.26,1,3.49.06a4.11,4.11,0,0,1,1.94-.9c1-.1,2.36-.24,3,.29S542.75,303.27,542.92,304.54Zm-64.89,27c1.23-2.09,2.47-3.51,2.92-5.15.63-2.26,2.72-1.79,4-2.75,2.79-2.08,5.77-1.87,8.71-.54s4.12,1.11,6-1.35a6,6,0,0,1,2.5-2.05c2-.68,4.18-.76,6.12-1.53a20.47,20.47,0,0,0,9.05-7.55c.79-1.11-.38-3.1-1.51-2.61-4.17,1.79-3.94-1-4.23-3.62-.14-1.29-.76-2.34-2.33-1.16a2.37,2.37,0,0,1-1.2.48c-4.67.18-9,1.64-13.35,3.23a28.6,28.6,0,0,0-12.83,8.93c-2.36,2.88-5.72,5-6.92,8.76-.51,1.59-1.56,3.33-1.28,4.79C474.23,332.44,476.82,331.63,478,331.59ZM505.18,330a12.19,12.19,0,0,0,2.79-.4c4.91-1.63,9.77-3.42,14.69-5.06,2.69-.89,5.5-1.44,8.14-2.45a62.78,62.78,0,0,0,9.44-4.29c1.37-.8,3.25-2,2.71-4.34-.6-2.62-5-4.38-7.23-2.89-2.07,1.36-3.68,3.11-6.63,3.34a24.2,24.2,0,0,0-10,3.1c-5.62,3.29-10.22,8.26-16.84,9.95-.56.15-1.05,1.33-1.14,2.09,0,.28,1.11.82,1.79,1A8.24,8.24,0,0,0,505.18,330Z"/><path d="M528.2,270.33c1,2.22,1.83,4.27,5.28,2.67a3.94,3.94,0,0,1,4.66,2.76c.5,2.11,1.41,3.27,4.1,2.41,3.57-1.14,5.61.56,5.6,4.48,0,2.22-.71,4.44-1.13,6.88-2.41-.58-4.5-.37-5-3-.08-.4-1.49-.74-2.29-.74-2.61,0-4.6-.63-5.71-3.37-.93-2.3-2.57-3.63-5.26-1.92a2.62,2.62,0,0,1-2.25-.19c-2.47-1.49-4.28-.7-6.17,1.15a60.72,60.72,0,0,1-5.81,4.78c-.45.34-1.42.71-1.67.5-2.91-2.41-4.62.39-6.26,1.69-2.37,1.88-4.24,4.2-7.38,1.33-.24-.22-1.29.19-1.78.56A14.17,14.17,0,0,0,494,293c-1.9,2.52-3.88,2.8-6.27.77a3.29,3.29,0,0,0-1-.39c-1.61,1.4-3,3.34-4.83,4-1.23.42-3.09-1-5-1.8-2.12.5-3.3,5.47-7.34,2.4-1.4,2.67-4.95,4.13-4.82,7.93,0,.25-.17.72-.29.73-3.3.35-3.9,4-7,6-.88-3.14-1.61-5.83-2.39-8.5-.95-3.28-2-6.52-2.89-9.81a40.22,40.22,0,0,1-.68-4.53,44.76,44.76,0,0,1,4.46-.51,6.6,6.6,0,0,1,6.64,4.24c.28.64,1.22,1,2.18,1.73,1.19-3.42,2.41-6.57,3.35-9.8.53-1.87,1.7-2.86,3.31-2.23,1.14.45,2,1.87,2.7,3,.41.68.2,1.72.93,2.88a21.81,21.81,0,0,0,1.35-2.46,25.61,25.61,0,0,0,1.36-3.95c.36-1.61,1.46-2.28,2.72-1.72a6.14,6.14,0,0,1,2.27,2.63c.33.56,0,1.49.27,2.12a8.59,8.59,0,0,0,1.54,1.87c.67-2.11,1-3.73,1.7-5.23.38-.87,1.28-2.25,1.79-2.19a5,5,0,0,1,3.19,1.72c1,1.34,1.32,3.09,2,4.67l.95.1a36.38,36.38,0,0,0,1.85-5.79c.29-1.84.8-3.63,2.66-3.66,1.45,0,3.44.32,3.69,2.84.11,1.19,1.39,2.27,2.63,4.11,1.75-3.59,2.93-6.35,4.45-8.92a4,4,0,0,1,2.8-1.44c.63-.06,1.43.86,2,1.47a3.42,3.42,0,0,1,.87,1.59c.46,2.27,1.49,1.56,2.52.5,1.62-1.66,3.19-3.38,4.75-5.1S525.47,269.28,528.2,270.33Z"/><path d="M420.37,194.39c.72-3.21,1-5.83,1.91-8.17a5,5,0,0,1,5.39-2.95c2.12.39,3.18-.56,4.39-1.63,2.64-2.3,5-5,7.83-7A36.44,36.44,0,0,1,448.2,171c3-1,6.07-1.65,9.05-2.64,3.69-1.22,5.05-.87,7.79,1.88,1.64,1.65,3.55,2.73,4.36,5.37,1.55,5.1-.07,9.6-1.83,14-1.31,3.31-3.35,6.12-7.33,7.29-2.82.83-5.23,3-7.87,4.44a8.91,8.91,0,0,1-2.75.86c-5.07.86-10.14,1.79-15.24,2.47-4,.54-8.25.4-11-2.75C421.62,199.94,421.24,196.71,420.37,194.39ZM453,176.59a25.65,25.65,0,0,0-4.31,1.15c-3.8,1.71-6.09,4.78-7.51,8.64a3.23,3.23,0,0,1-1.63,1.54c-.34.16-1-.33-1.51-.65a17.62,17.62,0,0,1-1.61-1.39c-.07.89-.16,1.78-.22,2.67-.08,1.16-.21,2.32-.19,3.48s-.09,2.41.47,3.21c.36.52,1.81.35,2.77.34a15.35,15.35,0,0,0,2.09-.39c3.07-.43,6.25-.48,9.2-1.33a21.9,21.9,0,0,0,13.27-10.19c1.57-2.68.77-7.09-1.52-8.91a7.5,7.5,0,0,0-1.28,1.87c-.95,3-2.47,4.21-5.14,4.2S453.65,178.54,453,176.59Z"/><path class="cls-3" d="M478,331.59c-1.21,0-3.8.85-4.36-2.12-.28-1.46.77-3.2,1.28-4.79,1.2-3.78,4.56-5.88,6.92-8.76A28.6,28.6,0,0,1,494.7,307c4.37-1.59,8.68-3.05,13.35-3.23a2.37,2.37,0,0,0,1.2-.48c1.57-1.18,2.19-.13,2.33,1.16.29,2.61.06,5.41,4.23,3.62,1.13-.49,2.3,1.5,1.51,2.61a20.47,20.47,0,0,1-9.05,7.55c-1.94.77-4.14.85-6.12,1.53a6,6,0,0,0-2.5,2.05c-1.88,2.46-3,2.7-6,1.35s-5.92-1.54-8.71.54c-1.27,1-3.36.49-4,2.75C480.5,328.08,479.26,329.5,478,331.59Z"/><path class="cls-3" d="M505.18,330a8.24,8.24,0,0,1-2.29.09c-.68-.22-1.83-.76-1.79-1,.09-.76.58-1.94,1.14-2.09,6.62-1.69,11.22-6.66,16.84-9.95a24.2,24.2,0,0,1,10-3.1c2.95-.23,4.56-2,6.63-3.34,2.28-1.49,6.63.27,7.23,2.89.54,2.37-1.34,3.54-2.71,4.34a62.78,62.78,0,0,1-9.44,4.29c-2.64,1-5.45,1.56-8.14,2.45-4.92,1.64-9.78,3.43-14.69,5.06A12.19,12.19,0,0,1,505.18,330Z"/><path class="cls-3" d="M453,176.59c.61,1.95.13,4.22,2.88,4.24s4.19-1.2,5.14-4.2a7.5,7.5,0,0,1,1.28-1.87c2.29,1.82,3.09,6.23,1.52,8.91a21.9,21.9,0,0,1-13.27,10.19c-2.95.85-6.13.9-9.2,1.33a15.35,15.35,0,0,1-2.09.39c-1,0-2.41.18-2.77-.34-.56-.8-.44-2.11-.47-3.21s.11-2.32.19-3.48c.06-.89.15-1.78.22-2.67a17.62,17.62,0,0,0,1.61,1.39c.46.32,1.17.81,1.51.65a3.23,3.23,0,0,0,1.63-1.54c1.42-3.86,3.71-6.93,7.51-8.64A25.65,25.65,0,0,1,453,176.59Z"/><path d="M1052.6,305l2.39-4.11c-4.92,2.47-8.37,6.73-13.44,7.91l-.59-.93,13.93-8.86-.23-.33-16.44,8.76a23.24,23.24,0,0,1,2.71,2c1,1,2.18,2,2.6,3.25,1.11,3.29,3.37,4.85,6.63,5.41a7.79,7.79,0,0,1,1.91.92c-.57.46-1.07,1.14-1.73,1.34-2.82.89-7.35-1-8.13-4.06-.92-3.56-3.6-5.09-6.08-7a1.92,1.92,0,0,0-1.59-.28c-10.35,4.05-20.68,8.16-31.15,12.31,3,3.55,3.63,7.82,3.41,12.37-.09,1.84-1,2.23-2.66,2,.31-4.48,1.43-9.09-2.8-12.24l-1.05.19c.23,1.61.47,3.22.7,4.83l-.42-.21a21.93,21.93,0,0,0-1.31,4.15c-.35,3-.51,6-.56,9-.07,3.9.59,4.65,4.24,5.45,2.44.54,4.89,1,7.31,1.62,4.94,1.26,5.54,4.58,3.68,8.93a8,8,0,0,1-6.69,4.73c-4.5.56-9,1.24-13.47,1.93-4,.61-6.32-1.37-6.35-5.45q-.12-15.23-.25-30.46c0-.69-.11-1.38-.2-2.43-5.33,1-10.48,1.87-15.6,2.87-8.69,1.68-17.42,2.9-26.28,2.35-4.26-.27-8.49-1-12.73-1.53-1.85-.23-2.73.45-3.6,2.23a34.63,34.63,0,0,1-4.75,6.67c-.53.64-1.68.76-2.76.8,1.44-3.6,5.71-5.26,5.92-9.73-.87-.17-1.62-.36-2.38-.45-4.41-.57-8.82-1.17-13.24-1.61-.85-.08-2.43.33-2.55.79-1,3.92-1.84,7.88-2.41,11.87-.81,5.64-1.15,11.36-2.05,17a7.84,7.84,0,0,1-5.88,6.74c-4.8,1.5-9.43,2.88-14.26.55-4-1.95-4.89-6.54-2-10,3.17-3.76,7.25-4.75,11.83-3.79,2.52.53,3.41-.2,3.4-2.72,0-5.24.79-10.59,0-15.69-.46-2.86,1.63-4.95.63-7.75-2.13-.54-4.41-1.24-6.75-1.68-7.07-1.34-14.17-2.57-21.26-3.86-1.8-.32-2.75.07-2.92,2.21-.48,6-3.65,10.69-7.77,14.79a10.85,10.85,0,0,1-2.87,1.5l-.78-.83a8.82,8.82,0,0,1,1.77-2.16c4.14-2.59,8.23-10.64,7.87-14.89-4.38-2.1-8.57-3.79-12.4-6.09-1.93-1.16-3.39-3.3-4.7-5.24-3-4.49-5.43-9.45-8.8-13.64-5.17-6.42-7.69-13.95-10.65-21.4-4.91-12.39-5-25.35-5-38.28,0-11.13.64-22.26,1-33.38,0-1.14.32-2.26.61-4.2-1.12,1.09-1.73,1.74-2.4,2.32-3.53,3.1-7,6.35-10.68,9.22-2.33,1.81-3.56.84-4.39-2-1.31-4.52,1.34-7.85,3.34-11.09a123.23,123.23,0,0,1,9.83-12.92c7.07-8.63,13.5-17.63,18.18-27.84,1.14-2.49,3.22-4.56,4.89-6.8.69-.91,1.49-1.74,2.15-2.67,3.76-5.36,7.44-10.79,11.29-16.08,1.37-1.88,3.18-2.81,4.89.13,3.84-2.63,7.48-5.16,11.17-7.63,1.48-1,3-1.84,4.6-2.7C886.65,114.77,894.61,110,903,106c12.16-5.78,24.66-11,38.18-12.49,12.74-1.4,25.58-2,38.38-2.84a211.71,211.71,0,0,1,21.65-.71c5.75.22,11.47,1.52,17.16,2.51a85.23,85.23,0,0,1,9,2.19c4.16,1.21,7,4.3,10,7.22,6.25,6.08,12.83,11.82,19.06,17.91,3.94,3.85,7.44,8.14,11.25,12.12,5.44,5.68,10.71,11.46,14.4,18.5a36,36,0,0,1,4.46,14.4c.21,3,.38,6,.7,9.06A7.16,7.16,0,0,0,1088,176c-.38,2.32-.73,4.21-1,6.1-.49,3.53-.91,7.06-1.4,10.59a2.72,2.72,0,0,0,1.21,3.13c2,1.39,2.54,5.75,1.12,8.14l-.57-1.95c-.18.28-.37.44-.39.62-.35,4.13-.59,8.27-1,12.39-.82,7.67-1.52,15.37-2.72,23-1.34,8.52-3,17-4.87,25.42-.64,3-2.06,5.8-3.32,9.2l7.39-3c-.3,3.07-1.88,4.33-4.17,4.57-2.86.29-4.49,1.74-5.87,4.3-2.56,4.74-5.62,9.22-8.46,13.82-1.5,2.43-2.88,4.95-4.48,7.31a40.43,40.43,0,0,1-4.12,5c-.5.53-1.48.61-2.24.89Zm29.77-88.13c-4.64-.24-8.86-.73-13.06-.61-8.47.23-16.93,1.1-25.4,1.17-13.83.11-27.67,0-41.5-.38-15.6-.45-31.24-.83-46.77-2.18q-25.36-2.21-50.77-2.65c-16-.3-31.93,0-47.8,2.11-3.45.46-6.86.54-9.1,3.9a3.85,3.85,0,0,1-3,1.43c-.9-.06-2.45-1.18-2.47-1.88-.08-2.36-1.41-2.6-3-2.07-4,1.34-8,2.82-11.94,4.44-.56.23-1,1.55-1,2.37,0,5.71.1,11.42.28,17.12.27,8.63.19,17.3,2.63,25.71.41,1.45.85,2.49,2.44,3.1,3.8,1.47,7.54,3.12,11.23,4.84,5.72,2.65,11.15,6.17,17.11,8,16.22,5,33,7.56,49.84,9.36s34,2.24,51,2.81c10.77.36,21.58,0,32.36-.28a211,211,0,0,0,45.2-6.1c9.11-2.25,18-5,26.33-9.45a5.22,5.22,0,0,0,2.28-2,65.61,65.61,0,0,0,4.19-10.1c2.85-10.45,5.54-21,8-31.51C1080.8,228.51,1081.41,222.82,1082.37,216.91ZM990,148.61c.24,2.75.53,4.69.55,6.64a29.3,29.3,0,0,1-.36,7.08,12.91,12.91,0,0,1-2.91,5.87c-1.09,1.11-4,2-4.9,1.38a9.75,9.75,0,0,1-3.26-5.36c-1.27-4.78-2-9.7-3.13-14.51A3,3,0,0,0,973.6,148c-2.17.08-4.31.94-6.48,1-9.71.12-19.43.15-29.15,0-2.8,0-3.72.92-3.63,3.65a21.45,21.45,0,0,1-3.27,12.22c-2.48,4-5.4,4.17-7.36-.18s-3-8.84-4.58-13.54c-3.92-1-4.86-.23-5.23,4a35.43,35.43,0,0,1-1.66,8.84c-.52,1.48-2.4,3.44-3.72,3.47-2.23.06-3-2.36-3.57-4.41a6.46,6.46,0,0,1-.11-1.33c-.17-2.71-.32-5.43-.51-8.54-2.79.35-5.5.85-8.22,1s-3.93,1.39-4.19,4.25c-.38,4-.92,8.12-3.4,11.66-2,2.93-4.24,4.45-6.17,3.68-2.13-.84-2.65-3-1.86-6.78.6-2.9,1-5.84,1.65-9.62-3.95,1.33-7.2,2.25-10.27,3.56a5.1,5.1,0,0,0-2.51,2.9c-4.68,15-9.22,30.1-13.81,45.15-.3,1-.7,1.93-1.11,3.06a15.21,15.21,0,0,0,1.58.14c15.23-.69,30.45-1.69,45.68-2,11-.21,22.13.28,33.17.94,14.77.88,29.5,2.5,44.27,3.29,13.36.71,26.76.9,40.14,1,11.33.09,22.67-.09,34-.44,9.78-.3,19.55-1,29.74-1.58,0-1.2.09-2.32,0-3.43-.29-3-1.06-6.07-.91-9.06.37-7.43,1.19-14.83,1.72-22.24.06-.87-.24-2.24-.85-2.61-3.06-1.89-6.28-3.53-9.75-5.43,0,1.52,0,2.48,0,3.44.16,3.2-.62,6.12-3.4,7.91a24.87,24.87,0,0,1-5.6,2.22c-6.39,2.17-13.46-1.66-14.86-9.37-.75-4.11-.75-8.1,1.67-12.1-3.82-1.24-7.25-2.44-10.75-3.4-.48-.13-1.54.8-1.9,1.47-1.38,2.58-2.38,5.37-3.91,7.84a3.69,3.69,0,0,1-5.79.5,18.5,18.5,0,0,1-3.56-5.76c-.67-1.87-.41-4-.71-6.08-.12-.77-.52-2-1-2.13-3.75-1-7.56-1.74-11.05-2.51-1.19,6.87-2.32,13.41-3.56,20.62l7.11-5.26c1,.12,2.14.2,3.28.42a18.15,18.15,0,0,1,3.27.89c1.66.68,3.21,1.65,4.89,2.23,2,.7,4.13,1.14,6.2,1.65a17.87,17.87,0,0,1,13.35,12.23,10.73,10.73,0,0,1-2.41,11.39,36.42,36.42,0,0,1-6.51,5.5,7.89,7.89,0,0,1-4.65,1.12c-3.7-.26-7.38-.94-11.07-1.45-5.35-.74-11.08-.55-15.47-4.27a123.22,123.22,0,0,1-11.12-10.92c-1.47-1.61-1-3.66.87-5.12s3.63-2.85,5.19-4.09c-.64-1.37-1.56-2.49-1.65-3.67-.36-4.85-.52-9.71-.67-14.58-.08-2.39.1-4.8-.06-7.19a2.51,2.51,0,0,0-1.34-1.88C995.51,149.57,993,149.19,990,148.61Zm6.34,173.15-.06-.66c-.73-.31-1.65-.42-2.13-1-.85-.93-2.26-2.48-2-3.11a35.72,35.72,0,0,1,4.74-7.81c.91-1.11,2.92-1.44,3.41.15-2,2.27-3.82,4-5.3,6a2.52,2.52,0,0,0,.43,2.39c2.47,1.12,4.92,2.42,7.86,1.23q14.51-5.83,29.09-11.44c1.65-.64,1.86-1.44,1.44-3.05a16,16,0,0,1-.41-5c0-.57,1.07-1.08,1.65-1.61A7.94,7.94,0,0,1,1036,300c.25,1.74.31,3.51.45,5.26l1.06.62c5.89-3.42,11.64-7.09,17.69-10.19,5.57-2.85,7.21-8.13,9.92-13.59-1.84,0-3.34-.41-4.48.06-14.95,6.18-30.65,9.39-46.59,11.42-7.23.93-14.56,1.1-21.85,1.58-6.14.41-12.29,1.17-18.42,1.05-13.45-.27-26.9-1-40.35-1.55-15.33-.6-30.62-1.52-45.71-4.54-6.9-1.38-13.85-2.53-20.68-4.16-6.66-1.58-13.47-3-19.31-6.82-4.77-3.14-10.15-4.55-15.63-6.18a4.43,4.43,0,0,0,.1,1.1c2.53,6.46,5,13,9.73,18.24a18.2,18.2,0,0,0,3.66,2.47l.55-.63c.25.56.74,1.12.72,1.66-.14,3.29,1.84,5.36,3.87,7.56a65.4,65.4,0,0,1,6.14,7.74c2.27,3.37,5,4.87,9,4.22.21-2.2-.94-3.71-2.63-4.85-1.25-.84-2.77-1.34-3.88-2.32-.91-.82-2.22-2.43-1.94-3.15,1.68-4.36,4.09-8.34,8.52-10.48a2.87,2.87,0,0,1,2.66.27c.53.69.33,2,.52,3.71-2.76-2-4.2-.92-5.48.64-1.07,1.31-2.1,2.65-3.17,4s-.66,2.5.6,3.38c.87.61,1.9,1,2.8,1.56,2.26,1.43,4.29,3.17,4.24,6.06,0,2,1,2,2.46,2.15a92.72,92.72,0,0,1,11.92,1.37c10.53,2.29,21,5,31.49,7.31,4.2.91,8.57,1.05,12.85,1.55l.64-.91c-1-1.54-2.15-3.05-3.1-4.65a6,6,0,0,1-1.21-3.05c.17-2.2,5.88-7.69,8.19-7.94a6,6,0,0,1,2.91.9,1.68,1.68,0,0,1,.11,1.36,6.38,6.38,0,0,1-2.52.78c-2.79.13-3.93,2.35-5.08,4.22-.46.74.32,2.34.73,3.48s1.29,2.33,1.66,3.58a3.2,3.2,0,0,0,3.38,2.67c3.29.13,6.56.65,9.85.84,3.64.2,7.3.38,10.94.26,5.44-.18,10.84-.09,16.24-1.82,4.17-1.34,8.89-.87,13.31-1.57S991.82,322.73,996.3,321.76ZM893.53,152.84c3.77-.63,6.91-1.1,10-1.74a1.84,1.84,0,0,0,1.13-1.4c-.21-1.83-.67-3.62-1-5.44-.39-2-1.11-4.08-1.09-6.13.07-8.34,3.94-16.23,3.11-24.72,0-.36.9-1.18,1.37-1.17a20.08,20.08,0,0,1,3.69.74l-2.32,1.89c.85,1.21,2,2.2,2.28,3.38a92.16,92.16,0,0,1,2.13,12.07c.5,5.32.44,10.69.82,16,.09,1.3,0,3.26,2.43,3,2.11-.19,3.88-.45,3.42-3.33-.21-1.3.15-2.67.07-4-.66-12.18,0-24.22,3.8-35.9a39.05,39.05,0,0,1,2.67-5.08c2.11,5.78,3.91,10.7,5.71,15.61l.92-.33c-.7-2-1.48-4-2.07-6a7.61,7.61,0,0,1,.09-2.32c.77.39,1.89.59,2.24,1.21a8.44,8.44,0,0,1,.92,3.58c.42,10.6.81,21.2,1.07,31.8.06,2.09.57,2.69,2.79,2.6,7.21-.3,14.43-.2,21.64-.43,5.22-.17,10.43-.6,16.07-.94-3.26-17.61-2.2-34.48.46-51.41a9.74,9.74,0,0,0-2.18-.3c-3,.25-6,.59-9,.9l.38.61-3,2.61-.8-3c-21.7-3.37-57.76,11-69.74,20.57,1.48,3.14,3.86,6.07,4.11,9.17.51,6.35,0,12.79-.35,19.18C895.09,146.86,894.21,149.52,893.53,152.84Zm130.57.39c.4-5.34.82-10.28,1.14-15.24.27-4.15.64-8.3.6-12.45-.07-7.78-1.64-15.57,1.54-23.21,1.38-3.31.18-4.84-3.42-5.64-6.16-1.36-12.33-2.75-18.54-3.9a86.67,86.67,0,0,0-8.71-.73l-.68.76,2.23,3.77a2.84,2.84,0,0,0-.13,1.52c1.12,3.18,2.53,6.26,3.55,9.46,2.14,6.69,4.41,13.35,6,20.16s2.5,13.66,3.81,20.49c.16.82.81,2,1.48,2.21C1016.65,151.5,1020.37,152.32,1024.1,153.23Zm20.2,40.87c2.57-4.57,0-8.23-2.3-11.75a11.09,11.09,0,0,0-4.58-4.24,115.65,115.65,0,0,0-14.44-4.65c-3.05-.78-6.57-1.78-9.38-1-5.55,1.62-10.34,5.08-14.44,9.27-2,2-1.75,2.9.49,4.72,1.36,1.11,3,2.14,3.84,3.6,2.59,4.52,6.72,6.91,11.41,8.13,5,1.29,10.14,1.86,15.24,2.69a9.68,9.68,0,0,0,2.13-.13c-3-3.31-3.28-7.28-.51-8.79,2.41-1.32,5.3-2.56,7.91-2.42C1041.25,189.66,1042.69,192.43,1044.3,194.1ZM858.4,164.47c-3.76.85-6.72,1.14-8.73,4.16a164.05,164.05,0,0,1-9.73,13.3c-2.36,2.87-5.44,5.15-7.93,7.92a17.92,17.92,0,0,0-3.63,5.72,27.8,27.8,0,0,0-1,7.09c-.35,4.55-.55,9.11-.81,13.53,4.28-1,8-2.27,11.78-2.58,3.36-.28,4.05-1.92,4.67-4.73A175.57,175.57,0,0,1,853.1,176C854.68,172.38,856.42,168.79,858.4,164.47Zm192-47.33-.94.88a14.51,14.51,0,0,0,1.76,2.87c4.08,4.12,5.82,9.24,6.55,14.8.47,3.59.45,7.21,2.44,10.53,3.34,5.56,6.31,11.34,9.55,17,1,1.74,2,3.75,3.61,4.81,2.85,1.93,6.12,3.22,9.2,4.81,1.37.7,2.12.33,2-1.2-.72-8.32-1.93-16.59-7.2-23.39s-11-13.26-16.65-19.77C1057.39,124.59,1053.86,120.91,1050.41,117.14ZM870.77,159c3.63-1.1,6.64-2.17,9.73-2.88,1.93-.43,2.34-1.43,2.35-3.17,0-4.36,0-8.72.34-13.06.45-6.73,3.59-12.58,6.39-18.54a4.27,4.27,0,0,0-.24-3.24c-.19-.38-2-.41-2.75,0-5.51,3.41-10.94,7-16.37,10.52-.48.31-1.08.86-1.12,1.35a51.05,51.05,0,0,0-.32,7.41c.08,1.34.54,3.37,1.46,3.82,2.28,1.12,2,2.81,1.92,4.63s-.21,3.72-.41,5.58C871.49,153.82,871.14,156.15,870.77,159Zm110.69-49.7.4,0a14.5,14.5,0,0,0,0,2.72c.72,3.73,1.52,7.44,2.33,11.15,1.56,7.12,3.1,14.24,4.8,21.32a3.75,3.75,0,0,0,2.1,2.4c2.52.66,5.16.89,7.85,1.31a4,4,0,0,0,.19-1.24c-.71-3.54-1.21-7.15-2.26-10.59-1.3-4.22-2.54-8.61-4.77-12.36-2.43-4.06-4.44-8.11-5.11-12.76-.73-5.09-1.06-10.16,2.74-14.42l3-3.41h-9.36c-4.47,0-5.15,1.81-4.51,6,.3,1.92.61,3.85,1.08,5.74A43.22,43.22,0,0,0,981.46,109.32Zm28,40.54.26-.06c-.38-2.5-.66-5-1.18-7.51-2-9.79-3-19.82-7.94-28.89-2.21-4.09-3.26-8.79-5-13.17-.26-.67-1.16-1.09-1.77-1.63-.53.59-1.09,1.17-1.57,1.8a3.25,3.25,0,0,0-.32,1l-2.16-1.19a9.93,9.93,0,0,0-.54,1.41,18.45,18.45,0,0,0-.33,2.65c-.16,6.31,1,12.2,5,17.37a16.81,16.81,0,0,1,2.89,5.38c1.57,5.47,2.92,11,4.16,16.56,1.09,4.89,1,4.92,5.92,5.77.14,0,.31-.11.91-.36l-6.1-26.49.56-.13Q1005.9,136.12,1009.48,149.86Zm27,6.11a17.21,17.21,0,0,0,.84-3.21q.67-13.71,1.2-27.44a5.85,5.85,0,0,0-.53-2.56c-.94-2.14-2-4.23-3-6.33q-2.28-4.7-4.54-9.39l-1.14.12c-.23,2.2-.59,4.4-.65,6.6-.28,9.5-.41,19-.73,28.5-.1,2.92-.77,5.83-.9,8.75,0,.92.61,2.44,1.31,2.71C1030.9,154.67,1033.61,155.21,1036.52,156ZM997.9,322.76c-2.47.69-4.13,1.23-5.83,1.62-1.88.42-2.57,1.43-2.49,3.4.16,4.22-.16,8.46.16,12.66.36,4.78-1.48,9.78,1.31,14.34.07.12-.24.42-.23.63.13,1.77-.27,3.94.62,5.15.65.88,3.06.82,4.62.62a81.63,81.63,0,0,0,10.17-1.89,12.71,12.71,0,0,0,5.1-2.44c1.83-1.61,1.22-4-1.1-4.9a49.64,49.64,0,0,0-8.13-2.52c-4.73-.95-5.41-1.4-6.05-5.91a15.52,15.52,0,0,1,.07-3.47C996.66,334.53,997.25,329,997.9,322.76ZM844.72,212.33c5.66.83,7.06.14,9.14-4.16a21.92,21.92,0,0,0,1.26-3.2c3.07-10.11,6.23-20.21,9.11-30.37,1.1-3.87,1.56-7.92,2.33-12-5.09,0-6,.56-7.12,3.71-3.78,10.62-7.77,21.17-11.35,31.85C846.56,202.75,845.82,207.58,844.72,212.33ZM1068,165.93c-.78-1.59-1.15-2.57-1.69-3.45-2.24-3.63-4.56-7.2-6.77-10.84-.78-1.28-1-3.4-2.07-3.9-2.61-1.24-1.72-3.29-2-5.18-.68-4-1-8.18-2.5-11.89-1.94-4.91-4.75-9.49-7.37-14.12a3.38,3.38,0,0,0-2.65-1.22c-.52,0-1.49,1.32-1.43,2,.23,2.5.3,5.2,1.33,7.4,2.28,4.89,5.57,9.33,7.6,14.3,2.6,6.33,5.69,12.74,3.85,20.06a3.27,3.27,0,0,0,1.63,2.72C1059.6,163.26,1063.43,164.4,1068,165.93ZM933,142.66c-.72-7-1.22-13.79-2.2-20.53a111.2,111.2,0,0,0-3-12.67c-.17-.63-1-1.07-1.59-1.6-.45.59-1.11,1.12-1.29,1.77a18.28,18.28,0,0,0-.71,4.45q-.09,16.12,0,32.24c0,.62.73,1.79,1.07,1.77,2.29-.12,4.77-.06,6.77-1C932.84,146.73,932.7,144.15,933,142.66Zm108.09-15.16-.66.17c0,.77-.05,1.55,0,2.31.22,3.29.78,6.59.64,9.86-.21,4.8-1,9.57-1.33,14.37-.08,1,.35,2.68,1,2.91,3.46,1.26,7.06,2.17,11.32,3.4,0-3.26.68-6.26-.14-8.76C1050,146,1047.43,140.54,1045,135,1043.87,132.43,1042.39,130,1041.08,127.5Zm-136,198.61c-2.86-1.59-3.69-1.41-3.93,1.56-.52,6.53-.82,13.09-.94,19.64-.14,7.05-.36,7.35-7.3,6.16a8.32,8.32,0,0,0-7.43,2c-2.64,2.42-2.24,4.79,1.13,6,4.43,1.64,8.54.61,12.62-1.44a5,5,0,0,0,3-3.78c.68-3.49,1.63-7,2-10.48a52.88,52.88,0,0,0-.2-8.43c-.07-1.2-.67-2.42-.51-3.56C903.86,331.32,904.53,328.82,905.11,326.11Zm148.3-162.71c-3.66,5.09-.94,11.24,2.17,14.6.76.82,2.14,1.13,3.29,1.5s2.28.39,3.37.73c4,1.22,6,.53,6.75-3.38.48-2.56-.41-5.4-.78-8.1,0-.28-.65-.55-1-.69C1062.55,166.48,1057.93,164.93,1053.41,163.4Zm-200.23-2.11c2.76-1.36,6-1.87,6.72-3.51A67.6,67.6,0,0,0,864,144.07a103.66,103.66,0,0,0,1.3-10.91c-3.38,1.11-8,4.67-9.63,8.72C853.27,147.75,853.15,154.07,853.18,161.29Zm125.4-58-.75-.07A9.35,9.35,0,0,0,977,106c.45,11.65,1.06,23.28,1.48,34.93.15,4.37,1.84,6.12,8.49,5.39C982.85,132.19,979.22,118,978.58,103.27Zm-93.78,51.8a20,20,0,0,1,2.67-.71c3.31-.27,4-2.22,4-5.24,0-4.72.31-9.43.55-14.15.12-2.3.41-4.59.52-6.89.09-1.81,0-3.62,0-5.91C884.48,132.33,885.71,143.69,884.8,155.07ZM811.1,205.2c1.66-.56,2.92-.63,3.67-1.29q4.89-4.31,9.5-8.92a8.91,8.91,0,0,0,2.21-3.53c1.34-4.4,2.45-8.87,3.62-13.32a3.92,3.92,0,0,0,0-1l-.67-.33C821.33,184.63,815.64,194,811.1,205.2Zm24-34.28c3.36-.61,4.71-5,8.75-3.49,2.18-2,5.49-3.69,6.27-6.16,1.34-4.23,1.09-9,1.52-13.48l-1.06-.29C844.17,154.46,840,162.91,835.12,170.92Zm144.15-22.56c.9,5.09,1.75,10.35,2.8,15.58.2,1,1.17,1.84,1.78,2.75a16.51,16.51,0,0,0,3.14-2.64,5.68,5.68,0,0,0,.68-3.08c0-2.3,0-4.61-.2-6.91-.43-6.14-.81-6.45-7.06-6.18A6.13,6.13,0,0,0,979.27,148.36Zm25.24,24.41c1.06-3.49,2.21-6.31,2.72-9.24a77,77,0,0,0,.59-9l.67,0,.49,5.7a30.35,30.35,0,0,0,1.07-6.81c0-.5-.33-1.38-.68-1.47-2.41-.65-4.87-1.13-7.35-1.68C1001.22,157,1002.41,169.71,1004.51,172.77Zm-96.07-48.08-.82.1a33.47,33.47,0,0,0-1.32,20c.24,1,.27,2.11.58,3.11s.89,2.54,1.2,2.51c1.45-.17,3.7.4,3.42-2.41-.52-5.12-.9-10.26-1.51-15.37C909.67,129.94,909,127.33,908.44,124.69Zm-78.15,63.48c6.57-6.36,12.63-12.4,17.73-19.74-.73,0-1-.14-1.23-.05-3.31,1.49-5.51,5.27-9.81,4.76-.14,0-.31.16-.45.27A16.93,16.93,0,0,0,829.78,186,8.93,8.93,0,0,0,830.29,188.17Zm93.6-33.65c.63,2.43,1.24,5.18,2.12,7.83.26.77,1.39,1.8,2,1.74s1.67-1.15,1.89-2c1-3.51,1.72-7.07,2.44-10.63.11-.55-.38-1.75-.58-1.75a27.23,27.23,0,0,0-6.84.55C924.34,150.47,924.3,152.73,923.89,154.52ZM1033,101.43l-.88.59,5.64,13.65,7.55-3.15ZM863.52,158.38l.59-.08-1.17,2.53c3.59,0,3.89-.33,4.21-3.51.26-2.64.79-5.25,1.15-7.88.33-2.47.88-5-.79-7.57a11.61,11.61,0,0,0-.77,1.4c-1.38,4.12-2.81,8.22-4,12.39C862.5,156.43,863.23,157.47,863.52,158.38Zm163.89-2.65c-.74,3.93-.42,6,1.57,7.23,1.13.7,3.34,1.34,4,.78a9.26,9.26,0,0,0,2.44-4.69c.1-.44-1.72-1.6-2.81-2A41.58,41.58,0,0,0,1027.41,155.73Zm-118.33,5.7,1.14.11,1.86-9c-3-.91-5.41-.48-5.28.82C907.08,156.12,906.72,159.21,909.08,161.43Zm-18.43-5.29-.46-.79c-1.69.45-4.71.68-4.83,1.39-.41,2.48.17,5.13.38,7.71l1,.12ZM1070.7,274l.61.27c4.48-6.87,6.42-14.63,7.88-23.34ZM921.56,148c2.47-4.82.75-9.55,0-14.29Zm-38.37,16.69a17,17,0,0,0-.81,3.25,21.07,21.07,0,0,0,.44,3.42l2.62-.58ZM976.14,120h-.76v12h.76Z"/><path class="cls-4" d="M1082.37,216.91c-1,5.91-1.57,11.6-2.85,17.13-2.43,10.56-5.12,21.06-8,31.51a65.61,65.61,0,0,1-4.19,10.1,5.22,5.22,0,0,1-2.28,2c-8.31,4.42-17.22,7.2-26.33,9.45a211,211,0,0,1-45.2,6.1c-10.78.3-21.59.64-32.36.28-17-.57-34.11-1-51-2.81s-33.62-4.39-49.84-9.36c-6-1.82-11.39-5.34-17.11-8-3.69-1.72-7.43-3.37-11.23-4.84-1.59-.61-2-1.65-2.44-3.1-2.44-8.41-2.36-17.08-2.63-25.71-.18-5.7-.26-11.41-.28-17.12,0-.82.39-2.14,1-2.37,3.92-1.62,7.91-3.1,11.94-4.44,1.59-.53,2.92-.29,3,2.07,0,.7,1.57,1.82,2.47,1.88a3.85,3.85,0,0,0,3-1.43c2.24-3.36,5.65-3.44,9.1-3.9,15.87-2.12,31.82-2.41,47.8-2.11q25.43.48,50.77,2.65c15.53,1.35,31.17,1.73,46.77,2.18,13.83.4,27.67.49,41.5.38,8.47-.07,16.93-.94,25.4-1.17C1073.51,216.18,1077.73,216.67,1082.37,216.91ZM968.48,285.74l.06.56c2.5-.12,5.07.09,7.46-.46a9.16,9.16,0,0,0,4.77-2.86c1.45-1.83,2.14-4.25,3.24-6.38a9.84,9.84,0,0,1,2-3.09c1.38-1.18,3-2,.65-3.78-.31-.24,0-1.33.07-2,.4-6,1-12.06,1.12-18.1.08-3.62-2.51-5.87-5.56-5.25a27.64,27.64,0,0,0-6,2c-8.32,3.85-16.9,6.56-26.19,6.45-2,0-3.92.14-5.88.16-7.34.06-14.29-1.22-20.3-5.82-3.08-2.37-5.31-2.14-8,.62a19.15,19.15,0,0,0-5.06,12.61c-.37,6.63-.07,13.31,0,20,.06,4.14,2.09,7.05,6.17,7.9a44.62,44.62,0,0,0,9.54.49c6.31-.09,12.61-.34,18.91-.56,2.12-.08,4.26-.18,6.37-.42C957.38,287.16,962.93,286.43,968.48,285.74Zm102.64-34.22-.75-.92a5.57,5.57,0,0,0-1.44.73c-1.94,1.82-3.94,3.6-5.72,5.57-2,2.27-4.27,3.45-7.31,2.13a7.68,7.68,0,0,1-4.72-7.66,16.17,16.17,0,0,0-.12-4.24,4,4,0,0,0-2-2.5c-3-1-8.81,3.2-9,6.38-.11,1.79.57,2.7,2.48,2,.26-3.76,2-5.32,5.87-5.26.1,2.08.1,4.19.32,6.28.72,7,8.22,10.68,13.82,6.4C1065.81,258,1068.29,254.53,1071.12,251.52Zm-63.67-21.91.88-.82c.38,1.3.75,2.61,1.15,3.9.72,2.33,1.06,4.91,2.31,6.92,1.53,2.45,3.82,4.43,5.78,6.62,3.42,3.82,11.11,3.61,14.34-.8-1.45.39-2.53.66-3.61,1-3.89,1.14-6.84.2-9.42-3a34.83,34.83,0,0,0-3.46-4.08c-2.37-2.18-3.76-4.62-3.6-8a6.47,6.47,0,0,0-1.09-3.5c-1.88-3-4.84-2.71-7,1ZM891,284.08c-1,0-2,.05-3,0-3.05-.17-4.15-1.53-3.7-4.49a16.2,16.2,0,0,0,.37-2.37c0-4.21-.28-8.29-4.15-11.17-2.58-1.92-2.42-2,.22-4.15.56-.45.66-1.47,1-2.23-.82-.16-2-.73-2.38-.4a14.22,14.22,0,0,0-3.59,4.68c-.3.77,1.36,2.3,2.16,3.46,1.12,1.62,2.77,3.08,3.28,4.87.62,2.13.3,4.54.36,6.83s.09,4.92,2.64,6.24S888.84,285.87,891,284.08ZM846.56,262c-.44,1.84-1,3-.94,4.18a2,2,0,0,0,2.76,2c5-1.27,8-8.75,5.3-13.3a4.48,4.48,0,0,1-.79-2.7c.59-3.31,6.28-5.48,8.83-3.49q2.34-3.42-1.27-3.84c-2.94-.33-10.11,4.62-10.57,7.51a6.38,6.38,0,0,0,.72,3c.38,1,1.09,1.86,1.43,2.86,1.09,3.18-.72,6.47-4.27,7.54Zm54.18-37.33c.11-1.35.5-2.75.19-2.93-1.37-.78-3-1.75-4.44-1.68a14.35,14.35,0,0,0-9.25,4.26c-.89.86-1.16,2.39-1.66,3.64-.7,1.74-1.18,3.58-2,5.23-1.31,2.51-4.27,1.21-6.17,2.39a18.69,18.69,0,0,0-2.32,2.06c1,.27,2.1.9,3.07.76a12.8,12.8,0,0,0,10.47-10.76,3.7,3.7,0,0,1,.42-1.52C891.31,222.56,896.67,221.6,900.74,224.66Z"/><path class="cls-4" d="M990,148.61c3,.58,5.55,1,8,1.61a2.51,2.51,0,0,1,1.34,1.88c.16,2.39,0,4.8.06,7.19.15,4.87.31,9.73.67,14.58.09,1.18,1,2.3,1.65,3.67-1.56,1.24-3.35,2.7-5.19,4.09s-2.34,3.51-.87,5.12a123.22,123.22,0,0,0,11.12,10.92c4.39,3.72,10.12,3.53,15.47,4.27,3.69.51,7.37,1.19,11.07,1.45a7.89,7.89,0,0,0,4.65-1.12,36.42,36.42,0,0,0,6.51-5.5,10.73,10.73,0,0,0,2.41-11.39,17.87,17.87,0,0,0-13.35-12.23c-2.07-.51-4.18-1-6.2-1.65-1.68-.58-3.23-1.55-4.89-2.23a18.15,18.15,0,0,0-3.27-.89c-1.14-.22-2.31-.3-3.28-.42l-7.11,5.26c1.24-7.21,2.37-13.75,3.56-20.62,3.49.77,7.3,1.53,11.05,2.51.51.14.91,1.36,1,2.13.3,2,0,4.21.71,6.08a18.5,18.5,0,0,0,3.56,5.76,3.69,3.69,0,0,0,5.79-.5c1.53-2.47,2.53-5.26,3.91-7.84.36-.67,1.42-1.6,1.9-1.47,3.5,1,6.93,2.16,10.75,3.4-2.42,4-2.42,8-1.67,12.1,1.4,7.71,8.47,11.54,14.86,9.37a24.87,24.87,0,0,0,5.6-2.22c2.78-1.79,3.56-4.71,3.4-7.91,0-1,0-1.92,0-3.44,3.47,1.9,6.69,3.54,9.75,5.43.61.37.91,1.74.85,2.61-.53,7.41-1.35,14.81-1.72,22.24-.15,3,.62,6,.91,9.06.11,1.11,0,2.23,0,3.43-10.19.56-20,1.28-29.74,1.58-11.32.35-22.66.53-34,.44-13.38-.11-26.78-.3-40.14-1-14.77-.79-29.5-2.41-44.27-3.29-11-.66-22.12-1.15-33.17-.94-15.23.28-30.45,1.28-45.68,2a15.21,15.21,0,0,1-1.58-.14c.41-1.13.81-2.08,1.11-3.06,4.59-15,9.13-30.12,13.81-45.15a5.1,5.1,0,0,1,2.51-2.9c3.07-1.31,6.32-2.23,10.27-3.56-.64,3.78-1,6.72-1.65,9.62-.79,3.81-.27,5.94,1.86,6.78,1.93.77,4.12-.75,6.17-3.68,2.48-3.54,3-7.61,3.4-11.66.26-2.86,1.33-4.11,4.19-4.25s5.43-.64,8.22-1c.19,3.11.34,5.83.51,8.54A6.46,6.46,0,0,0,905,163c.53,2.05,1.34,4.47,3.57,4.41,1.32,0,3.2-2,3.72-3.47a35.43,35.43,0,0,0,1.66-8.84c.37-4.19,1.31-4.95,5.23-4,1.55,4.7,2.66,9.3,4.58,13.54s4.88,4.23,7.36.18a21.45,21.45,0,0,0,3.27-12.22c-.09-2.73.83-3.69,3.63-3.65,9.72.13,19.44.1,29.15,0,2.17,0,4.31-.88,6.48-1a3,3,0,0,1,2.35,1.73c1.15,4.81,1.86,9.73,3.13,14.51a9.75,9.75,0,0,0,3.26,5.36c.94.65,3.81-.27,4.9-1.38a12.91,12.91,0,0,0,2.91-5.87,29.3,29.3,0,0,0,.36-7.08C990.49,153.3,990.2,151.36,990,148.61Zm-91.05,52.94c6.89-.45,7.65-.43,11.63-3.23a76.44,76.44,0,0,0,9.39-7.85,36.89,36.89,0,0,0,6.15-7.57c2-3.39.89-6.63-2.82-7.77a69.29,69.29,0,0,0-13.94-2.63c-3.21-.3-6.52.69-9.8.74-8.18.11-16.24.48-22.77,6.36-2.42,2.19-5.38,4.28-4.66,8.13s3.65,5.43,7.35,6.37c2.49.62,4.8,2.17,7,3.58C890.27,200.13,894.17,202.14,898.91,201.55Zm53.44-8.19c1-3.83.08-5.5-2.84-6.31a8.35,8.35,0,0,0-8.48,3.2c-2,2.77-1.89,4.86.33,8.09a11.52,11.52,0,0,1,1.49,2.2c.58,1.5,1.53,3.18,1.28,4.6-.31,1.77-2.1,2.41-4,2.19-.42-.05-.94.7-1.41,1.09.54.45,1.15,1.35,1.63,1.29,4-.51,8.11-5.75,5.58-9.2a31.65,31.65,0,0,1-3-5c-1.07-2.23.13-4.6,2.72-5.83,2.33-1.09,3.82-.52,5.18,1.89A13.77,13.77,0,0,0,952.35,193.36Z"/><path class="cls-4" d="M996.3,321.76c-4.48,1-8.94,2.15-13.46,2.87s-9.14.23-13.31,1.57c-5.4,1.73-10.8,1.64-16.24,1.82-3.64.12-7.3-.06-10.94-.26-3.29-.19-6.56-.71-9.85-.84a3.2,3.2,0,0,1-3.38-2.67c-.37-1.25-1.21-2.35-1.66-3.58s-1.19-2.74-.73-3.48c1.15-1.87,2.29-4.09,5.08-4.22a6.38,6.38,0,0,0,2.52-.78,1.68,1.68,0,0,0-.11-1.36,6,6,0,0,0-2.91-.9c-2.31.25-8,5.74-8.19,7.94a6,6,0,0,0,1.21,3.05c.95,1.6,2.06,3.11,3.1,4.65l-.64.91c-4.28-.5-8.65-.64-12.85-1.55-10.53-2.28-21-5-31.49-7.31a92.72,92.72,0,0,0-11.92-1.37c-1.48-.13-2.5-.12-2.46-2.15,0-2.89-2-4.63-4.24-6.06-.9-.57-1.93-1-2.8-1.56-1.26-.88-1.7-2-.6-3.38s2.1-2.66,3.17-4c1.28-1.56,2.72-2.63,5.48-.64-.19-1.76,0-3-.52-3.71a2.87,2.87,0,0,0-2.66-.27c-4.43,2.14-6.84,6.12-8.52,10.48-.28.72,1,2.33,1.94,3.15,1.11,1,2.63,1.48,3.88,2.32,1.69,1.14,2.84,2.65,2.63,4.85-3.94.65-6.72-.85-9-4.22a65.4,65.4,0,0,0-6.14-7.74c-2-2.2-4-4.27-3.87-7.56,0-.54-.47-1.1-.72-1.66l-.55.63a18.2,18.2,0,0,1-3.66-2.47c-4.76-5.25-7.2-11.78-9.73-18.24a4.43,4.43,0,0,1-.1-1.1c5.48,1.63,10.86,3,15.63,6.18,5.84,3.86,12.65,5.24,19.31,6.82,6.83,1.63,13.78,2.78,20.68,4.16,15.09,3,30.38,3.94,45.71,4.54,13.45.53,26.9,1.28,40.35,1.55,6.13.12,12.28-.64,18.42-1.05,7.29-.48,14.62-.65,21.85-1.58,15.94-2,31.64-5.24,46.59-11.42,1.14-.47,2.64-.06,4.48-.06-2.71,5.46-4.35,10.74-9.92,13.59-6.05,3.1-11.8,6.77-17.69,10.19l-1.06-.62c-.14-1.75-.2-3.52-.45-5.26a7.94,7.94,0,0,0-.92-2.05c-.58.53-1.61,1-1.65,1.61a16,16,0,0,0,.41,5c.42,1.61.21,2.41-1.44,3.05q-14.58,5.63-29.09,11.44c-2.94,1.19-5.39-.11-7.86-1.23a2.52,2.52,0,0,1-.43-2.39c1.48-2,3.25-3.75,5.3-6-.49-1.59-2.5-1.26-3.41-.15a35.72,35.72,0,0,0-4.74,7.81c-.29.63,1.12,2.18,2,3.11.48.53,1.4.64,2.13,1ZM870.08,304.63l-.05.93,1.91,3.1c1.83-.86,1.79-2.45,1.11-3.73C872.78,304.44,871.11,304.71,870.08,304.63Z"/><path class="cls-4" d="M893.53,152.84c.68-3.32,1.56-6,1.72-8.69.36-6.39.86-12.83.35-19.18-.25-3.1-2.63-6-4.11-9.17,12-9.58,48-23.94,69.74-20.57l.8,3,3-2.61-.38-.61c3-.31,6-.65,9-.9a9.74,9.74,0,0,1,2.18.3c-2.66,16.93-3.72,33.8-.46,51.41-5.64.34-10.85.77-16.07.94-7.21.23-14.43.13-21.64.43-2.22.09-2.73-.51-2.79-2.6-.26-10.6-.65-21.2-1.07-31.8a8.44,8.44,0,0,0-.92-3.58c-.35-.62-1.47-.82-2.24-1.21a7.61,7.61,0,0,0-.09,2.32c.59,2,1.37,4,2.07,6l-.92.33c-1.8-4.91-3.6-9.83-5.71-15.61a39.05,39.05,0,0,0-2.67,5.08c-3.83,11.68-4.46,23.72-3.8,35.9.08,1.33-.28,2.7-.07,4,.46,2.88-1.31,3.14-3.42,3.33-2.42.22-2.34-1.74-2.43-3-.38-5.33-.32-10.7-.82-16a92.16,92.16,0,0,0-2.13-12.07c-.27-1.18-1.43-2.17-2.28-3.38l2.32-1.89a20.08,20.08,0,0,0-3.69-.74c-.47,0-1.4.81-1.37,1.17.83,8.49-3,16.38-3.11,24.72,0,2.05.7,4.09,1.09,6.13.35,1.82.81,3.61,1,5.44a1.84,1.84,0,0,1-1.13,1.4C900.44,151.74,897.3,152.21,893.53,152.84Z"/><path class="cls-4" d="M1024.1,153.23c-3.73-.91-7.45-1.73-11.09-2.8-.67-.2-1.32-1.39-1.48-2.21-1.31-6.83-2.19-13.75-3.81-20.49s-3.9-13.47-6-20.16c-1-3.2-2.43-6.28-3.55-9.46a2.84,2.84,0,0,1,.13-1.52L996,92.82l.68-.76a86.67,86.67,0,0,1,8.71.73c6.21,1.15,12.38,2.54,18.54,3.9,3.6.8,4.8,2.33,3.42,5.64-3.18,7.64-1.61,15.43-1.54,23.21,0,4.15-.33,8.3-.6,12.45C1024.92,143,1024.5,147.89,1024.1,153.23Z"/><path class="cls-5" d="M1042,182.35a11.09,11.09,0,0,0-4.58-4.24,115.65,115.65,0,0,0-14.44-4.65c-3.05-.78-6.57-1.78-9.38-1-5.55,1.62-10.34,5.08-14.44,9.27-2,2-1.75,2.9.49,4.72,1.36,1.11,3,2.14,3.84,3.6,2.59,4.52,6.72,6.91,11.41,8.13,5,1.29,10.14,1.86,15.24,2.69a9.68,9.68,0,0,0,2.13-.13c-3-3.31-3.28-7.28-.51-8.79,2.41-1.32,5.3-2.56,7.91-2.42,1.58.09,3,2.86,4.63,4.53C1046.87,189.53,1044.31,185.87,1042,182.35Zm-21.33,3.32a.36.36,0,0,1,0-.71A.36.36,0,0,1,1020.67,185.67Z"/><path class="cls-4" d="M858.4,164.47c-2,4.32-3.72,7.91-5.3,11.56A175.57,175.57,0,0,0,843,208.88c-.62,2.81-1.31,4.45-4.67,4.73-3.79.31-7.5,1.6-11.78,2.58.26-4.42.46-9,.81-13.53a27.8,27.8,0,0,1,1-7.09,17.92,17.92,0,0,1,3.63-5.72c2.49-2.77,5.57-5,7.93-7.92a164.05,164.05,0,0,0,9.73-13.3C851.68,165.61,854.64,165.32,858.4,164.47Z"/><path class="cls-4" d="M1050.41,117.14c3.45,3.77,7,7.45,10.31,11.31,5.64,6.51,11.38,13,16.65,19.77s6.48,15.07,7.2,23.39c.13,1.53-.62,1.9-2,1.2-3.08-1.59-6.35-2.88-9.2-4.81-1.57-1.06-2.61-3.07-3.61-4.81-3.24-5.63-6.21-11.41-9.55-17-2-3.32-2-6.94-2.44-10.53-.73-5.56-2.47-10.68-6.55-14.8a14.51,14.51,0,0,1-1.76-2.87Z"/><path class="cls-4" d="M870.77,159c.37-2.87.72-5.2,1-7.55.2-1.86.3-3.72.41-5.58s.36-3.51-1.92-4.63c-.92-.45-1.38-2.48-1.46-3.82a51.05,51.05,0,0,1,.32-7.41c0-.49.64-1,1.12-1.35,5.43-3.55,10.86-7.11,16.37-10.52.71-.44,2.56-.41,2.75,0a4.27,4.27,0,0,1,.24,3.24c-2.8,6-5.94,11.81-6.39,18.54-.3,4.34-.32,8.7-.34,13.06,0,1.74-.42,2.74-2.35,3.17C877.41,156.85,874.4,157.92,870.77,159Z"/><path class="cls-6" d="M981.46,109.32a43.22,43.22,0,0,1-1.45-4.09c-.47-1.89-.78-3.82-1.08-5.74-.64-4.22,0-6,4.51-6h9.36l-3,3.41c-3.8,4.26-3.47,9.33-2.74,14.42.67,4.65,2.68,8.7,5.11,12.76,2.23,3.75,3.47,8.14,4.77,12.36,1.05,3.44,1.55,7.05,2.26,10.59a4,4,0,0,1-.19,1.24c-2.69-.42-5.33-.65-7.85-1.31a3.75,3.75,0,0,1-2.1-2.4c-1.7-7.08-3.24-14.2-4.8-21.32-.81-3.71-1.61-7.42-2.33-11.15a14.5,14.5,0,0,1,0-2.72Z"/><path class="cls-6" d="M1009.48,149.86q-3.59-13.74-7.18-27.48l-.56.13,6.1,26.49c-.6.25-.77.39-.91.36-4.95-.85-4.83-.88-5.92-5.77-1.24-5.56-2.59-11.09-4.16-16.56a16.81,16.81,0,0,0-2.89-5.38c-3.94-5.17-5.15-11.06-5-17.37a18.45,18.45,0,0,1,.33-2.65,9.93,9.93,0,0,1,.54-1.41l2.16,1.19a3.25,3.25,0,0,1,.32-1c.48-.63,1-1.21,1.57-1.8.61.54,1.51,1,1.77,1.63,1.7,4.38,2.75,9.08,5,13.17,4.9,9.07,5.91,19.1,7.94,28.89.52,2.48.8,5,1.18,7.51Z"/><path class="cls-6" d="M1036.52,156c-2.91-.76-5.62-1.3-8.17-2.25-.7-.27-1.35-1.79-1.31-2.71.13-2.92.8-5.83.9-8.75.32-9.5.45-19,.73-28.5.06-2.2.42-4.4.65-6.6l1.14-.12q2.26,4.69,4.54,9.39c1,2.1,2.09,4.19,3,6.33a5.85,5.85,0,0,1,.53,2.56q-.52,13.73-1.2,27.44A17.21,17.21,0,0,1,1036.52,156Z"/><path class="cls-7" d="M997.9,322.76c-.65,6.26-1.24,11.77-1.78,17.29a15.52,15.52,0,0,0-.07,3.47c.64,4.51,1.32,5,6.05,5.91a49.64,49.64,0,0,1,8.13,2.52c2.32.89,2.93,3.29,1.1,4.9a12.71,12.71,0,0,1-5.1,2.44,81.63,81.63,0,0,1-10.17,1.89c-1.56.2-4,.26-4.62-.62-.89-1.21-.49-3.38-.62-5.15,0-.21.3-.51.23-.63-2.79-4.56-.95-9.56-1.31-14.34-.32-4.2,0-8.44-.16-12.66-.08-2,.61-3,2.49-3.4C993.77,324,995.43,323.45,997.9,322.76Z"/><path class="cls-6" d="M844.72,212.33c1.1-4.75,1.84-9.58,3.37-14.14,3.58-10.68,7.57-21.23,11.35-31.85,1.12-3.15,2-3.73,7.12-3.71-.77,4.05-1.23,8.1-2.33,12-2.88,10.16-6,20.26-9.11,30.37a21.92,21.92,0,0,1-1.26,3.2C851.78,212.47,850.38,213.16,844.72,212.33Z"/><path class="cls-6" d="M1068,165.93c-4.58-1.53-8.41-2.67-12.11-4.15a3.27,3.27,0,0,1-1.63-2.72c1.84-7.32-1.25-13.73-3.85-20.06-2-5-5.32-9.41-7.6-14.3-1-2.2-1.1-4.9-1.33-7.4-.06-.65.91-2,1.43-2a3.38,3.38,0,0,1,2.65,1.22c2.62,4.63,5.43,9.21,7.37,14.12,1.47,3.71,1.82,7.89,2.5,11.89.32,1.89-.57,3.94,2,5.18,1.06.5,1.29,2.62,2.07,3.9,2.21,3.64,4.53,7.21,6.77,10.84C1066.86,163.36,1067.23,164.34,1068,165.93Z"/><path class="cls-6" d="M933,142.66c-.29,1.49-.15,4.07-1,4.46-2,.91-4.48.85-6.77,1-.34,0-1.06-1.15-1.07-1.77q-.09-16.12,0-32.24a18.28,18.28,0,0,1,.71-4.45c.18-.65.84-1.18,1.29-1.77.54.53,1.42,1,1.59,1.6a111.2,111.2,0,0,1,3,12.67C931.77,128.87,932.27,135.68,933,142.66Z"/><path class="cls-4" d="M1041.08,127.5c1.31,2.5,2.79,4.93,3.92,7.51,2.43,5.53,5,11,6.88,16.75.82,2.5.14,5.5.14,8.76-4.26-1.23-7.86-2.14-11.32-3.4-.62-.23-1-1.93-1-2.91.35-4.8,1.12-9.57,1.33-14.37.14-3.27-.42-6.57-.64-9.86-.05-.76,0-1.54,0-2.31Z"/><path class="cls-7" d="M905.11,326.11c-.58,2.71-1.25,5.21-1.6,7.75-.16,1.14.44,2.36.51,3.56a52.88,52.88,0,0,1,.2,8.43c-.37,3.52-1.32,7-2,10.48a5,5,0,0,1-3,3.78c-4.08,2.05-8.19,3.08-12.62,1.44-3.37-1.24-3.77-3.61-1.13-6a8.32,8.32,0,0,1,7.43-2c6.94,1.19,7.16.89,7.3-6.16.12-6.55.42-13.11.94-19.64C901.42,324.7,902.25,324.52,905.11,326.11Z"/><path class="cls-6" d="M1053.41,163.4c4.52,1.53,9.14,3.08,13.75,4.66.4.14,1,.41,1,.69.37,2.7,1.26,5.54.78,8.1-.73,3.91-2.78,4.6-6.75,3.38-1.09-.34-2.28-.37-3.37-.73s-2.53-.68-3.29-1.5C1052.47,174.64,1049.75,168.49,1053.41,163.4Z"/><path class="cls-6" d="M853.18,161.29c0-7.22.09-13.54,2.51-19.41,1.66-4,6.25-7.61,9.63-8.72a103.66,103.66,0,0,1-1.3,10.91,67.6,67.6,0,0,1-4.12,13.71C859.15,159.42,855.94,159.93,853.18,161.29Z"/><path class="cls-6" d="M978.58,103.27c.64,14.74,4.27,28.92,8.35,43.07-6.65.73-8.34-1-8.49-5.39-.42-11.65-1-23.28-1.48-34.93a9.35,9.35,0,0,1,.87-2.82Z"/><path class="cls-6" d="M884.8,155.07c.91-11.38-.32-22.74,7.79-32.9,0,2.29.07,4.1,0,5.91-.11,2.3-.4,4.59-.52,6.89-.24,4.72-.59,9.43-.55,14.15,0,3-.72,5-4,5.24A20,20,0,0,0,884.8,155.07Z"/><path class="cls-6" d="M811.1,205.2c4.54-11.16,10.23-20.57,18.34-28.36l.67.33a3.92,3.92,0,0,1,0,1c-1.17,4.45-2.28,8.92-3.62,13.32a8.91,8.91,0,0,1-2.21,3.53q-4.6,4.6-9.5,8.92C814,204.57,812.76,204.64,811.1,205.2Z"/><path class="cls-6" d="M835.12,170.92c4.85-8,9-16.46,15.48-23.42l1.06.29c-.43,4.52-.18,9.25-1.52,13.48-.78,2.47-4.09,4.13-6.27,6.16C839.83,165.89,838.48,170.31,835.12,170.92Z"/><path class="cls-6" d="M979.27,148.36a6.13,6.13,0,0,1,1.14-.48c6.25-.27,6.63,0,7.06,6.18.16,2.3.24,4.61.2,6.91a5.68,5.68,0,0,1-.68,3.08,16.51,16.51,0,0,1-3.14,2.64c-.61-.91-1.58-1.75-1.78-2.75C981,158.71,980.17,153.45,979.27,148.36Z"/><path class="cls-6" d="M1004.51,172.77c-2.1-3.06-3.29-15.8-2.49-22.54,2.48.55,4.94,1,7.35,1.68.35.09.71,1,.68,1.47a30.35,30.35,0,0,1-1.07,6.81l-.49-5.7-.67,0a77,77,0,0,1-.59,9C1006.72,166.46,1005.57,169.28,1004.51,172.77Z"/><path class="cls-6" d="M908.44,124.69c.53,2.64,1.23,5.25,1.55,7.91.61,5.11,1,10.25,1.51,15.37.28,2.81-2,2.24-3.42,2.41-.31,0-.92-1.59-1.2-2.51s-.34-2.08-.58-3.11a33.47,33.47,0,0,1,1.32-20Z"/><path class="cls-6" d="M830.29,188.17a8.93,8.93,0,0,1-.51-2.17,16.93,16.93,0,0,1,6.75-12.59c.14-.11.31-.29.45-.27,4.3.51,6.5-3.27,9.81-4.76.21-.09.5,0,1.23.05C842.92,175.77,836.86,181.81,830.29,188.17Z"/><path class="cls-6" d="M923.89,154.52c.41-1.79.45-4.05,1.06-4.22a27.23,27.23,0,0,1,6.84-.55c.2,0,.69,1.2.58,1.75-.72,3.56-1.49,7.12-2.44,10.63-.22.81-1.18,1.89-1.89,2s-1.77-1-2-1.74C925.13,159.7,924.52,157,923.89,154.52Z"/><path class="cls-4" d="M1033,101.43l12.31,11.09-7.55,3.15L1032.13,102Z"/><path class="cls-6" d="M863.52,158.38c-.29-.91-1-1.95-.8-2.72,1.21-4.17,2.64-8.27,4-12.39a11.61,11.61,0,0,1,.77-1.4c1.67,2.6,1.12,5.1.79,7.57-.36,2.63-.89,5.24-1.15,7.88-.32,3.18-.62,3.53-4.21,3.51l1.17-2.53Z"/><path class="cls-6" d="M1027.41,155.73a41.58,41.58,0,0,1,5.2,1.3c1.09.42,2.91,1.58,2.81,2a9.26,9.26,0,0,1-2.44,4.69c-.66.56-2.87-.08-4-.78C1027,161.72,1026.67,159.66,1027.41,155.73Z"/><path class="cls-6" d="M909.08,161.43c-2.36-2.22-2-5.31-2.28-8.11-.13-1.3,2.25-1.73,5.28-.82l-1.86,9Z"/><path class="cls-6" d="M890.65,156.14l-3.95,8.43-1-.12c-.21-2.58-.79-5.23-.38-7.71.12-.71,3.14-.94,4.83-1.39Z"/><path class="cls-6" d="M1070.7,274l8.49-23.07c-1.46,8.71-3.4,16.47-7.88,23.34Z"/><path class="cls-6" d="M921.56,148V133.73C922.31,138.47,924,143.2,921.56,148Z"/><path class="cls-6" d="M883.19,164.71l2.25,6.09-2.62.58a21.07,21.07,0,0,1-.44-3.42A17,17,0,0,1,883.19,164.71Z"/><path class="cls-6" d="M976.14,120v12h-.76V120Z"/><path d="M968.48,285.74c-5.55.69-11.1,1.42-16.66,2.06-2.11.24-4.25.34-6.37.42-6.3.22-12.6.47-18.91.56a44.62,44.62,0,0,1-9.54-.49c-4.08-.85-6.11-3.76-6.17-7.9-.09-6.66-.39-13.34,0-20a19.15,19.15,0,0,1,5.06-12.61c2.66-2.76,4.89-3,8-.62,6,4.6,13,5.88,20.3,5.82,2,0,3.92-.19,5.88-.16,9.29.11,17.87-2.6,26.19-6.45a27.64,27.64,0,0,1,6-2c3-.62,5.64,1.63,5.56,5.25-.13,6-.72,12.07-1.12,18.1,0,.69-.38,1.78-.07,2,2.31,1.8.73,2.6-.65,3.78a9.84,9.84,0,0,0-2,3.09c-1.1,2.13-1.79,4.55-3.24,6.38a9.16,9.16,0,0,1-4.77,2.86c-2.39.55-5,.34-7.46.46ZM929,262.41c9.36-1.09,17.94-2.05,26.5-3.12,3.26-.4,6.48-1.34,9.75-1.51,6.93-.36,13.48-1.8,19.35-5.63a2.25,2.25,0,0,0,.8-1.71c-.1-2.21-2-3.35-4.47-2.55-5.24,1.72-10.39,3.71-15.66,5.3a67,67,0,0,1-29.07,1.89c-4.94-.72-9.67-2.89-14.51-4.35-.81-.25-2.27-.62-2.44-.33-1,1.55-2.08,3.27-2.16,5a4.82,4.82,0,0,0,2.21,3.81A88.74,88.74,0,0,0,929,262.41Zm52.46,12.88a37.32,37.32,0,0,0-6.06,1c-9.58,3.37-19.46,4.2-29.51,3.91-5.61-.16-11.22-.41-16.83-.51-1.35,0-3.12,1-4,.46-2.93-1.93-6.09-1.34-9.19-1.55-2.25-.16-2.56.85-2,2.78,1,3.37,3.74,4.35,6.63,4.36,4.61,0,9.21-.58,13.83-.79,7.52-.33,15,.66,22.6-.87,5.62-1.14,11.54-.76,17.31-1.21C978.45,282.6,980.65,280.24,981.43,275.29Zm-7.78-1.13a31.11,31.11,0,0,1-.63-3.67c-.09-2.84,0-5.68-.14-8.51,0-.61-1-1.69-1.43-1.65-4.76.37-9.5.92-14,1.4,1,3.68,1.82,6.92,2.81,10.66l2.06-2.67.45.28c-1.21,2.33-2.41,4.66-3.78,7.32Zm-18.9-11.63c-3.12.34-5.83.69-8.55.9a2,2,0,0,0-2.15,2.12c-.43,3.89-.95,7.77-1.46,11.94,3.55,0,6.93-.16,10.28.05,2.85.17,3.64-1.19,3.35-3.64C955.78,270.17,955.26,266.45,954.75,262.53Zm-40.33-6.1a9.9,9.9,0,0,0-.81,2.12c-.22,3.8-.55,7.61-.53,11.42,0,5.84.12,5.84,5.81,6.07,6.45.26,6.45.26,6.33-6.27a6.7,6.7,0,0,0-4.67-6.6C917.6,262.1,914.64,261,914.42,256.43Zm26.33,21.24c-.42-4.25-.78-7.93-1.14-11.6a1.82,1.82,0,0,0-2.29-1.87c-2.39.21-4.8.16-7.18.41a3.12,3.12,0,0,0-2.1,1.23,5.54,5.54,0,0,0,1.43,7l-1.29,4.05Zm34.48-4.33a51.47,51.47,0,0,0,6-.92,3.29,3.29,0,0,0,2.13-1.9c.83-5.06,1.41-10.15,2.17-15.94-2.61,1.54-4.52,2.79-6.54,3.81a5.36,5.36,0,0,0-2.47,7.52,2.53,2.53,0,0,1,.38,1.58C976.45,269.37,975.85,271.21,975.23,273.34Z"/><path d="M1071.12,251.52c-2.83,3-5.31,6.47-8.55,9-5.6,4.28-13.1.63-13.82-6.4-.22-2.09-.22-4.2-.32-6.28-3.92-.06-5.61,1.5-5.87,5.26-1.91.66-2.59-.25-2.48-2,.18-3.18,6-7.43,9-6.38a4,4,0,0,1,2,2.5,16.17,16.17,0,0,1,.12,4.24,7.68,7.68,0,0,0,4.72,7.66c3,1.32,5.26.14,7.31-2.13,1.78-2,3.78-3.75,5.72-5.57a5.57,5.57,0,0,1,1.44-.73Z"/><path d="M1007.45,229.61l-3.68-.7c2.12-3.75,5.08-4,7-1a6.47,6.47,0,0,1,1.09,3.5c-.16,3.34,1.23,5.78,3.6,8a34.83,34.83,0,0,1,3.46,4.08c2.58,3.2,5.53,4.14,9.42,3,1.08-.32,2.16-.59,3.61-1-3.23,4.41-10.92,4.62-14.34.8-2-2.19-4.25-4.17-5.78-6.62-1.25-2-1.59-4.59-2.31-6.92-.4-1.29-.77-2.6-1.15-3.9Z"/><path d="M891,284.08c-2.15,1.79-4.4,2.54-6.85,1.26s-2.57-3.81-2.64-6.24.26-4.7-.36-6.83c-.51-1.79-2.16-3.25-3.28-4.87-.8-1.16-2.46-2.69-2.16-3.46a14.22,14.22,0,0,1,3.59-4.68c.33-.33,1.56.24,2.38.4-.31.76-.41,1.78-1,2.23-2.64,2.13-2.8,2.23-.22,4.15,3.87,2.88,4.13,7,4.15,11.17a16.2,16.2,0,0,1-.37,2.37c-.45,3,.65,4.32,3.7,4.49C889,284.13,890,284.08,891,284.08Z"/><path d="M846.56,262l1.2,3.81c3.55-1.07,5.36-4.36,4.27-7.54-.34-1-1-1.87-1.43-2.86a6.38,6.38,0,0,1-.72-3c.46-2.89,7.63-7.84,10.57-7.51q3.62.42,1.27,3.84c-2.55-2-8.24.18-8.83,3.49a4.48,4.48,0,0,0,.79,2.7c2.66,4.55-.25,12-5.3,13.3a2,2,0,0,1-2.76-2C845.59,265,846.12,263.83,846.56,262Z"/><path d="M900.74,224.66c-4.07-3.06-9.43-2.1-11.73,1.45a3.7,3.7,0,0,0-.42,1.52,12.8,12.8,0,0,1-10.47,10.76c-1,.14-2-.49-3.07-.76a18.69,18.69,0,0,1,2.32-2.06c1.9-1.18,4.86.12,6.17-2.39.86-1.65,1.34-3.49,2-5.23.5-1.25.77-2.78,1.66-3.64a14.35,14.35,0,0,1,9.25-4.26c1.47-.07,3.07.9,4.44,1.68C901.24,221.91,900.85,223.31,900.74,224.66Z"/><path d="M898.91,201.55c-4.74.59-8.64-1.42-12.46-3.87-2.21-1.41-4.52-3-7-3.58-3.7-.94-6.62-2.46-7.35-6.37s2.24-5.94,4.66-8.13c6.53-5.88,14.59-6.25,22.77-6.36,3.28-.05,6.59-1,9.8-.74a69.29,69.29,0,0,1,13.94,2.63c3.71,1.14,4.79,4.38,2.82,7.77a36.89,36.89,0,0,1-6.15,7.57,76.44,76.44,0,0,1-9.39,7.85C906.56,201.12,905.8,201.1,898.91,201.55Zm5.24-21c.28-1.44.2-2.41.64-3a9.93,9.93,0,0,1,2.38-1.67h-19.9c3.74,6.36.67,10.61-3.64,13.53a3.71,3.71,0,0,1-3.19.14,6.62,6.62,0,0,1-3-3c-.46-1.21.14-2.81.29-4.45-1.67,1.25-3.5,2.13-3.06,4.63a4.82,4.82,0,0,0,4.68,4.38c3.74.23,6.5,2.23,9.29,4.31,6.49,4.83,15.59,4.47,20.7.95s9.36-7.86,13.76-12.11a5.26,5.26,0,0,0,.91-4.38c-.78-2.77-6.9-4.54-9.48-3.05-.35.2-.82.61-1.08.51C909.84,176,907.35,178,904.15,180.57Z"/><path d="M952.35,193.36a13.77,13.77,0,0,1-1.56-1.84c-1.36-2.41-2.85-3-5.18-1.89-2.59,1.23-3.79,3.6-2.72,5.83a31.65,31.65,0,0,0,3,5c2.53,3.45-1.56,8.69-5.58,9.2-.48.06-1.09-.84-1.63-1.29.47-.39,1-1.14,1.41-1.09,1.95.22,3.74-.42,4-2.19.25-1.42-.7-3.1-1.28-4.6a11.52,11.52,0,0,0-1.49-2.2c-2.22-3.23-2.31-5.32-.33-8.09a8.35,8.35,0,0,1,8.48-3.2C952.43,187.86,953.33,189.53,952.35,193.36Z"/><path d="M870.08,304.63c1,.08,2.7-.19,3,.3.68,1.28.72,2.87-1.11,3.73l-1.91-3.1Z"/><path class="cls-8" d="M929,262.41a88.74,88.74,0,0,1-9.7-3.23,4.82,4.82,0,0,1-2.21-3.81c.08-1.7,1.21-3.42,2.16-5,.17-.29,1.63.08,2.44.33,4.84,1.46,9.57,3.63,14.51,4.35a67,67,0,0,0,29.07-1.89c5.27-1.59,10.42-3.58,15.66-5.3,2.44-.8,4.37.34,4.47,2.55a2.25,2.25,0,0,1-.8,1.71c-5.87,3.83-12.42,5.27-19.35,5.63-3.27.17-6.49,1.11-9.75,1.51C946.91,260.36,938.33,261.32,929,262.41Z"/><path class="cls-8" d="M981.43,275.29c-.78,4.95-3,7.31-7.18,7.63-5.77.45-11.69.07-17.31,1.21-7.57,1.53-15.08.54-22.6.87-4.62.21-9.22.81-13.83.79-2.89,0-5.63-1-6.63-4.36-.57-1.93-.26-2.94,2-2.78,3.1.21,6.26-.38,9.19,1.55.85.55,2.62-.49,4-.46,5.61.1,11.22.35,16.83.51,10,.29,19.93-.54,29.51-3.91A37.32,37.32,0,0,1,981.43,275.29Z"/><path class="cls-3" d="M973.65,274.16,959,277.32c1.37-2.66,2.57-5,3.78-7.32l-.45-.28-2.06,2.67c-1-3.74-1.84-7-2.81-10.66,4.49-.48,9.23-1,14-1.4.46,0,1.4,1,1.43,1.65.17,2.83,0,5.67.14,8.51A31.11,31.11,0,0,0,973.65,274.16Z"/><path class="cls-3" d="M954.75,262.53c.51,3.92,1,7.64,1.47,11.37.29,2.45-.5,3.81-3.35,3.64-3.35-.21-6.73-.05-10.28-.05.51-4.17,1-8.05,1.46-11.94a2,2,0,0,1,2.15-2.12C948.92,263.22,951.63,262.87,954.75,262.53Z"/><path class="cls-3" d="M914.42,256.43c.22,4.52,3.18,5.67,6.13,6.74a6.7,6.7,0,0,1,4.67,6.6c.12,6.53.12,6.53-6.33,6.27-5.69-.23-5.79-.23-5.81-6.07,0-3.81.31-7.62.53-11.42A9.9,9.9,0,0,1,914.42,256.43Z"/><path class="cls-3" d="M940.75,277.67l-12.57-.79,1.29-4.05a5.54,5.54,0,0,1-1.43-7,3.12,3.12,0,0,1,2.1-1.23c2.38-.25,4.79-.2,7.18-.41a1.82,1.82,0,0,1,2.29,1.87C940,269.74,940.33,273.42,940.75,277.67Z"/><path class="cls-3" d="M975.23,273.34c.62-2.13,1.22-4,1.68-5.85a2.53,2.53,0,0,0-.38-1.58,5.36,5.36,0,0,1,2.47-7.52c2-1,3.93-2.27,6.54-3.81-.76,5.79-1.34,10.88-2.17,15.94a3.29,3.29,0,0,1-2.13,1.9A51.47,51.47,0,0,1,975.23,273.34Z"/><path class="cls-5" d="M924,179.93c-.78-2.77-6.9-4.54-9.48-3.05-.35.2-.82.61-1.08.51-3.57-1.39-6.06.61-9.26,3.18.28-1.44.2-2.41.64-3a9.93,9.93,0,0,1,2.38-1.67h-19.9c3.74,6.36.67,10.61-3.64,13.53a3.71,3.71,0,0,1-3.19.14,6.62,6.62,0,0,1-3-3c-.46-1.21.14-2.81.29-4.45-1.67,1.25-3.5,2.13-3.06,4.63a4.82,4.82,0,0,0,4.68,4.38c3.74.23,6.5,2.23,9.29,4.31,6.49,4.83,15.59,4.47,20.7.95s9.36-7.86,13.76-12.11A5.26,5.26,0,0,0,924,179.93Zm-22.81,11.15a.36.36,0,0,1,0-.71A.36.36,0,0,1,901.16,191.08Z"/></g></g></svg>