<svg xmlns="http://www.w3.org/2000/svg" viewBox="0 0 1095.72 827.81"><defs><style>.cls-1{fill:#c0016f;}</style></defs><g id="Warstwa_2" data-name="Warstwa 2"><g id="Warstwa_1-2" data-name="Warstwa 1"><path class="cls-1" d="M761.74,588.31c5.28-1.59,10.67-2.82,16.85-4.42-1.91-6.81.33-14.52-5.09-22-5.76,7-11.15,13.23-16.22,19.73-3.59,4.62-7.19,4.81-10.83.09a11.26,11.26,0,0,1,1.73-15.25c6-5.43,12-10.86,18.27-16,2.72-2.26,3.09-4.06,1.78-7.56-6.66-17.87-19.83-30.75-32.89-43.68A84.07,84.07,0,0,0,720.73,488c-2.11-1.32-5-1.58-7.61,1.64s-7,4.87-10.26,7.56c-9.51,7.69-19.65,14.81-28,23.61A52.32,52.32,0,0,1,657.42,533c-4.36,1.91-8.48-.35-11.07-3.57-2.07-2.56-1.85-5.79.07-9.51,2.69-5.24,7.13-7.95,11.31-11.24,4.83-3.79,9.7-7.53,14.71-11.07,2.41-1.7,5.37-2.65,7.78-4.35,7-4.93,13.81-10.07,21.62-15.81l-14.54-7.9c0,.19,0,.38.05.57-3.55-1-7.1-2-10.64-3.07-1.07-.33-2.05-1.12-3.13-1.28-6.25-1-9.15,1.72-10.38,9.45a22.86,22.86,0,0,0-.23,2.48c-.17,4.07.93,9-6.1,8.11-.82-.1-2,2-2.88,3.2-1.41,1.79-1.91,5.5-5.23,3.77-2.55-1.34-5.86-3.56-6.4-5.94-1-4.33-1.39-9.47,5.07-13l-5.65.89c2.46-4.35,2.32-9.15,7-12,2.31-1.45,2.69-4.59-2-7.1-7.28-3.89-13.61-9.73-19.89-15.26-2.24-2-4.38-4.06-6.48-6.19-.9.74-1.78,1.48-2.65,2.25-8.85,7.8-16.58,16.75-24.62,25.34-3.5,3.74-7.15,7.33-10.53,11.17-2.88,3.27-5.7,6.6-8.77,9.69-5.82,5.86-12.94,11-21.54,11.06-4.74,0-9.45-1.48-13.76-3.35a70.08,70.08,0,0,1-13.07-7.7c-8.17-5.92-15.5-12.93-23.84-18.61a.7.7,0,0,1-.39-.18l0,0a4.15,4.15,0,0,1-.58-.43.58.58,0,0,1-.17-.34,7.35,7.35,0,0,1-4.7,2c-5.24.26-9.19,6.72-15.62,2.3-3.82-2.62-9-3.22-13.64-4.72L464.72,464c.83,5.08,1.61,10.16,2.5,15.22.17.95,1.23,1.95,1,2.73-2.08,8.66,3.21,16.5,2.64,24.95a6.12,6.12,0,0,1-1.22,2.48c-1.4,2.2-2.86,4.36-4.46,6.79-8.22,1-11.82-2.37-11.85-10.79,0-7.7-1-15.41-.76-23.08.23-6.51-.26-12.67-2.6-18.38H438.47c-.09,5.74-6,5.09-9.72,7.07-8.57,4.56-17.42,8.61-26.09,13-6.76,3.4-13.51,6.82-20.11,10.52-5.13,2.88-10,6.14-15,9.34-2.55,1.65-2.59,4.22-3.27,7.06-1.51,6.31,1.17,10.9,3.39,16.15s3.2,11,5,16.48a86.92,86.92,0,0,0,4,9.4c1.29,2.75,2.66,5.18,6.65,4.67,1-.12,3.34,2.7,3.28,4.11-.15,4.06-.53,8.37-2.07,12.06-2.09,5-12.6,6.56-16.26,1.39-2.47-3.47-5.18-7.06-6.42-11-2.7-8.62-4.38-17.56-6.75-26.29A115.8,115.8,0,0,0,350.22,524c-.34-.81-2.46-1.21-3.77-1.25-6.1-.14-7.36,4.85-9.34,9.07a22,22,0,0,1-2.73,5C330,542,325.72,547.5,320.67,552c-4.13,3.7-6.42,9.77-12.89,10.81-.48.08-1.27,2.7-.86,3.16,8.55,9.27,15.05,20.84,28,25.22,3.31,1.12,6.38,7.06,5.57,10.23-.94,3.71-6.79,7.92-10.18,7.25-7.91-1.56-13.31-6.74-17.89-12.86-2.46-3.29-4.39-7-6.77-10.83l-8.55-6.36c-7.89,13.1-15.75,26.13-24.1,40,2.13.67,3.85,1.85,5.23,1.54,8.22-1.84,15.46,1.67,22.94,3.79,6.76,1.93,13.55,3.87,20.13,6.31,7.83,2.91,16,5.54,23,9.82,6.28,3.8,12.93,8.64,11.2,18.1-.23,1.27.58,2.83,1.16,4.15,3.75,8.47,1.93,14.78-4.14,21.72-6.37,7.29-11.64,15.54-17.37,23.38-2.81,3.84-5.58,7.69-8.74,12.06a43.82,43.82,0,0,0,28.25.77c3.37-1,7.18-.49,10.71-1.1,4.48-.79,8.9-2,13.32-3.08,1.28-.31,2.47-.92,3.74-1.26,7.69-2.08,8.39-5.12,5.47-12.81A96.89,96.89,0,0,1,382,678c-.33-3.13,3.17-8,6.26-9.76s7.65-.51,11.57-.28c.56,0,1.33,1.79,1.47,2.82,1,6.84,1.73,13.71,2.72,20.55.69,4.7,1.64,9.35,2.51,14.23,16-2.83,29-10.41,39.92-20,8.57-7.54,19.16-14,24-25.27,1.41-3.32,2.05-7,3.23-10.4.71-2.07,1.85-4,2.68-6,4-9.91,8.17-19.65,8.19-30.79,0-4.6,2.56-9.35,4.56-13.75,4.6-10.16,11.49-19.38,12.25-31.06.05-.81.06-2.06.53-2.33a57.43,57.43,0,0,1,8.95-4.46c1.37-.48,3.32.1,4.83.67,5.51,2.07,7.37,5.87,6.73,12.32-.56,5.74-.78,11.52-1.19,17.28-.3,4.31.81,9.63-1.32,12.69-3.6,5.19,3.38,11-2.07,15.51-.41.34,1.74,3.32,2.14,5.19,1.54,7.2,2.61,14.5,4.34,21.65,1.12,4.61,3.17,9,4.62,13.53.47,1.45.19,3.13.6,4.61a16.92,16.92,0,0,0,2.11,5.19q5.07,7.22,10.54,14.15c2.28,2.87,4.57,5.91,7.45,8.09,8.89,6.71,17.74,13.61,27.33,19.18,3.09,1.8,7,5.42,11.95,3.3,1.21-.52,3.25,1.14,5,1.57,2,.5,4,.76,7,1.3-4.12-8.35-7.41-15.07-10.77-21.77-.74-1.48-1.37-3.24-2.58-4.21-5.43-4.35-4.2-9.52-2-14.75,1.89-4.57,11.19-6.66,14.5-3a30.88,30.88,0,0,1,5.79,9.1c4.28,10.73,8.13,21.63,12.21,32.45,1.12,3,.14,7.43,5.13,7.86,3.44.3,6.9.44,10.34.71,2.12.17,4.26.79,6.35.65,8.26-.56,16.55-1.05,24.76-2.1,9.66-1.23,19.38-2.43,28.83-4.71,11.23-2.7,23-4,33.14-10.34,2.17-1.35,4.81-1.94,7.2-3,3.25-1.4,3.2-3.53,1-5.83q-5.07-5.35-10.3-10.53c-5.57-5.52-11.42-10.77-16.75-16.51Q694,657,680.94,641.75c-3.49-4.08-5.82-9-5.19-14.65a3.48,3.48,0,0,1,1.79-2.52c3.81-1,7.69-2.14,11.58-2.31,3.72-.16,7,.74,9.48,4.75a235.46,235.46,0,0,0,33,42.48c5.3,5.44,9.78,11.68,14.51,17.66,1,1.28,1.5,3,2.74,4.09A107,107,0,0,0,764.8,656c2.12-8.15,4.4-16.27,6.21-24.49,1.63-7.38,2.74-14.88,4.07-22.32.63-3.51-1.24-4.06-4.07-3.42-3.48.78-6.94,1.59-10.52,2.42-1.45-2.11-2.86-3.95-4-5.92C752.64,595.93,754.67,590.43,761.74,588.31Z"/><path d="M945.35,439.28c.39-5.78-2.94-8.72-8.22-6.14-6.28,3.07-12.13,7.09-18,11-8.94,5.94-17.56,12.35-26.58,18.15C880,470.34,867,477.85,854.45,485.94c-11.4,7.33-22.53,15.07-33.74,22.7-8.63,5.86-17.18,11.84-25.78,17.73-3.49,2.39-7.06,4.67-9.64,6.38-6.27-9.37-11.71-18.07-17.77-26.32a81.41,81.41,0,0,0-12.42-13.35c-3.93-3.38-5.74-10.12-12.87-9-.19,0-.7-.53-.65-.66,1.76-4.68-3.83-4.52-5.24-8.06a57.71,57.71,0,0,1,6-3.75c9.25-4.28,18.67-8.2,27.83-12.68,10.5-5.13,20.66-11,31.2-16,8.78-4.21,17.83-7.91,26.91-11.45a6.08,6.08,0,0,1,5.51,1.34c2.61,3.16,5.49,2.78,8.34,1.39s4.57-7.28,3.4-10.18c-1.59-3.91-3.28-7.81-4.56-11.83-1.44-4.54-3.7-6.17-8-4.31-3.29,1.43-6.07,4-9.33,5.53-9.45,4.49-19.1,8.54-28.52,13.09-12.74,6.15-25.37,12.54-38,18.94-4.23,2.15-8.25,4.72-12.42,7q-7.29,4-14.68,7.71c-4,2-8.13,5.57-11.94,5.25-3.24-.27-5.68-.85-8.15,1.94-.65-6.18-4.06-9.42-10.14-10.63-2.66-.53-5.19-1.72-7.84-2.36-4.21-1-8.47-1.83-10.74-2.31-2.76-1.56-4.39-3.07-6.26-3.45-6.45-1.31-5.77-5.57-4.65-10.15.31-1.26.83-2.47,1.08-3.73q3.54-17.53,7-35.07c.56-2.83.88-5.7,1.61-8.48.77-2.94,1.85-5.8,2.88-8.66,1.72-4.83,2.17-9.92,7.72-13.08,8-4.57,8.79-8,5.82-14.69s-12-9.08-17.37-4.43a5.14,5.14,0,0,0-1.07,2.11c-1.46,4.2-2.89,8.4-4.33,12.6-2,5.88-4.32,11.68-6,17.66-1.88,6.85-3.38,13.82-4.65,20.81-1.21,6.67-1.7,13.47-2.9,20.14a98,98,0,0,1-3.52,12.87c-.26.79-2.05,1.87-2.63,1.63a32.27,32.27,0,0,1-7.64-4.16c-2.75-2.19-4.95-5-7.54-7.45-1.9-1.77-4.37-3-6-5-2.87-3.49-5.12-7.47-7.91-11-6-7.67-9.36-17-10.94-25.91-3.14-17.75-4.55-36-1.26-54,1.14-6.25,2.57-12.76,9.36-15.87,7.19-3.29,8.19-7,3.66-13.54-2.23.54-4.46,1-6.64,1.65-3.9,1.17-8.15,1.81-11.55,3.84-6.55,3.91-12,8.65-10.25,17.93.84,4.43.07,9.28-.52,13.86a173.18,173.18,0,0,0,1.32,54.1c2.21,11.9,5.56,23.28,13.77,32.54,2.44,2.75,4.93,5.48,7.5,8.13l.7-.6c.66-.53,1.6.4.94.94l-.7.6c2.1,2.13,4.24,4.22,6.48,6.19,6.28,5.53,12.61,11.37,19.89,15.26,4.71,2.51,4.33,5.65,2,7.1-4.67,2.9-4.53,7.7-7,12l5.65-.89c-6.46,3.5-6,8.64-5.07,13,.54,2.38,3.85,4.6,6.4,5.94,3.32,1.73,3.82-2,5.23-3.77.92-1.16,2.06-3.3,2.88-3.2,7,.86,5.93-4,6.1-8.11a22.86,22.86,0,0,1,.23-2.48c1.23-7.73,4.13-10.41,10.38-9.45,1.08.16,2.06.95,3.13,1.28,3.54,1.06,7.09,2.05,10.64,3.07,0-.19,0-.38-.05-.57l14.54,7.9c-7.81,5.74-14.64,10.88-21.62,15.81-2.41,1.7-5.37,2.65-7.78,4.35-5,3.54-9.88,7.28-14.71,11.07-4.18,3.29-8.62,6-11.31,11.24-1.92,3.72-2.14,7-.07,9.51,2.59,3.22,6.71,5.48,11.07,3.57a52.32,52.32,0,0,0,17.44-12.16c8.35-8.8,18.49-15.92,28-23.61,3.31-2.69,7.7-4.36,10.26-7.56s5.5-3,7.61-1.64a84.07,84.07,0,0,1,14.61,11.23c13.06,12.93,26.23,25.81,32.89,43.68,1.31,3.5.94,5.3-1.78,7.56-6.23,5.19-12.26,10.62-18.27,16a11.26,11.26,0,0,0-1.73,15.25c3.64,4.72,7.24,4.53,10.83-.09,5.07-6.5,10.46-12.75,16.22-19.73,5.42,7.44,3.18,15.15,5.09,22-6.18,1.6-11.57,2.83-16.85,4.42-7.07,2.12-9.1,7.62-5.3,13.94,1.19,2,2.6,3.81,4,5.92,3.58-.83,7-1.64,10.52-2.42,2.83-.64,4.7-.09,4.07,3.42-1.33,7.44-2.44,14.94-4.07,22.32-1.81,8.22-4.09,16.34-6.21,24.49a107,107,0,0,1-15.93,35.27c-1.24-1.12-1.73-2.81-2.74-4.09-4.73-6-9.21-12.22-14.51-17.66a235.46,235.46,0,0,1-33-42.48c-2.43-4-5.76-4.91-9.48-4.75-3.89.17-7.77,1.31-11.58,2.31a3.48,3.48,0,0,0-1.79,2.52c-.63,5.67,1.7,10.57,5.19,14.65q13.08,15.25,26.77,30c5.33,5.74,11.18,11,16.75,16.51q5.22,5.19,10.3,10.53c2.18,2.3,2.23,4.43-1,5.83-2.39,1-5,1.61-7.2,3-10.17,6.31-21.91,7.64-33.14,10.34-9.45,2.28-19.17,3.48-28.83,4.71-8.21,1-16.5,1.54-24.76,2.1-2.09.14-4.23-.48-6.35-.65-3.44-.27-6.9-.41-10.34-.71-5-.43-4-4.89-5.13-7.86-4.08-10.82-7.93-21.72-12.21-32.45a30.88,30.88,0,0,0-5.79-9.1c-3.31-3.61-12.61-1.52-14.5,3-2.16,5.23-3.39,10.4,2,14.75,1.21,1,1.84,2.73,2.58,4.21,3.36,6.7,6.65,13.42,10.77,21.77-3-.54-5-.8-7-1.3-1.72-.43-3.76-2.09-5-1.57-5,2.12-8.86-1.5-11.95-3.3-9.59-5.57-18.44-12.47-27.33-19.18-2.88-2.18-5.17-5.22-7.45-8.09q-5.48-6.91-10.54-14.15a16.92,16.92,0,0,1-2.11-5.19c-.41-1.48-.13-3.16-.6-4.61-1.45-4.54-3.5-8.92-4.62-13.53-1.73-7.15-2.8-14.45-4.34-21.65-.4-1.87-2.55-4.85-2.14-5.19,5.45-4.5-1.53-10.32,2.07-15.51,2.13-3.06,1-8.38,1.32-12.69.41-5.76.63-11.54,1.19-17.28.64-6.45-1.22-10.25-6.73-12.32-1.51-.57-3.46-1.15-4.83-.67a57.43,57.43,0,0,0-8.95,4.46c-.47.27-.48,1.52-.53,2.33-.76,11.68-7.65,20.9-12.25,31.06-2,4.4-4.55,9.15-4.56,13.75,0,11.14-4.17,20.88-8.19,30.79-.83,2-2,4-2.68,6-1.18,3.44-1.82,7.08-3.23,10.4-4.82,11.31-15.41,17.73-24,25.27-10.88,9.59-23.92,17.17-39.92,20-.87-4.88-1.82-9.53-2.51-14.23-1-6.84-1.74-13.71-2.72-20.55-.14-1-.91-2.78-1.47-2.82-3.92-.23-8.6-1.42-11.57.28S381.69,674.9,382,678A96.89,96.89,0,0,0,388,702c2.92,7.69,2.22,10.73-5.47,12.81-1.27.34-2.46.95-3.74,1.26-4.42,1.09-8.84,2.29-13.32,3.08-3.53.61-7.34.08-10.71,1.1a43.82,43.82,0,0,1-28.25-.77c3.16-4.37,5.93-8.22,8.74-12.06,5.73-7.84,11-16.09,17.37-23.38,6.07-6.94,7.89-13.25,4.14-21.72-.58-1.32-1.39-2.88-1.16-4.15,1.73-9.46-4.92-14.3-11.2-18.1-7.07-4.28-15.2-6.91-23-9.82-6.58-2.44-13.37-4.38-20.13-6.31-7.48-2.12-14.72-5.63-22.94-3.79-1.38.31-3.1-.87-5.23-1.54,8.35-13.84,16.21-26.87,24.1-40l8.55,6.36c2.38,3.85,4.31,7.54,6.77,10.83,4.58,6.12,10,11.3,17.89,12.86,3.39.67,9.24-3.54,10.18-7.25.81-3.17-2.26-9.11-5.57-10.23-13-4.38-19.47-16-28-25.22-.41-.46.38-3.08.86-3.16,6.47-1,8.76-7.11,12.89-10.81,5.05-4.53,9.28-10,13.71-15.2a22,22,0,0,0,2.73-5c2-4.22,3.24-9.21,9.34-9.07,1.31,0,3.43.44,3.77,1.25a115.8,115.8,0,0,1,4.88,13.87c2.37,8.73,4,17.67,6.75,26.29,1.24,4,3.95,7.56,6.42,11,3.66,5.17,14.17,3.65,16.26-1.39,1.54-3.69,1.92-8,2.07-12.06.06-1.41-2.31-4.23-3.28-4.11-4,.51-5.36-1.92-6.65-4.67a86.92,86.92,0,0,1-4-9.4c-1.79-5.45-2.77-11.22-5-16.48s-4.9-9.84-3.39-16.15c.68-2.84.72-5.41,3.27-7.06,4.95-3.2,9.86-6.46,15-9.34,6.6-3.7,13.35-7.12,20.11-10.52,8.67-4.37,17.52-8.42,26.09-13,3.72-2,9.63-1.33,9.72-7.07H450c2.34,5.71,2.83,11.87,2.6,18.38-.27,7.67.73,15.38.76,23.08,0,8.42,3.63,11.77,11.85,10.79,1.6-2.43,3.06-4.59,4.46-6.79a6.12,6.12,0,0,0,1.22-2.48c.57-8.45-4.72-16.29-2.64-24.95.18-.78-.88-1.78-1-2.73-.89-5.06-1.67-10.14-2.5-15.22l1.75-1.47c4.6,1.5,9.82,2.1,13.64,4.72,6.43,4.42,10.38-2,15.62-2.3a7.35,7.35,0,0,0,4.7-2,.61.61,0,0,1,0-.13s0,0,0,0a.65.65,0,0,1,0-.89.5.5,0,0,1,.22-.13.44.44,0,0,1,.25-.06.7.7,0,0,1,.34.1,8.4,8.4,0,0,0,1.19-4.18,72.43,72.43,0,0,0-1.39-14.44c-1.54-6.56,1.26-13.24-1.19-19.75-1-2.67-.86-5.75-1.39-8.61-.58-3.13-2-6.25-1.89-9.34.23-9.81.85-19.62,1.58-29.41.32-4.2,1.58-8.32,1.92-12.52.79-9.94,1.14-19.91,2-29.85.29-3.41.72-7.23,2.45-10,4.48-7.16,5.13-14.78,4.52-22.79-.32-4.24-4.88-9-10-8.77-2.6.12-5.94,2.72-7.37,5.14-1.68,2.82-1.83,6.63-2.32,10.06q-2.07,14.36-3.85,28.75c-.94,7.59-1.68,15.21-2.56,22.82-1,8.89-2.58,17.75-3,26.67-.57,11.57-.75,23.21-.2,34.77.36,7.46,2.46,14.82,3.37,22.27.11.84-2.33,2.72-3.71,2.86a61.71,61.71,0,0,1-10.7-.11,24.11,24.11,0,0,1-7.14-1.37c-5.35-2.15-4.87-8.07-6.84-12.2C449.18,420.35,443,409.59,434,400.44c-1.87-1.91-2.32-5.19-3.43-7.85l1.29-.53-10.75-4.49c-2.44,1.52-5.95,3.4-9.1,5.74-4.81,3.58-4.24,12.64,1.29,15.14,14.86,6.72,23.23,19.29,30.67,32.79,1.33,2.41,2.58,5.41-1.36,7-3.15,1.29-6.29,2.61-9.51,3.67-21.71,7.13-40.45,20.05-60.27,30.86-4.13,2.26-8.16,4.71-12.61,7.3-1-8.37-2.05-15.72-2.81-23.11-.56-5.38-.89-10.79-1.12-16.19-.11-2.71.25-5.45.48-9.61,3.57,2.91,5.6,4.83,7.91,6.35a11.75,11.75,0,0,0,4.92,1.73c.82.1,1.79-1,2.69-1.61a25.16,25.16,0,0,1-1.52-2.19c-1.15-2.07-2.38-4.1-3.32-6.27-1.22-2.82-1.87-5.92-3.35-8.58-2.37-4.29-5.64-8.11-7.77-12.5-2.22-4.58-6.14-5.35-10.19-5.34-3.65,0-8.5,5.11-8.45,8.53.16,9.52.42,19.05,1.09,28.55.54,7.85,1.69,15.66,2.63,23.48,1,8.21,1.34,16.6,3.41,24.53,1.12,4.3.23,6-3,7.84a14.47,14.47,0,0,0-3.36,2.68c-6.93,7.48-13.71,15.09-20.73,22.48-3.77,4-8.06,7.44-11.83,11.41-1.9,2-3.15,4.63-4.69,7l1.06,1.67c-2.44-.26-5.5.31-7.18-.95a25.15,25.15,0,0,1-6.53-8c-8.29-15-16.25-30.19-24.53-45.2-3.26-5.92-6.51-12-10.74-17.18-3.76-4.62-9-3.09-13.57-.05-3.68,2.44-3,7-1,10.38,3.73,6.12,7.93,11.94,12.06,17.81,2.84,4,6.28,7.69,8.75,11.93,4.45,7.64,8.06,15.78,12.63,23.34,3.55,5.87,8,11.22,12.13,16.73,2.23,3,4.05,5.65.32,9-2.88,2.6-5.83,5.44-7.76,8.75-6.41,11-12.49,22.22-18.45,33.49-2.8,5.28-5.72,6.4-11.68,5-5.42-1.31-11.11-1.53-16.65-2.39-6.64-1-13.74-1.12-17.91-7.83-3.15-5.07-7-6.18-12.32-3.51-1.78.89-3.5,1.92-5.32,2.7-7.29,3.16-8.08,9.76-2,14.75,6.63,5.43,14.47,6.81,22.59,7.6,10.7,1,21.39,2.16,32.1,3.12,3.07.28,4.12,1.68,3.44,4.59-1.33,5.76-3.11,11.46-3.87,17.3-.89,6.8-2,13.88-1,20.54,1.47,9.74,6.73,18.13,11.74,26.74,9,15.53,23,24.16,38.19,31.76,1.56.79,3,1.81,5.09,3.09-2.44,2.87-4.54,5.15-6.44,7.59-9.27,11.88-18.43,23.84-27.74,35.68-3.9,4.95-8.34,9.49-12.07,14.56a19.55,19.55,0,0,0-3.55,8.56c-.9,6.53,4.92,11.75,10,9.09a50.61,50.61,0,0,0,11.82-8.11c5.75-5.6,10.59-12.13,16.29-17.78,5.38-5.34,11.31-10.13,17.14-15,2.17-1.8,3.26-6,1.57-8.21-2.33-3-4.35-1.78-6.57.33a44.76,44.76,0,0,1-5.42,3.88,69.08,69.08,0,0,1,8-12.89,139,139,0,0,1,9.25-11.54,7.75,7.75,0,0,1,5.65-2.21C324,739,329,741,334.17,741.18a251.2,251.2,0,0,0,26.31-.64c8.63-.59,17.14-2,24.84-6.49s10.11-3.27,11.53,5.26c.08.48.39.92.48,1.41,3.3,17.61,6.49,35.24,9.93,52.82a91.77,91.77,0,0,0,4.3,15.78c2.13,5.47,6.75,6.2,11.07,2.28a66.78,66.78,0,0,0,5.52-5.76c4.81-5.58,4.44-11.52-.71-16.93a9.69,9.69,0,0,1-2.08-4.42c-3.07-13.57-6-27.17-9-40.74a27,27,0,0,0-2.69-7.92c-3.62-6-2.42-10.24,3.83-13,12-5.36,24.27-10.35,34.72-18.62s21.34-16.7,27.85-28.46c5.06-9.12,7.69-19.61,11.14-29.58a40.23,40.23,0,0,1,9.11-15.21c4.21,7.37,3.6,14.83,4.39,21.94.11,1-1.69,2.19-2.44,3.41s-2,2.78-2,4.19c-.09,14.21-2.85,28.27-1.34,42.62,1.29,12.21.81,24.6,1.47,36.89.74,13.73,2,27.44,2.8,41.17.3,5.09.07,10.22-.07,15.33-.22,7.78-1.2,15.61-.55,23.32.24,2.85,3.68,6.68,6.52,7.75,3.16,1.18,5.83-1.82,6.86-5.54.65-2.33,1.51-5.23,3.26-6.5,4.83-3.52,5.39-9.17,5.25-13.53-.27-8.4,2.86-15.12,6.93-21.71,2.63-4.27,2.35-8.74-1.46-11.79l-11.72,13.93c-.27-3.45-.64-6.46-.71-9.48-.47-20.33-.77-40.66-1.38-61-.13-4.22-1.47-8.4-2-12.63a19.9,19.9,0,0,1,.13-6.67c.47-2.15,1.72-4.13,2.67-6.29,3.66-.21,5.63,1.72,6.21,5.3.24,1.46-.07,3.35.74,4.3,5.22,6.09,10.41,12.25,16.17,17.82a67.61,67.61,0,0,0,12.36,8.89c12.16,7.31,25.48,11.31,39.46,13.59A100.35,100.35,0,0,1,608.33,741c1.47.51,2.92,2.41,3.48,4,4.54,12.74,8.67,25.64,13.32,38.34,3.7,10.1,7.84,20.05,12.09,29.93a19.64,19.64,0,0,0,5.07,6.61c3.7,3.27,7.53,2.36,10.38-1.62,5.25-7.37,10.59-14.56,13.29-23.46,1.58-5.19,1-7.15-4.67-8.27l-10.46,12.88c-3-6.22-5.84-11.2-7.73-16.54-2.66-7.51-8.4-13.83-8.6-22.3,0-1-1.12-1.94-1.53-3-1.29-3.25-2.6-6.51-3.58-9.86-.15-.48,1.46-2.09,2.33-2.15,8.29-.6,16.48,1.94,25-.88,6.35-2.11,13.56-1.53,20.33-2.56,3.67-.56,7.17-2.14,10.81-3,8.36-1.9,17.11-2.69,25.06-5.66,9.15-3.42,17.6-8.7,26.37-13.15,2.07-1,4.09-2.59,6.27-2.9,1.77-.25,4.51.41,5.51,1.69,6.84,8.69,13.14,17.8,20,26.43a43.28,43.28,0,0,0,10.3,9.21c3.44,2.21,7.92,2.8,10.75-1.25A116.83,116.83,0,0,0,801.4,738c1.78-3.65.15-5.22-4.17-5.34-3.33-.1-7.06.42-9.89-.9-3.48-1.63-7.5-4.29-9-7.55-3.1-6.83-8.94-10.75-13.76-15.76-3.4-3.52-3.76-7.5-1.16-11.73,3.41-5.54,7.3-11,9.54-17,5-13.52,11.47-26.65,13.53-41.13,1.22-8.51,1.9-17.1,2.65-25.66.4-4.6,3.17-7.59,8.16-7.3a136,136,0,0,1,17.3,2.13c3.55.68,6.82,2.81,10.37,3.44,3.91.7,8.14-.2,12,.71,6.73,1.6,13.25,4,19.85,6.15,5,1.59,9.9,3.22,14.86,4.8,4.28,1.35,8.8,2.17,12.79,4.11,5.33,2.59,10.07,6.39,15.4,9,3.28,1.58,8,3.54,10.64,2.31,4-1.82,7.08-6.07,9.87-9.8.78-1-.21-4.57-1.5-5.78-3.18-3-6.66-6.2-10.63-7.7-9.75-3.7-18.29-10.07-29.1-11.59-7.59-1.07-14.73-5-22.27-6.76-12.84-3.05-25.41-7.39-38.86-7.81-6.61-.2-13.13-2.38-19.76-3-4.66-.44-5.36-2.72-5.69-6.78-.7-8.49-2-16.94-3.25-25.38-.39-2.72-1-4.91,2.35-6.59,3.83-1.9,7.14-4.83,10.78-7.15,7.07-4.52,14.21-8.93,21.31-13.4a32.52,32.52,0,0,0,2.76-1.93c3-2.3,5.76-4.89,8.92-6.91q16.85-10.8,33.9-21.26c10.81-6.64,21.77-13.07,32.59-19.7,2.14-1.3,3.83-3.35,6-4.59,3.38-2,7.08-3.34,10.47-5.29,5.57-3.19,10.64-7.6,16.56-9.7,6.27-2.23,10-5.49,10.78-11.94C945.94,443.22,945.23,441.21,945.35,439.28ZM314.18,713.09c-4.15,4.86-13.7,3.32-17-2.17-.39-.65-1.14-1.5-1.75-1.51-4.74-.15-6.82-3.76-8.91-7-2.36-3.66-5.34-5.68-9.95-5.62,2.3-4.78-1.49-7.13-3.42-9.94-5.68-8.24-7.3-17.46-8.53-27.2-.9-7.15,2.2-13.17,2.72-19.8.38-4.75,4.26-7.33,9-6.21,7.7,1.82,15.53,3.47,22.9,6.28,10.21,3.89,20.11,8.63,30,13.3,6.22,2.93,7.58,6.64,6.42,13.59-.74,4.38,0,9.27-1.64,13.19-2.91,6.85-7.06,13.19-10.91,19.61C320.37,704.24,317.65,709,314.18,713.09Z"/><path d="M18.14,107.42c3.84-6.68,7.35-13.56,11.57-20,6.85-10.41,18-14.51,28.95-19,6.37-2.61,12.82-4.85,19.72-4,7.94,1,16.52,1.06,23.53,4.3,10,4.62,18.89,12.09,18.77,24.71a65,65,0,0,1-3.45,21.37c-3.17,8.69-8.29,16.66-12.44,25-2.8,5.63-5.81,11.29-3.91,18.44a18.49,18.49,0,0,0,3.64,0c8.41-1.71,16.72-4.26,25.21-5.1,10.93-1.07,22-3.49,32.93,1.38,5,2.24,7.12,6.14,8.89,10.67,4.87,12.51,3.46,25,1.23,37.94-3.17,18.48-10.09,35.19-19.73,50.94-5.2,8.49-11.25,16.26-20,21.76-4.19,2.65-7.7,6.42-11.38,9.83-3.14,2.9-16.06,3.19-21.06.3-7.1-4.11-10.12-9.3-7.61-18.53,2-7.27-.57-12.12-5-16.41-15.68-15.26-26.54-33.81-37.26-52.57-6-10.55-13.09-20.52-19.51-30.86-5.48-8.83-10.6-17.87-16.07-26.7-2.85-4.62-6.53-8.76-9-13.54A84.48,84.48,0,0,1,.31,112.23c-1.07-3.55.65-5.77,4.74-5.51C9.5,107,14,107.2,18.14,107.42ZM115,236.59l1.43,2c-1,2-2.07,3.9-2.83,6-.83,2.25-2.07,4.69-1.86,6.93.67,7,6.51,9.61,11.86,11.87,4.79,2,8.24-1.68,10.82-5.09A187.38,187.38,0,0,0,146,241.13c2.68-4.52,5.45-9.29,6.72-14.31,3.11-12.32,5.31-24.86,8-37.28,1.72-7.95-4.88-17.41-12.07-17.68-8.64-.33-17.46-1.09-25.91.23-12.2,1.91-24.15,5.42-36.16,8.45a93,93,0,0,0-15.15,4.79c-5.81,2.6-6.49,6.31-2.91,11.31s7.06,10.31,11,15.16q10.41,12.93,21.42,25.37c1.14,1.28,4,1.63,5.92,1.47C109.58,238.42,112.28,237.32,115,236.59ZM57.4,173.8c7-2.6,13.45-3.53,17.9-7,5.67-4.45,11.1-10.3,14.2-16.72,6-12.42,10.62-25.54,15.23-38.58,5.7-16.12-5.67-26.23-17.73-28.73-17.28-3.58-33,.92-45.7,13.68-6,6-10.2,13.15-10,22,.08,3.43,2.31,7.62,1,10.12C28.21,136.38,34.73,140,37.55,145c.65,1.16,1.49,2.21,2.24,3.3Z"/><path d="M1074.88,157.1c-2-1-4.41-2.32-6.86-3.46-2.22-1-4.45-2.54-6.77-2.74-11.53-1-23.09-1.82-34.65-2.14-4-.12-8.16,1.29-12.19,2.21-11.18,2.54-22.26,5.74-32,11.75-9.5,5.85-19.95,19.62-19.3,33.33.71,15.25,8.85,23.91,21.64,30.21,4.78,2.36,8.65,6.54,13,9.76,2.52,1.86,5.22,3.46,7.85,5.17,3.54,2.32,7.13,4.57,10.63,6.94,3.26,2.2,6.27,4.8,9.67,6.73,8.08,4.6,11.44,13,16,20.21,1.68,2.65,1.28,7.21.61,10.65-2.76,14.22-7.76,27.38-16.37,39.47-11.7,16.46-28.13,22.83-46.9,24.19-10.71.77-21.59-1-32.41-1.41-11.89-.42-23.82-.18-35.68-1A18.12,18.12,0,0,1,900.57,342c-1.27-1.25.1-6,1.3-8.72,2.32-5.24,15.27-12.69,19.9-11.46,2,.52,4.7,2.66,4.89,4.32.4,3.57,2.21,4.6,5.11,4.83,6.61.51,13.24,1.26,19.86,1.24,13.4,0,26.94.54,40.15-1.21,8.77-1.17,16.44-6.92,21-15.24,3.39-6.2,7.23-12.39,9.23-19.08,3.2-10.62,4.09-15.57-4.18-20.63-.42-.26-.94-.59-1.08-1-3.09-9.27-12.23-11.79-19-16.88s-14-9.83-21.07-14.62c-4-2.74-8-5.76-12.38-7.83C953.21,230.5,948.52,221.13,945,210c-5.71-17.77,1-32.8,10-46.64,4.24-6.51,12.3-11.21,19.55-14.94,17.2-8.87,35.35-15.24,55-16.08,11.15-.47,22.13,0,32.9,3.48,6.6,2.14,13.62,3,20.14,5.35,5.6,2,11.65,4.33,12.84,11.48.31,1.86.47,4.2-.38,5.71-3.52,6.29-7.78,12-15.09,14.41-6,2-8.81-.21-7.58-6.34C1073.05,163.33,1074,160.27,1074.88,157.1Z"/><path d="M336.16,100.27c3.37-1.69,5.66-3.27,8.2-4,5.15-1.51,10.45-2.54,15.67-3.83,4.82-1.2,10.23,1.35,14,6.51,2.95,4.08,2.48,7.91-.27,11.91-1.88,2.72-3.3,2-6.1,1a69.78,69.78,0,0,0-18-3.94c-2.78-.23-5.85,2.18-8.68,3.6-3.88,1.93-4.53,5.57-2.5,9.43,6.13,11.65,15.17,22,17,35.58,1,7.11.2,14.44.19,21.68,0,1.15-.3,2.32-.23,3.46.34,5.14-.62,9.65-6,12.34-4.79-.75-7-4-8-8.95-1.8-9.05-3.49-18.22-6.44-26.92-3.41-10.1-8.14-19.75-12.27-29.61-.51-1.22-.86-2.51-1.26-3.78-1.24-4-5.12-6-8.53-3.82-6.42,4-12.78,8.19-18.79,12.78-2.51,1.93-4.2,5-6,7.73a74,74,0,0,0-5.78,9.55c-1.16,2.45-1.56,5.28-2.18,8-1.86,8-3.83,16-5.45,24.11-1,4.86-1.13,9.89-2.15,14.73-.25,1.19-2.39,2.07-3.77,2.92s-2.93,1.51-4.4,2.24c-2.35,1.17-5.46,3.84-6.86,3.14-2.32-1.16-4.46-4.32-5-7-1.44-6.84,2.75-12.64,4.65-18.89,2.87-9.44,5.36-19,7.77-28.59,2.69-10.72,5.3-21.47,7.57-32.28s3.57-21.89,6.24-32.62S284.32,65,288.86,55c4.1-9.07,9.76-10,17.21-3.38,9.15,8.1,14.64,18.68,19.75,29.42,1.87,3.93,2.65,8.44,3.6,12.76S333.38,100,336.16,100.27Zm-19.75,7C314,100.1,312,93.54,309.54,87.14c-.55-1.45-2.54-3.28-3.86-3.27-1.75,0-4.32,1.19-5.1,2.64-2.56,4.77-5.08,9.72-6.44,14.91-1.21,4.65-.88,9.72-1.32,15.89Z"/><path d="M815.73,221.29c-.19,2.27.47,6.56-.79,7.22A49.56,49.56,0,0,1,800,233.69c-3.56.59-7.53-.58-11.2-1.44-6.94-1.64-13.87-3.38-20.66-5.53-5.95-1.87-11.78-4.17-17.53-6.62-10.14-4.31-20.19-8.85-30.26-13.33-14.28-6.35-28.52-12.78-42.83-19.07a32.14,32.14,0,0,0-7.1-2.06c-5.53-1-9.57-5.64-8.21-10.88,1.2-4.6,2.41-9.15,6.86-12.64,5.12-4,9.14-9.52,13.32-14.64,7-8.59,14-17.23,20.59-26.17,4.68-6.36,8.34-13.47,13-19.85,7.71-10.55,16-20.65,23.76-31.18,5.57-7.59,10.63-15.55,15.89-23.37,2.77-4.12,5.6-8.21,8.17-12.46s6.45-5.35,10.68-4.57c2,.37,5,2.67,5.13,4.31.59,6.54.18,12.67-5.22,18.17-9.11,9.27-17.3,19.45-25.7,29.39q-8.78,10.38-17.06,21.16c-4.65,6-9,12.28-13.51,18.41q-15.39,20.9-30.84,41.76c-3.3,4.44-3.18,5.55,2,8,9.48,4.61,19,9.1,28.57,13.58,11.22,5.26,22.34,10.75,33.73,15.61,9.38,4,19,7.54,28.69,10.68C791.56,214.65,803.09,217.65,815.73,221.29Z"/><path d="M595.9,165.73c-8.41.52-16.94,2.19-25.19,1.25-9.76-1.11-19.11,2.1-28.71,1-6.08-.73-12.17-1.54-18.28-1.92-2.81-.17-5.69,1-8.52.88-9.06-.31-18.12-.59-26.47-5.11a12.57,12.57,0,0,1-6-14.42c3.65-11.3,6.82-22.75,10.53-34,1.33-4,3.84-7.66,5.45-11.62,5.4-13.24,11.21-26.36,15.67-39.92,2-6.08.76-13.17,1.77-19.67a34.88,34.88,0,0,1,4.46-12.62c1-1.57,5.24-2.31,7.4-1.58,1.89.63,3.72,3.68,4.17,5.94,2.27,11.38-.11,22.37-4,33-1.22,3.36-3.94,6.17-5.15,9.52-1.84,5.14-5.88,8.91-6.76,14.94-1.05,7.12-5,13.83-7.74,20.7-3.29,8.2-7,16.25-9.83,24.6-1.89,5.57,4.91,12.23,12,12.37,12.72.25,25.45.64,38.17.57,8.88,0,17.77-1.23,26.63-1,11,.24,22,1.33,33,2.19,4.53.36,5.28,4,5.77,7.57s-2.14,4.7-4.77,5.38c-4.45,1.14-9,2-13.47,2.9Z"/><path d="M1051.08,2.37,1044,5.05c.74-5.24,2.08-5.9,6.55-4.25Z"/><path class="cls-1" d="M276.6,696.78c2.3-4.78-1.49-7.13-3.42-9.94-5.68-8.24-7.3-17.46-8.53-27.2-.9-7.15,2.2-13.17,2.72-19.8.38-4.75,4.26-7.33,9-6.21,7.7,1.82,15.53,3.47,22.9,6.28,10.21,3.89,20.11,8.63,30,13.3,6.22,2.93,7.58,6.64,6.42,13.59-.74,4.38,0,9.27-1.64,13.19-2.91,6.85-7.06,13.19-10.91,19.61-2.77,4.64-5.49,9.4-9,13.49-4.15,4.86-13.7,3.32-17-2.17-.39-.65-1.14-1.5-1.75-1.51-4.74-.15-6.82-3.76-8.91-7C284.19,698.74,281.21,696.72,276.6,696.78Z"/></g></g></svg>