<svg xmlns="http://www.w3.org/2000/svg" viewBox="0 0 487.73 1203.98"><defs><style>.cls-1{fill:#1d1d1b;}.cls-2{fill:#fff;}.cls-3{fill:#c0016f;}.cls-4{fill:#b17f4a;}.cls-5{fill:#f39360;}.cls-6{fill:#e30613;}.cls-7{fill:#fcea10;}</style></defs><g id="Warstwa_2" data-name="Warstwa 2"><g id="Warstwa_1-2" data-name="Warstwa 1"><path class="cls-1" d="M421.5,17.36c7.66,3.5,13,9.6,17.61,16.35,2.21,3.22,5.23,3.88,8.95,4.29a93.23,93.23,0,0,1,18.32,3.67c7,2.25,11.4,1.52,14.16-3.77,3.24-6.23,2.09-12.15-4.61-15-6.42-2.71-13.6-3.95-20.58-4.93-13.47-1.89-27-3.49-40-7.66-3.21-1-6.84-.77-11.25-1.2l6.1,4.73a.67.67,0,0,1,.73,0c.71.47,1.57.67,2.29,1.14a.7.7,0,0,1,.3.44C416.74,14.49,419.09,16.26,421.5,17.36Z"/><path d="M478.54,90.62c-4,3.2-9,2-13.33-.8,7.41-22.87.09-32.53-14.63-39.61-17.08-8.22-31.4-20-45.85-31.84-.94-.76-1.13-2.46-1.66-3.72,1.3-.07,2.61-.24,3.91-.19a16.56,16.56,0,0,1,2.84.55l.17-.37a.64.64,0,0,1,0-.57.49.49,0,0,1,.18-.2l-6.1-4.73c4.41.43,8,.17,11.25,1.2,13,4.17,26.53,5.77,40,7.66,7,1,14.16,2.22,20.58,4.93,6.7,2.82,7.85,8.74,4.61,15-2.76,5.29-7.16,6-14.16,3.77A93.23,93.23,0,0,0,448.06,38c-3.72-.41-6.74-1.07-8.95-4.29-4.64-6.75-9.95-12.85-17.61-16.35-2.41-1.1-4.76-2.87-8-1.95a.64.64,0,0,1-.06.47.66.66,0,0,1-.91.24,3.9,3.9,0,0,0-.35-.19l-.27.13c2.71,1.1,4.92,1.54,6.57,2.74a93.05,93.05,0,0,1,19.17,18.44c1.77,2.31,5.16,3.82,8.11,4.7a200,200,0,0,0,22.09,5.44c4.05.73,9.24,1.54,12.39-.3C491,40.8,490.12,21,478,16.9c-8.08-2.7-16.49-5.1-24.92-5.89-16.64-1.57-32.5-6.14-48.43-10.6-3.22-.9-5.41-.36-7.44,2.06-4.06,4.85-8.43,8.62-15.61,7.15a20.59,20.59,0,0,0-9.37.65c-8.75,2.53-17.4,5.4-26,8.34-13,4.43-25.56,9.74-37,17.46-10.8,7.27-23.43,11.82-32.54,21.6-5,5.41-12.68,8.53-14.64,16.71-.65,2.73-2.07,5.3-2.58,8-1.1,6-5.71,11.45-2.31,18,.36.69-.36,2.27-1,3.09-4,5-8.07,10-12.19,14.87-18.12,21.62-36.39,43.1-54.34,64.86-13,15.77-26.44,30.95-42.31,44.08-20.5,17-35.6,38.06-41.55,64.52-3.2,14.24-2.17,28.58,7.33,40.34a332.56,332.56,0,0,0,28.53,30.59c12.33,11.86,23.79,24.17,30.1,40.38.87,2.22.39,4.92.92,7.31.43,1.92.94,4.61,2.31,5.4,5.79,3.31,6.49,7.84,1.36,12a34.42,34.42,0,0,1-3.83,3.15c-5.52,3.32-9.57,9.44-17.27,8.77-1-.09-3.14,2.43-3.14,3.74a61.61,61.61,0,0,0,1.3,14.31c3.4,13.67,7.63,27.13,10.95,40.82q10.59,43.74,20.52,87.64c2.7,11.95,4.28,24.15,6.81,36.15.61,2.91,3,5.46,4.95,9-1.38,1.9-3.79,5.14-6.09,8.46-.31.45,0,1.29-.08,2a64.87,64.87,0,0,1-.78,7.4c-3.27,15.19-6.06,30.52-10.17,45.49-3.75,13.66-8.83,27-13.59,40.34-4.93,13.85-10.3,27.53-15.2,41.39-2.47,7-4.37,14.15-6.4,21.27-.64,2.22-.9,4.55-1.33,6.83,2.17-.21,4.43-.09,6.48-.69,5.58-1.64,11.06-3.59,17.72-5.79-.48,3.19-.64,4.62-.92,6-1.3,6.67-3,13.29-3.88,20-2.14,15.63-3.91,31.32-5.89,47-1,7.62-2.51,14.95-7.13,21.5-12.71,18-24.93,36.42-37.75,54.37a328.62,328.62,0,0,1-21,26.33c-5.29,6-10.85,11.66-14.4,19-5.36,11-11.1,21.9-16.16,33.08-2.85,6.31-4.58,13.13-7,19.64-.61,1.61-1.69,3.53-3.1,4.26-3.89,2-4.81,5.58-6,9.27-3.94,12.48-7.6,25.09-12.29,37.29-3,7.79-6.61,15.69-14.94,19.77-1.11.55-1.9,1.84-2.7,2.89-5.87,7.62-9,16.12-10.4,25.78A305,305,0,0,0,0,1186.8c0,7.93,5.91,18,16.71,17.14q14.37-1.1,28.67-3c13-1.71,22.91-11.79,23.51-25a312.21,312.21,0,0,0-.79-34.73c-.8-12,3.22-22.24,9.68-31.71,6.25-9.15,11.79-18.36,11.33-30-.21-5.13-.1-10.27-.22-15.41-.12-4.52-.43-9-.53-13.55-.09-3.54-1.09-7.6.26-10.53,3-6.45,7.13-12.35,10.89-18.42.76-1.22,1.68-2.73,2.89-3.22,3.87-1.59,3.82-4.65,4.29-8.12.68-5,.88-11.46,4-14.35,7.3-6.74,12.11-14.87,17.25-23,11.61-18.41,24-36.34,34.95-55.13,5.59-9.6,8.38-20.8,13.07-31,2.61-5.67-.46-13.71,7.15-17.25.2-.1.24-.6.3-.92,2.46-12.69,5-25.37,7.35-38.08,2-10.78,3.75-21.6,5.86-32.36.25-1.26,2.07-3.12,3.18-3.14,4.93-.08,7.69-2.79,10.24-6.58,7.18-10.67,12.73-22.56,23.21-30.84,2.85-2.24,4.47-2.72,6.82.3,5.68,7.32,11.67,14.41,17.29,21.79,3.73,4.89,7,10,13.65,11.49,9.89,2.27,19.68,1.5,29.52-.2,1.8-.31,3.65-.42,5.11-.59-.66,3.76-1.28,6.93-1.76,10.13-2,13.28-4.8,26.46-3.75,40.08.79,10.14,3.16,19.68,8.42,28.38,6.68,11.06,13.6,22,20.29,33q14.55,24.06,28.9,48.25c5.51,9.22,10.94,18.49,16.48,27.86a14,14,0,0,0-1.7,1.24c-1.11,1.1-2.16,2.26-3.23,3.4,1.23,1.15,2.46,2.31,3.71,3.44s3.23,2.11,3.95,3.6c7.61,15.75,16.43,31.18,14.5,49.74a18.82,18.82,0,0,0,.47,4.94c2.05,11.56,7.94,21.29,14.4,30.82,2.75,4.07,6,8.52,6.66,13.15,1.54,10.15,1.07,20.6,2.45,30.79,1,7.4,2.05,15.64,5.94,21.64,8.31,12.8,36.54,11.68,45.61-.83.1-.14.15-.3.25-.44,9.81-13.56,10.36-28.93,7.15-44.31-1.73-8.29-6.37-16-9.51-24-6.51-16.63-17.9-29.21-31.87-39.92-5-3.86-11.05-7.72-11.23-15.08-.2-8.51-1.1-16.73-4.08-24.8-5.37-14.57-8.93-30-15.82-43.77-7.16-14.29-16.7-27.57-26.42-40.35-11.22-14.77-23.84-28.46-35.74-42.71-6.52-7.81-11-16.67-11.5-27a165.51,165.51,0,0,1,.34-21.36c.87-10.78.77-21.83,6.55-31.65.43-.74-.17-2.09-.3-3.24a16.4,16.4,0,0,1,3.35-.83c12-.38,10.2-4.1,9.87-12.71-.35-8.92-2-17.78-2.86-26.69-.72-7.26-1.19-14.54-1.77-21.81-1-12.4-2.33-24.78-2.86-37.2-.26-6.17,1-12.4,1.46-18.62.38-5.37-.17-10.92,1-16.09a160.12,160.12,0,0,0,3.48-18.43c2-17.77,4.79-35.44,7.36-53.14,2.65-18.21,5.69-36.38,8-54.63,1.68-13.2,2.43-26.52,3.7-39.77a4.17,4.17,0,0,1,1.58-2.94c5.4-2.9,2.52-6.37.6-9.48-1.65-2.67-4.17-4.8-5.78-7.48-4.57-7.62-7-8.71,2.21-14.07,13.18-7.69,23.39-18.78,33.37-29.69,11.35-12.41,20.79-26.63,30.57-40.4a65.11,65.11,0,0,0,12-44.22c-.74-8.93-1.62-17.84-2.17-26.78-.94-15.32-3-30.32-8.83-44.72-5-12.31-8.92-25-13.8-37.37-5.69-14.39-4.12-21.53,7.76-32.1,3-2.64,6.28-5.31,8.15-8.67s2.62-7.62,3-11.56c.38-3.7-.33-7.51-.55-11.27l1.78-.24c.55,2.93.89,5.92,1.72,8.77s1.77,6.15,3.45,8.71c3.62,5.49,13.59,6.31,20.41,2.09,5.53-3.42,7.2-6.19,5.44-9.93a43.22,43.22,0,0,1-4.3,3.24c-10.05,5.79-21.24,6-21.41-9.54,0-3.74-2.54-7.45-4.34-12.34,2.05-8.72,4.47-19.08,6.77-28.91,4.13,2.47,7.63,6,11.6,6.66,9.09,1.53,17.18-2.7,24.63-7.41,3.08-1.94,2.18-4.88-.52-6.86-2,2.32-3.2,4.79-5.14,5.72a64.11,64.11,0,0,1-11.76,3.9c-10.25,2.67-20.37-9.46-16.75-18.72,1.09-2.81.9-6.22.86-9.35-.05-4.42.84-8.09,5.86-9.8a64.65,64.65,0,0,0,6.79,5.47c6.42,3.93,13.24,6.44,20.78,3.36,7-2.85,9.92-11,6.62-15.66C483.79,83.46,481.89,88,478.54,90.62Zm-79.85-63C406,29,409.92,34.92,414.13,40.32c1,1.32,1.2,3.3,1.76,5l-2.4,1L397.24,29.15C397.72,28.64,398.21,28.13,398.69,27.61Zm-26.6-11.54c.37.41.73.83,1.09,1.24-.21.94-.42,1.87-.65,2.86,6.74,5.16,13.29,10.26,15.8,19.46,1.6,5.89,5.63,11.13,8.67,16.84-3,.62-7.1,1.85-11.25,2.06-1.13.06-3.43-2.93-3.45-4.55-.1-7.17-.07-14.27-3.15-21-.83-1.81-1.47-3.72-2.47-5.43-2.73-4.64-4.09-4.84-9.15-.77l-4.14-5.87ZM411,91.74c1.23,4.45,4.46,5.53,8.16,2.82,1.61-1.18,3.39-2.13,6.05-3.79-.75,5.62-4.44,6.15-7.26,6.87-6.32,1.63-12.77,2.84-19.22,3.89-7.71,1.25-10.55-1.6-9.37-9.38a31.59,31.59,0,0,1,2.63-8c.44-1,2.06-2.28,2.87-2.12,6,1.22,8.9-3,11.38-6.92,5.54-8.83,8.37-8.92,14.15.55C412.71,77.72,408.94,84.4,411,91.74ZM285,352.66c0,.2,0,.4-.07.59a.68.68,0,0,1-.82.47.69.69,0,0,1-.47-.82c0-.13,0-.26.06-.4-3.12,0-2.43,3.4-2.71,5.56a358.41,358.41,0,0,0-2.07,68.22,6.75,6.75,0,0,1-1.87,4.58,33.35,33.35,0,0,1-6.09,4.26,28,28,0,0,1-3.65,1.54c.89-3.36,2.81-6.54-1.57-8.23-.49-.18-.44-2.18-.39-3.32.35-8.14.7-16.27,1.18-24.4.59-9.79,1.07-19.6,2.07-29.36.74-7.27,2.23-14.47,3.45-22.13,2.58-.14,4.67-.32,6.75-.34a42.1,42.1,0,0,0,5.09-.34.67.67,0,0,1,.63-.48.62.62,0,0,1,.54.31,34.58,34.58,0,0,0,19.58-10.11,61.47,61.47,0,0,0,14.69-22.12c4.72-12.39,9.87-24.64,15.35-36.72,1.31-2.89,4.27-5.49,7.1-7.15,8.37-4.87,15.17-11,19.18-20,5.2-11.58,3.65-27-7.81-33.68-5.7-3.32-5.5-4.81-1.56-11.29,2.83,7,8.24,7.17,14.47,6.82,3.09-.18,7.23,1.22,9.28,3.42,4.82,5.16,8.05,11.86,13.06,16.78,6.94,6.82,6.26,16.22,9.46,24.23s4.29,17.08,5.07,25.8a431.74,431.74,0,0,0,8,53c1.73,8,1,16.52,1,24.81,0,1.59-1.24,3.54-2.47,4.74-6.29,6.15-13.26,11.67-19,18.24a183.18,183.18,0,0,0-18.87,24.86c-6.73,11-14,21-26.52,28-2.7-7.6-5.32-14.64-7.7-21.76-1.46-4.39-4.5-6.06-8.74-7.67-11-4.22-18.61,2.79-26.95,7.25-5.48,2.92-10.59,6.54-16.66,10.35-.49-5.72-1.47-10.82-1.27-15.86.68-16.76,1.78-33.5,2.72-50.25a3.21,3.21,0,0,1,.09-1C287.62,356.51,288.83,353.51,285,352.66Zm52.18-85.34,5.38-16.79,9,7.14C347.24,261.81,344.5,267.12,337.14,267.32ZM357,243.37c.25,2.44-1.32,5.07-2.05,7.62-2.42-1.07-6-1.49-7-3.34a93.93,93.93,0,0,1-7.47-17.14c-1.49-4.57-1.83-9.51-3-15.75,2.85,1.58,4.4,2,5.37,3.05C349.78,225.08,355.9,232.94,357,243.37ZM345.31,209.9c-5.52-3.31-3.61-6,0-9.4Zm-.68-16.09-16.81-29.75C335.88,166.88,345,182.12,344.63,193.81ZM328.8,196.3c-.72,3.9-.08,8.25.79,12.21,2.52,11.48,5.84,22.78,8.14,34.3,1.61,8.09,1.22,16.16-7.24,23.07-1.57-3.84-3.08-6.95-4.12-10.22s-1.74-6.95-2.55-10.44a61.81,61.81,0,0,1-1.43-6.8q-1.67-14.56-3.1-29.15a111.37,111.37,0,0,1-.77-13.4c.21-7.92-.53-15.54-4.5-22.62-.61-1.09-.31-2.68-.43-4a40.25,40.25,0,0,1,4.67.19,5.5,5.5,0,0,1,2.11,1.27C325.71,174.66,330.05,189.59,328.8,196.3Zm-16.6-27.74c-4.4-4.23-8.33-8.05-14.27-8.35a.65.65,0,0,1-1.15.18l-.57-.16c-.2,0-.41,0-.62,0,10.45,3.22,9.5,12.13,11.11,19.95,1.36,6.64,4.4,13,5.15,19.69.87,7.76.33,15.73-.14,23.57-.28,4.57-1.87,9-2.41,13.61a49.41,49.41,0,0,1-9.15,23.32c-.81,1.12-2.8,2.24-4,2a4.78,4.78,0,0,1-3-3.32,34.21,34.21,0,0,1,.19-9.64c2.91-16.73,1.94-33.31-.95-50-1.32-7.63-1.59-15.46-2.14-23.21a40.41,40.41,0,0,1,.32-8.93c.32-2,1.58-3.84,2.27-5.81.21-.6.48-1.44.67-2.17a9.39,9.39,0,0,1-1.36-.64.67.67,0,0,1,.67-1.15,3.88,3.88,0,0,0,.45.24l.25.12.12,0,0,0,.06,0c0-.1,0-.18-.07-.2a24.25,24.25,0,0,0-7-2.59c-.77-.14-2,1.54-2.76,2.56-.28.38.16,1.27.22,1.94,1.88,20.14,3.9,40.27,5.58,60.43,1,12.27.85,24.55-2.17,36.61a10.2,10.2,0,0,0-.31,2c-.26,4.77,2.14,8.75,6.31,9.56,2.61.51,6.93-1.7,8.69-4,6.3-8.32,9.45-18.14,11.09-28.41.56-3.53.85-7.1,1.26-10.66H316q2.18,15.24,4.35,30.48c.67,4.78,1,9.75,5.68,12.65,2.09,1.3,4.41,2.24,7.11,3.58-3.32,7.63-7,15.78-10.41,24-3.27,7.79-6.07,15.79-9.52,23.5-7.09,15.82-19.51,23.91-36.81,23.72a20.56,20.56,0,0,1-10.69-3.55c-8.54-5.82-18.71-10.8-24.43-18.83-8.24-11.55-9.67-26.28-9.69-40.61a6,6,0,0,1,1.32-3.1,110.82,110.82,0,0,0,20.75-59.83c.56-11.6,2-23.16,2.76-34.76a20,20,0,0,0-1.73-8.65c-4.32-10.3-3.5-13.73,7-18,9.3-3.77,19.06-7.06,29.24-2.38,8.19-2.85,13.22,3.25,19.22,6.71.76.44,2.13-.19,4.66-.49C313.87,162.86,313.13,165.35,312.2,168.56Zm-112.72,67.5c6.39-11.95,15.64-21.5,26-30.28,2.37,9.58-14.57,33.41-26.68,36.9C199,240.22,198.56,237.77,199.48,236.06Zm30.35-52.79-6.57,17.48C219.47,193.58,222.54,186.12,229.83,183.27Zm-17.37,57.47c9.49-8.55,13.31-20,16.85-31.6,2.86-9.33,5.26-18.8,7.95-28.18a27.32,27.32,0,0,1,2-4.14l1,.34c0,4.69.57,9.47-.1,14.07-2.84,19.68-6.88,39.08-15.8,57.09-1.73,3.46.11,3.93,3.64,3.74l-4.71,12.09C216,260.46,211.64,255,210,247.74,209.56,245.64,210.81,242.22,212.46,240.74ZM231.85,253c4.8-18.8,9.71-37.57,14.46-56.38,1.41-5.57,2.45-11.23,4.67-16.94a41.74,41.74,0,0,1,.45,6.28c-.56,7.28-1.36,14.54-2,21.81-.74,8.42-1,16.91-2.2,25.27-1.73,12.55-7.38,23.7-13.69,34.49-.82,1.41-2.39,2.38-3.62,3.55l-2.18-1C229.1,264.36,230.4,258.64,231.85,253Zm55.22-106.4c-6.45.06-13.21-1.08-19.26.52s-11.5,5.63-16.87,9.14c-4.36,2.87-7.48,7.85-13.72,7.26-.42,0-1.53,1.52-1.4,2.16.76,3.93-2.18,5.5-4.36,7.75-4.43,4.58-9.24,9-12.67,14.27-2.07,3.19-2.13,7.87-2.46,11.94-.1,1.31,1.81,2.78,3.3,4.88-3.12,3.11-6.58,6.82-10.31,10.24-7.58,6.94-14.15,14.48-16,25-1.47,8.38.91,10.75,9.65,8.9.18,1.59.49,3.13.51,4.68,0,3.47.24,5.41,4.92,6.69,4.37,1.2,7.8,6.26,11.27,10,.67.71-.06,3.14-.67,4.56-2.86,6.66-2,7.87,5.17,7.23a21.55,21.55,0,0,1,2.33.1c.24,5.56-.16,11.13.86,16.42a152.06,152.06,0,0,0,6.57,24.45c1.33,3.56,5,6.6,8.19,9,7.62,5.76,15.61,11,23.28,16.36-1.31,17.66-2.74,35.81-4,54-.58,8.57-.66,17.17-1.15,25.75a81.16,81.16,0,0,1-1.35,8.57l-1.57.26c-2.23-4.15-4.38-8.36-6.73-12.45-2.64-4.6-5.34-9.18-8.24-13.62-3.94-6-10.1-4.37-15.26-3.16-7.83,1.84-15.36,4.93-23.24,7.57a46.13,46.13,0,0,0-1.69-6.26c-.61-1.48-1.77-3.68-2.9-3.82-5.5-.67-6.36-5.45-8.21-9-8-15.28-15.16-31-23.71-46-3.6-6.31-9.55-11.42-15-16.47C140.7,322.68,139,308.87,140,294.22c.95-13.7,7.25-25.29,14.93-36.29q16.62-23.76,33-47.66c11.75-17.16,24.75-33.25,40-47.43,5.45-5.08,11.22-9.82,16.88-14.69A4.35,4.35,0,0,1,247,147c6.46-.54,3.69-3,.24-6.14l18.59-20L295,146.56Zm-11-48.48a92.21,92.21,0,0,1,8.41-3.79l1.41,1.16-9.68,18.46C268.46,107,268.78,102.24,276.07,98.08Zm5.62,15.11c3.35-5.69,5.81-11.91,8.47-18,1.23-2.82,2.11-5.59,5.86-2.8a1.41,1.41,0,0,0,.45.21L303,94.29c-.76,2.34-1.51,4.69-2.3,7a12.57,12.57,0,0,0,8.08,15.89,45.76,45.76,0,0,0,8.79,1.57c2.73.26,5.51,0,8.34.92L283.7,130.53C277.85,125.78,277.34,120.58,281.69,113.19Zm33.67.22c-4.85-.11-7.55-3.4-9.27-8.23,9.1-1.21,17.53-3.08,17.54-15.83L335,91c1.4,4.5,3,9,4.18,13.64.86,3.3-3.51,7.39-8.5,7.9A126.48,126.48,0,0,1,315.36,113.41Zm23.13-39.57c1.87-.26,5.34.26,5.64,1.24,2.58,8.31,4.22,16.84,3,25.59l-1.35.41c-3.12-7.72-6.36-15.4-9.21-23.21C336.22,76.82,337.64,74,338.49,73.84Zm5.74,39.22c4-.09,4.87-2,5.65-4.75,3.08-10.67,2.56-21.3-.63-31.87-.37-1.24-.75-2.47-1.4-4.6,6.43-1.32,12.47-3.12,18.6-3.46,1.8-.1,4.24,3.72,5.65,6.17,1.7,3,2.61,6.43,3.88,9.67,2.43,6.23,4.09,6.66,8.24,2a37.2,37.2,0,0,1-.9,4.06c-1.87,5.86-2.21,11.44,4.16,16.95L333.39,119l-.57-1.6C336.62,115.83,340.4,113.15,344.23,113.06Zm33.45-48.19c1.11,4.59,2.09,8.67,3.08,12.76C374.69,71.05,373.93,67.77,377.68,64.87Zm6.72,20.87V71.39L391,76.81Zm19-18.85c-1.35,1.2-3.05,2-4.46,3.14-4.43,3.59-10.23,1.87-11.53-3.75-.24-1,1.37-3.36,2.5-3.66,3.83-1,7.82-1.35,12.84-2.12l3.92,2.62A34.81,34.81,0,0,1,403.44,66.89ZM359.42,39c1.47-3,3.16-5.91,5-9.23,4.53,1.45,6.18,6.18,7.43,10.35,1.75,5.83,2.33,12,3.16,18.09a3.66,3.66,0,0,1-1.63,3c-1,.48-2.95.46-3.59-.21C364.6,55.62,359.43,50.12,359.21,42A6.74,6.74,0,0,1,359.42,39Zm-10.94-9.51c1.48-.35,3.22.4,5.62.77.33,5.81-.19,11.77,1.2,17.23,1.32,5.18,4.63,9.84,7.33,15.25-4.74,1-9.79,2.21-14.91,2.83-1,.12-2.74-2.09-3.24-3.54-1.88-5.47-3.38-11.07-5.05-16.62-.38-1.26-.79-2.52-1.26-3.75-1-2.74-2.13-5.46-3.2-8.18C339.47,32.14,343.92,30.61,348.48,29.51ZM331.7,39.62a12.47,12.47,0,0,1,2.15,3.89c2.23,6.74,4.35,13.52,6.44,20.3.87,2.82.31,4.7-3.13,5.31s-3.22-1.73-3.84-3.75c-2.68-8.79-5.44-17.55-8.34-26.86C327.05,35.94,329.5,36.88,331.7,39.62Zm-5.86,16,1.29-.32c1.36,5.16,2.72,10.33,4.19,15.93L322.78,74C323.88,67.36,324.86,61.46,325.84,55.57Zm4.41,21.05c1.64.63,2.44,3.45,3.66,5.33H320C321.46,78.48,326.84,75.31,330.25,76.62Zm-17.19-28c.21-1,2-2.27,3.16-2.46.9-.14,2.37,1,3,2,6.39,9.52-.06,27.16-11.93,30.59C309.26,68.28,311,58.42,313.06,48.62Zm-17,2.76c1.4-2.07,4.62-3.07,7,.26.61.85,2.34.91,4.25,1.58-3.18,10-1.43,21.18-8.56,29.66l-1.58-.19c-.08-1.45-.56-3-.18-4.33,1.94-6.56,1.41-12.39-2.67-18.31C293.11,58.29,294.48,53.72,296.06,51.38Zm-6.74,12.15c4.66,3.13,5.32,6.53,4.64,10.31-1.81,9.92-7.22,16.32-19,17.66Zm-22.64,13c.23-.78,2-1,2.8-1.75,1-.94,1.76-2.21,2.74-3.23,1.28-1.36,2.68-2.61,4-3.9.54,1.78,1.95,3.87,1.46,5.3A61,61,0,0,1,264.06,95.5l-2.21-.79C263.43,88.63,264.92,82.53,266.68,76.51ZM176.87,403.85c-6.27-10.32-12.45-20.71-19.11-30.78-2.52-3.82-6.24-6.85-9.45-10.22-10.42-10.91-21.18-21.52-31.16-32.83-7-7.92-9.36-17.61-8-28.36,3.57-27.9,18.31-49.55,38.55-67.6,18.56-16.56,34.7-35.08,50.09-54.51,15.24-19.25,31.56-37.64,47.41-56.4,8.38-3.19,7.52-14,15.27-18.15,4.11,3.48,4.17,9.8.25,13.92q-7.5,7.88-15,15.77c-2.15,2.25-4.42,4.38-6.44,6.73-.73.85-1.52,2.5-1.17,3.29,1.35,3-.4,4.07-2.38,6-12.13,11.72-24.79,23-35.67,35.86-12.28,14.48-23,30.29-34.15,45.74-8.86,12.33-18.63,24.06-24.87,38.17-8,18.15-8.4,36.44-1.48,54.76a29.33,29.33,0,0,0,8.71,11.95c10,8,16.81,18,22.23,29.46,7.3,15.41,15.29,30.48,23,45.71,2.95,5.85,2.52,6.64-2.89,8.83-3.07,1.24-4.09.53-5.43-2.5A131.49,131.49,0,0,0,176.87,403.85Zm-121,648.46a17.83,17.83,0,0,1,1.24-2.71c4.77-10.18,11.35-13,20.83-7.37,2.69,1.59,3.54,6.92,4.26,10.73.16.83-3.73,2.7-6,3.62-1.46.61-3.26.38-4.92.53l0-.34c-3.78.44-7.56,1-11.35,1.24-1.65.08-3.75-.25-4.85-1.25C54.47,1056.2,55.44,1053.82,55.85,1052.31Zm-6.39,141.94c-10.83,1.33-21.64,3-32.51,3.65-5.65.33-12.58-6.82-12.74-12.53-.18-6.88.55-13.79,1-22.33l47.87,28.68C50.77,1193.36,50.16,1194.16,49.46,1194.25Zm8-5.7c-7.59-4.63-15-9.25-22.48-13.67-8-4.69-16.13-9-24-13.81-5.58-3.37-7.43-12.56-2.78-16.93,1.91-1.79,7.19-2,9.82-.65,9.91,4.93,19.46,10.59,28.92,16.36a71.47,71.47,0,0,1,11.29,9C64.39,1174.64,64.12,1180.68,57.47,1188.55Zm6.11-22.81C48.51,1150.41,30.37,1140.55,10,1135c2.08-7.69,4.42-10.45,9-10.06a70.31,70.31,0,0,1,14.43,2.23c7.73,2.32,15.28,5.25,22.79,8.23,4,1.57,6.2,4.9,6.75,9.17.85,6.66,1.58,13.35,2.37,20Zm9.68-60.29c-4.48,5.73-6.06,13.8-8.62,20.93-1,2.89-2.1,4.35-5.28,2.93a122.39,122.39,0,0,0-34.28-10c-.42,0-.77-.56-1.47-1.11,11.56-12.24,15.67-27.76,21.3-42.53,1.12-2.93,2-6.1,3.75-8.62,2.21-3.18,5.27-4.78,9.77-4.44,6.56.5,13.22-.19,19.83-.55,3.82-.21,5.18,1.44,5.54,5.17C85.17,1081.38,82.32,1093.86,73.26,1105.45Zm30.11-107.09c-5.51,11.67-10.88,23.42-16.84,34.86-.9,1.72-4.75,3-7,2.69-4.87-.55-9.61-2.24-15.69-3.8,7.49-15.55,13.1-31.43,25.61-42.62,4.37,1.51,7.93,2.77,11.51,4C103.41,994.29,104.58,995.81,103.37,998.36Zm81-194.5c-1.14,11.25-1.82,22.49-3.51,33.58s-4.62,22.06-6.64,33.14c-5.9,32.47-25,58.18-42.66,84.72-4.58,6.9-8.3,14.37-12.5,21.53-1.51,2.56-2.83,6.08-7,2.37a40.38,40.38,0,0,0-2.44,3.91c-3.1,6.48-3.1,6.51-10,4.22a25,25,0,0,1-4.15-1.67c-4.34-2.37-4.39-4.55-1.09-8.1a214.65,214.65,0,0,0,14.51-16.84q15.24-20.29,29.87-41.06c6.32-8.94,12.94-17.81,17.94-27.48,3.32-6.41,4.66-14.09,5.77-21.37,3.35-22,6.25-44,9.14-66,.7-5.33,2.5-8.86,8.45-9.78,3.3-.51,6.36-2.54,10-4.1C190.9,800.09,189.65,802.62,184.4,803.86ZM461.91,1137c-7.65,7.39-26.09,7.86-34.46,1.45-6.33-4.84-6.48-11.35-6.36-18.59,3,.25,5.64.82,8.2.62,13.12-1,24.18,5,36.22,10.79C464.39,1133.12,463.52,1135.45,461.91,1137Zm7.18-14.84c-.3,3.53-2.17,4.23-5.08,2.88-1.94-.9-3.78-2-5.65-3.1-8.3-4.74-17-8-26.78-7.27-8.41.59-12.21-3-12.5-10.9-.18-5.06,2.83-7.23,6.71-7.64a237.67,237.67,0,0,1,29.06-1.82c9.63.16,15.35,7.23,15.35,17C469.82,1114.91,469.39,1118.53,469.09,1122.17Zm-2.24-29.68c-12.77-5.83-25.34-3.52-37.85-2.17-2.24.24-4.4,1.64-6.62,1.72-1.37.06-2.8-1.37-4.2-2.13,1-1.19,2-3.32,3.13-3.41,5.24-.44,7.84-3.36,9.68-8,3-7.45,17.88-11.21,24.55-6.44C461.37,1076.27,465.82,1084,466.85,1092.49Zm-40.74-59.89c4,3,7.18,6.44,7.68,11.7a8.79,8.79,0,0,1-4.77,9.14c-3.23,1.72-6.19.1-8.42-2.41a42.21,42.21,0,0,1-5.31-7.06c-1.7-3-1.51-5.56,3.84-5l-2.77-5.36C419.17,1028.87,422.55,1029.94,426.11,1032.6Zm-8.07-9.51c-2.91,3.3-6,5.93-8,9.23-3.92,6.7-.35,13,2.81,18.61,5.06,9,13.49,10.65,21.17,3.89,2.9-2.55,4.13-7,6.18-10.7,4.37,2.14,12.57,12.68,14.37,19.24-4.82.92-9.75,1.47-14.44,2.86a28.3,28.3,0,0,0-15.3,11.33c-4.26,6-7.21,5.82-10.69-.37-2.11-3.74-4.65-7.25-7.08-10.81-5.69-8.3-10.1-17.15-11-27.33-.31-3.56-1.9-7.67,2.53-10.27.48-.28.26-1.85.26-2.82,0-6.39.92-7.46,7.24-8.18,1.29-.15,2.72.24,3.91-.16C415.87,1015.67,417.11,1019.39,418,1023.09Zm-12.87-52.34a100.92,100.92,0,0,1,8.8,31.56c.15,1.48,0,3,.12,4.47.49,7,0,7.58-6.92,8.1-3.61.27-7.22.89-10.82.83-1.39,0-3.52-1.13-4-2.31-4.05-9.22-7.73-18.61-11.65-27.89-1.07-2.53,0-3.55,2.11-4.51C390,977.77,397.19,974.42,405.17,970.75ZM337.39,870.48c11.74,13.77,24,27.15,35,41.52,9.46,12.36,17.7,25.7,25.93,39,4.29,6.92,2.61,11.9-4.53,15.76a38.87,38.87,0,0,1-12,4.17c-2,.32-5.31-1.22-6.49-3-5.66-8.37-10.89-17-16.11-25.71q-9.9-16.4-19.51-33c-2.81-4.87-5-10.08-7.89-14.93-5-8.52-10-17.13-15.56-25.26-6.08-8.81-10.45-18.08-10.76-28.9-.15-5.32-.63-10.8.36-15.95,1.71-9,4.43-17.75,6.75-26.61.12-.47.65-1,.52-1.35-3.32-8.41,4.18-8.39,8.44-10.82,1.55-.88,3.27-1.47,5.67-2.52-1.45,12.65-2.48,24.4-4.21,36C320.06,838.39,324.64,855.53,337.39,870.48Zm2.47-99.39a4.31,4.31,0,0,1-2.8,3c-7,1-13.16,4.56-19.63,6.25-13.92,3.63-28.15,8-43.06,4.84-6.52-1.39-9.91-6.28-13.58-10.93-5.64-7.15-11.09-14.45-16.66-21.67a11.93,11.93,0,0,0-2.12-2.08c-6.26-5-6.78-4.75-12.64.77-8.45,8-14.43,17.65-20.11,27.57-2.39,4.17-4.89,7.14-10.54,5.54-7.67-2.17-14.44,1.74-21.46,4-8.22,2.66-16.57,4.94-24.87,7.38l-1.29-1.56c2.78-10,5-20.15,8.45-29.92,6.66-19.07,14.13-37.86,20.93-56.88,3-8.42,5.37-17.07,7.72-25.7,1.12-4.13,1.31-8.51,2.42-12.64.31-1.15,2.69-2.8,3.67-2.54,11.71,3.13,23.5.6,35.23.81,19.88.35,39.76,1,59.64,1.18,13.73.13,26.83,3.38,40,6.73,3.94,1,5,3.4,5.1,6.68.17,4.32-.34,8.68.08,13,1.05,10.55,2.6,21,3.69,31.58.83,8.09,1.47,16.21,1.84,24.34C340.17,757.59,340.1,764.35,339.86,771.09Zm-143-109.17c2.45-9.33,4.47-17.27,6.64-25.16.95-3.49,2.08-5.4,6.93-3.91,7.51,2.32,15.48,3.33,23.33,4.24,22.89,2.64,45.82,5,68.73,7.4,9.69,1,19.4,1.89,29.09,2.88,3,.3,4.75,1.56,4.39,5.14-.57,5.74-.69,11.53-1.05,18.14C288.92,657.54,242.87,661,196.89,661.92ZM356.6,521.85c-1.31,13.52-3.58,26.95-5.68,40.38s-4.06,26.95-6.94,40.24c-2.79,12.89-.44,26.94-7.41,37.82-26.48-1.7-51.91-3.15-77.31-5.08-5.87-.45-11.56-2.88-17.42-3.86-7.81-1.3-15.75-1.87-23.56-3.14a147.14,147.14,0,0,1-17.34-4c-1.39-.41-2.8-2.52-3.25-4.11-1.86-6.67-3.45-13.41-5-20.17-2.58-11.61-4.88-23.3-7.56-34.89q-7.14-30.79-14.61-61.5-4.38-18.12-9.17-36.13c-1.15-4.34.79-6.92,4.16-9,14.2-8.71,28.35-17.52,42.67-26a26.25,26.25,0,0,1,10-3.63c5.61-.65,8.74,4.15,11.33,7.81,12.11,17.1,38.56,23.92,58,14.76,5.48-2.57,10.17-6.82,15.23-10.29,7.48-5.16,12.22-3.92,16.22,4.31,2.31,4.77,3.8,10.14,7,14.24,4.07,5.31,9.36,9.7,14.29,14.3a29.08,29.08,0,0,0,7.54,5.59c3.08,1.38,6.64,1.69,10.93,2.68C358.14,494.74,357.91,508.35,356.6,521.85Zm6.58-49.24c-1,.48-1.6,1-2.15,1-4.33-.3-9,.2-12.87-1.34-4.13-1.66-7.66-5.05-11.12-8.07-6.56-5.72-10.11-13.37-13.08-21.39a27.28,27.28,0,0,0-4.12-6.79c-4.88-6.39-10-7.08-16.75-2.44-5.27,3.64-10.29,7.7-15.84,10.82-13.33,7.51-32.56,5.65-44.36-4.17A96.77,96.77,0,0,1,231.75,429c-5-5.72-13.87-9.2-20.11-6.25-5.13,2.41-9.55,6.32-14.33,9.49q-16.76,11.07-33.57,22c-.79.51-2,.35-3.05.51a24.09,24.09,0,0,1-.17-3.16c.39-5,4.94-6.14,8.16-8.45,6.53-4.69,13.09-9.35,19.74-13.87a71.55,71.55,0,0,1,8.15-4.59,174.25,174.25,0,0,1,31.59-11.59c4.77-1.33,8.48-.7,11.21,3.65,3.08,4.91,6.48,9.66,9.18,14.78,6.57,12.42,13.55,10.93,24.05,6.87,4.12-1.6,8.45-2.86,12.25-5,4.33-2.49,8-6.14,12.27-8.76,8.13-5,16-10.77,26.24-10.64,4.65.06,8.4,1.32,9.74,6.5,3.23,12.38,9.45,23.13,17.42,33.11C355.13,459.34,358.77,465.9,363.18,472.61Zm55.95-283.32c-3.9,2.86-6.19,7.94-9.15,12.05a62.54,62.54,0,0,0-4.68,7.06,8.44,8.44,0,0,0-.9,4.65c.35,3.23,1.12,6.41,1.78,9.6.71,3.42,1.2,6.91,5.41,8.18,1,.3,1.94,1.77,2.35,2.91,3.81,10.46,7,21.19,11.35,31.4,6.72,15.65,6.89,32.3,8.7,48.71.85,7.73,1.74,15.58,1.35,23.3a69.36,69.36,0,0,1-11,34.23c-7.7,11.95-15.81,23.7-24.47,35-5.43,7.07-11.93,13.39-18.42,19.55-8.48,8-17.42,15.58-26.41,23.55l-5.78-5.39c7.09-6.24,14.21-12.14,20.82-18.56,1.82-1.77,1.92-5.2,3.18-7.67a113.77,113.77,0,0,1,31-38.34,123.19,123.19,0,0,0,10.86-9.42,9.66,9.66,0,0,0,2.61-5.53c1.2-12.66-.18-25-2.84-37.54-3.17-14.9-4.3-30.21-6.89-45.25-1.87-10.9-4.71-21.63-7.09-32.45-1.31-6-2.74-11.9-3.77-17.91-.75-4.39-2-8.28-6.49-11.11l-3.56,4.33c-2.33-2.87-4.81-5.48-6.76-8.43-3.75-5.66-8.58-7.86-15.32-6.37-8.07,1.78-13.17-3.93-11.52-11.91.43-2.06-1.67-4.53-2-6.91s0-4.9,0-7.36c3.29.18,7.17-.67,9.7.81,2.91,1.68,4.39,5.67,7,8.19,1.87,1.85,4.48,2.94,6.77,4.37.29-2.82,1.09-5.71.73-8.45-.42-3.24-2.13-6.31-2.67-9.55-.24-1.41,1.06-3.08,1.66-4.63,1.3.73,3.23,1.15,3.79,2.26a107.07,107.07,0,0,1,4,10.28c3.79-2.48,5.4-4.69,3.41-8.84-2.75-5.74-2-9.6,1.62-12.69,3.21-2.74,6.33-2.38,8.08,1.38,1.23,2.66,1.48,5.76,2.54,8.52.65,1.71,2,3.15,3.05,4.7,1.12-1.94,2.88-3.79,3.22-5.87.64-3.86.45-7.86.61-11.81l2.51-.7c1.5,2,3,4,4.5,6.06,1,1.32,1.91,2.65,2.86,4,1.11-1.72,2.53-3.32,3.19-5.2.35-1-.59-2.48-1-3.73-1.27-3.84.69-6.09,3.91-7.41,3-1.24,5.36-.78,6.6,2.87C431.16,168.88,431.44,180.26,419.13,189.29Zm21.65-89.6a16,16,0,0,0-.46,2.45c-.46,6,.42,12.86-8.84,12.83-.71,0-1.49.7-2.13,1.21-2,1.59-5.48,3-3.32,6.1,2.32,3.32,4.33,0,6.41-1.3,1.39-.9,3.15-1.25,5.88-2.28-2.92,12.08-5.52,22.88-8.11,33.6-2.52-.56-5.4-1.63-8.3-1.69-2.32-.05-5.25.48-6.86,1.92-2.62,2.36-4.52,3.58-8.5,2.92-2.14-.36-5,3.71-8.09,6.2l-4.94-2.8c.55-1.13,1.08-2.25,1.63-3.39-8.65-3.29-13.18-11-12.6-19.88.15-2.33-1.17-4.92-2.38-7.07-.39-.69-2.63-.34-4-.46a18.55,18.55,0,0,0-.18,4c.51,3,1.8,5.89,1.83,8.84.11,9.21,6.81,13.24,13.61,18.32-8.3-1.81-9.37,5.09-12.22,9.49-11.1-2.12-12.64.21-10.78,15.72-10.76-4.54-11.85-6.92-9.39-18.31,1.08-5,1.47-10.15,2.24-15.22.22-1.45.71-2.86,1-4.3.61-2.66,1.18-5.32,2-9.08-6.62,2.4-8.94,6.55-8.44,11.28.83,7.88-1.18,15.15-2.91,22.59-.5,2.16-.31,4.49-.45,6.95-5.6,2.83-5.82,2.59-9.55-2.67-3.63-5.1-7.77-9.83-11.53-14.85-1-1.36-2.35-3.43-2-4.7,1.9-6.28,1.74-11.51-6.06-14.26.19-.45.38-.9.56-1.35l8.83-3.12c-.08-.93-.22-2.44-.35-4-1.53.2-3.29,0-4.54.69-3.29,1.83-6.35,4.06-10.38,6.72,2.81,2.64,4.9,4.86,7.26,6.75,2.84,2.28,3.68,4.59.87,7.71l-33.89-21.13a21.33,21.33,0,0,1,4.2-1.92c21-4.52,42.12-8.83,63.13-13.47,11.48-2.54,22.88-5.48,34.26-8.47,10.23-2.7,20.27-7.37,30.61-8.11,9-.64,7.23-4.23,6.21-9.66-.36-1.91.51-4.33,1.49-6.15,3.34-6.21-1.15-12.94-5.84-15.59-4-2.23-8.23-3.94-12.28-6a4.06,4.06,0,0,1-1.91-2.53A2.67,2.67,0,0,1,413.19,60c2.54-.44,5.18-.34,7.73-.75a20,20,0,0,0,4.14-1.68c-1.24-1.26-2.37-3.44-3.73-3.59-3.07-.35-6.25.31-9.4.52-7.64.53-15.9-5.16-19-12.06-2.27-5-5.85-9.35-8.41-14.23-.82-1.55-.25-3.85-.32-5.8,1.66.29,3.93,0,4.86,1,4.59,4.88,9,10,13.16,15.22,3.43,4.31,6.88,8,12.8,9.09,4.77.91,9.28,3.27,13.84,5.15a5.71,5.71,0,0,1,2.48,2.32C439.41,69,444.74,83.34,440.78,99.69ZM451.55,82c-1.55-1-3.95-1.72-4.49-3.13-2.32-6.08-4.11-12.38-6.46-19.78,7.94,5.74,10.25,13.47,12.19,21.41Zm11.39-1c-.37,1.34-2,2.31-3.11,3.44a17.23,17.23,0,0,1-2.62-3.28c-2.86-6.12-5-12.66-8.54-18.36-2.28-3.69-6.44-6.23-9.85-9.19-2.05-1.78-4.27-3.38-6.41-5.06l2-2.56c8.26,5.55,17.16,10.38,24.55,16.92C463.8,67.12,464.8,74.27,462.94,80.94Z"/><path class="cls-2" d="M358.79,482.16c-.65,12.58-.88,26.19-2.19,39.69s-3.58,26.95-5.68,40.38-4.06,26.95-6.94,40.24c-2.79,12.89-.44,26.94-7.41,37.82-26.48-1.7-51.91-3.15-77.31-5.08-5.87-.45-11.56-2.88-17.42-3.86-7.81-1.3-15.75-1.87-23.56-3.14a147.14,147.14,0,0,1-17.34-4c-1.39-.41-2.8-2.52-3.25-4.11-1.86-6.67-3.45-13.41-5-20.17-2.58-11.61-4.88-23.3-7.56-34.89q-7.14-30.79-14.61-61.5-4.38-18.12-9.17-36.13c-1.15-4.34.79-6.92,4.16-9,14.2-8.71,28.35-17.52,42.67-26a26.25,26.25,0,0,1,10-3.63c5.61-.65,8.74,4.15,11.33,7.81,12.11,17.1,38.56,23.92,58,14.76,5.48-2.57,10.17-6.82,15.23-10.29,7.48-5.16,12.22-3.92,16.22,4.31,2.31,4.77,3.8,10.14,7,14.24,4.07,5.31,9.36,9.7,14.29,14.3a29.08,29.08,0,0,0,7.54,5.59C350.94,480.85,354.5,481.17,358.79,482.16Zm-83.26,23.36c4.6-3.32,7.23-5.41,4.58-10.3-1.37-2.53-.8-6.19-.78-9.33a3.46,3.46,0,0,1,2-2.32c8.19-3.37,15,1.12,15,9.81a68.5,68.5,0,0,0,0,8c.22,1.83,1.24,3.58,2.07,5.82,3.8-2.84,5.4-5.35,4.54-9.15-.9-4-1.51-8.06-2.3-12.4l10.46-.8c0,4.44,0,8.54,0,12.65,0,3.65-.13,7.32.21,10.95.09,1,1.66,1.8,2.55,2.7a16,16,0,0,0,1-3.36c.15-2.28,0-4.58.07-6.87.21-5.14.75-10.28.64-15.42,0-1.6-1.47-4.31-2.68-4.57-8.29-1.75-16.69-3.06-25.07-4.36-3.79-.59-7.62-.87-11.44-1.17a2.87,2.87,0,0,0-2.25.65c-2.45,3.62-6.14,2.39-9.48,2.76-1.44.16-3.65.77-4,1.73a6.12,6.12,0,0,0,.64,5c5.33,7.11,5.25,12.14-.72,18.29-4.4,4.54-7.82,4.11-9.57-2.05-1.38-4.84-1-10.16-1.83-15.21-.26-1.62-1.72-3-2.63-4.57-1,1.38-3.06,2.86-2.94,4.14.56,6.24,1,12.67,2.8,18.6,2.85,9.2,9.31,10.05,16,2.93,5.8-6.21,8.33-13.37,7.15-22.42,2,.79,3.8,1.84,4,3.14.55,3.56.33,7.24.62,10.85A55.16,55.16,0,0,0,275.53,505.52ZM186,503.87c.09-8.32,5.19-15.28,12.25-16.82l1.73,5.27c1.47-2.27,2.82-3.55,3.15-5,.53-2.37,1.45-6,.29-7.12-2.37-2.28-5.62-1-7.86,1.43-2.55,2.72-4.9,5.62-7.78,9l-1.6-3.75c-.95,5.53-3,10.41-4.83,15.38-.7,1.9-1.64,5.37-1,5.78a13,13,0,0,0,6.75,1.46c4.94-.07,9.88-.74,14.82-.76,1.3,0,3.83,1.79,3.72,2.22-.72,2.73-1.38,6-3.3,7.74s-3.88,6.34-8.54,3.11c-1.28-.89-4.29.42-6.34,1.16-.63.23-.73,1.91-1.07,2.93,1.8.58,3.6,1.67,5.39,1.65,9.44-.13,16.53-6.5,18-15.9,1.06-6.62-1-9.23-7.7-9C196.83,502.67,191.58,503.38,186,503.87Zm90.44,77.61c5.72-3.14,11.3-2.55,16.55.79,1.28.82,3.44.24,5.2.3-.43-1.87-.32-4.24-1.45-5.5a8.09,8.09,0,0,0-5.37-2.19,133.91,133.91,0,0,0-17.35.56c-1.3.14-2.85,2.62-3.38,4.31a47.66,47.66,0,0,0-1.55,9.16,51.1,51.1,0,0,0,.11,6.18,38.42,38.42,0,0,1,4.47-2.86c2.26-1.07,4.65-2.43,7-2.46.84,0,2.8,3.7,2.41,5.25A35.65,35.65,0,0,1,278,607c-.89,1.25-5,.2-7.61.2l-.65-1.52-3.19,6.16c8.4,4.59,15.7,1.19,19.86-8.66S287.05,585.09,276.42,581.48ZM325.63,496c.08-6.51.32-6.82,6.49-7.66,3.77-.51,7.57-.81,11.31-1.45,1.08-.19,2-1.23,3-1.89-1-.7-1.93-2-2.95-2-6.13-.37-12.27-.66-18.4-.5-1.23,0-3.23,2-3.46,3.34-1.2,6.78-2,13.63-2.82,20.47-.37,3.13.1,6.06,3.58,7.33a28.6,28.6,0,0,0,21.73-.82c1.1-.47,1.52-2.5,2.26-3.81a17.85,17.85,0,0,0-3.89-.68c-4.26.2-8.52,1-12.77.84-5.24-.17-6-1.51-4.91-7,5.07-1.36,10.92.21,15.49-3l-.18-1.71Zm-81.82,11.66c-1.37.57-2.75,1.14-4.12,1.73-3,1.3-6,2.81-9.1,3.85s-5.9.26-6.16-3.53c-.52-7.79.68-15.2,5.88-21.51,2.29-2.77,4.37-4,6.2-.07,5.63-1.59,4.93-5,3.25-9.09-4.76.39-8.93,1.39-12.28,5.26-7,8.15-9.35,17.73-8.91,28.1.24,5.55,4.46,8.4,9.79,6.65C234.53,517,240.42,514.27,243.81,507.64Zm-9.45,80,2,.37c1.45-2.93,4.12-5.86,4.11-8.78,0-8.73-1-17.46-1.77-26.18a58.53,58.53,0,0,0-1.4-6.82l-1.63-.3a38.81,38.81,0,0,0-3.15,4.47c-1.45,2.78-2.5,5.77-4,8.54-3.25,6.17-6.75,12.22-9.91,18.43-.61,1.2-.13,3-.15,4.46a24.46,24.46,0,0,0,4.32-2.32c.62-.5.47-1.86.86-2.75,2.81-6.41,5.66-12.8,8.5-19.19l2.21.49Zm42.47-35.2c-1.78-2-2.68-3.69-4-4.23-.79-.32-2.7.93-3.45,2-4.57,6.26-9,12.65-13.4,19-6,8.51-12.12,16.92-17.84,25.61-1,1.47-.15,4.12-.16,6.23a46,46,0,0,0,6.25-2.5c.78-.45,1-1.95,1.41-3,1.37-3.63,2-7.74,4.17-10.82,6-8.68,12.58-17,19-25.33.94-1.23,2.48-2,3.69-3S275,554.17,276.83,552.47Zm42.37-81.55c-2.63-1.34-3.94-2.43-5.33-2.56-.85-.09-1.85,1.29-2.78,2,1.12,1,2.11,2.46,3.4,2.8C315.42,473.41,316.75,472.16,319.2,470.92Z"/><path class="cls-3" d="M151.1,794.25c2.78-10,5-20.15,8.45-29.92,6.66-19.07,14.13-37.86,20.93-56.88,3-8.42,5.37-17.07,7.72-25.7,1.12-4.13,1.31-8.51,2.42-12.64.31-1.15,2.69-2.8,3.67-2.54,11.71,3.13,23.5.6,35.23.81,19.88.35,39.76,1,59.64,1.18,13.73.13,26.83,3.38,40,6.73,3.94,1,5,3.4,5.1,6.68.17,4.32-.34,8.68.08,13,1.05,10.55,2.6,21,3.69,31.58.83,8.09,1.47,16.21,1.84,24.34.31,6.74.24,13.5,0,20.24a4.31,4.31,0,0,1-2.8,3c-7,1-13.16,4.56-19.63,6.25-13.92,3.63-28.15,8-43.06,4.84-6.52-1.39-9.91-6.28-13.58-10.93-5.64-7.15-11.09-14.45-16.66-21.67a12.28,12.28,0,0,0-2.12-2.08c-6.26-5-6.78-4.75-12.64.77-8.45,8-14.43,17.65-20.11,27.57-2.39,4.17-4.89,7.14-10.54,5.54-7.67-2.17-14.44,1.74-21.46,4-8.22,2.66-16.57,4.94-24.87,7.38Z"/><path class="cls-4" d="M283.72,351.93c0-.36,0-.71.06-1.07,0-.71,0-1.43,0-2.14a.58.58,0,0,1,0-.18,42.1,42.1,0,0,1-5.09.34c-2.08,0-4.17.2-6.75.34-1.22,7.66-2.71,14.86-3.45,22.13-1,9.76-1.48,19.57-2.07,29.36-.48,8.13-.83,16.26-1.18,24.4-.05,1.14-.1,3.14.39,3.32,4.38,1.69,2.46,4.87,1.57,8.23a28,28,0,0,0,3.65-1.54,33.35,33.35,0,0,0,6.09-4.26,6.75,6.75,0,0,0,1.87-4.58A358.41,358.41,0,0,1,281,358.06c.28-2.16-.41-5.55,2.71-5.56C283.68,352.32,283.7,352.14,283.72,351.93Z"/><path class="cls-4" d="M326,268.36c-4.68-2.9-5-7.87-5.68-12.65q-2.16-15.24-4.35-30.48h-1.32c-.41,3.56-.7,7.13-1.26,10.66-1.64,10.27-4.79,20.09-11.09,28.41-1.76,2.34-6.08,4.55-8.69,4-4.17-.81-6.57-4.79-6.31-9.56a10.2,10.2,0,0,1,.31-2c3-12.06,3.19-24.34,2.17-36.61-1.68-20.16-3.7-40.29-5.58-60.43-.06-.67-.5-1.56-.22-1.94.77-1,2-2.7,2.76-2.56a24.25,24.25,0,0,1,7,2.59c.05,0,.06.1.07.2.36.14.71.27,1.08.38.8.26,1.61.48,2.42.71a.67.67,0,0,1,.38.28.7.7,0,0,1,.29.79c5.94.3,9.87,4.12,14.27,8.35.93-3.21,1.67-5.7,2.59-8.86-2.53.3-3.9.93-4.66.49-6-3.46-11-9.56-19.22-6.71-10.18-4.68-19.94-1.39-29.24,2.38-10.53,4.26-11.35,7.69-7,18a20,20,0,0,1,1.73,8.65c-.71,11.6-2.2,23.16-2.76,34.76a110.82,110.82,0,0,1-20.75,59.83,6,6,0,0,0-1.32,3.1c0,14.33,1.45,29.06,9.69,40.61,5.72,8,15.89,13,24.43,18.83a20.56,20.56,0,0,0,10.69,3.55c17.3.19,29.72-7.9,36.81-23.72,3.45-7.71,6.25-15.71,9.52-23.5,3.45-8.24,7.09-16.39,10.41-24C330.39,270.6,328.07,269.66,326,268.36Zm-48.52.44c-.84,2.37-3.89,4.5-6.42,5.62-5.67,2.5-10-.74-9.82-6.93.11-3.65.5-7.3.77-10.94h0c1.48-22.68,3.07-45.35,4.35-68.05a70.93,70.93,0,0,0-1.11-14.29c-.27-1.76-1.69-3.53-3-4.92-2.89-3.13-2.61-4.68,1.52-6.34,7.4-3,13.49-.48,14.4,7.44,1,8.45-.18,17.12-.06,25.7.1,7.72.65,15.43,1,23.15.53,11.26,1.47,22.52,1.45,33.78A48.32,48.32,0,0,1,277.46,268.8Z"/><path class="cls-1" d="M293.17,259.1a4.78,4.78,0,0,0,3,3.32c1.16.23,3.15-.89,4-2a49.41,49.41,0,0,0,9.15-23.32c.54-4.57,2.13-9,2.41-13.61.47-7.84,1-15.81.14-23.57-.75-6.67-3.79-13-5.15-19.69-1.61-7.82,2.37-15.84-8.08-19.07.21,0-1.19-1.72-1-1.73-.9-.24-4.75-2.06-5.62-2.4-.19.73,1.05,3.94.84,4.54-.69,2-1.95,3.81-2.27,5.81a40.41,40.41,0,0,0-.32,8.93c.55,7.75.82,15.58,2.14,23.21,2.89,16.64,3.86,33.22.95,50A34.21,34.21,0,0,0,293.17,259.1Z"/><path class="cls-4" d="M390.63,220.28l-3.56,4.33c-2.33-2.87-4.81-5.48-6.76-8.43-3.75-5.66-8.58-7.86-15.32-6.37-8.07,1.78-13.17-3.93-11.52-11.91.43-2.06-1.67-4.53-2-6.91s0-4.9,0-7.36c3.29.18,7.17-.67,9.7.81,2.91,1.68,4.39,5.67,7,8.19,1.87,1.85,4.48,2.94,6.77,4.37.29-2.82,1.09-5.71.73-8.45-.42-3.24-2.13-6.31-2.67-9.55-.24-1.41,1.06-3.08,1.66-4.63,1.3.73,3.23,1.15,3.79,2.26a107.07,107.07,0,0,1,4,10.28c3.79-2.48,5.4-4.69,3.41-8.84-2.75-5.74-2-9.6,1.62-12.69,3.21-2.74,6.33-2.38,8.08,1.38,1.23,2.66,1.48,5.76,2.54,8.52.65,1.71,2,3.15,3.05,4.7,1.12-1.95,2.88-3.79,3.22-5.87.64-3.86.45-7.86.61-11.81l2.51-.7c1.5,2,3,4,4.5,6.06,1,1.32,1.91,2.65,2.86,4,1.11-1.72,2.53-3.32,3.19-5.2.35-1-.59-2.48-1-3.73-1.27-3.84.69-6.09,3.91-7.41,3-1.24,5.36-.78,6.6,2.87,3.64,10.72,3.92,22.1-8.39,31.13-3.9,2.86-6.19,7.94-9.15,12.05a62.54,62.54,0,0,0-4.68,7.06,8.44,8.44,0,0,0-.9,4.65c.35,3.23,1.12,6.41,1.78,9.6.71,3.42,1.2,6.91,5.41,8.18,1,.3,1.94,1.77,2.35,2.91,3.81,10.46,7,21.19,11.35,31.4,6.72,15.65,6.89,32.3,8.7,48.71.85,7.73,1.74,15.58,1.35,23.3a69.36,69.36,0,0,1-11,34.23c-7.7,11.95-15.81,23.7-24.47,35-5.43,7.07-11.93,13.39-18.42,19.55-8.48,8-17.42,15.58-26.41,23.55l-5.78-5.39c7.09-6.24,14.21-12.14,20.82-18.56,1.82-1.77,1.92-5.2,3.18-7.67a113.77,113.77,0,0,1,31-38.34,123.19,123.19,0,0,0,10.86-9.42,9.66,9.66,0,0,0,2.61-5.53c1.2-12.66-.18-25-2.84-37.54-3.17-14.9-4.3-30.21-6.89-45.25-1.87-10.9-4.71-21.63-7.09-32.45-1.31-6-2.74-11.9-3.77-17.91C396.37,227,395.13,223.11,390.63,220.28Z"/><path class="cls-5" d="M438.32,118.7c-2.92,12.08-5.52,22.88-8.11,33.6-2.52-.56-5.4-1.63-8.3-1.69-2.32-.05-5.25.48-6.86,1.92-2.62,2.36-4.52,3.58-8.5,2.92-2.14-.36-5,3.71-8.09,6.2l-4.94-2.8c.55-1.13,1.08-2.25,1.63-3.38-8.65-3.3-13.18-11-12.6-19.89.15-2.33-1.17-4.92-2.38-7.07-.39-.69-2.63-.34-4-.46a18.55,18.55,0,0,0-.18,4c.51,3,1.8,5.89,1.83,8.84.11,9.21,6.81,13.24,13.61,18.32-8.3-1.81-9.37,5.09-12.22,9.49-11.1-2.12-12.64.21-10.78,15.72-10.76-4.54-11.85-6.92-9.39-18.31,1.08-5,1.47-10.15,2.24-15.22.22-1.45.71-2.86,1-4.3.61-2.66,1.18-5.32,2-9.08-6.62,2.4-8.94,6.55-8.44,11.28.83,7.88-1.18,15.15-2.91,22.59-.5,2.16-.31,4.49-.45,6.95-5.6,2.83-5.82,2.59-9.55-2.67-3.63-5.1-7.77-9.83-11.53-14.85-1-1.36-2.35-3.43-2-4.7,1.9-6.28,1.74-11.51-6.06-14.26.19-.45.38-.9.56-1.35l8.83-3.12c-.08-.93-.22-2.44-.35-4-1.53.2-3.29,0-4.54.69-3.29,1.83-6.35,4.06-10.38,6.72,2.81,2.64,4.9,4.86,7.26,6.75,2.84,2.28,3.68,4.59.87,7.71l-33.89-21.13a21.33,21.33,0,0,1,4.2-1.92c21-4.52,42.12-8.83,63.13-13.47,11.48-2.54,22.88-5.48,34.26-8.47,10.23-2.7,20.27-7.37,30.61-8.11,9-.64,7.23-4.23,6.21-9.66-.36-1.91.51-4.33,1.49-6.15,3.34-6.21-1.15-12.94-5.84-15.59-4-2.23-8.23-3.94-12.28-6a4.08,4.08,0,0,1-1.91-2.53A2.67,2.67,0,0,1,413.19,60c2.54-.44,5.18-.34,7.73-.75a19.69,19.69,0,0,0,4.13-1.68c-1.23-1.26-2.36-3.44-3.72-3.59-3.07-.35-6.25.31-9.4.52-7.64.53-15.9-5.16-19-12.06-2.27-5-5.85-9.35-8.41-14.23-.82-1.55-.25-3.85-.32-5.8,1.66.29,3.93,0,4.86,1,4.59,4.88,9,10,13.16,15.22,3.43,4.31,6.88,8,12.8,9.09,4.77.91,9.28,3.27,13.84,5.15a5.71,5.71,0,0,1,2.48,2.32c8.1,13.76,13.43,28.14,9.47,44.49a16,16,0,0,0-.46,2.45c-.46,6,.42,12.86-8.84,12.83-.71,0-1.49.7-2.13,1.21-2,1.59-5.48,3-3.32,6.1,2.32,3.32,4.33,0,6.41-1.3C433.83,120.08,435.59,119.73,438.32,118.7Zm-15.77,17.69c-3.21.19-5.28.4-7.35.41-5.61,0-7-1.38-7.16-6.87,0-1.48.28-3.5-.53-4.3a9.15,9.15,0,0,0-5.39-2.71c-1.18,0-2.46,2.1-3.69,3.26,1.64.89,3.28,1.77,4.9,2.69.26.14.4.49.63.78-.23,4.13-1.84,8.76,3.54,11.1C412.42,142.9,417.85,141.61,422.55,136.39Z"/><path class="cls-4" d="M260.48,105c4.11,3.48,4.17,9.8.25,13.92q-7.5,7.88-15,15.77c-2.15,2.25-4.42,4.38-6.44,6.73-.73.85-1.52,2.5-1.17,3.29,1.35,3-.4,4.07-2.38,6-12.13,11.72-24.79,23-35.67,35.86-12.28,14.48-23,30.29-34.15,45.74-8.86,12.33-18.63,24.06-24.87,38.17-8,18.15-8.4,36.44-1.48,54.76a29.33,29.33,0,0,0,8.71,11.95c10,8,16.81,18,22.23,29.46,7.3,15.41,15.29,30.48,23,45.71,2.95,5.85,2.52,6.64-2.89,8.83-3.07,1.24-4.09.53-5.43-2.5a131.49,131.49,0,0,0-8.3-14.82c-6.27-10.32-12.45-20.71-19.11-30.78-2.52-3.82-6.24-6.85-9.45-10.22-10.42-10.91-21.18-21.52-31.16-32.83-7-7.92-9.36-17.61-8-28.36,3.57-27.9,18.31-49.55,38.55-67.6,18.56-16.56,34.7-35.08,50.09-54.51,15.24-19.25,31.56-37.64,47.41-56.4C253.59,120,252.73,109.14,260.48,105Z"/><path class="cls-4" d="M327.14,782.92c-1.45,12.65-2.48,24.4-4.21,36-2.87,19.43,1.71,36.57,14.46,51.52,11.74,13.77,24,27.15,35,41.52,9.46,12.36,17.7,25.7,25.93,39,4.29,6.92,2.61,11.9-4.53,15.76a38.87,38.87,0,0,1-12,4.17c-2,.32-5.31-1.22-6.49-3-5.66-8.37-10.89-17-16.11-25.71q-9.9-16.4-19.51-33c-2.81-4.87-5-10.08-7.89-14.93-5-8.52-10-17.13-15.56-25.26-6.08-8.81-10.45-18.08-10.76-28.9-.15-5.32-.63-10.8.36-15.95,1.71-9,4.43-17.75,6.75-26.61.12-.47.65-1,.52-1.35-3.32-8.41,4.18-8.39,8.44-10.82C323,784.56,324.74,784,327.14,782.92Z"/><path class="cls-6" d="M335,670.65c-46-13.11-92.08-9.66-138.06-8.73,2.45-9.33,4.47-17.27,6.64-25.16,1-3.49,2.08-5.4,6.93-3.91,7.51,2.32,15.48,3.33,23.33,4.24,22.89,2.64,45.82,5,68.73,7.4,9.69,1,19.4,1.89,29.09,2.88,3,.3,4.75,1.56,4.39,5.14C335.43,658.25,335.31,664,335,670.65Z"/><path class="cls-4" d="M190,790.9c.87,9.19-.38,11.72-5.63,13-1.14,11.25-1.82,22.49-3.51,33.58s-4.62,22.06-6.64,33.14c-5.9,32.47-25,58.18-42.66,84.72-4.58,6.9-8.3,14.37-12.5,21.53-1.51,2.56-2.83,6.08-7,2.37a40.38,40.38,0,0,0-2.44,3.91c-3.09,6.48-3.1,6.51-10,4.22a25,25,0,0,1-4.15-1.67c-4.34-2.37-4.39-4.55-1.09-8.1a214.65,214.65,0,0,0,14.51-16.84q15.24-20.29,29.87-41.06c6.32-8.94,12.94-17.81,17.94-27.48,3.32-6.41,4.65-14.09,5.77-21.37,3.36-22,6.25-44,9.14-66,.7-5.33,2.5-8.86,8.45-9.78C183.3,794.49,186.36,792.46,190,790.9Z"/><path class="cls-3" d="M363.18,472.61c-1,.48-1.6,1-2.15,1-4.33-.3-9,.2-12.87-1.34-4.13-1.66-7.66-5.05-11.12-8.07-6.56-5.72-10.11-13.37-13.08-21.39a27.28,27.28,0,0,0-4.12-6.79c-4.88-6.39-10-7.08-16.75-2.44-5.27,3.64-10.29,7.7-15.84,10.82-13.33,7.51-32.56,5.65-44.36-4.17A96.77,96.77,0,0,1,231.75,429c-5-5.72-13.87-9.2-20.11-6.25-5.13,2.41-9.55,6.32-14.33,9.49q-16.76,11.07-33.57,22c-.79.51-2,.35-3.05.51a24.09,24.09,0,0,1-.17-3.16c.39-5,4.94-6.14,8.16-8.45,6.53-4.69,13.09-9.35,19.74-13.87a71.55,71.55,0,0,1,8.15-4.59,174.25,174.25,0,0,1,31.59-11.59c4.77-1.33,8.48-.7,11.21,3.65,3.08,4.91,6.48,9.66,9.18,14.78,6.57,12.42,13.55,10.93,24.05,6.87,4.12-1.6,8.45-2.86,12.25-5,4.33-2.49,8-6.14,12.27-8.76,8.13-5,16-10.77,26.24-10.64,4.65.06,8.4,1.32,9.74,6.5,3.23,12.38,9.45,23.13,17.42,33.11C355.13,459.34,358.77,465.9,363.18,472.61Z"/><path class="cls-7" d="M23.61,1118.22c11.56-12.24,15.67-27.76,21.3-42.53,1.12-2.93,2-6.1,3.75-8.62,2.21-3.18,5.27-4.78,9.77-4.44,6.56.5,13.22-.19,19.83-.55,3.82-.21,5.18,1.44,5.54,5.17,1.37,14.13-1.48,26.61-10.54,38.2-4.48,5.73-6.06,13.8-8.62,20.93-1,2.89-2.1,4.35-5.28,2.93a122.39,122.39,0,0,0-34.28-10C24.66,1119.28,24.31,1118.77,23.61,1118.22Zm52.23-34.87c1.08-8.16-4.43-12.27-10.1-16.2-4.27-3-6.48-2.49-9.31,1.86-2,3-4,6-5.74,9.23-3.5,6.52-5.92,13.42-5,20.94.63,5,2.06,10,7.51,11.9s9.9-.82,13.1-4.82C71.65,1099.62,76.11,1092.42,75.84,1083.35Z"/><path class="cls-7" d="M418,1023.09c-2.91,3.3-6,5.93-8,9.23-3.92,6.7-.35,13,2.81,18.61,5.06,9,13.49,10.65,21.17,3.89,2.9-2.55,4.13-7,6.18-10.7,4.37,2.14,12.57,12.68,14.37,19.24-4.82.92-9.75,1.47-14.44,2.86a28.3,28.3,0,0,0-15.3,11.33c-4.26,6-7.21,5.82-10.69-.37-2.11-3.74-4.65-7.25-7.08-10.81-5.69-8.3-10.1-17.15-11-27.33-.31-3.56-1.9-7.67,2.53-10.27.48-.28.26-1.85.26-2.82,0-6.39.92-7.46,7.24-8.18,1.29-.15,2.72.24,3.91-.16C415.87,1015.67,417.11,1019.39,418,1023.09Z"/><path class="cls-5" d="M384.29,85.92c-.31,1.46-.52,3-1,4.37-1.87,5.86-2.21,11.44,4.16,16.95L333.39,119l-.57-1.6c3.8-1.54,7.58-4.22,11.41-4.31,4-.09,4.87-2,5.65-4.75,3.08-10.67,2.56-21.3-.63-31.87-.37-1.23-.75-2.47-1.4-4.6,6.43-1.32,12.47-3.12,18.6-3.46,1.8-.1,4.24,3.72,5.65,6.17,1.7,3,2.61,6.43,3.88,9.67,2.47,6.33,4.13,6.68,8.42,1.8Zm-27.62,22.85c3.17-2.87,5.9-5,8.14-7.55.84-1,.53-2.92.75-4.42-1.4,0-3.33-.48-4.1.24a19.68,19.68,0,0,0-4.65,6.25C356.09,105,356.67,107.16,356.67,108.77Z"/><path class="cls-7" d="M57.47,1188.55c-7.59-4.63-15-9.25-22.48-13.67-8-4.69-16.13-9-24-13.81-5.58-3.37-7.43-12.56-2.78-16.93,1.91-1.79,7.19-2,9.82-.65,9.91,4.93,19.46,10.59,28.92,16.36a71.47,71.47,0,0,1,11.29,9C64.39,1174.64,64.12,1180.68,57.47,1188.55Z"/><path class="cls-7" d="M470.2,1111.28c-.38,3.63-.81,7.25-1.11,10.89s-2.17,4.23-5.08,2.88c-1.94-.9-3.78-2-5.65-3.1-8.3-4.74-17-8-26.78-7.27-8.41.59-12.21-3-12.5-10.9-.18-5.06,2.83-7.23,6.71-7.64a237.79,237.79,0,0,1,29.06-1.82C464.48,1094.48,470.2,1101.55,470.2,1111.28Z"/><path class="cls-1" d="M330.49,265.88c-1.57-3.84-3.08-6.95-4.12-10.22s-1.74-6.95-2.55-10.44a61.81,61.81,0,0,1-1.43-6.8q-1.67-14.56-3.1-29.15a111.37,111.37,0,0,1-.77-13.4c.21-7.92-.53-15.54-4.5-22.62-.61-1.09-.31-2.68-.43-4a40.25,40.25,0,0,1,4.67.19,5.5,5.5,0,0,1,2.11,1.27c5.34,4,9.68,18.92,8.43,25.63-.72,3.9-.08,8.25.79,12.21,2.52,11.48,5.84,22.78,8.14,34.3C339.34,250.9,339,259,330.49,265.88Z"/><path class="cls-6" d="M63.81,1032.11c7.49-15.55,13.1-31.43,25.61-42.62,4.37,1.51,7.93,2.77,11.51,4,2.48.83,3.65,2.35,2.44,4.9-5.51,11.67-10.88,23.42-16.84,34.86-.9,1.72-4.75,3-7,2.69C74.63,1035.36,69.89,1033.67,63.81,1032.11Z"/><path class="cls-6" d="M405.17,970.75a100.92,100.92,0,0,1,8.8,31.56c.15,1.48,0,3,.12,4.47.49,7,0,7.58-6.92,8.1-3.61.27-7.22.89-10.82.83-1.39,0-3.52-1.13-4-2.31-4.05-9.22-7.73-18.61-11.65-27.89-1.07-2.53,0-3.55,2.11-4.51C390,977.77,397.19,974.42,405.17,970.75Zm-10.87,28.3c-.2.39-.4.78-.61,1.16,2.15.6,4.45,1.93,6.38,1.51,1.14-.25,1.68-3.25,2.72-5.52Z"/><path class="cls-7" d="M63.58,1165.74C48.51,1150.41,30.37,1140.55,10,1135c2.08-7.69,4.42-10.45,9-10.06a70.31,70.31,0,0,1,14.43,2.23c7.73,2.32,15.28,5.25,22.79,8.23,4,1.57,6.2,4.9,6.75,9.17.85,6.66,1.58,13.35,2.37,20Z"/><path class="cls-7" d="M53.05,1191.72c-2.28,1.64-2.89,2.44-3.59,2.53-10.83,1.33-21.64,3-32.51,3.65-5.65.33-12.58-6.82-12.74-12.53-.18-6.88.55-13.79,1-22.33Z"/><path class="cls-4" d="M240.24,177.16c0,4.69.57,9.47-.1,14.07-2.84,19.68-6.88,39.08-15.8,57.09-1.73,3.46.11,3.93,3.64,3.74l-4.71,12.09C216,260.46,211.64,255,210,247.74c-.47-2.1.78-5.52,2.43-7,9.49-8.55,13.31-20,16.85-31.6,2.86-9.33,5.26-18.8,7.95-28.18a27.32,27.32,0,0,1,2-4.14Z"/><path class="cls-5" d="M283.7,130.53c-5.85-4.75-6.36-10-2-17.34,3.35-5.69,5.81-11.91,8.47-18,1.23-2.82,2.11-5.59,5.86-2.8a1.41,1.41,0,0,0,.45.21L303,94.29c-.76,2.34-1.51,4.69-2.3,7a12.57,12.57,0,0,0,8.08,15.89,45.76,45.76,0,0,0,8.79,1.57c2.73.26,5.51,0,8.34.92Z"/><path class="cls-7" d="M421.09,1119.87c3,.25,5.64.82,8.2.62,13.12-1,24.18,5,36.22,10.79-1.12,1.84-2,4.17-3.6,5.73-7.65,7.39-26.09,7.86-34.46,1.45C421.12,1133.62,421,1127.11,421.09,1119.87Z"/><path class="cls-7" d="M466.85,1092.49c-12.77-5.83-25.34-3.52-37.85-2.17-2.24.24-4.4,1.64-6.62,1.72-1.37.06-2.8-1.37-4.2-2.13,1-1.19,2-3.32,3.13-3.41,5.24-.44,7.84-3.36,9.68-8,3-7.45,17.88-11.21,24.55-6.44C461.37,1076.27,465.82,1084,466.85,1092.49Z"/><path class="cls-1" d="M227.74,270.07c1.36-5.71,2.66-11.43,4.11-17.11,4.8-18.8,9.71-37.57,14.46-56.38,1.41-5.57,2.45-11.23,4.67-16.94a41.74,41.74,0,0,1,.45,6.28c-.56,7.28-1.36,14.54-2,21.81-.74,8.42-1,16.91-2.2,25.27-1.73,12.55-7.38,23.7-13.69,34.49-.82,1.41-2.39,2.38-3.62,3.55Z"/><path class="cls-5" d="M354.1,30.28c.33,5.81-.19,11.77,1.2,17.23,1.32,5.18,4.63,9.84,7.33,15.25-4.74,1-9.79,2.21-14.91,2.83-1,.12-2.74-2.09-3.24-3.54-1.88-5.47-3.38-11.07-5.05-16.62-.38-1.26-.79-2.52-1.26-3.75-1-2.74-2.13-5.46-3.2-8.18,4.5-1.36,8.95-2.89,13.51-4C350,29.16,351.7,29.91,354.1,30.28Z"/><path class="cls-2" d="M420.35,75.71c-7.64,2-11.41,8.69-9.39,16,1.23,4.45,4.46,5.53,8.16,2.82,1.61-1.18,3.39-2.13,6.05-3.79-.75,5.62-4.44,6.15-7.26,6.87-6.32,1.63-12.77,2.84-19.22,3.89-7.71,1.25-10.55-1.6-9.37-9.38a31.59,31.59,0,0,1,2.63-8c.44-1,2.06-2.28,2.87-2.12,6,1.22,8.9-3,11.38-6.92C411.74,66.33,414.57,66.24,420.35,75.71Z"/><path class="cls-2" d="M335,91c1.4,4.5,3,9,4.18,13.64.86,3.3-3.51,7.39-8.5,7.9a126.48,126.48,0,0,1-15.3.88c-4.85-.11-7.55-3.4-9.27-8.23,9.1-1.21,17.53-3.08,17.54-15.83Z"/><path class="cls-7" d="M71.28,1056.77c-3.78.44-7.56,1-11.35,1.24-1.65.08-3.75-.25-4.85-1.25-.61-.56.36-2.94.77-4.45a17.83,17.83,0,0,1,1.24-2.71c4.77-10.18,11.35-13,20.83-7.37,2.69,1.59,3.54,6.92,4.26,10.73.16.83-3.73,2.7-6,3.62-1.46.61-3.26.38-4.92.53Z"/><path class="cls-1" d="M337.46,214.76c2.85,1.58,4.4,2,5.37,3.05,6.95,7.27,13.07,15.13,14.14,25.56.25,2.44-1.32,5.07-2.05,7.62-2.42-1.07-6-1.49-7-3.34a93.93,93.93,0,0,1-7.47-17.14C338.92,225.94,338.58,221,337.46,214.76Z"/><path class="cls-1" d="M367.53,26.81l-4.14-5.87,8.7-4.87,1.09,1.24c-.21.94-.42,1.87-.65,2.86,6.74,5.16,13.29,10.26,15.8,19.46,1.6,5.89,5.63,11.13,8.67,16.84-3,.62-7.1,1.85-11.25,2.06-1.13.06-3.43-2.93-3.45-4.55-.1-7.17-.07-14.27-3.15-21-.83-1.81-1.47-3.72-2.47-5.43C374,22.94,372.59,22.74,367.53,26.81Z"/><path class="cls-1" d="M198.83,242.68c.2-2.46-.27-4.91.65-6.62,6.39-11.95,15.64-21.5,26-30.28C227.88,215.36,210.94,239.19,198.83,242.68Z"/><path class="cls-1" d="M364.38,29.79c4.53,1.45,6.18,6.18,7.43,10.35,1.75,5.83,2.33,12,3.16,18.09a3.66,3.66,0,0,1-1.63,3c-1,.48-2.95.46-3.59-.21C364.6,55.62,359.43,50.12,359.21,42a6.74,6.74,0,0,1,.21-2.93C360.89,36,362.58,33.11,364.38,29.79Z"/><path class="cls-6" d="M419.13,1038.92l-2.77-5.36c2.81-4.69,6.19-3.62,9.75-1,4,3,7.18,6.44,7.68,11.7a8.79,8.79,0,0,1-4.77,9.14c-3.23,1.72-6.19.1-8.42-2.41a42.21,42.21,0,0,1-5.31-7.06C413.59,1041,413.78,1038.41,419.13,1038.92Z"/><path class="cls-1" d="M434.43,45.93c8.26,5.55,17.16,10.38,24.55,16.92,4.82,4.27,5.82,11.42,4,18.09-.37,1.34-2,2.31-3.11,3.44a17.23,17.23,0,0,1-2.62-3.28c-2.86-6.12-5-12.66-8.54-18.36-2.28-3.69-6.44-6.23-9.85-9.19-2.05-1.78-4.27-3.38-6.41-5.06C433.09,47.64,433.76,46.78,434.43,45.93Z"/><path class="cls-1" d="M307.31,78.72c1.95-10.44,3.71-20.3,5.75-30.1.21-1,2-2.27,3.16-2.46.9-.14,2.37,1,3,2C325.63,57.65,319.18,75.29,307.31,78.72Z"/><path class="cls-5" d="M307.31,53.22c-3.18,10-1.43,21.18-8.56,29.66l-1.58-.19c-.08-1.45-.56-3-.18-4.33,1.94-6.56,1.41-12.39-2.67-18.31-1.21-1.76.16-6.33,1.74-8.67,1.4-2.07,4.62-3.07,7,.26C303.67,52.49,305.4,52.55,307.31,53.22Z"/><path class="cls-1" d="M289.32,63.53c4.66,3.13,5.32,6.53,4.64,10.31-1.81,9.92-7.22,16.32-19,17.66Z"/><path class="cls-1" d="M325,38.51c2.07-2.57,4.52-1.63,6.72,1.11a12.47,12.47,0,0,1,2.15,3.89c2.23,6.74,4.35,13.52,6.44,20.3.87,2.82.31,4.7-3.13,5.31s-3.22-1.73-3.84-3.75C330.64,56.58,327.88,47.82,325,38.51Z"/><path class="cls-1" d="M261.85,94.71c1.58-6.08,3.07-12.18,4.83-18.2.23-.78,2-1,2.8-1.75,1-.94,1.76-2.21,2.74-3.23,1.28-1.36,2.68-2.61,4-3.9.54,1.78,1.95,3.87,1.46,5.3A61,61,0,0,1,264.06,95.5Z"/><path class="cls-1" d="M345.81,101.08c-3.12-7.72-6.36-15.4-9.21-23.21-.38-1.05,1-3.91,1.89-4,1.87-.26,5.34.26,5.64,1.24,2.58,8.31,4.22,16.84,3,25.59Z"/><path class="cls-1" d="M402.79,60.5l3.92,2.62a34.81,34.81,0,0,1-3.27,3.77c-1.35,1.2-3.05,2-4.46,3.14-4.43,3.59-10.23,1.87-11.53-3.75-.24-1,1.37-3.36,2.5-3.66C393.78,61.62,397.77,61.27,402.79,60.5Z"/><path class="cls-1" d="M276.21,113.91c-7.75-6.91-7.43-11.67-.14-15.83a92.21,92.21,0,0,1,8.41-3.79l1.41,1.16Z"/><path class="cls-1" d="M344.63,193.81l-16.81-29.75C335.88,166.88,345,182.12,344.63,193.81Z"/><path class="cls-1" d="M342.52,250.53l9,7.14c-4.24,4.14-7,9.45-14.34,9.65Z"/><path class="cls-1" d="M413.49,46.34,397.24,29.15c.48-.51,1-1,1.45-1.54C406,29,409.92,34.92,414.13,40.32c1,1.32,1.2,3.3,1.76,5Z"/><path class="cls-5" d="M327.13,55.25c1.36,5.16,2.72,10.33,4.19,15.93L322.78,74c1.1-6.65,2.08-12.55,3.06-18.44Z"/><path class="cls-1" d="M223.26,200.75c-3.79-7.17-.72-14.63,6.57-17.48Z"/><path class="cls-1" d="M320,82c1.43-3.47,6.81-6.64,10.22-5.33,1.64.63,2.44,3.45,3.66,5.33Z"/><path class="cls-5" d="M384.4,86V71.39L391,76.81l-6.74,9.1Z"/><path class="cls-1" d="M380.76,77.63c-6.07-6.58-6.83-9.86-3.08-12.76C378.79,69.46,379.77,73.54,380.76,77.63Z"/><path class="cls-1" d="M345.31,209.9c-5.52-3.31-3.61-6,0-9.4Z"/><path d="M275.53,505.52a55.16,55.16,0,0,1-1.32-6.32c-.29-3.61-.07-7.29-.62-10.85-.2-1.3-2-2.35-4-3.14,1.18,9.05-1.35,16.21-7.15,22.42-6.66,7.12-13.12,6.27-16-2.93-1.85-5.93-2.24-12.36-2.8-18.6-.12-1.28,1.91-2.76,2.94-4.14.91,1.52,2.37,3,2.63,4.57.79,5.05.45,10.37,1.83,15.21,1.75,6.16,5.17,6.59,9.57,2.05,6-6.15,6.05-11.18.72-18.29a6.12,6.12,0,0,1-.64-5c.34-1,2.55-1.57,4-1.73,3.34-.37,7,.86,9.48-2.76a2.87,2.87,0,0,1,2.25-.65c3.82.3,7.65.58,11.44,1.17,8.38,1.3,16.78,2.61,25.07,4.36,1.21.26,2.64,3,2.68,4.57.11,5.14-.43,10.28-.64,15.42-.1,2.29.08,4.59-.07,6.87a16,16,0,0,1-1,3.36c-.89-.9-2.46-1.73-2.55-2.7-.34-3.63-.2-7.3-.21-10.95,0-4.11,0-8.21,0-12.65l-10.46.8c.79,4.34,1.4,8.4,2.3,12.4.86,3.8-.74,6.31-4.54,9.15-.83-2.24-1.85-4-2.07-5.82a68.5,68.5,0,0,1,0-8c0-8.69-6.85-13.18-15-9.81a3.46,3.46,0,0,0-2,2.32c0,3.14-.59,6.8.78,9.33C282.76,500.11,280.13,502.2,275.53,505.52Z"/><path d="M186,503.87c5.6-.49,10.85-1.2,16.12-1.35,6.71-.19,8.76,2.42,7.7,9-1.51,9.4-8.6,15.77-18,15.9-1.79,0-3.59-1.07-5.39-1.65.34-1,.44-2.7,1.07-2.93,2.05-.74,5.06-2,6.34-1.16,4.66,3.23,6.48-1.24,8.54-3.11s2.58-5,3.3-7.74c.11-.43-2.42-2.23-3.72-2.22-4.94,0-9.88.69-14.82.76a13,13,0,0,1-6.75-1.46c-.64-.41.3-3.88,1-5.78,1.81-5,3.88-9.85,4.83-15.38l1.6,3.75c2.88-3.33,5.23-6.23,7.78-9,2.24-2.39,5.49-3.71,7.86-1.43,1.16,1.11.24,4.75-.29,7.12-.33,1.49-1.68,2.77-3.15,5l-1.73-5.27C191.17,488.59,186.07,495.55,186,503.87Z"/><path d="M276.42,581.48c10.63,3.61,14.18,11.7,10,21.65s-11.46,13.25-19.86,8.66l3.19-6.16.65,1.52c2.63,0,6.72,1.05,7.61-.2A35.65,35.65,0,0,0,283.06,595c.39-1.55-1.57-5.27-2.41-5.25-2.35,0-4.74,1.39-7,2.46a38.42,38.42,0,0,0-4.47,2.86,51.1,51.1,0,0,1-.11-6.18,47.66,47.66,0,0,1,1.55-9.16c.53-1.69,2.08-4.17,3.38-4.31a133.91,133.91,0,0,1,17.35-.56,8.09,8.09,0,0,1,5.37,2.19c1.13,1.26,1,3.63,1.45,5.5-1.76-.06-3.92.52-5.2-.3C287.72,578.93,282.14,578.34,276.42,581.48Z"/><path d="M325.63,496l14.5,1.39.18,1.71c-4.57,3.25-10.42,1.68-15.49,3-1,5.5-.33,6.84,4.91,7,4.25.14,8.51-.64,12.77-.84a17.85,17.85,0,0,1,3.89.68c-.74,1.31-1.16,3.34-2.26,3.81a28.6,28.6,0,0,1-21.73.82c-3.48-1.27-3.95-4.2-3.58-7.33.82-6.84,1.62-13.69,2.82-20.47.23-1.33,2.23-3.3,3.46-3.34,6.13-.16,12.27.13,18.4.5,1,.06,2,1.32,2.95,2-1,.66-1.94,1.7-3,1.89-3.74.64-7.54.94-11.31,1.45C326,489.16,325.71,489.47,325.63,496Z"/><path d="M243.81,507.64c-3.39,6.63-9.28,9.37-15.45,11.39-5.33,1.75-9.55-1.1-9.79-6.65-.44-10.37,1.86-19.95,8.91-28.1,3.35-3.87,7.52-4.87,12.28-5.26,1.68,4.09,2.38,7.5-3.25,9.09-1.83-4-3.91-2.7-6.2.07-5.2,6.31-6.4,13.72-5.88,21.51.26,3.79,3,4.57,6.16,3.53s6.07-2.55,9.1-3.85C241.06,508.78,242.44,508.21,243.81,507.64Z"/><path d="M234.36,587.67V558.09l-2.21-.49c-2.84,6.39-5.69,12.78-8.5,19.19-.39.89-.24,2.25-.86,2.75a24.46,24.46,0,0,1-4.32,2.32c0-1.5-.46-3.26.15-4.46,3.16-6.21,6.66-12.26,9.91-18.43,1.47-2.77,2.52-5.76,4-8.54a38.81,38.81,0,0,1,3.15-4.47l1.63.3a58.53,58.53,0,0,1,1.4,6.82c.75,8.72,1.76,17.45,1.77,26.18,0,2.92-2.66,5.85-4.11,8.78Z"/><path d="M276.83,552.47c-1.87,1.7-3.06,2.83-4.32,3.9s-2.75,1.77-3.69,3c-6.46,8.36-13,16.65-19,25.33-2.14,3.08-2.8,7.19-4.17,10.82-.39,1.05-.63,2.55-1.41,3A46,46,0,0,1,238,601c0-2.11-.81-4.76.16-6.23,5.72-8.69,11.85-17.1,17.84-25.61,4.45-6.34,8.83-12.73,13.4-19,.75-1,2.66-2.27,3.45-2C274.15,548.78,275.05,550.48,276.83,552.47Z"/><path d="M319.2,470.92c-2.45,1.24-3.78,2.49-4.71,2.25-1.29-.34-2.28-1.81-3.4-2.8.93-.72,1.93-2.1,2.78-2C315.26,468.49,316.57,469.58,319.2,470.92Z"/><path d="M262,256.54c1.48-22.68,3.07-45.35,4.35-68.05a70.93,70.93,0,0,0-1.11-14.29c-.27-1.76-1.69-3.53-3-4.92-2.89-3.13-2.61-4.68,1.52-6.34,7.4-3,13.49-.48,14.4,7.44,1,8.45-.18,17.12-.06,25.7.1,7.72.65,15.43,1,23.15.53,11.26,1.47,22.52,1.45,33.78a48.32,48.32,0,0,1-3.1,15.79c-.84,2.37-3.89,4.5-6.42,5.62-5.67,2.5-10-.74-9.82-6.93.11-3.65.5-7.3.77-10.94Zm6.48-89.83c4.81,10.54,2.7,20.51,2.15,30.46q-1.8,32.82-3.13,65.66c-.09,2.15,1.5,4.37,2.31,6.56a63.6,63.6,0,0,0,6.43-4.93,5.38,5.38,0,0,0,1-3.74c-.88-14.86-1.88-29.71-2.81-44.57-.3-4.77-.77-9.56-.6-14.33.27-7.92,1.4-15.84,1.36-23.75C275.14,174,275.31,169,268.45,166.71Z"/><path d="M422.55,136.39c-4.7,5.22-10.13,6.51-15.05,4.36-5.38-2.34-3.77-7-3.54-11.1-.23-.29-.37-.64-.63-.78-1.62-.92-3.26-1.8-4.9-2.69,1.23-1.16,2.51-3.31,3.69-3.26a9.15,9.15,0,0,1,5.39,2.71c.81.8.49,2.82.53,4.3.14,5.49,1.55,6.91,7.16,6.87C417.27,136.79,419.34,136.58,422.55,136.39Z"/><path d="M75.84,1083.35c.27,9.07-4.19,16.27-9.5,22.91-3.2,4-7.56,6.81-13.1,4.82s-6.88-6.89-7.51-11.9c-1-7.52,1.46-14.42,5-20.94,1.71-3.18,3.76-6.2,5.74-9.23,2.83-4.35,5-4.82,9.31-1.86C71.41,1071.08,76.92,1075.19,75.84,1083.35Zm-15.32-1.71c-3.3.68-6.23.39-7.26,1.65-4.89,6-4.28,15.36.7,21,2.41,2.75,4.72,3.15,7.64.69a29,29,0,0,0,10.82-23c0-5.2-3.15-9.08-7.43-11.63-1.31-.79-3.94-.5-5.3.36-.77.49-.31,3.16-.13,4.81C59.8,1077.9,60.29,1080.25,60.52,1081.64Z"/><path d="M356.67,108.77c0-1.61-.58-3.82.14-5.48A19.68,19.68,0,0,1,361.46,97c.77-.72,2.7-.2,4.1-.24-.22,1.5.09,3.47-.75,4.42C362.57,103.78,359.84,105.9,356.67,108.77Z"/><path d="M394.3,999.05l8.49-2.85c-1,2.27-1.58,5.27-2.72,5.52-1.93.42-4.23-.91-6.38-1.51C393.9,999.83,394.1,999.44,394.3,999.05Z"/><path class="cls-1" d="M268.45,166.71c6.86,2.24,6.69,7.32,6.72,11.36,0,7.91-1.09,15.83-1.36,23.75-.17,4.77.3,9.56.6,14.33.93,14.86,1.93,29.71,2.81,44.57a5.38,5.38,0,0,1-1,3.74,63.6,63.6,0,0,1-6.43,4.93c-.81-2.19-2.4-4.41-2.31-6.56q1.3-32.83,3.13-65.66C271.15,187.22,273.26,177.25,268.45,166.71Z"/><path class="cls-6" d="M60.52,1081.64c-.23-1.39-.72-3.74-1-6.12-.18-1.65-.64-4.32.13-4.81,1.36-.86,4-1.15,5.3-.36,4.28,2.55,7.43,6.43,7.43,11.63a29,29,0,0,1-10.82,23c-2.92,2.46-5.23,2.06-7.64-.69-5-5.69-5.59-15-.7-21C54.29,1082,57.22,1082.32,60.52,1081.64Z"/></g></g></svg>