<svg xmlns="http://www.w3.org/2000/svg" viewBox="0 0 1222.57 726.26"><defs><style>.cls-1{fill:#1d1d1b;}.cls-2{fill:#b17f4a;}.cls-3{fill:#fff;}.cls-4{fill:#d36e9d;}.cls-5{fill:#e30613;}.cls-6{fill:#c0016f;}.cls-7{fill:#ca9e67;}.cls-8{fill:#dedc00;}</style></defs><g id="Warstwa_2" data-name="Warstwa 2"><g id="Warstwa_1-2" data-name="Warstwa 1"><path class="cls-1" d="M1197.54,325.15a94.55,94.55,0,0,0-11-7.55c-1.15-.66-4.46-.16-4.58.34a42.09,42.09,0,0,1-1.43,4.62.68.68,0,0,1,.83.26l1.17,1.76c.17-.19.32-.32.4-.3,2.35.45,5.23.46,6.85,1.87,6.25,5.44,7.07,13,6.34,20.61-1.14,11.87,2.9,18.5,14.35,21.52,4.45,1.18,6.62-2,7.3-5.62a30.81,30.81,0,0,0-6.42-25.75C1207.63,332.28,1202.32,328.89,1197.54,325.15Z"/><path class="cls-2" d="M899.35,568.56c5.52,3.74,9.3,2.93,12.7-2.14a9,9,0,0,1,3.72-2.56c1.93-.9,4-1.51,6.12-2.28,2,.61,4.42,1.49,6.88,2s5,.66,8.36,1.08c-1.61-3.81-3.31-7.49-4.68-11.3a5.92,5.92,0,0,1-.14-2.5c-.91-.6-1.86-1.13-2.71-1.82-1.87,5.18-6.33,7.5-13.84,7.61-4.15.06-8.3,0-12.72,0C901.74,560.88,900.53,564.77,899.35,568.56Z"/><path class="cls-3" d="M768.38,101.81c11.67-14.62,14.5-36.38,4.52-53.08-2.78-4.66-9.95-7.65-14.67-5.8-1.2.47-2.2,2.34-2.6,3.76-1,3.49-1.56,7.1-2.41,11.16a19,19,0,0,1-2.37-1.76c-.23,1-.61,2-.87,3a.48.48,0,0,1-.14.25c-.2.94-.39,1.8-.52,2.41l3.08,1.54a30.75,30.75,0,0,0-2.3,2.11c-1,1.17-2.38,2.29-2.82,3.68a15.37,15.37,0,0,0-.75,6.33c1,8.29-.49,17,4.15,24.7C755.74,108.58,762.27,109.48,768.38,101.81Zm-7.7-38.76c1.33,2.46,1.91,3.82,2.75,5a26.69,26.69,0,0,0,2.46,2.72l-2.6,9.16c-.56-8.6-8.89-3.65-13.08-6.85C757.15,74.09,760.12,71.74,760.68,63.05Z"/><path d="M456.47,401.23c1.32-2.28,2.64-4.55,4.44-7.67-9.16,4.6-15.59,12.54-25.06,14.74-.37-.57-.73-1.15-1.1-1.73l26-16.52-.42-.62-30.67,16.34a43.52,43.52,0,0,1,5.05,3.8c1.83,1.85,4.08,3.75,4.86,6.07,2.08,6.14,6.29,9,12.36,10.08,1.25.22,2.38,1.14,3.57,1.73-1.07.86-2,2.12-3.22,2.5-5.27,1.66-13.72-1.91-15.18-7.58-1.71-6.63-6.71-9.5-11.33-13.09a3.61,3.61,0,0,0-3-.52c-19.31,7.56-38.57,15.21-58.11,22.95,5.57,6.62,6.78,14.6,6.37,23.08-.16,3.43-1.79,4.15-5,3.71.58-8.36,2.67-17-5.22-22.83l-2,.35c.44,3,.87,6,1.31,9l-.79-.39c-.85,2.57-2.15,5.09-2.45,7.73-.64,5.6-1,11.25-1.05,16.89-.12,7.26,1.12,8.66,7.92,10.16,4.54,1,9.13,1.87,13.64,3,9.21,2.36,10.33,8.55,6.85,16.65-2.14,5-6.61,8.11-12.46,8.83-8.4,1-16.76,2.31-25.12,3.6-7.44,1.14-11.8-2.55-11.85-10.16q-.21-28.41-.47-56.82c0-1.29-.21-2.57-.37-4.53-9.94,1.82-19.54,3.49-29.1,5.35-16.19,3.15-32.49,5.42-49,4.39-7.94-.5-15.83-1.83-23.73-2.85-3.46-.44-5.11.84-6.72,4.16-2.21,4.52-5.62,8.51-8.86,12.44-1,1.19-3.14,1.42-5.16,1.49,2.69-6.73,10.66-9.81,11.06-18.14-1.62-.32-3-.67-4.45-.86-8.22-1.05-16.44-2.17-24.68-3-1.59-.16-4.54.61-4.76,1.47-1.8,7.31-3.43,14.69-4.5,22.14-1.51,10.52-2.14,21.18-3.82,31.67-1,6.06-4.24,10.47-11,12.57-9,2.8-17.58,5.36-26.6,1-7.55-3.63-9.1-12.19-3.67-18.65,5.91-7,13.52-8.86,22.07-7.06,4.7,1,6.36-.37,6.35-5.08,0-9.78,1.46-19.76-.07-29.27-.86-5.32,3-9.22,1.17-14.45-4-1-8.22-2.31-12.58-3.14-13.2-2.49-26.43-4.78-39.65-7.18-3.36-.61-5.13.12-5.44,4.11-.89,11.17-6.81,19.94-14.51,27.59-1.36,1.35-3.53,1.88-5.33,2.79L89.65,460c1.08-1.37,1.9-3.16,3.29-4,7.72-4.82,15.36-19.84,14.67-27.77-8.16-3.92-16-7.06-23.1-11.35-3.6-2.17-6.34-6.16-8.78-9.79-5.64-8.37-10.13-17.62-16.42-25.43-9.63-12-14.33-26-19.85-39.91-9.17-23.1-9.26-47.27-9.31-71.4,0-20.74,1.2-41.5,1.94-62.24.08-2.12.6-4.23,1.15-7.84-2.09,2-3.23,3.25-4.48,4.34-6.6,5.78-13,11.83-19.92,17.19C4.48,225.14,2.19,223.33.65,218c-2.44-8.44,2.49-14.65,6.22-20.68,5.29-8.55,11.94-16.29,18.35-24.11,13.18-16.09,25.18-32.88,33.89-51.91,2.13-4.65,6-8.5,9.13-12.68,1.27-1.7,2.77-3.24,4-5,7-10,13.87-20.12,21.06-30,2.55-3.51,5.93-5.25,9.11.24,7.16-4.9,14-9.63,20.84-14.22,2.76-1.84,5.67-3.45,8.59-5,15.14-8.27,30-17.18,45.54-24.58,22.67-10.78,46-20.53,71.2-23.29,23.76-2.61,47.7-3.81,71.57-5.31,13.45-.85,27-1.83,40.39-1.32,10.71.41,21.37,2.83,32,4.69a159.5,159.5,0,0,1,16.81,4.08c7.77,2.25,13,8,18.61,13.47,11.66,11.33,23.93,22,35.56,33.39,7.35,7.18,13.87,15.19,21,22.61,10.14,10.59,20,21.36,26.86,34.49,4.44,8.48,7.65,17.26,8.31,26.87.39,5.63.71,11.27,1.31,16.88a14,14,0,0,0,1.46,4c-.71,4.33-1.36,7.84-1.85,11.37-.92,6.58-1.71,13.18-2.63,19.76-.33,2.42-.19,4.14,2.28,5.82,3.8,2.6,4.73,10.74,2.08,15.19l-1.06-3.64c-.34.52-.7.83-.73,1.16-.65,7.7-1.1,15.42-1.92,23.1-1.54,14.31-2.84,28.68-5.07,42.89-2.5,15.88-5.69,31.67-9.08,47.39-1.2,5.58-3.86,10.83-6.19,17.17L512,335.26c-.54,5.72-3.49,8.08-7.77,8.52-5.33.54-8.37,3.25-10.94,8-4.77,8.86-10.49,17.2-15.78,25.78-2.8,4.54-5.36,9.24-8.36,13.64a76.36,76.36,0,0,1-7.67,9.36c-.94,1-2.76,1.14-4.18,1.67ZM512,236.86c-8.65-.44-16.52-1.36-24.36-1.14-15.79.44-31.57,2.05-47.36,2.18-25.8.22-51.61,0-77.39-.71-29.1-.84-58.26-1.53-87.24-4.05Q228.33,229,181,228.19c-29.81-.55-59.54,0-89.15,3.94-6.43.86-12.79,1-17,7.28a7.23,7.23,0,0,1-5.54,2.66c-1.7-.12-4.57-2.21-4.62-3.52-.16-4.39-2.63-4.84-5.6-3.86Q47.81,238.44,36.81,243c-1.05.44-1.77,2.9-1.77,4.42,0,10.65.18,21.3.51,31.95.51,16.09.37,32.24,4.91,47.94.78,2.7,1.6,4.64,4.56,5.78,7.09,2.74,14,5.82,20.94,9C76.62,347,86.76,353.58,97.87,357c30.26,9.27,61.62,14.09,92.94,17.45,31.56,3.39,63.42,4.17,95.17,5.23,20.09.67,40.25,0,60.36-.51a394.54,394.54,0,0,0,84.29-11.37c17-4.2,33.6-9.38,49.11-17.64,1.64-.87,3.51-2.16,4.25-3.74,2.87-6.16,6-12.32,7.81-18.83,5.32-19.49,10.34-39.08,14.88-58.77C509.06,258.5,510.2,247.89,512,236.86ZM339.65,109.48c.45,5.13,1,8.75,1,12.38.06,4.41.33,9-.67,13.2-.93,3.93-2.7,8.17-5.44,11-2,2.07-7.37,3.77-9.13,2.56-3-2-5.1-6.29-6.08-10-2.36-8.91-3.68-18.09-5.84-27.06-.34-1.41-2.9-3.27-4.37-3.22-4.05.15-8.05,1.74-12.08,1.79-18.13.23-36.26.28-54.38,0-5.22-.07-6.94,1.72-6.76,6.82a40.16,40.16,0,0,1-6.1,22.79c-4.64,7.55-10.08,7.77-13.74-.33-3.57-7.91-5.64-16.5-8.53-25.27-7.31-1.84-9.06-.43-9.75,7.4A67.14,67.14,0,0,1,194.71,138c-1,2.77-4.5,6.41-7,6.48-4.16.11-5.68-4.41-6.65-8.23a12.71,12.71,0,0,1-.22-2.48c-.3-5.07-.6-10.13-.94-15.93-5.2.66-10.25,1.59-15.34,1.84-5.33.27-7.32,2.6-7.81,7.93-.7,7.55-1.7,15.15-6.33,21.76-3.83,5.46-7.92,8.28-11.51,6.86-4-1.57-4.94-5.55-3.47-12.65,1.12-5.41,1.88-10.9,3.07-17.95-7.37,2.49-13.42,4.2-19.16,6.65a9.55,9.55,0,0,0-4.67,5.41c-8.72,28-17.2,56.12-25.76,84.19-.55,1.83-1.3,3.6-2.07,5.71a25.94,25.94,0,0,0,3,.26c28.39-1.28,56.77-3.15,85.18-3.68,20.6-.38,41.27.53,61.86,1.76,27.55,1.65,55,4.67,82.57,6.14,24.91,1.33,49.89,1.67,74.85,1.88,21.13.18,42.28-.16,63.4-.81,18.24-.57,36.46-1.91,55.45-2.95,0-2.24.17-4.34,0-6.4-.53-5.65-2-11.32-1.7-16.91.7-13.84,2.22-27.64,3.21-41.48.12-1.62-.45-4.16-1.58-4.85-5.72-3.53-11.72-6.59-18.19-10.12,0,2.83-.07,4.62,0,6.4.29,6-1.17,11.42-6.36,14.76-3.08,2-6.88,2.94-10.43,4.14-11.92,4-25.1-3.1-27.72-17.48-1.4-7.66-1.39-15.11,3.12-22.56-7.12-2.32-13.52-4.56-20-6.35-.9-.25-2.88,1.5-3.55,2.75-2.57,4.8-4.44,10-7.29,14.62a6.91,6.91,0,0,1-10.8.94,34.6,34.6,0,0,1-6.64-10.76c-1.26-3.47-.76-7.55-1.33-11.33-.21-1.43-1-3.72-1.91-4-7-1.83-14.11-3.26-20.62-4.68l-6.63,38.46,13.25-9.82c1.81.22,4,.38,6.12.79a32.74,32.74,0,0,1,6.1,1.66c3.1,1.26,6,3.07,9.13,4.16,3.76,1.3,7.69,2.11,11.56,3.08q18.64,4.65,24.89,22.79c2.72,7.95,1.11,15.22-4.5,21.25a68.81,68.81,0,0,1-12.13,10.27,14.84,14.84,0,0,1-8.68,2.09c-6.9-.5-13.76-1.76-20.63-2.71-10-1.38-20.67-1-28.86-8a230.25,230.25,0,0,1-20.73-20.36c-2.76-3-2-6.83,1.62-9.55,3.42-2.6,6.75-5.32,9.67-7.63-1.2-2.56-2.9-4.64-3.07-6.84-.69-9-1-18.12-1.26-27.19-.15-4.47.19-9-.1-13.42-.08-1.26-1.4-3.21-2.51-3.5C350,111.27,345.28,110.56,339.65,109.48ZM351.48,432.4l-.12-1.23c-1.36-.57-3.09-.79-4-1.77-1.58-1.73-4.21-4.63-3.68-5.8A66.6,66.6,0,0,1,352.56,409c1.69-2.06,5.43-2.68,6.35.28-3.83,4.24-7.12,7.54-9.89,11.23-.66.87,0,4.07.81,4.45,4.6,2.11,9.16,4.52,14.66,2.3q27-10.87,54.25-21.33c3.08-1.19,3.47-2.69,2.68-5.69a30.16,30.16,0,0,1-.75-9.29c.06-1.06,2-2,3.07-3,.59,1.27,1.52,2.5,1.71,3.83.47,3.24.59,6.54.84,9.81l2,1.15c11-6.38,21.71-13.22,33-19,10.38-5.31,13.44-15.16,18.49-25.36-3.43,0-6.23-.76-8.35.12-27.89,11.54-57.15,17.51-86.88,21.3-13.49,1.73-27.17,2.06-40.76,2.95-11.45.76-22.92,2.18-34.35,2-25.09-.51-50.16-1.9-75.24-2.88-28.59-1.13-57.12-2.85-85.26-8.47-12.86-2.57-25.82-4.73-38.57-7.76-12.42-2.95-25.12-5.53-36-12.71-8.89-5.87-18.92-8.49-29.14-11.54a8,8,0,0,0,.18,2.07c4.73,12,9.26,24.22,18.15,34,1.79,2,4.52,3.1,6.82,4.62l1-1.18c.47,1,1.38,2.08,1.34,3.09-.26,6.13,3.43,10,7.22,14.11A120.38,120.38,0,0,1,91.38,412.5c4.22,6.29,9.42,9.08,16.77,7.88.39-4.11-1.76-6.92-4.9-9-2.33-1.58-5.18-2.51-7.24-4.34-1.71-1.52-4.14-4.53-3.62-5.87,3.13-8.14,7.62-15.56,15.89-19.55,1.34-.65,4.21-.43,5,.52,1,1.27.62,3.62,1,6.9-5.15-3.7-7.83-1.71-10.22,1.2-2,2.44-3.93,4.94-5.91,7.4s-1.24,4.66,1.12,6.31c1.62,1.14,3.54,1.85,5.22,2.91,4.2,2.66,8,5.91,7.9,11.31-.07,3.78,1.83,3.76,4.59,4,7.43.63,15,1,22.23,2.54,19.64,4.28,39.09,9.4,58.74,13.65,7.83,1.69,16,2,24,2.88l1.19-1.69c-1.94-2.88-4-5.68-5.78-8.66-1.05-1.76-2.39-3.85-2.25-5.69.3-4.11,10.95-14.34,15.26-14.81,1.75-.19,3.72.85,5.43,1.67.42.2.51,2.39.2,2.54a12.26,12.26,0,0,1-4.7,1.46c-5.19.23-7.32,4.38-9.47,7.86-.85,1.38.59,4.37,1.36,6.49.84,2.3,2.41,4.35,3.1,6.68,1,3.31,2.66,4.85,6.3,5,6.14.23,12.24,1.21,18.38,1.55,6.79.38,13.61.71,20.39.49,10.16-.33,20.22-.18,30.3-3.4,7.78-2.49,16.58-1.61,24.81-2.92C334.8,436.41,343.11,434.22,351.48,432.4Zm-191.68-315c7-1.18,12.89-2.07,18.68-3.24a3.48,3.48,0,0,0,2.12-2.62c-.38-3.41-1.25-6.76-1.9-10.14-.73-3.81-2.07-7.63-2-11.43.12-15.56,7.35-30.27,5.8-46.11-.07-.68,1.67-2.2,2.55-2.19,2,0,4,.76,6.88,1.39l-4.32,3.51c1.58,2.27,3.75,4.11,4.25,6.32a178.16,178.16,0,0,1,4,22.5c.92,9.92.81,19.94,1.51,29.89.17,2.42,0,6.07,4.55,5.66,3.93-.35,7.22-.84,6.36-6.21-.39-2.42.28-5,.14-7.47-1.23-22.7-.06-45.15,7.09-66.95.95-2.87,2.82-5.44,5-9.47,3.94,10.79,7.3,20,10.65,29.12l1.72-.62c-1.31-3.74-2.76-7.44-3.86-11.23-.38-1.32.09-2.88.17-4.33,1.44.73,3.52,1.11,4.17,2.27A15.46,15.46,0,0,1,235,42.7c.78,19.76,1.5,39.53,2,59.3.1,3.9,1.06,5,5.2,4.86,13.44-.56,26.91-.39,40.35-.81,9.74-.31,19.46-1.11,30-1.74-6.09-32.85-4.11-64.31.86-95.89a19.26,19.26,0,0,0-4.07-.56C303.7,8.33,298.1,9,292.49,9.54l.72,1.14-5.65,4.87-1.51-5.61C245.59,3.64,178.34,30.43,156,48.3c2.76,5.85,7.2,11.31,7.66,17.09,1,11.84,0,23.86-.67,35.78C162.71,106.22,161.07,111.18,159.8,117.38Zm243.51.72c.76-9.95,1.53-19.18,2.13-28.42.51-7.74,1.19-15.49,1.12-23.22-.14-14.5-3.06-29,2.87-43.28,2.58-6.18.33-9-6.37-10.52-11.5-2.55-23-5.13-34.58-7.27-5.32-1-10.83-.94-16.25-1.36L351,5.44c1.28,2.16,2.57,4.33,4.16,7a5.39,5.39,0,0,0-.23,2.83C357,21.23,359.6,27,361.51,33c4,12.46,8.21,24.9,11.26,37.6s4.66,25.48,7.1,38.2c.29,1.55,1.52,3.76,2.76,4.13C389.43,114.88,396.36,116.4,403.31,118.1ZM441,194.32c4.78-8.52,0-15.34-4.3-21.91-2.09-3.18-5.15-6.55-8.54-7.91a215.06,215.06,0,0,0-26.94-8.67c-5.68-1.45-12.25-3.31-17.49-1.79-10.35,3-19.28,9.48-26.92,17.28-3.66,3.74-3.28,5.42.9,8.8,2.55,2.07,5.62,4,7.17,6.72,4.83,8.44,12.53,12.89,21.28,15.16,9.28,2.41,18.92,3.47,28.41,5a18.55,18.55,0,0,0,4-.25c-5.52-6.18-6.12-13.58-1-16.4,4.5-2.45,9.9-4.77,14.75-4.5C435.31,186,438,191.2,441,194.32ZM94.29,139.07c-7,1.57-12.54,2.12-16.28,7.75a304.09,304.09,0,0,1-18.15,24.8c-4.4,5.36-10.14,9.61-14.79,14.78a33.26,33.26,0,0,0-6.76,10.66c-1.47,4.12-1.63,8.78-2,13.23-.65,8.48-1,17-1.51,25.24,8-1.84,14.9-4.25,22-4.83,6.27-.52,7.55-3.57,8.7-8.82C70.06,201,75.85,180.34,84.4,160.63,87.36,153.81,90.59,147.12,94.29,139.07ZM452.39,50.8l-1.77,1.64c1.08,1.8,1.86,3.9,3.29,5.35,7.6,7.68,10.85,17.22,12.21,27.6.88,6.7.84,13.44,4.56,19.65,6.23,10.36,11.77,21.14,17.8,31.63,1.87,3.25,3.81,7,6.74,9,5.31,3.59,11.41,6,17.16,9,2.55,1.32,4,.63,3.71-2.24-1.33-15.5-3.61-30.94-13.42-43.61S482.13,84,471.61,71.88C465.39,64.69,458.81,57.82,452.39,50.8Zm-335,78.1c6.79-2.05,12.4-4,18.16-5.36,3.59-.82,4.35-2.68,4.37-5.93,0-8.12.09-16.26.63-24.35.85-12.55,6.7-23.45,11.92-34.57.78-1.66.41-4.34-.45-6-.35-.7-3.8-.76-5.11,0-10.29,6.37-20.41,13-30.53,19.62-.9.58-2,1.61-2.1,2.51a95.53,95.53,0,0,0-.59,13.82c.15,2.51,1,6.31,2.71,7.14,4.25,2.08,3.78,5.23,3.59,8.63s-.4,7-.77,10.4C118.71,119.19,118.05,123.55,117.35,128.9ZM323.79,36.21l.75,0a27,27,0,0,0,0,5.09c1.35,6.94,2.83,13.87,4.35,20.79,2.91,13.26,5.78,26.54,8.95,39.75.42,1.76,2.29,4,3.92,4.48,4.7,1.24,9.63,1.66,14.64,2.44a8,8,0,0,0,.36-2.31c-1.33-6.6-2.26-13.34-4.23-19.75-2.41-7.87-4.73-16.06-8.9-23-4.52-7.57-8.28-15.14-9.52-23.8-1.36-9.49-2-19,5.11-26.9l5.67-6.36H327.49c-8.34,0-9.62,3.38-8.41,11.24.55,3.59,1.14,7.19,2,10.71C321.74,31.19,322.88,33.67,323.79,36.21Zm52.27,75.6.48-.1c-.72-4.68-1.24-9.39-2.2-14-3.8-18.26-5.68-36.95-14.82-53.87-4.12-7.63-6.08-16.39-9.24-24.55-.49-1.26-2.17-2.05-3.3-3.06-1,1.12-2,2.19-2.94,3.37a6.14,6.14,0,0,0-.6,1.87l-4-2.2a16.55,16.55,0,0,0-1,2.62,33.21,33.21,0,0,0-.63,4.94c-.29,11.77,2,22.75,9.32,32.4a31.43,31.43,0,0,1,5.39,10c2.92,10.2,5.44,20.53,7.75,30.89,2,9.13,1.81,9.18,11,10.77.26,0,.58-.22,1.7-.67-3.77-16.38-7.58-32.9-11.38-49.41l1.05-.25Q369.35,86.2,376.06,111.81Zm50.42,11.41c.6-2.25,1.46-4.1,1.55-6q1.28-25.57,2.26-51.17a11.28,11.28,0,0,0-1-4.77c-1.76-4-3.77-7.89-5.67-11.82q-4.23-8.74-8.45-17.5l-2.14.22c-.42,4.1-1.09,8.2-1.21,12.31-.52,17.72-.76,35.44-1.36,53.16-.18,5.45-1.43,10.86-1.67,16.31-.08,1.71,1.13,4.56,2.44,5.05C416,120.79,421.05,121.8,426.48,123.22Zm-72,311.06c-4.59,1.28-7.7,2.29-10.87,3-3.5.79-4.79,2.66-4.64,6.34.3,7.86-.29,15.78.31,23.62.67,8.91-2.77,18.23,2.43,26.74.13.22-.44.79-.41,1.18.23,3.28-.51,7.33,1.15,9.6,1.21,1.64,5.7,1.52,8.61,1.16a156.76,156.76,0,0,0,19-3.53,23.57,23.57,0,0,0,9.5-4.56c3.42-3,2.28-7.48-2-9.13A94.29,94.29,0,0,0,362.29,484c-8.83-1.76-10.1-2.6-11.28-11a27.41,27.41,0,0,1,.12-6.46C352.15,456.23,353.24,445.94,354.44,434.28Zm-285.67-206c10.56,1.55,13.17.26,17.06-7.75a41,41,0,0,0,2.35-6c5.72-18.86,11.61-37.68,17-56.64,2-7.22,2.9-14.77,4.33-22.31-9.48,0-11.18,1-13.27,6.91C89.19,162.36,81.74,182,75.05,202,72.2,210.46,70.83,219.46,68.77,228.32ZM485.2,141.79c-1.44-3-2.14-4.8-3.15-6.44-4.17-6.77-8.5-13.43-12.63-20.22-1.45-2.39-1.87-6.33-3.85-7.27-4.86-2.3-3.22-6.14-3.82-9.65C460.48,90.75,459.84,83,457.1,76c-3.61-9.16-8.86-17.7-13.74-26.32-.76-1.34-3.27-2.31-4.95-2.28-1,0-2.78,2.46-2.67,3.67.43,4.67.56,9.7,2.48,13.81,4.26,9.11,10.39,17.39,14.18,26.66,4.84,11.82,10.62,23.76,7.18,37.42-.36,1.41,1.52,4.47,3,5.07C469.52,136.8,476.66,138.94,485.2,141.79ZM233.39,98.39c-1.35-13-2.26-25.72-4.1-38.29-1.16-8-3.59-15.81-5.69-23.64-.31-1.17-1.95-2-3-3-.82,1.1-2.07,2.08-2.39,3.3a33.75,33.75,0,0,0-1.33,8.3q-.18,30.06,0,60.12c0,1.16,1.35,3.33,2,3.3,4.27-.21,8.89-.1,12.62-1.8C233.12,106,232.85,101.16,233.39,98.39ZM435,70.12l-1.23.32c0,1.43-.08,2.87,0,4.3.41,6.13,1.44,12.28,1.18,18.38-.39,9-1.81,17.86-2.48,26.81-.14,1.82.66,5,1.81,5.42,6.46,2.35,13.16,4.05,21.11,6.35,0-6.09,1.28-11.69-.26-16.35-3.52-10.66-8.29-20.92-12.83-31.22C440.18,79.32,437.43,74.78,435,70.12ZM181.41,440.52c-5.35-3-6.9-2.63-7.34,2.91-1,12.18-1.53,24.41-1.76,36.63-.25,13.15-.66,13.7-13.6,11.48-5.2-.89-9.87.18-13.85,3.82-4.93,4.53-4.18,8.94,2.09,11.26,8.27,3.05,15.93,1.13,23.54-2.7a9.24,9.24,0,0,0,5.52-7c1.26-6.52,3-13,3.74-19.55.55-5.17-.09-10.49-.38-15.73-.13-2.23-1.25-4.51-1-6.64C179.06,450.23,180.32,445.58,181.41,440.52ZM458,137.06c-6.81,9.49-1.76,21,4,27.24,1.42,1.53,4,2.11,6.13,2.8s4.26.73,6.3,1.36c7.4,2.27,11.22,1,12.58-6.3.9-4.79-.77-10.08-1.45-15.12-.07-.51-1.22-1-2-1.28C475,142.81,466.41,139.91,458,137.06ZM84.56,133.14c5.15-2.54,11.12-3.5,12.52-6.56,3.68-8,5.79-16.86,7.69-25.56,1.47-6.69,1.67-13.65,2.42-20.36-6.3,2.08-14.86,8.72-18,16.28C84.73,107.88,84.49,119.66,84.56,133.14ZM318.43,24.93,317,24.79c-.56,1.76-1.68,3.54-1.62,5.27.84,21.72,2,43.42,2.75,65.13.3,8.16,3.44,11.41,15.84,10.07C326.38,78.86,319.62,52.41,318.43,24.93Zm-174.9,96.6a36.48,36.48,0,0,1,5-1.32c6.17-.51,7.56-4.14,7.51-9.78-.07-8.79.59-17.59,1-26.38.22-4.29.77-8.56,1-12.85.16-3.37,0-6.76,0-11C142.93,79.13,145.22,100.31,143.53,121.53ZM6.08,215c3.09-1,5.45-1.17,6.84-2.4Q22,204.6,30.63,196a16.61,16.61,0,0,0,4.13-6.59c2.49-8.21,4.56-16.54,6.75-24.84a7.28,7.28,0,0,0,0-1.81l-1.25-.61C25.15,176.66,14.54,194.21,6.08,215Zm44.79-63.93c6.27-1.13,8.79-9.38,16.33-6.5,4-3.78,10.22-6.9,11.68-11.5,2.49-7.89,2-16.71,2.83-25.13l-2-.55C67.76,120.4,59.91,136.15,50.87,151.09ZM319.71,109c1.67,9.49,3.27,19.31,5.23,29.05.37,1.86,2.17,3.43,3.31,5.14,2-1.61,4.38-2.94,5.85-4.93,1.07-1.46,1.24-3.79,1.27-5.74.07-4.3-.07-8.61-.37-12.89-.8-11.46-1.52-12-13.17-11.53A12,12,0,0,0,319.71,109Zm47.08,45.52c2-6.51,4.1-11.76,5.07-17.23s.78-11.19,1.1-16.8l1.24-.06.92,10.63a57.58,57.58,0,0,0,2-12.71c.05-.92-.63-2.56-1.27-2.73-4.51-1.21-9.09-2.11-13.71-3.13C360.65,125.08,362.87,148.83,366.79,154.54ZM187.62,64.88l-1.55.18a62.52,62.52,0,0,0-2.45,37.25c.45,1.91.51,3.93,1.08,5.79s1.66,4.75,2.24,4.68c2.71-.31,6.91.74,6.38-4.49-1-9.55-1.67-19.13-2.82-28.66C189.9,74.67,188.6,69.79,187.62,64.88ZM41.86,183.26c12.26-11.85,23.55-23.12,33.08-36.82-1.38-.07-1.92-.26-2.3-.09-6.18,2.79-10.29,9.83-18.3,8.87-.25,0-.57.32-.83.52a31.54,31.54,0,0,0-12.6,23.48C40.84,180.25,41.39,181.33,41.86,183.26Zm174.56-62.75c1.19,4.52,2.31,9.65,4,14.6.48,1.43,2.59,3.36,3.77,3.24s3.12-2.14,3.53-3.66c1.78-6.53,3.21-13.17,4.55-19.81.21-1-.71-3.28-1.09-3.27-4.28,0-8.7-.08-12.75,1C217.26,113,217.19,117.16,216.42,120.51Zm203.51-99-1.64,1.11c3.53,8.52,7,17,10.52,25.45l14.08-5.88ZM103.84,127.71l1.1-.15-2.18,4.72c6.68,0,7.26-.61,7.85-6.55.48-4.92,1.46-9.8,2.13-14.7.63-4.6,1.65-9.27-1.47-14.11a18.84,18.84,0,0,0-1.42,2.61c-2.57,7.68-5.26,15.33-7.51,23.1C101.93,124.06,103.29,126,103.84,127.71Zm305.64-4.95c-1.37,7.33-.77,11.18,2.93,13.48,2.11,1.32,6.23,2.51,7.47,1.46,2.36-2,3.75-5.58,4.54-8.75.2-.81-3.19-3-5.23-3.77C416.18,124,412.92,123.58,409.48,122.76ZM188.8,133.39l2.12.21c1.17-5.64,2.33-11.29,3.48-16.86-5.66-1.7-10.1-.9-9.85,1.52C185.07,123.49,184.41,129.26,188.8,133.39Zm-34.36-9.86-.87-1.48c-3.15.84-8.77,1.27-9,2.6-.78,4.62.31,9.56.7,14.38l1.79.22ZM490.22,343.34l1.13.49c8.36-12.8,12-27.27,14.7-43.51C500.46,315.53,495.34,329.43,490.22,343.34Zm-278.14-235c4.6-9,1.4-17.8,0-26.65Zm-71.56,31.13c-.65,2.5-1.45,4.27-1.51,6.07a39.79,39.79,0,0,0,.81,6.37l4.89-1.09C143.22,146.83,142.05,143.64,140.52,139.51ZM313.87,56.06h-1.42V78.51h1.42Z"/><path d="M1221,345c-3.71-10.74-9.42-20.63-21.61-24.33a62.49,62.49,0,0,1-7.83-3.21c-3.53-1.62-5.22-3.82-1-7.51l-7.93-1.44,1.27-1c-3.19-5.29-5.67-11.23-9.73-15.74-10-11.11-24.12-16.07-37-22.81-4.48-2.35-8.73-4-10.1-9.92a14.75,14.75,0,0,0-6.37-8.52c-12-6.83-24.77-10.49-38.72-6.46a15.61,15.61,0,0,1-5.8.91c-3.92-.42-5.35,1.41-6,4.92-.35,1.82-1.16,4.3-2.54,5.06-8.39,4.62-16.67,9.77-25.64,12.92-10.28,3.61-21.35,4.9-31.85,8-12.13,3.55-22.81,9.55-27.7,22.22-1.74,4.5-4.62,4.11-8.36,3.46-7.83-1.36-15.69-2.71-23.6-3.41-19.85-1.77-39.74-3.06-59.6-4.76-12.91-1.1-25.77-2.92-38.69-3.81-17.5-1.21-35-1.7-52.55-2.74-19.35-1.15-38.67-2.65-58-3.83-9-.55-18-1.21-26.92-.95-14.55.41-29.09,1.41-43.62,2.43-8.92.63-17.79,2.16-26.72,2.56-10.24.46-20.52.11-31.13.11.77-6.35-2.34-8.15-6.45-7.15a76.17,76.17,0,0,0-16.23,5.79c-4.86,2.44-9.26,5.88-13.6,9.22-12.76,9.81-23.11,21.27-27.23,37.54-3.4,13.45-5.94,26.93-5.12,40.84s1.94,27.74,2.88,41.62c.28,4.07,2.93,5.84,6.42,6.52,14.17,2.76,28.31,3.37,42.36-.91,3.44-1.05,7-1.83,9.28-2.43,5.31,6.14,9.85,11.78,14.82,17,4.2,4.42,8.51,8.91,13.44,12.43,13.5,9.65,27.19,19.08,41.14,28.09s21.39,21.29,21.47,38c.11,19.6.4,39.21.57,58.82.06,6.92,0,13.84,0,20.69-8.66,1.31-10,2.2-10.22,10.9-.3,10.58.18,21.2.58,31.8a7.47,7.47,0,0,0,6.75,7.54c3.49.47,4.19,2.21,3.56,5.08-2,9.23-3.83,18.51-6.25,27.63-1.39,5.26-3.82,10.23-5.73,15.36-2.63,7.09-5.6,14.1-7.69,21.36-1.56,5.45.44,8.9,5.73,11.2a22.64,22.64,0,0,0,9.11,2.15c12.11-.22,24.22-1.32,36.33-1.3,18.48,0,36.34-2.19,53.64-9.3,9.19-3.77,15.48-9.92,17.23-19.12,2.4-12.67.3-17-10.2-16.86-3,0-6.08-1.39-9.16-1.89-.95-.16-2.07.47-3.06.86-4.63,1.86-9.26,3.76-12.51,2.13l-15.57,6.11c-.25-1.6-.31-2.22-.45-2.83-.49-2.15-1-4.29-1.52-6.44l-2.91,5.56c-.07.14,0,.38-.08.49-1.27,1.5-2.45,4.11-3.88,4.26-3.48.36-7.08-.41-10.62-.81-.21,0-.33-.86-.47-1.33-.51-1.7-1-3.41-1.52-5.11-1.07,1.49-2.13,3-3.21,4.46-.29.39-.61.75-1.5,1.83-1.47-1.55-4-3-3.91-4.42s2.14-3.66,3.83-4.36c3.8-1.58,8-2.21,11.84-3.68,2.88-1.08,6.27-2.27,8-4.51a10.07,10.07,0,0,0,1.34-8.36c-.62-1.66-4.51-2.75-7-2.87-2.71-.13-5.47,1.23-8.24,1.81-5.12,1.08-7.13-.43-7.46-5.73a28.64,28.64,0,0,1,.2-6.48c1-5.85,2.69-11.63,3.12-17.51.63-8.51-.06-17-5.73-24.13a22.8,22.8,0,0,1-1.89-3.59c4.27-1.61,5.27-5,5.39-8.83.11-3.15-.33-6.32-.23-9.47.66-20,1.45-39.88,2.06-59.83.18-5.94.18-11.92-.23-17.84-.86-12.45-2.57-23.94-12.4-34-11.56-11.81-24.48-21.2-38.17-30-14.1-9.08-28-18.53-39.55-30.9-2.11-2.25-2.88-4.25-2.11-7.51,4.93-20.89,3.17-41.46-3.37-61.79-1.93-6-4.63-12-2-18.5.09,3.1,2.08,3,4.23,1.91,9.09-4.56,19-4.5,28.75-5.05,10.28-.57,20.61-.48,30.91-.51q28.42-.06,56.85.11c6.47,0,12.94.92,19.39.7,17.42-.6,34.82-2,52.24-2.28,14.28-.26,28.58.54,42.87.89a29.28,29.28,0,0,1,3,.37c-.81,4.63-2,8.84-2.2,13.09-1,22.56-1.89,45.14-2.7,67.72-.88,24.59-1.8,49.18-2.42,73.78-.58,23-.77,46.09-1.16,69.14a5.66,5.66,0,0,1-.39,2.86c-3.58,5.5-6.93,11.21-11.08,16.25-3.09,3.74-1.68,5.88,1.58,7.3a10.71,10.71,0,0,0,7.12.38,14.86,14.86,0,0,1,11.77.79c1.23.57,3.42,1.05,4.13.41,4.34-3.87,9.41-2.3,14.16-2.07,4.55.22,6.28-.68,6.47-5.34.1-2.73-.29-5.49-.48-8.64l7.17.71c2.64,7.13-2.92,12.23-4.44,18.07,3.24,0,6.15.38,8.92-.09,3.54-.6,7.73-1,10.32-3.05,6.93-5.6,14-2.33,21.06-1.59,2.18.22,5.62,1.36,6.28.46,1.48-2,2.55-5.26,2-7.62-.94-4.32-3-8.44-5-12.44-.47-.94-2.53-1.08-3.86-1.59a2.09,2.09,0,0,1,0,.25l.6.37a.69.69,0,0,1,.24.92.67.67,0,0,1-.91.23l-.06,0a5.92,5.92,0,0,0,.14,2.5c1.37,3.81,3.07,7.49,4.68,11.3-3.4-.42-5.92-.57-8.36-1.08s-4.84-1.39-6.88-2c-2.12.77-4.19,1.38-6.12,2.28a9,9,0,0,0-3.72,2.56c-3.4,5.07-7.18,5.88-12.7,2.14,1.18-3.79,2.39-7.68,3.69-11.9,4.42,0,8.57.05,12.72,0,7.51-.11,12-2.43,13.84-7.61l-.12-.08a.67.67,0,0,1,.47-1.14h0a22.49,22.49,0,0,0,.66-6.06c-.18-18.62-.43-37.24-1.12-55.84q-.88-24.15-2.89-48.26c-1-11.58-2.81-23.08-4.23-34.62a195.05,195.05,0,0,0-14.17-53.82c-4.15-9.59-4.14-18.52-.09-28.81l72.62,1.89c2.6,2.91,5,7.23,8.62,9.29a107.42,107.42,0,0,0,22.65,9.88c8.23,2.38,17,3.12,25.5,4.38,4.13.61,6,2.39,6.07,6.84.22,8.16,4.57,13.31,11.72,14.22a110.41,110.41,0,0,0,17.41,1.08,16.22,16.22,0,0,0,9-3.16c1.44-1.12,1.12-4.5,1.7-7.37,4.59,1.64,9.34,3.53,14.21,5,4.36,1.35,5,3.91,3.88,8-2.39,8.8-4.81,17.62-6.44,26.58a51.59,51.59,0,0,0,0,14.84c.5,4.42,3.44,6.94,8.24,7.07,7.84.21,12.52-4.11,11.3-12-2.09-13.49.19-27.64-6.85-40.66a43.2,43.2,0,0,1,6-1,71.41,71.41,0,0,0,32.14-7.89c4.22-2.15,5.62,1.5,5.69,4.42a138,138,0,0,1-.74,20.74,64.3,64.3,0,0,0,2.55,28.53c1.35,4.09,4.63,7.27,8.89,6.63,2.67-.4,6.29-3.21,7.07-5.7a33.88,33.88,0,0,0,1.48-15c-1.37-8.46-4.15-16.69-6.32-25-1.24-4.78-2.46-9.58-3.7-14.43,2.1-2.63,4.34-2.22,6.84-.32,5.07,3.82,7.42,8.44,6.39,15.09-1.06,6.9,0,13.81,5.29,19,2.09,2,6.32,4.71,7.77,3.89,2.75-1.54,4.21-5.39,6.17-8.3a1.76,1.76,0,0,0,.15-1c-.16-9.38-.49-18.87-6.21-26.8-5.32-7.37-9.68-15.91-19.94-19.55a35.87,35.87,0,0,0,13-16.14.66.66,0,0,1,.26-.83l.08,0a42.09,42.09,0,0,0,1.43-4.62c.12-.5,3.43-1,4.58-.34a94.55,94.55,0,0,1,11,7.55c4.78,3.74,10.09,7.13,13.83,11.76a30.81,30.81,0,0,1,6.42,25.75c-.68,3.59-2.85,6.8-7.3,5.62-11.45-3-15.49-9.65-14.35-21.52.73-7.58-.09-15.17-6.34-20.61-1.62-1.41-4.5-1.42-6.85-1.87-.08,0-.23.11-.4.3l.67,1a.67.67,0,0,1-1.15.67l-.29-.43c0,.09,0,.16,0,.19,1.45,1.88,2.74,4.51,4.7,5.22,4.22,1.52,5.51,4.57,5.81,8.33A58.41,58.41,0,0,1,1192,348c-.48,7.15-1.76,14.55,5.65,19.31,3.21,2.06,6.76,3.6,9.92,5.74,3.32,2.25,6.48,2.05,9-.61,2.33-2.44,5.35-5.42,5.6-8.38C1222.72,357.76,1223,350.85,1221,345ZM852.27,567.48a4.3,4.3,0,0,1-2.51-3.38c.36-3.89,3.19-5,9.08-3.74C857.76,564.23,857.51,568.42,852.27,567.48Zm-123.2,97.63c7.11-1.91,7.42-1.91,12.95.86-3.25,1.73-5.5,3.39-8,4.17-3.29,1-6.83,1.23-10.21,2-4.93,1.16-9.75,3.63-10.45,8.75s2.23,9.16,7.65,10.84c.84.27,1.44,1.54,2,2.43,1.14,1.77,2.19,3.59,3.28,5.39l5.31-5.75a74.78,74.78,0,0,1,7.66-.36c1.19,0,2.94.81,3.4,1.76,2.54,5.13,4.92,2,6.46-.33,2.45-3.78,5.7-5.31,10.33-5.46.46,2.58.63,5.22,1.49,7.62.36,1,2.17,1.52,3.32,2.25.36-1,1.14-2,1-2.94-1.17-9.16,1.27-11.56,11.13-10.45.54,3.32.8,6.81,1.8,10.08.4,1.3,2.42,2.12,3.7,3.15,0-1.41,0-2.82.09-4.23.14-2.88-.46-7.85.63-8.25a19.22,19.22,0,0,1,10.59-.34c1.11.26,2.09,4.34,1.86,6.53-.85,8-4.72,13.39-12.71,16.75-20,8.43-41.06,8.87-62.14,9.72-8,.33-15.92.74-23.88,1.09a19.9,19.9,0,0,1-3,0c-9.06-.91-11.56-4.64-8.76-13.39,1-3.15,2.55-6.12,3.7-9.22,3-8.21,6.3-16.34,8.85-24.69a217.89,217.89,0,0,0,5.42-22.74c.86-4.54,3-6.61,7.57-6.51a66.68,66.68,0,0,0,7.22-.62c-.3,4.72-.75,8.52-.75,12.32C716.6,664.23,720.78,667.35,729.07,665.11Zm-7.91-34.3c0,5.7-9.71,11-15.91,9.25a27.56,27.56,0,0,0-6.12-.54c-3.31-.12-6.26-1.15-6.46-4.81-.55-10.23-.79-20.48-1-30.72,0-1.65.86-3.33,1.39-5.22,3.71,1.22,4.48,3.34,4.17,6.35-.09.83,1,1.78,1.47,2.67a6.49,6.49,0,0,0,1.85-1.29c4.29-6.19,9.43-6.41,13.78-.24C719.51,613.58,721.25,622.05,721.16,630.81ZM675.7,451.47c7.57,4.53,13.74,11.41,20.5,17.27,5,4.34,10.19,8.51,14.83,13.21,7.45,7.55,8.45,17.61,8.37,27.35-.19,26.59-1.1,53.18-1.8,79.77a64.55,64.55,0,0,1-1.16,7.67h-9.1c-2.72,0-4.39-1-4.58-4-.27-4.29-1-8.55-1-12.83-.22-22.61.11-45.23-.55-67.82-.44-14.65-4.34-28-17.81-37-15.06-10-29.94-20.31-44.35-31.21-8.5-6.44-15.92-14.29-24.15-21.79,4.34-2,7.32-3.78,10.54-4.7a6.69,6.69,0,0,1,5.21,1.37C645,430.64,659.67,441.86,675.7,451.47ZM626.16,350.93c5.61,16.71,6.92,34.54,2.3,52.07a22.77,22.77,0,0,1-5.45,9.83c-1.54,1.57-5.56,2.25-7.67,1.39-6.5-2.65-12.81-2-19,.11-12.65,4.43-25.47,4.35-38.38,2.13-2-.34-4.79-2.45-5.14-4.16-5.55-27.19-6.54-54.44,1.79-81.25,4.77-15.35,15.55-26.47,28.65-35.31a141.62,141.62,0,0,1,17.14-9.89c2.35-1.14,5.5-.63,9.62-1-2.86,4.08-8.76,4.47-6,9.85l8.11-3c2,6.61,4,13,5.72,19.43C621.4,324.25,621.76,337.81,626.16,350.93ZM884.52,566.12a84.06,84.06,0,0,1-9.4-1.25c-.62-.08-1.68-.07-1.87.27-3.16,5.58-5.29,2.59-7.72-.69-.9-1.21-2.57-1.85-4.79-3.36,6-1.85,10.77-3.51,15.69-4.79,2.39-.62,10.69,4.8,10.86,7.12C887.36,564.3,885.48,566.15,884.52,566.12Zm1.31-15.43-12.44,1.65c.27-3.43.64-6.31.72-9.2.52-19.41.13-38.91,1.71-58.24,1.57-19.13,5.23-38.08,7.75-57.15,2-14.79,3.57-29.62,5.23-43.56C893.25,438.76,889.84,494.26,885.83,550.69ZM907,356.86c4.15,15.51,8,31.13,11.26,46.85a231.44,231.44,0,0,1,4.3,30.56c1.23,16.72,1.79,33.49,2.34,50.24.59,17.93.94,35.87,1.19,53.8.05,3.67-.83,7.35-1.18,10.12-4.9.38-8.57.58-12.22,1-5.43.56-10.84,1.38-16.28,1.82-3.08.26-4.61-.71-4.41-4.65,1.5-29.37,3.37-58.75,3.7-88.15.29-26.39-1.21-52.79-2-79.19-.23-7.79-.45-15.6-1.18-23.35-.38-4.06-1.86-8-2.84-12l-1.94.26c-4.89,5.55-6.24,12.1-6.46,19.44-.84,28.51-1.72,57-6.93,85.23-3.14,17.06-3.59,34.63-4.78,52-1,15.38-1.3,30.81-2.24,46.2-.15,2.56-.5,6.25-6.12,6.34-.22-8.88-.56-17.61-.6-26.33-.08-13.79-.34-27.59.16-41.35.94-25.74,2.43-51.46,3.59-77.19.83-18.42,1.14-36.86,2.39-55.25.66-9.66,2.86-19.22,4.32-28.83.19-1.25.17-2.53.25-3.82h28.54c-1.21,3.37-2.34,5.9-3,8.55-1.24,4.7-1.64,8.49,3,12.72C903.66,345.28,905.54,351.51,907,356.86ZM970.6,318c-12-.4-23.9-.89-35.85-.93-9.58,0-19.17.91-28.74.75-10-.16-19.91-1.22-29.88-1.67-3.08-.14-6.2.64-9.31.66-11.75.06-23.5-.1-35.25,0-13.28.1-26.56.45-39.84.58-6.4.06-12.82,0-19.22-.26-13.66-.64-27.31-2-41-2.12-16.78-.2-33.58.31-50.35.86-13.64.45-27.31,1-40.87,2.38-4.62.48-8.94,3.75-13.4,5.77-2-6.55-3.82-13.15-6-19.65-1.28-3.91-3-7.68-5-12.56,3,0,5.6-.18,8.11,0a186.94,186.94,0,0,0,51.4-3.12c11.74-2.26,24.09-1.77,36.16-1.65,15,.16,29.89,1.05,44.82,1.92,13.43.78,26.84,2,40.26,2.92,8.11.53,16.24.67,24.34,1.16,16.42,1,32.85,1.81,49.24,3.21,13.89,1.18,27.7,3.33,41.6,4.59,14.54,1.32,29.16,1.91,43.71,3.19,7.07.63,14.08,2,21.07,3.29a4.53,4.53,0,0,1,3.08,2.64,67.83,67.83,0,0,1,.75,9C976.68,318.58,973.65,318.1,970.6,318ZM985,312.51c.37-7.72.38-15.72,8.79-20.64-.87,13.1-3.93,26.22,3.24,38.58C988.65,327.18,984.64,321,985,312.51Zm17.65,15.77-1.76.83c-1.85-4.08-3.71-8.15-5.9-12.95C1003.38,317.66,1004.91,320.54,1002.69,328.28Zm-3.36-29.95c.71-3.19.55-6.47,1.75-7.08,5.37-2.76,11.15-3.71,17.69-.4C1013.16,295.54,1006.72,296.15,999.33,298.33Zm13.59.17c-.41,4.85-.66,7.76-1,11.63-3.28-.38-6.48-.38-9.32-1.4-.62-.22-.79-5.2.33-6.06C1005.41,300.76,1008.83,300.09,1012.92,298.5Zm-8.25,17.27a67.64,67.64,0,0,1,7-4.33l2.25,6.87a62.24,62.24,0,0,1-8,.74C1005.39,319,1004.35,316,1004.67,315.77Zm9.37,18c-3-2.35-5.37-5.41-8.55-8.74,8.91-3.71,12-2,12.74,5.57C1018.52,333.39,1016.11,335.41,1014,333.78Zm5.75-5.45c-.9-3.67-2.72-7.1-3.74-10.74-2.66-9.52-2.37-18.29,8.52-25,0,4.27,1.21,8.48-.22,11.38-4.34,8.77-5,16.84,1.19,24.89a7.21,7.21,0,0,1,.54,2.23C1022.35,333,1020.69,332,1019.79,328.33Zm52.77,35.55a106.87,106.87,0,0,1-13.39-.85c-9.09-1.24-11.18-4.49-9.23-13.57,9.92-1.21,24.23,4.9,28.61,13C1076.2,363.05,1074.38,363.9,1072.56,363.88Zm35.8,15.91c1.2,8.35,2.06,16.74,2.9,25.14.16,1.58.18,3.94-.75,4.72-2,1.61-4.55,3.13-7,3.24-1.28.06-3.92-3-3.84-4.51.45-8.53,1.46-17.05,2.48-25.55.4-3.38,1.33-6.7,2-10l1.34-.34C1106.52,374.89,1108,377.26,1108.36,379.79Zm-3.86-19.93c-7.51-1.12-14.33-6.25-21.8-8.34-16.74-4.68-33.45-9.7-50.87-11.44-2.13-.21-4.2-1.06-7.37-1.9,2-1.39,2.69-2,3.53-2.5,3.67-2,4.88-5.3,2-8.18-7.49-7.55-3.84-15.75-2-23.83.35-1.57,2.15-3,3.58-4.11,3.43-2.6,3.46-4.95.49-8.21-8.11-8.91-18.59-5.85-28.46-5.89a15.54,15.54,0,0,0-2.9.67c-.28.05-.61-.17-1.46-.44a64.28,64.28,0,0,1,25.17-9.37c17.57-2.59,33.9-8,48.23-18.74a26.29,26.29,0,0,1,2.35-1.53v0a.67.67,0,0,1,.66-.66.69.69,0,0,1,.36.11c.94-.52,1.89-1,2.81-1.58,1.61,3.73,4.68,7.53,4.52,11.18-.35,7.88-2.16,15.73-3.81,23.49-.65,3.08-1.76,6.6-6.75,6.72-1.56-12.91,5.62-25.24,4.48-38l-.85-.08h0a.67.67,0,0,1-.46.82.68.68,0,0,1-.52-.07.65.65,0,0,1-.3-.39,4.13,4.13,0,0,1-.07-.49l-.34,0-6.2,33.78a25.26,25.26,0,0,1-2.57-3.07c-3.16-6.53-7.37-9.3-13.84-8.5-6.25.77-8.27,6.07-10.55,10.82-.77,1.6-.48,3.67-1.16,5.33s-1.59,3.63-3,4.52c-4.73,3-6.74,6.55-4.5,11.48a50.65,50.65,0,0,0,8.39,13.38c6,6.47,15.79,5.34,24.17-2,1.12-1,2.12-2.12,3.15-3.2,7.46-7.82,7.53-7.84,16.14-3.92a61.57,61.57,0,0,0,5.93-2,50.87,50.87,0,0,0,4.76-2.82c-1.7-.91-3.34-2.42-5.11-2.59-3.93-.39-8,.41-11.86-.28-2.7-.48-5.1-2.63-7.91-5.12,10.8-3.27,11.23-11.53,12.16-19.88.52-4.69,2.51-9.21,3.69-13.86,1.42-5.63-.76-10.54-3.76-15-2.2-3.29-1.06-5.07,2.1-5.87a30.5,30.5,0,0,1,23.29,3c4.48,2.48,8.89,4.45,12.4,8.51,3.87,4.47,4.54,13.3.52,17.92-4.91-3.33-9.51-7.21-14.74-9.83-6.77-3.4-15.18.27-17.19,7a28.19,28.19,0,0,0-.92,8.89c.16,4.6.22,9.34,1.38,13.75,2.76,10.53,13.39,14,22.34,7.58,1-.75,2-1.6,4.5-3.56,0,4.51-.15,7.69,0,10.84s.26,6.39,1.24,9.3c1.38,4.1,4.62,6.15,9.07,4.83,4.23-1.24,6.14-4.31,5.7-8.73-.61-6.11-1.41-12.21-1.83-18.33-.27-3.77-.09-7.59-.06-12.53h-.21a.44.44,0,0,1-.15-.08c-.82,2.09-1.58,3.44-1.59,4.79,0,5.47.23,10.94.4,16.41.09,3,.2,5.95.31,8.93s-1.66,5.31-4.31,4.83c-1.77-.32-4.2-3-4.4-4.82a63.28,63.28,0,0,1,0-15.68c1.14-8,3.08-15.88,4.83-23.78.28-1.27,1.33-2.37,2-3.54,1.16,1.21,2.65,2.24,3.38,3.67a24.41,24.41,0,0,1,1,4.09h0a.7.7,0,0,1,.23.11V273c2.6-1.32,3.49,0,3.43,2.78-.15,7.76-.56,15.52-.34,23.27.25,9.38.37,18.95,6.52,26.91,1.15,1.49,2.89,2.5,4.36,3.73,1.25-1.62,3.15-3.07,3.65-4.89,3.68-13.4,4.31-26.45-5-38.27-2.28-2.9-3.8-6.39-6-10.21,11.23-.19,16.19,4.6,16.8,15.18.45,7.78,1.4,15.63.83,23.35-.55,7.47,2.77,13.38,5.14,19.83.6,1.6.44,4.34-.58,5.55C1146,357.83,1126.42,363.15,1104.5,359.86Zm-34.85-47.52c-3.63,2.83-8.19,6.6-13,10.05-4.11,3-8.56,2.32-11.71-1.22a46.92,46.92,0,0,1-7.26-11.67c-.56-1.19,1-4.72,2.26-5.15,5.46-1.85,6.16-6.2,7.31-10.83a15.07,15.07,0,0,1,4.17-6.94c2.79-2.65,7.46-1.68,9.44,1.7a47.17,47.17,0,0,1,3.67,8.13C1066.22,301.13,1067.62,305.93,1069.65,312.34Zm38.67-27.43c2.15-.85,4.06-2.32,6.78-4,.21,4.26.36,7.29.57,11.66-1.7,2.19-3.88,5.94-6.93,8.77-5.54,5.13-13,2.77-14.41-4.66a63.24,63.24,0,0,1-.82-15.73c.5-7.83,4.41-10.21,11.94-8.21-.3,4.1-.64,7.75-.66,11.39C1104.79,284.44,1107.34,285.29,1108.32,284.91Zm29.7,1.39c2.34.91,4.08,1.11,5.12,2.07,6.95,6.4,8.89,29.05,1.75,34.74C1136.52,312.06,1139,299.46,1138,286.3Zm22.77,84.08c2.29,8.94,4.45,17.92,6.26,27a18.62,18.62,0,0,1-.4,8.81c-.64,2.08-2.91,3.65-4.46,5.44-1.88-1.68-4.65-3-5.48-5.1-3.23-8.16-4.4-16.61-2.25-25.4,1.17-4.76,1.62-9.69,2.66-16.27C1158.71,367.17,1160.34,368.63,1160.79,370.38Zm28.42,13.19a7.06,7.06,0,0,1-2.75,4.89c-.74.5-3.53-.84-4.45-2.06-1.73-2.25-3.55-4.92-3.94-7.61-1.14-8-1.6-16-2.28-23.51l-16.14-6.14,0-1.22c1.93,0,4-.39,5.79.06C1184.1,352.59,1190,366.09,1189.21,383.57ZM1175,322.94c-2.17,3.94-4.3,10.51-9.21,8.31-3.23-1.45-4.92-8.34-5.59-13-1.23-8.8-1.23-17.78-1.73-26.68,0-1,0-1.93,0-3.22,8.84.83,14.67,6.75,15.7,15,.61,4.82,1.75,9.57,2.25,14.4A9.66,9.66,0,0,1,1175,322.94Z"/><path d="M1201.49,309.47c-4.62,0-9.62-2.88-13-9.18-5.5-10.26-13.2-18.36-23.83-23.74-4.6-2.32-9.17-5.47-10.59-11.12a22.63,22.63,0,0,1-.18-4.6c1.4,0,3-.5,4.17,0,10.51,4.49,21,9.13,31.42,13.76,5.74,2.55,11.49,5.11,17.18,7.78,8,3.75,9.76,10.75,9.31,18.65C1215.64,307.08,1211.45,309.84,1201.49,309.47Zm-39-39.79-.33.68c4.25,3.26,8.22,7,12.8,9.65a39.07,39.07,0,0,1,15.28,15.84c3.64,6.85,7.22,8.94,14.73,8.3,6.2-.53,8.63-5,5.47-10.52a11.49,11.49,0,0,0-4.37-4.58c-12.59-6.18-25.3-12.14-38-18.06C1166.36,270.21,1164.35,270.1,1162.49,269.68Z"/><path d="M780.53,55.13c-2.54-9.83-9.24-14.81-18.94-15.46-3.77-.25-7.83.95-11.37,2.42-.9.37-.31,4.31-.43,6.61a2.5,2.5,0,0,1-.22,1c-1.07,2.32-.76,4,.39,5.47a.73.73,0,0,1,.48-.06.68.68,0,0,1,.46.82,1.8,1.8,0,0,1,0,.19,19,19,0,0,0,2.37,1.76c.85-4.06,1.43-7.67,2.41-11.16.4-1.42,1.4-3.29,2.6-3.76,4.72-1.85,11.89,1.14,14.67,5.8,10,16.7,7.15,38.46-4.52,53.08-6.11,7.67-12.64,6.77-17.7-1.68-4.64-7.74-3.14-16.41-4.15-24.7a15.37,15.37,0,0,1,.75-6.33c.44-1.39,1.79-2.51,2.82-3.68a30.75,30.75,0,0,1,2.3-2.11l-3.08-1.54c.13-.61.32-1.47.52-2.41a.69.69,0,0,1-.68.21.64.64,0,0,1-.47-.56c-1.65,3.09-3.88,6.12-4.19,9.34-1,10.14-1,20.43,2.71,30.17,2,5.26,5.38,9.65,11.56,10.53,6.39.9,12.36-1.25,14.74-7,3.27-7.81,8.55-14.48,9.62-23.8C784.09,69.89,782.5,62.73,780.53,55.13Z"/><path d="M1142.45,401c-1.37,7.8-2.53,15.63-4.19,23.36-.85,4-3.29,7.13-7.94,6.79s-7.52-3.33-8.37-7.82a19.49,19.49,0,0,1,0-7.38c1.67-8.1,3.79-16.11,5.44-24.22.31-1.56-.81-3.39-1.15-5.12-.43-2.27-1.29-4.65-1-6.84a19.41,19.41,0,0,1,2.91-6.8c.77-1.26,2.31-2.91,3.46-2.87,1.45,0,3.7,1.31,4.15,2.57a173.35,173.35,0,0,1,5.66,18.74c.7,3,.12,6.28.12,9.43Zm-3.73-9.17c-.76-1.27-1.72-4.84-3.39-5.21-3.75-.84-4.06,3-4.61,5.67-1.55,7.42-3,14.87-4.33,22.33a7,7,0,0,0,.1,3.93,65.22,65.22,0,0,0,3.93,6.68c1.66-1.94,4.4-3.69,4.78-5.86C1136.71,410.75,1137.49,402,1138.72,391.81Z"/><path d="M750.21,73.09c6.94,1,9.91-1.35,10.47-10a56.08,56.08,0,0,0,2.75,5,25.93,25.93,0,0,0,2.46,2.73l-2.6,9.16C762.73,71.34,754.4,76.29,750.21,73.09Z"/><path d="M634.24,569.76l12.12,9.47L645,580.85l-11.76-9.91Z"/><path class="cls-4" d="M512,236.86c-1.78,11-2.92,21.64-5.3,31.95-4.54,19.69-9.56,39.28-14.88,58.77-1.78,6.51-4.94,12.67-7.81,18.83-.74,1.58-2.61,2.87-4.25,3.74-15.51,8.26-32.11,13.44-49.11,17.64a394.54,394.54,0,0,1-84.29,11.37c-20.11.55-40.27,1.18-60.36.51-31.75-1.06-63.61-1.84-95.17-5.23-31.32-3.36-62.68-8.18-92.94-17.45C86.76,353.58,76.62,347,66,342.08c-6.89-3.2-13.85-6.28-20.94-9-3-1.14-3.78-3.08-4.56-5.78-4.54-15.7-4.4-31.85-4.91-47.94-.33-10.65-.48-21.3-.51-31.95,0-1.52.72-4,1.77-4.42q11-4.53,22.26-8.28c3-1,5.44-.53,5.6,3.86,0,1.31,2.92,3.4,4.62,3.52a7.23,7.23,0,0,0,5.54-2.66c4.18-6.28,10.54-6.42,17-7.28,29.61-3.95,59.34-4.49,89.15-3.94q47.43.88,94.68,4.95c29,2.52,58.14,3.21,87.24,4.05,25.78.75,51.59.93,77.39.71,15.79-.13,31.57-1.74,47.36-2.18C495.46,235.5,503.33,236.42,512,236.86ZM299.59,365.23l.12,1c4.64-.22,9.44.17,13.9-.86a17,17,0,0,0,8.89-5.33c2.72-3.41,4-7.93,6-11.9,1-2,2-4.33,3.68-5.75,2.57-2.21,5.52-3.7,1.22-7.05-.59-.46.05-2.48.13-3.78.74-11.25,1.83-22.5,2.08-33.76.14-6.74-4.69-10.95-10.37-9.79a52.57,52.57,0,0,0-11.28,3.8c-15.52,7.18-31.51,12.25-48.85,12-3.65-.05-7.3.26-11,.29-13.68.12-26.66-2.27-37.85-10.85-5.76-4.42-9.9-4-14.88,1.17-6.35,6.58-9,14.91-9.43,23.5-.7,12.38-.14,24.83.05,37.25.11,7.72,3.88,13.16,11.5,14.74,5.75,1.19,11.85,1,17.79.91,11.76-.16,23.51-.64,35.25-1,4-.14,7.95-.33,11.89-.78C278.88,367.87,289.23,366.52,299.59,365.23ZM491,301.4l-1.41-1.71a10.55,10.55,0,0,0-2.68,1.36c-3.63,3.39-7.35,6.72-10.67,10.39-3.83,4.23-8,6.44-13.63,4s-8.95-7.63-8.81-14.28c.06-2.65.43-5.42-.23-7.91-.46-1.8-2.08-4.08-3.71-4.65-5.56-2-16.42,5.95-16.76,11.9-.19,3.32,1.07,5,4.63,3.8.48-7,3.65-9.93,10.95-9.82.18,3.87.19,7.81.59,11.71,1.35,13.12,15.34,19.93,25.77,11.94C481.09,313.48,485.73,307,491,301.4ZM372.27,260.55,373.9,259c.71,2.43,1.39,4.86,2.14,7.28,1.35,4.34,2,9.14,4.32,12.89,2.84,4.58,7.12,8.28,10.77,12.36,6.38,7.12,20.72,6.72,26.75-1.51-2.71.74-4.73,1.25-6.73,1.84-7.25,2.13-12.77.36-17.58-5.6a66.39,66.39,0,0,0-6.44-7.61c-4.41-4.06-7-8.6-6.71-14.84a12.12,12.12,0,0,0-2-6.52c-3.51-5.6-9-5.07-13,1.94ZM155.07,362.13c-1.88,0-3.77.09-5.65,0-5.68-.32-7.75-2.86-6.9-8.38a29.27,29.27,0,0,0,.69-4.41c0-7.86-.53-15.45-7.74-20.83-4.82-3.58-4.52-3.77.4-7.74,1-.84,1.23-2.75,1.81-4.16-1.52-.3-3.81-1.36-4.43-.75-2.62,2.59-5.47,5.42-6.71,8.72-.54,1.45,2.55,4.29,4,6.46,2.09,3,5.15,5.75,6.11,9.08,1.16,4,.55,8.47.67,12.74.13,4.54.17,9.17,4.93,11.65C146.85,366.87,151.06,365.47,155.07,362.13ZM72.2,320.93c-.82,3.44-1.81,5.63-1.75,7.79.09,3,2.17,4.54,5.15,3.79,9.42-2.36,14.86-16.31,9.88-24.8-.87-1.49-1.74-3.48-1.47-5,1.1-6.18,11.71-10.23,16.47-6.5q4.36-6.39-2.36-7.17c-5.49-.62-18.86,8.62-19.73,14-.29,1.76.67,3.82,1.36,5.63s2,3.46,2.66,5.32c2,5.94-1.35,12.08-8,14.07C73.84,326.14,73.24,324.22,72.2,320.93Zm101.05-69.62c.21-2.51.94-5.12.36-5.45-2.56-1.47-5.54-3.27-8.28-3.14-6.63.32-12.5,3.38-17.25,7.95-1.67,1.6-2.17,4.45-3.1,6.78-1.3,3.24-2.2,6.68-3.8,9.75-2.44,4.68-8,2.27-11.51,4.47a31.84,31.84,0,0,0-4.32,3.84c1.91.51,3.91,1.67,5.71,1.41,10-1.45,18.44-10.38,19.53-20.07a6.63,6.63,0,0,1,.79-2.82C155.66,247.39,165.67,245.61,173.25,251.31Z"/><path class="cls-4" d="M339.65,109.48c5.63,1.08,10.34,1.79,14.91,3,1.11.29,2.43,2.24,2.51,3.5.29,4.46-.05,9,.1,13.42.29,9.07.57,18.14,1.26,27.19.17,2.2,1.87,4.28,3.07,6.84-2.92,2.31-6.25,5-9.67,7.63-3.59,2.72-4.38,6.53-1.62,9.55A230.25,230.25,0,0,0,370.94,201c8.19,6.94,18.87,6.59,28.86,8,6.87,1,13.73,2.21,20.63,2.71a14.84,14.84,0,0,0,8.68-2.09,68.81,68.81,0,0,0,12.13-10.27c5.61-6,7.22-13.3,4.5-21.25q-6.21-18.17-24.89-22.79c-3.87-1-7.8-1.78-11.56-3.08-3.15-1.09-6-2.9-9.13-4.16a32.74,32.74,0,0,0-6.1-1.66c-2.13-.41-4.31-.57-6.12-.79l-13.25,9.82,6.63-38.46c6.51,1.42,13.62,2.85,20.62,4.68.94.25,1.7,2.54,1.91,4,.57,3.78.07,7.86,1.33,11.33a34.6,34.6,0,0,0,6.64,10.76,6.91,6.91,0,0,0,10.8-.94c2.85-4.61,4.72-9.82,7.29-14.62.67-1.25,2.65-3,3.55-2.75,6.52,1.79,12.92,4,20,6.35-4.51,7.45-4.52,14.9-3.12,22.56,2.62,14.38,15.8,21.52,27.72,17.48,3.55-1.2,7.35-2.15,10.43-4.14,5.19-3.34,6.65-8.78,6.36-14.76-.08-1.78,0-3.57,0-6.4,6.47,3.53,12.47,6.59,18.19,10.12,1.13.69,1.7,3.23,1.58,4.85-1,13.84-2.51,27.64-3.21,41.48-.28,5.59,1.17,11.26,1.7,16.91.2,2.06,0,4.16,0,6.4-19,1-37.21,2.38-55.45,2.95-21.12.65-42.27,1-63.4.81-25-.21-49.94-.55-74.85-1.88-27.55-1.47-55-4.49-82.57-6.14-20.59-1.23-41.26-2.14-61.86-1.76-28.41.53-56.79,2.4-85.18,3.68a25.94,25.94,0,0,1-3-.26c.77-2.11,1.52-3.88,2.07-5.71,8.56-28.07,17-56.17,25.76-84.19a9.55,9.55,0,0,1,4.67-5.41c5.74-2.45,11.79-4.16,19.16-6.65-1.19,7-1.95,12.54-3.07,17.95-1.47,7.1-.51,11.08,3.47,12.65,3.59,1.42,7.68-1.4,11.51-6.86,4.63-6.61,5.63-14.21,6.33-21.76.49-5.33,2.48-7.66,7.81-7.93,5.09-.25,10.14-1.18,15.34-1.84.34,5.8.64,10.86.94,15.93a12.71,12.71,0,0,0,.22,2.48c1,3.82,2.49,8.34,6.65,8.23,2.45-.07,6-3.71,7-6.48a67.14,67.14,0,0,0,3.09-16.48c.69-7.83,2.44-9.24,9.75-7.4,2.89,8.77,5,17.36,8.53,25.27,3.66,8.1,9.1,7.88,13.74.33a40.16,40.16,0,0,0,6.1-22.79c-.18-5.1,1.54-6.89,6.76-6.82,18.12.25,36.25.2,54.38,0,4,0,8-1.64,12.08-1.79,1.47,0,4,1.81,4.37,3.22,2.16,9,3.48,18.15,5.84,27.06,1,3.71,3.11,8,6.08,10,1.76,1.21,7.11-.49,9.13-2.56,2.74-2.8,4.51-7,5.44-11,1-4.22.73-8.79.67-13.2C340.63,118.23,340.1,114.61,339.65,109.48ZM169.84,208.21c12.85-.83,14.26-.8,21.69-6A143.22,143.22,0,0,0,209,187.55a68.32,68.32,0,0,0,11.46-14.12c3.69-6.32,1.67-12.35-5.25-14.48a129.32,129.32,0,0,0-26-4.91c-6-.55-12.18,1.29-18.28,1.38-15.26.2-30.3.89-42.47,11.86-4.52,4.08-10,8-8.69,15.15s6.81,10.14,13.71,11.89c4.63,1.16,8.94,4.05,13.06,6.69C153.73,205.57,161,209.31,169.84,208.21ZM269.5,193c1.83-7.15.16-10.27-5.29-11.77s-12.36,1.1-15.82,6c-3.69,5.17-3.53,9.07.62,15.09.94,1.36,2.19,2.6,2.78,4.1,1.08,2.8,2.84,5.93,2.38,8.58-.58,3.31-3.91,4.5-7.55,4.08-.79-.09-1.75,1.32-2.64,2,1,.85,2.15,2.53,3.05,2.41,7.49-.94,15.12-10.73,10.41-17.15a58.38,58.38,0,0,1-5.58-9.42c-2-4.16.25-8.59,5.08-10.87,4.34-2,7.11-1,9.64,3.52A27.38,27.38,0,0,0,269.5,193Z"/><path class="cls-4" d="M351.48,432.4c-8.37,1.82-16.68,4-25.12,5.36-8.23,1.31-17,.43-24.81,2.92-10.08,3.22-20.14,3.07-30.3,3.4-6.78.22-13.6-.11-20.39-.49-6.14-.34-12.24-1.32-18.38-1.55-3.64-.14-5.32-1.68-6.3-5-.69-2.33-2.26-4.38-3.1-6.68-.77-2.12-2.21-5.11-1.36-6.49,2.15-3.48,4.28-7.63,9.47-7.86a12.26,12.26,0,0,0,4.7-1.46c.31-.15.22-2.34-.2-2.54-1.71-.82-3.68-1.86-5.43-1.67-4.31.47-15,10.7-15.26,14.81-.14,1.84,1.2,3.93,2.25,5.69,1.77,3,3.84,5.78,5.78,8.66l-1.19,1.69c-8-.92-16.13-1.19-24-2.88-19.65-4.25-39.1-9.37-58.74-13.65-7.25-1.58-14.8-1.91-22.23-2.54-2.76-.24-4.66-.22-4.59-4,.09-5.4-3.7-8.65-7.9-11.31-1.68-1.06-3.6-1.77-5.22-2.91-2.36-1.65-3.19-3.76-1.12-6.31s3.91-5,5.91-7.4c2.39-2.91,5.07-4.9,10.22-1.2-.36-3.28,0-5.63-1-6.9-.74-1-3.61-1.17-5-.52-8.27,4-12.76,11.41-15.89,19.55-.52,1.34,1.91,4.35,3.62,5.87,2.06,1.83,4.91,2.76,7.24,4.34,3.14,2.12,5.29,4.93,4.9,9-7.35,1.2-12.55-1.59-16.77-7.88a120.38,120.38,0,0,0-11.45-14.42c-3.79-4.12-7.48-8-7.22-14.11,0-1-.87-2.06-1.34-3.09l-1,1.18c-2.3-1.52-5-2.65-6.82-4.62-8.89-9.78-13.42-22-18.15-34a8,8,0,0,1-.18-2.07c10.22,3.05,20.25,5.67,29.14,11.54,10.89,7.18,23.59,9.76,36,12.71,12.75,3,25.71,5.19,38.57,7.76,28.14,5.62,56.67,7.34,85.26,8.47,25.08,1,50.15,2.37,75.24,2.88,11.43.23,22.9-1.19,34.35-2,13.59-.89,27.27-1.22,40.76-2.95,29.73-3.79,59-9.76,86.88-21.3,2.12-.88,4.92-.12,8.35-.12-5.05,10.2-8.11,20-18.49,25.36-11.28,5.78-22,12.62-33,19l-2-1.15c-.25-3.27-.37-6.57-.84-9.81-.19-1.33-1.12-2.56-1.71-3.83-1.08,1-3,1.94-3.07,3a30.16,30.16,0,0,0,.75,9.29c.79,3,.4,4.5-2.68,5.69q-27.19,10.49-54.25,21.33c-5.5,2.22-10.06-.19-14.66-2.3-.84-.38-1.47-3.58-.81-4.45,2.77-3.69,6.06-7,9.89-11.23-.92-3-4.66-2.34-6.35-.28a66.6,66.6,0,0,0-8.86,14.57c-.53,1.17,2.1,4.07,3.68,5.8.89,1,2.62,1.2,4,1.77ZM116.07,400.46l-.08,1.73,3.55,5.79c3.41-1.61,3.34-4.58,2.07-7C121.11,400.11,118,400.6,116.07,400.46Z"/><path class="cls-4" d="M159.8,117.38c1.27-6.2,2.91-11.16,3.2-16.21.69-11.92,1.62-23.94.67-35.78-.46-5.78-4.9-11.24-7.66-17.09,22.33-17.87,89.58-44.66,130-38.36l1.51,5.61,5.65-4.87-.72-1.14C298.1,9,303.7,8.33,309.32,7.86a19.26,19.26,0,0,1,4.07.56c-5,31.58-6.95,63-.86,95.89-10.52.63-20.24,1.43-30,1.74-13.44.42-26.91.25-40.35.81-4.14.17-5.1-1-5.2-4.86-.5-19.77-1.22-39.54-2-59.3A15.46,15.46,0,0,0,233.28,36c-.65-1.16-2.73-1.54-4.17-2.27-.08,1.45-.55,3-.17,4.33,1.1,3.79,2.55,7.49,3.86,11.23l-1.72.62c-3.35-9.17-6.71-18.33-10.65-29.12-2.15,4-4,6.6-5,9.47-7.15,21.8-8.32,44.25-7.09,66.95.14,2.49-.53,5.05-.14,7.47.86,5.37-2.43,5.86-6.36,6.21-4.53.41-4.38-3.24-4.55-5.66-.7-10-.59-20-1.51-29.89a178.16,178.16,0,0,0-4-22.5c-.5-2.21-2.67-4-4.25-6.32L191.9,43C189,42.41,187,41.67,185,41.65c-.88,0-2.62,1.51-2.55,2.19,1.55,15.84-5.68,30.55-5.8,46.11,0,3.8,1.3,7.62,2,11.43.65,3.38,1.52,6.73,1.9,10.14a3.48,3.48,0,0,1-2.12,2.62C172.69,115.31,166.84,116.2,159.8,117.38Z"/><path class="cls-4" d="M403.31,118.1c-6.95-1.7-13.88-3.22-20.68-5.22-1.24-.37-2.47-2.58-2.76-4.13-2.44-12.72-4.08-25.63-7.1-38.2S365.49,45.41,361.51,33c-1.91-6-4.53-11.72-6.62-17.65a5.39,5.39,0,0,1,.23-2.83c-1.59-2.7-2.88-4.87-4.16-7L352.23,4c5.42.42,10.93.38,16.25,1.36,11.58,2.14,23.08,4.72,34.58,7.27,6.7,1.48,8.95,4.34,6.37,10.52-5.93,14.24-3,28.78-2.87,43.28.07,7.73-.61,15.48-1.12,23.22C404.84,98.92,404.07,108.15,403.31,118.1Z"/><path class="cls-5" d="M436.7,172.41c-2.09-3.18-5.15-6.55-8.54-7.91a215.06,215.06,0,0,0-26.94-8.67c-5.68-1.45-12.25-3.31-17.49-1.79-10.35,3-19.28,9.48-26.92,17.28-3.66,3.74-3.28,5.42.9,8.8,2.55,2.07,5.62,4,7.17,6.72,4.83,8.44,12.53,12.89,21.28,15.16,9.28,2.41,18.92,3.47,28.41,5a18.55,18.55,0,0,0,4-.25c-5.52-6.18-6.12-13.58-1-16.4,4.5-2.45,9.9-4.77,14.75-4.5,3,.16,5.65,5.32,8.66,8.44C445.78,185.8,441,179,436.7,172.41Zm-39.79,6.19a.67.67,0,0,1,0-1.33A.67.67,0,0,1,396.91,178.6Z"/><path class="cls-4" d="M94.29,139.07c-3.7,8.05-6.93,14.74-9.89,21.56C75.85,180.34,70.06,201,65.51,221.88c-1.15,5.25-2.43,8.3-8.7,8.82-7.08.58-14,3-22,4.83.48-8.25.86-16.76,1.51-25.24.34-4.45.5-9.11,2-13.23a33.26,33.26,0,0,1,6.76-10.66c4.65-5.17,10.39-9.42,14.79-14.78A304.09,304.09,0,0,0,78,146.82C81.75,141.19,87.28,140.64,94.29,139.07Z"/><path class="cls-4" d="M452.39,50.8c6.42,7,13,13.89,19.22,21.08,10.52,12.16,21.23,24.18,31.06,36.88s12.09,28.11,13.42,43.61c.25,2.87-1.16,3.56-3.71,2.24-5.75-3-11.85-5.37-17.16-9-2.93-2-4.87-5.73-6.74-9-6-10.49-11.57-21.27-17.8-31.63-3.72-6.21-3.68-13-4.56-19.65-1.36-10.38-4.61-19.92-12.21-27.6-1.43-1.45-2.21-3.55-3.29-5.35Z"/><path class="cls-4" d="M117.35,128.9c.7-5.35,1.36-9.71,1.83-14.09.37-3.45.57-6.93.77-10.4s.66-6.55-3.59-8.63c-1.7-.83-2.56-4.63-2.71-7.14a95.53,95.53,0,0,1,.59-13.82c.08-.9,1.2-1.93,2.1-2.51,10.12-6.62,20.24-13.25,30.53-19.62,1.31-.81,4.76-.75,5.11,0,.86,1.71,1.23,4.39.45,6-5.22,11.12-11.07,22-11.92,34.57-.54,8.09-.59,16.23-.63,24.35,0,3.25-.78,5.11-4.37,5.93C129.75,124.86,124.14,126.85,117.35,128.9Z"/><path class="cls-1" d="M323.79,36.21c-.91-2.54-2.05-5-2.7-7.63-.87-3.52-1.46-7.12-2-10.71-1.21-7.86.07-11.24,8.41-11.24h17.45L339.27,13c-7.1,7.94-6.47,17.41-5.11,26.9,1.24,8.66,5,16.23,9.52,23.8,4.17,7,6.49,15.17,8.9,23,2,6.41,2.9,13.15,4.23,19.75a8,8,0,0,1-.36,2.31c-5-.78-9.94-1.2-14.64-2.44-1.63-.44-3.5-2.72-3.92-4.48-3.17-13.21-6-26.49-8.95-39.75-1.52-6.92-3-13.85-4.35-20.79a27,27,0,0,1,0-5.09Z"/><path class="cls-1" d="M376.06,111.81q-6.71-25.62-13.4-51.25l-1.05.25c3.8,16.51,7.61,33,11.38,49.41-1.12.45-1.44.71-1.7.67-9.23-1.59-9-1.64-11-10.77-2.31-10.36-4.83-20.69-7.75-30.89a31.43,31.43,0,0,0-5.39-10c-7.35-9.65-9.61-20.63-9.32-32.4a33.21,33.21,0,0,1,.63-4.94,16.55,16.55,0,0,1,1-2.62l4,2.2a6.14,6.14,0,0,1,.6-1.87c.9-1.18,1.95-2.25,2.94-3.37,1.13,1,2.81,1.8,3.3,3.06,3.16,8.16,5.12,16.92,9.24,24.55,9.14,16.92,11,35.61,14.82,53.87,1,4.63,1.48,9.34,2.2,14Z"/><path class="cls-1" d="M426.48,123.22c-5.43-1.42-10.48-2.43-15.24-4.21-1.31-.49-2.52-3.34-2.44-5.05.24-5.45,1.49-10.86,1.67-16.31.6-17.72.84-35.44,1.36-53.16.12-4.11.79-8.21,1.21-12.31l2.14-.22q4.23,8.74,8.45,17.5c1.9,3.93,3.91,7.82,5.67,11.82a11.28,11.28,0,0,1,1,4.77q-1,25.59-2.26,51.17C427.94,119.12,427.08,121,426.48,123.22Z"/><path class="cls-5" d="M354.44,434.28c-1.2,11.66-2.29,22-3.31,32.24A27.41,27.41,0,0,0,351,473c1.18,8.42,2.45,9.26,11.28,11a94.29,94.29,0,0,1,15.16,4.71c4.32,1.65,5.46,6.14,2,9.13a23.57,23.57,0,0,1-9.5,4.56,156.76,156.76,0,0,1-19,3.53c-2.91.36-7.4.48-8.61-1.16-1.66-2.27-.92-6.32-1.15-9.6,0-.39.54-1,.41-1.18-5.2-8.51-1.76-17.83-2.43-26.74-.6-7.84,0-15.76-.31-23.62-.15-3.68,1.14-5.55,4.64-6.34C346.74,436.57,349.85,435.56,354.44,434.28Z"/><path class="cls-1" d="M68.77,228.32c2.06-8.86,3.43-17.86,6.28-26.36,6.69-19.93,14.14-39.6,21.18-59.41,2.09-5.87,3.79-7,13.27-6.91-1.43,7.54-2.29,15.09-4.33,22.31-5.38,19-11.27,37.78-17,56.64a41,41,0,0,1-2.35,6C81.94,228.58,79.33,229.87,68.77,228.32Z"/><path class="cls-1" d="M485.2,141.79c-8.54-2.85-15.68-5-22.59-7.74-1.51-.6-3.39-3.66-3-5.07,3.44-13.66-2.34-25.6-7.18-37.42-3.79-9.27-9.92-17.55-14.18-26.66-1.92-4.11-2.05-9.14-2.48-13.81-.11-1.21,1.71-3.66,2.67-3.67,1.68,0,4.19.94,4.95,2.28,4.88,8.62,10.13,17.16,13.74,26.32,2.74,6.94,3.38,14.73,4.65,22.19.6,3.51-1,7.35,3.82,9.65,2,.94,2.4,4.88,3.85,7.27,4.13,6.79,8.46,13.45,12.63,20.22C483.06,137,483.76,138.81,485.2,141.79Z"/><path class="cls-1" d="M233.39,98.39c-.54,2.77-.27,7.59-1.86,8.32-3.73,1.7-8.35,1.59-12.62,1.8-.64,0-2-2.14-2-3.3q-.18-30.06,0-60.12a33.75,33.75,0,0,1,1.33-8.3c.32-1.22,1.57-2.2,2.39-3.3,1,1,2.66,1.8,3,3,2.1,7.83,4.53,15.65,5.69,23.64C231.13,72.67,232,85.37,233.39,98.39Z"/><path class="cls-4" d="M435,70.12c2.46,4.66,5.21,9.2,7.32,14,4.54,10.3,9.31,20.56,12.83,31.22,1.54,4.66.26,10.26.26,16.35-7.95-2.3-14.65-4-21.11-6.35-1.15-.42-1.95-3.6-1.81-5.42.67-9,2.09-17.85,2.48-26.81.26-6.1-.77-12.25-1.18-18.38-.1-1.43,0-2.87,0-4.3Z"/><path class="cls-5" d="M181.41,440.52c-1.09,5.06-2.35,9.71-3,14.44-.29,2.13.83,4.41,1,6.64.29,5.24.93,10.56.38,15.73-.71,6.58-2.48,13-3.74,19.55a9.24,9.24,0,0,1-5.52,7c-7.61,3.83-15.27,5.75-23.54,2.7-6.27-2.32-7-6.73-2.09-11.26,4-3.64,8.65-4.71,13.85-3.82,12.94,2.22,13.35,1.67,13.6-11.48.23-12.22.78-24.45,1.76-36.63C174.51,437.89,176.06,437.56,181.41,440.52Z"/><path class="cls-1" d="M458,137.06c8.44,2.85,17.06,5.75,25.65,8.7.74.26,1.89.77,2,1.28.68,5,2.35,10.33,1.45,15.12-1.36,7.28-5.18,8.57-12.58,6.3-2-.63-4.26-.7-6.3-1.36s-4.71-1.27-6.13-2.8C456.21,158,451.16,146.55,458,137.06Z"/><path class="cls-1" d="M84.56,133.14c-.07-13.48.17-25.26,4.67-36.2,3.1-7.56,11.66-14.2,18-16.28-.75,6.71-1,13.67-2.42,20.36-1.9,8.7-4,17.54-7.69,25.56C95.68,129.64,89.71,130.6,84.56,133.14Z"/><path class="cls-1" d="M318.43,24.93c1.19,27.48,7.95,53.93,15.56,80.33-12.4,1.34-15.54-1.91-15.84-10.07-.78-21.71-1.91-43.41-2.75-65.13-.06-1.73,1.06-3.51,1.62-5.27Z"/><path class="cls-1" d="M143.53,121.53c1.69-21.22-.6-42.4,14.52-61.36,0,4.27.13,7.66,0,11-.21,4.29-.76,8.56-1,12.85-.44,8.79-1.1,17.59-1,26.38.05,5.64-1.34,9.27-7.51,9.78A36.48,36.48,0,0,0,143.53,121.53Z"/><path class="cls-1" d="M6.08,215c8.46-20.81,19.07-38.36,34.2-52.88l1.25.61a7.28,7.28,0,0,1,0,1.81c-2.19,8.3-4.26,16.63-6.75,24.84A16.61,16.61,0,0,1,30.63,196q-8.58,8.58-17.71,16.63C11.53,213.85,9.17,214,6.08,215Z"/><path class="cls-1" d="M50.87,151.09c9-14.94,16.89-30.69,28.86-43.68l2,.55c-.79,8.42-.34,17.24-2.83,25.13-1.46,4.6-7.63,7.72-11.68,11.5C59.66,141.71,57.14,150,50.87,151.09Z"/><path class="cls-1" d="M319.71,109a12,12,0,0,1,2.12-.9c11.65-.51,12.37.07,13.17,11.53.3,4.28.44,8.59.37,12.89,0,2-.2,4.28-1.27,5.74-1.47,2-3.86,3.32-5.85,4.93-1.14-1.71-2.94-3.28-3.31-5.14C323,128.33,321.38,118.51,319.71,109Z"/><path class="cls-1" d="M366.79,154.54c-3.92-5.71-6.14-29.46-4.65-42,4.62,1,9.2,1.92,13.71,3.13.64.17,1.32,1.81,1.27,2.73a57.58,57.58,0,0,1-2,12.71l-.92-10.63-1.24.06c-.32,5.61-.13,11.31-1.1,16.8S368.76,148,366.79,154.54Z"/><path class="cls-1" d="M187.62,64.88c1,4.91,2.28,9.79,2.88,14.75,1.15,9.53,1.85,19.11,2.82,28.66.53,5.23-3.67,4.18-6.38,4.49-.58.07-1.72-3-2.24-4.68s-.63-3.88-1.08-5.79a62.52,62.52,0,0,1,2.45-37.25Z"/><path class="cls-1" d="M41.86,183.26c-.47-1.93-1-3-1-4a31.54,31.54,0,0,1,12.6-23.48c.26-.2.58-.55.83-.52,8,1,12.12-6.08,18.3-8.87.38-.17.92,0,2.3.09C65.41,160.14,54.12,171.41,41.86,183.26Z"/><path class="cls-1" d="M216.42,120.51c.77-3.35.84-7.56,2-7.87,4-1.11,8.47-1,12.75-1,.38,0,1.3,2.24,1.09,3.27-1.34,6.64-2.77,13.28-4.55,19.81-.41,1.52-2.21,3.53-3.53,3.66s-3.29-1.81-3.77-3.24C218.73,130.16,217.61,125,216.42,120.51Z"/><path class="cls-4" d="M419.93,21.49l23,20.68-14.08,5.88c-3.47-8.41-7-16.93-10.52-25.45Z"/><path class="cls-1" d="M103.84,127.71c-.55-1.71-1.91-3.65-1.5-5.08,2.25-7.77,4.94-15.42,7.51-23.1a18.84,18.84,0,0,1,1.42-2.61c3.12,4.84,2.1,9.51,1.47,14.11-.67,4.9-1.65,9.78-2.13,14.7-.59,5.94-1.17,6.58-7.85,6.55l2.18-4.72Z"/><path class="cls-1" d="M409.48,122.76c3.44.82,6.7,1.28,9.71,2.42,2,.78,5.43,3,5.23,3.77-.79,3.17-2.18,6.73-4.54,8.75-1.24,1.05-5.36-.14-7.47-1.46C408.71,133.94,408.11,130.09,409.48,122.76Z"/><path class="cls-1" d="M188.8,133.39c-4.39-4.13-3.73-9.9-4.25-15.13-.25-2.42,4.19-3.22,9.85-1.52-1.15,5.57-2.31,11.22-3.48,16.86Z"/><path class="cls-1" d="M154.44,123.53l-7.37,15.72-1.79-.22c-.39-4.82-1.48-9.76-.7-14.38.22-1.33,5.84-1.76,9-2.6Z"/><path class="cls-6" d="M490.22,343.34c5.12-13.91,10.24-27.81,15.83-43-2.71,16.24-6.34,30.71-14.7,43.51Z"/><path class="cls-1" d="M212.08,108.38V81.73C213.48,90.58,216.68,99.39,212.08,108.38Z"/><path class="cls-1" d="M140.52,139.51c1.53,4.13,2.7,7.32,4.19,11.35L139.82,152a39.79,39.79,0,0,1-.81-6.37C139.07,143.78,139.87,142,140.52,139.51Z"/><path class="cls-1" d="M313.87,56.06V78.5h-1.42V56.07Z"/><path class="cls-6" d="M610.06,284.87c-2.86,4.08-8.76,4.47-6,9.85l8.11-3c2,6.61,4,13,5.72,19.43,3.47,13.07,3.83,26.63,8.23,39.75,5.61,16.71,6.92,34.54,2.3,52.07a22.77,22.77,0,0,1-5.45,9.83c-1.54,1.57-5.56,2.25-7.67,1.39-6.5-2.65-12.81-2-19,.11-12.65,4.43-25.47,4.35-38.38,2.13-2-.34-4.79-2.45-5.14-4.16-5.55-27.19-6.54-54.44,1.79-81.25,4.77-15.35,15.55-26.47,28.65-35.31a141.62,141.62,0,0,1,17.14-9.89C602.79,284.71,605.94,285.22,610.06,284.87Z"/><path class="cls-2" d="M887.72,344.1c-4.89,5.55-6.24,12.1-6.46,19.44-.84,28.51-1.72,57-6.93,85.23-3.14,17.06-3.59,34.63-4.78,52-1,15.38-1.3,30.81-2.24,46.2-.15,2.56-.5,6.25-6.12,6.34-.22-8.88-.56-17.61-.6-26.33-.08-13.79-.34-27.59.16-41.35.94-25.74,2.43-51.46,3.59-77.19.83-18.42,1.14-36.86,2.39-55.25.66-9.66,2.86-19.22,4.32-28.83.19-1.25.17-2.53.25-3.82h28.54c-1.21,3.37-2.34,5.9-3,8.55-1.24,4.7-1.64,8.49,3,12.72,3.83,3.46,5.71,9.69,7.14,15,4.15,15.51,8,31.13,11.26,46.85a231.36,231.36,0,0,1,4.3,30.57c1.23,16.71,1.79,33.48,2.34,50.23.59,17.93.94,35.87,1.19,53.8.05,3.67-.83,7.35-1.18,10.12-4.9.38-8.57.58-12.22,1-5.43.56-10.84,1.38-16.28,1.82-3.08.26-4.61-.71-4.41-4.65,1.5-29.37,3.37-58.75,3.7-88.15.29-26.39-1.21-52.79-2-79.19-.23-7.79-.45-15.6-1.18-23.35-.38-4.06-1.86-8-2.84-12Z"/><path class="cls-3" d="M627,324.14c-2-6.6-3.84-13.24-6-19.78-1.28-3.91-3-7.68-5-12.56,3,0,5.6-.18,8.11,0a186.94,186.94,0,0,0,51.4-3.12c11.74-2.26,24.09-1.77,36.16-1.65,15,.16,29.89,1.05,44.82,1.92,13.43.78,26.84,2,40.26,2.92,8.11.53,16.24.67,24.34,1.16,16.42,1,32.85,1.81,49.24,3.21,13.89,1.18,27.7,3.33,41.6,4.59,14.54,1.32,29.16,1.91,43.71,3.19,7.07.63,14.08,2,21.07,3.29a4.53,4.53,0,0,1,3.08,2.64,67.83,67.83,0,0,1,.75,9c-3.84-.38-6.87-.86-9.92-1-12-.4-23.9-.89-35.85-.93-9.58,0-19.17.91-28.74.75-10-.16-19.91-1.22-29.88-1.67-3.08-.14-6.2.64-9.31.66-11.75.06-23.5-.1-35.25,0-13.28.1-26.56.45-39.84.58-6.4.06-12.82,0-19.22-.26-13.66-.64-27.31-2-41-2.12-16.78-.2-33.58.31-50.35.86-13.64.45-27.31,1-40.87,2.38-4.65.48-9,3.79-13.48,5.81Z"/><path class="cls-1" d="M1120.52,316.87c.2,1.83,2.63,4.5,4.4,4.82,2.65.48,4.42-1.8,4.31-4.83s-.22-5.95-.31-8.93c-.17-5.47-.45-10.94-.4-16.41,0-1.35.77-2.7,1.59-4.79a.65.65,0,0,1-.31-.74c.38-1.31.83-2.59,1.22-3.9a.67.67,0,0,1,.8-.46,24.41,24.41,0,0,0-1-4.09c-.73-1.43-2.22-2.46-3.38-3.67-.69,1.17-1.74,2.27-2,3.54-1.75,7.9-3.69,15.78-4.83,23.78A63.28,63.28,0,0,0,1120.52,316.87Z"/><path class="cls-7" d="M1161.44,334.64c-2.37-6.45-5.69-12.36-5.14-19.83.57-7.72-.38-15.57-.83-23.35-.61-10.58-5.57-15.37-16.8-15.18,2.22,3.82,3.74,7.31,6,10.21,9.31,11.82,8.68,24.87,5,38.27-.5,1.82-2.4,3.27-3.65,4.89-1.47-1.23-3.21-2.24-4.36-3.73-6.15-8-6.27-17.53-6.52-26.91-.22-7.75.19-15.51.34-23.27.06-2.82-.83-4.1-3.43-2.78v8.78a.68.68,0,0,1,.23.71c-.38,1.3-.84,2.59-1.22,3.89a.67.67,0,0,1-.61.48c0,4.94-.21,8.76.06,12.53.42,6.12,1.22,12.22,1.83,18.33.44,4.42-1.47,7.49-5.7,8.73-4.45,1.32-7.69-.73-9.07-4.83-1-2.91-1-6.17-1.24-9.3s0-6.33,0-10.84c-2.47,2-3.45,2.81-4.5,3.56-9,6.39-19.58,2.95-22.34-7.58-1.16-4.41-1.22-9.15-1.38-13.75a28.19,28.19,0,0,1,.92-8.89c2-6.76,10.42-10.43,17.19-7,5.23,2.62,9.83,6.5,14.74,9.83,4-4.62,3.35-13.45-.52-17.92-3.51-4.06-7.92-6-12.4-8.51a30.5,30.5,0,0,0-23.29-3c-3.16.8-4.3,2.58-2.1,5.87,3,4.48,5.18,9.39,3.76,15-1.18,4.65-3.17,9.17-3.69,13.86-.93,8.35-1.36,16.61-12.16,19.88,2.81,2.49,5.21,4.64,7.91,5.12,3.84.69,7.93-.11,11.86.28,1.77.17,3.41,1.68,5.11,2.59a50.87,50.87,0,0,1-4.76,2.82,61.57,61.57,0,0,1-5.93,2c-8.61-3.92-8.68-3.9-16.14,3.92-1,1.08-2,2.21-3.15,3.2-8.38,7.35-18.22,8.48-24.17,2a50.65,50.65,0,0,1-8.39-13.38c-2.24-4.93-.23-8.48,4.5-11.48,1.41-.89,2.33-2.85,3-4.52s.39-3.73,1.16-5.33c2.28-4.75,4.3-10.05,10.55-10.82,6.47-.8,10.68,2,13.84,8.5a25.26,25.26,0,0,0,2.57,3.07l6.2-33.78.34,0a7,7,0,0,1-.07-1,26.29,26.29,0,0,0-2.35,1.53c-14.33,10.77-30.66,16.15-48.23,18.74a64.28,64.28,0,0,0-25.17,9.37c.85.27,1.18.49,1.46.44a15.54,15.54,0,0,1,2.9-.67c9.87,0,20.35-3,28.46,5.89,3,3.26,2.94,5.61-.49,8.21-1.43,1.1-3.23,2.54-3.58,4.11-1.79,8.08-5.44,16.28,2,23.83,2.85,2.88,1.64,6.16-2,8.18-.84.47-1.58,1.11-3.53,2.5,3.17.84,5.24,1.69,7.37,1.9,17.42,1.74,34.13,6.76,50.87,11.44,7.47,2.09,14.29,7.22,21.8,8.34,21.92,3.29,41.51-2,56.36-19.67C1161.88,339,1162,336.24,1161.44,334.64Zm-40.93,11c-4.45,5.75-10.19,11.31-17.35,9.23-5.42-1.57-9.64-7.38-14.3-11.41-.43-.38-.15-1.56-.2-2.37-.16-2.62.21-5.42-.59-7.84-3-9,.67-14.75,10.16-14.82,8.07.47,15.2,3.2,19.22,11.3a13.5,13.5,0,0,0,1.69,3C1122.71,336.77,1124.21,340.88,1120.51,345.65Z"/><path class="cls-1" d="M1072.76,295.27c5-.12,6.1-3.64,6.75-6.72,1.65-7.76,3.46-15.61,3.81-23.49.16-3.65-2.91-7.45-4.52-11.18-.92.54-1.87,1.06-2.81,1.58l.12.08a.68.68,0,0,1,.19.47c0,.31,0,.62,0,.92a2.74,2.74,0,0,0,.05.28l.85.08C1078.38,270,1071.2,282.36,1072.76,295.27Z"/><path class="cls-8" d="M717.35,643.26c-.3,4.72-.75,8.52-.75,12.32,0,8.65,4.18,11.77,12.47,9.53,7.11-1.91,7.42-1.91,12.95.86-3.25,1.73-5.5,3.39-8,4.17-3.29,1-6.83,1.23-10.21,2-4.93,1.16-9.75,3.63-10.45,8.75s2.23,9.16,7.65,10.84c.84.27,1.44,1.54,2,2.43,1.14,1.77,2.19,3.59,3.28,5.39l5.31-5.75a74.78,74.78,0,0,1,7.66-.36c1.19,0,2.94.81,3.4,1.76,2.54,5.13,4.92,2,6.46-.33,2.45-3.78,5.7-5.31,10.33-5.46.46,2.58.63,5.22,1.49,7.62.36,1,2.17,1.52,3.32,2.25.36-1,1.14-2,1-2.94-1.17-9.16,1.27-11.56,11.13-10.45.54,3.32.8,6.81,1.8,10.08.4,1.3,2.42,2.12,3.7,3.15,0-1.41,0-2.82.09-4.23.14-2.88-.46-7.85.63-8.25a19.22,19.22,0,0,1,10.59-.34c1.11.26,2.09,4.34,1.86,6.53-.85,8-4.72,13.39-12.71,16.75-20,8.43-41.06,8.87-62.14,9.72-8,.33-15.92.74-23.88,1.09a19.9,19.9,0,0,1-3,0c-9.06-.91-11.56-4.64-8.76-13.39,1-3.15,2.55-6.12,3.7-9.22,3-8.21,6.3-16.34,8.85-24.69a217.89,217.89,0,0,0,5.42-22.74c.86-4.54,3-6.61,7.57-6.51A66.68,66.68,0,0,0,717.35,643.26Z"/><path class="cls-2" d="M716.44,596.74h-9.1c-2.72,0-4.39-1-4.58-4-.27-4.29-1-8.55-1-12.83-.22-22.61.11-45.23-.55-67.82-.44-14.65-4.34-28-17.81-37-15.06-10-29.94-20.31-44.35-31.21-8.5-6.44-15.92-14.29-24.15-21.79,4.34-2,7.32-3.78,10.54-4.7a6.69,6.69,0,0,1,5.21,1.37c14.35,11.84,29.06,23.06,45.09,32.67,7.57,4.53,13.74,11.41,20.5,17.27,5,4.34,10.19,8.51,14.83,13.21,7.45,7.55,8.45,17.61,8.37,27.35-.19,26.59-1.1,53.18-1.8,79.77A64.55,64.55,0,0,1,716.44,596.74Z"/><path class="cls-3" d="M693.08,598.77c3.71,1.22,4.48,3.34,4.17,6.35-.09.83,1,1.78,1.47,2.67a6.49,6.49,0,0,0,1.85-1.29c4.29-6.19,9.43-6.41,13.78-.24,5.16,7.32,6.9,15.79,6.81,24.55,0,5.7-9.71,11-15.91,9.25a27.56,27.56,0,0,0-6.12-.54c-3.31-.12-6.26-1.15-6.46-4.81-.55-10.23-.79-20.48-1-30.72C691.66,602.34,692.55,600.66,693.08,598.77Z"/><path class="cls-2" d="M1069.65,312.34c-3.63,2.83-8.19,6.6-13,10.05-4.11,3-8.56,2.32-11.71-1.22a46.92,46.92,0,0,1-7.26-11.67c-.55-1.19,1-4.72,2.26-5.15,5.46-1.85,6.17-6.2,7.31-10.83a15.07,15.07,0,0,1,4.17-6.94c2.79-2.65,7.46-1.68,9.44,1.7a47.17,47.17,0,0,1,3.67,8.13C1066.22,301.13,1067.62,305.93,1069.65,312.34Z"/><path class="cls-1" d="M1158.44,288.32c8.84.83,14.67,6.75,15.7,15,.61,4.82,1.75,9.57,2.25,14.4a9.66,9.66,0,0,1-1.42,5.18c-2.17,3.94-4.3,10.51-9.21,8.31-3.23-1.45-4.92-8.34-5.59-13-1.23-8.8-1.23-17.78-1.73-26.68C1158.39,290.58,1158.44,289.61,1158.44,288.32Z"/><path class="cls-3" d="M1105.45,272.77c-.3,4.1-.65,7.75-.66,11.39,0,.28,2.55,1.13,3.53.75,2.15-.85,4.06-2.32,6.78-4,.21,4.26.35,7.29.57,11.66-1.7,2.19-3.88,5.94-6.93,8.77-5.54,5.13-13,2.77-14.41-4.66a63.24,63.24,0,0,1-.82-15.73C1094,273.15,1097.92,270.77,1105.45,272.77Z"/><path class="cls-1" d="M1157.12,364.82c1.59,2.35,3.22,3.81,3.67,5.56,2.29,8.94,4.45,17.92,6.26,27a18.62,18.62,0,0,1-.4,8.81c-.64,2.08-2.91,3.65-4.46,5.44-1.88-1.68-4.65-3-5.48-5.1-3.23-8.16-4.4-16.61-2.25-25.4C1155.63,376.33,1156.08,371.4,1157.12,364.82Z"/><path class="cls-1" d="M1175.79,355.28l-16.14-6.14,0-1.22c1.93,0,4-.39,5.79.06,18.62,4.61,24.53,18.11,23.73,35.59a7.06,7.06,0,0,1-2.75,4.89c-.74.5-3.53-.84-4.45-2.06-1.73-2.25-3.55-4.92-3.94-7.61C1176.93,370.84,1176.47,362.8,1175.79,355.28Z"/><path class="cls-1" d="M1105.56,372.45c1,2.44,2.43,4.81,2.8,7.34,1.2,8.35,2.06,16.74,2.9,25.14.16,1.58.18,3.94-.75,4.72-2,1.61-4.55,3.13-7,3.24-1.28.06-3.92-3-3.84-4.51.45-8.53,1.46-17.05,2.48-25.55.4-3.38,1.33-6.7,2-10Z"/><path class="cls-2" d="M1078.55,362.47c-2.35.58-4.17,1.43-6,1.41a106.87,106.87,0,0,1-13.39-.85c-9.09-1.24-11.18-4.49-9.23-13.57C1059.86,348.25,1074.17,354.36,1078.55,362.47Z"/><path class="cls-1" d="M1144.89,323.11c-8.37-11.05-5.91-23.65-6.87-36.81,2.34.91,4.08,1.11,5.12,2.07C1150.09,294.77,1152,317.42,1144.89,323.11Z"/><path class="cls-2" d="M997.07,330.45c-8.42-3.27-12.43-9.5-12-17.94.37-7.72.38-15.72,8.79-20.64C993,305,989.9,318.09,997.07,330.45Z"/><path class="cls-2" d="M1026.08,331.1c-3.73,1.88-5.39.91-6.29-2.77s-2.72-7.1-3.74-10.74c-2.66-9.52-2.37-18.29,8.52-25,0,4.27,1.21,8.48-.22,11.38-4.34,8.77-5,16.84,1.19,24.89A7.21,7.21,0,0,1,1026.08,331.1Z"/><path class="cls-2" d="M860.74,561.09c6-1.85,10.77-3.51,15.69-4.79,2.39-.62,10.69,4.8,10.86,7.12.07.88-1.81,2.73-2.77,2.7a84.06,84.06,0,0,1-9.4-1.25c-.62-.08-1.68-.07-1.87.27-3.16,5.58-5.29,2.59-7.72-.69C864.63,563.24,863,562.6,860.74,561.09Z"/><path class="cls-3" d="M1018.77,290.85c-5.61,4.69-12,5.3-19.44,7.48.71-3.19.55-6.47,1.75-7.08C1006.45,288.49,1012.23,287.54,1018.77,290.85Z"/><path class="cls-3" d="M1012.92,298.5c-.41,4.85-.66,7.76-1,11.63-3.28-.38-6.48-.38-9.32-1.4-.62-.22-.79-5.2.33-6.06C1005.41,300.76,1008.83,300.09,1012.92,298.5Z"/><path class="cls-3" d="M1005.49,325c8.91-3.71,12-2,12.74,5.57.29,2.78-2.12,4.8-4.19,3.17C1011.07,331.43,1008.67,328.37,1005.49,325Z"/><path class="cls-3" d="M1000.93,329.11,995,316.16c8.35,1.5,9.88,4.38,7.66,12.12Z"/><path class="cls-2" d="M858.84,560.36c-1.08,3.87-1.33,8.06-6.57,7.12a4.3,4.3,0,0,1-2.51-3.38C850.12,560.21,853,559.1,858.84,560.36Z"/><path class="cls-3" d="M1011.63,311.44l2.25,6.87a62.24,62.24,0,0,1-8,.74c-.44,0-1.48-3-1.16-3.28A67.64,67.64,0,0,1,1011.63,311.44Z"/><path class="cls-1" d="M1162.49,269.68c1.86.42,3.87.53,5.56,1.31,12.72,5.92,25.43,11.88,38,18.06a11.49,11.49,0,0,1,4.37,4.58c3.16,5.51.73,10-5.47,10.52-7.51.64-11.09-1.45-14.73-8.3A39.07,39.07,0,0,0,1175,280c-4.58-2.68-8.55-6.39-12.8-9.65Z"/><path class="cls-1" d="M1138.72,391.81c-1.23,10.22-2,18.94-3.52,27.54-.38,2.17-3.12,3.92-4.78,5.86a65.22,65.22,0,0,1-3.93-6.68,7,7,0,0,1-.1-3.93c1.37-7.46,2.78-14.91,4.33-22.33.55-2.65.86-6.51,4.61-5.67C1137,387,1138,390.54,1138.72,391.81Z"/><path d="M299.59,365.23c-10.36,1.29-20.71,2.64-31.08,3.84-3.94.45-7.92.64-11.89.78-11.74.41-23.49.89-35.25,1-5.94.08-12,.28-17.79-.91-7.62-1.58-11.39-7-11.5-14.74-.19-12.42-.75-24.87-.05-37.25.48-8.59,3.08-16.92,9.43-23.5,5-5.16,9.12-5.59,14.88-1.17,11.19,8.58,24.17,11,37.85,10.85,3.66,0,7.31-.34,11-.29,17.34.21,33.33-4.86,48.85-12a52.57,52.57,0,0,1,11.28-3.8c5.68-1.16,10.51,3.05,10.37,9.79-.25,11.26-1.34,22.51-2.08,33.76-.08,1.3-.72,3.32-.13,3.78,4.3,3.35,1.35,4.84-1.22,7.05-1.66,1.42-2.64,3.72-3.68,5.75-2,4-3.32,8.49-6,11.9a17,17,0,0,1-8.89,5.33c-4.46,1-9.26.64-13.9.86ZM225.9,321.72c17.46-2,33.45-3.83,49.42-5.81,6.08-.76,12.09-2.51,18.18-2.83,12.93-.66,25.14-3.35,36.08-10.5a4.22,4.22,0,0,0,1.51-3.19c-.19-4.12-3.8-6.24-8.34-4.75-9.77,3.21-19.38,6.92-29.21,9.89-17.75,5.35-36,6.13-54.2,3.51-9.22-1.33-18-5.38-27.07-8.11-1.51-.46-4.23-1.15-4.55-.62-1.77,2.9-3.89,6.1-4,9.28-.11,2.38,2,6.17,4.13,7.11C213.92,318.42,220.54,320,225.9,321.72Zm97.83,24c-4,.65-7.82.73-11.29,1.95-17.87,6.27-36.3,7.84-55,7.3-10.47-.3-20.93-.77-31.39-1-2.51,0-5.83,1.9-7.41.86-5.47-3.6-11.35-2.49-17.14-2.89-4.2-.29-4.76,1.59-3.7,5.19,1.87,6.29,7,8.11,12.37,8.13,8.59,0,17.18-1.09,25.78-1.47,14-.62,28,1.24,42.15-1.63,10.48-2.12,21.52-1.42,32.29-2.25C318.17,359.36,322.28,355,323.73,345.75Zm-14.5-2.11a54.37,54.37,0,0,1-1.18-6.86c-.16-5.29.06-10.59-.25-15.87-.07-1.12-1.83-3.14-2.68-3.08-8.87.7-17.72,1.73-26.08,2.62,1.8,6.87,3.39,12.9,5.23,19.88l3.85-5,.83.51c-2.25,4.35-4.5,8.7-7.05,13.65ZM274,321.94c-5.83.63-10.89,1.28-16,1.69-2.62.21-3.72,1.4-4,3.95-.81,7.26-1.77,14.49-2.73,22.26,6.64,0,12.93-.29,19.19.09,5.31.33,6.79-2.21,6.25-6.78C275.9,336.19,274.94,329.25,274,321.94Zm-75.23-11.37c-.85,2.15-1.46,3-1.51,3.94-.41,7.1-1,14.21-1,21.31,0,10.9.23,10.9,10.85,11.32,12,.48,12,.48,11.79-11.7-.11-6.08-3.2-10.28-8.71-12.3S199.18,319,198.76,310.57Zm49.1,39.61c-.78-7.93-1.44-14.79-2.12-21.64-.25-2.58-1.51-3.72-4.27-3.48-4.45.38-8.95.3-13.39.77a5.82,5.82,0,0,0-3.92,2.28c-2.5,4.15-1.19,10,2.67,13.05l-2.4,7.54Zm64.31-8.08c4.09-.57,7.75-.77,11.22-1.71,1.57-.42,3.73-2.15,4-3.55,1.54-9.43,2.64-18.92,4.06-29.73-4.88,2.87-8.44,5.21-12.21,7.12a10,10,0,0,0-4.59,14,4.87,4.87,0,0,1,.7,2.94C314.46,334.69,313.34,338.13,312.17,342.1Z"/><path d="M491,301.4c-5.28,5.63-9.92,12.08-16,16.7-10.43,8-24.42,1.18-25.77-11.94-.4-3.9-.41-7.84-.59-11.71-7.3-.11-10.47,2.8-10.95,9.82-3.56,1.22-4.82-.48-4.63-3.8.34-6,11.2-13.86,16.76-11.9,1.63.57,3.25,2.85,3.71,4.65.66,2.49.29,5.26.23,7.91-.14,6.65,3,11.74,8.81,14.28s9.8.26,13.63-4c3.32-3.67,7-7,10.67-10.39a10.55,10.55,0,0,1,2.68-1.36Z"/><path d="M372.27,260.55l-6.87-1.3c4-7,9.48-7.54,13-1.94a12.12,12.12,0,0,1,2,6.52c-.31,6.24,2.3,10.78,6.71,14.84a66.39,66.39,0,0,1,6.44,7.61c4.81,6,10.33,7.73,17.58,5.6,2-.59,4-1.1,6.73-1.84-6,8.23-20.37,8.63-26.75,1.51-3.65-4.08-7.93-7.78-10.77-12.36-2.33-3.75-3-8.55-4.32-12.89-.75-2.42-1.43-4.85-2.14-7.28Z"/><path d="M155.07,362.13c-4,3.34-8.22,4.74-12.77,2.36-4.76-2.48-4.8-7.11-4.93-11.65-.12-4.27.49-8.76-.67-12.74-1-3.33-4-6.05-6.11-9.08-1.5-2.17-4.59-5-4-6.46,1.24-3.3,4.09-6.13,6.71-8.72.62-.61,2.91.45,4.43.75-.58,1.41-.76,3.32-1.81,4.16-4.92,4-5.22,4.16-.4,7.74,7.21,5.38,7.7,13,7.74,20.83a29.27,29.27,0,0,1-.69,4.41c-.85,5.52,1.22,8.06,6.9,8.38C151.3,362.22,153.19,362.13,155.07,362.13Z"/><path d="M72.2,320.93c1,3.29,1.64,5.21,2.24,7.11,6.62-2,10-8.13,8-14.07-.63-1.86-2-3.48-2.66-5.32s-1.65-3.87-1.36-5.63c.87-5.39,14.24-14.63,19.73-14q6.72.76,2.36,7.17c-4.76-3.73-15.37.32-16.47,6.5-.27,1.55.6,3.54,1.47,5,5,8.49-.46,22.44-9.88,24.8-3,.75-5.06-.82-5.15-3.79C70.39,326.56,71.38,324.37,72.2,320.93Z"/><path d="M173.25,251.31c-7.58-5.7-17.59-3.92-21.87,2.72a6.63,6.63,0,0,0-.79,2.82c-1.09,9.69-9.57,18.62-19.53,20.07-1.8.26-3.8-.9-5.71-1.41a31.84,31.84,0,0,1,4.32-3.84c3.55-2.2,9.07.21,11.51-4.47,1.6-3.07,2.5-6.51,3.8-9.75.93-2.33,1.43-5.18,3.1-6.78,4.75-4.57,10.62-7.63,17.25-7.95,2.74-.13,5.72,1.67,8.28,3.14C174.19,246.19,173.46,248.8,173.25,251.31Z"/><path d="M169.84,208.21c-8.84,1.1-16.11-2.64-23.25-7.2-4.12-2.64-8.43-5.53-13.06-6.69-6.9-1.75-12.34-4.59-13.71-11.89s4.17-11.07,8.69-15.15c12.17-11,27.21-11.66,42.47-11.86,6.1-.09,12.28-1.93,18.28-1.38a129.32,129.32,0,0,1,26,4.91c6.92,2.13,8.94,8.16,5.25,14.48A68.32,68.32,0,0,1,209,187.55a143.22,143.22,0,0,1-17.51,14.65C184.1,207.41,182.69,207.38,169.84,208.21Zm9.78-39.12c.52-2.69.37-4.49,1.19-5.53,1.07-1.34,2.9-2.08,4.43-3.1H148.12c7,11.86,1.26,19.78-6.77,25.22a6.9,6.9,0,0,1-5.95.26c-2.31-1.22-4.82-3.31-5.68-5.61s.26-5.24.55-8.29c-3.12,2.32-6.53,4-5.72,8.63.87,5,4,7.89,8.74,8.18,7,.42,12.13,4.15,17.33,8,12.1,9,29.07,8.35,38.59,1.77,9.33-6.43,17.47-14.65,25.66-22.58,1.7-1.64,2.38-5.72,1.7-8.16-1.45-5.17-12.86-8.46-17.67-5.7-.66.38-1.54,1.14-2,1C190.23,160.56,185.58,164.3,179.62,169.09Z"/><path d="M269.5,193a27.38,27.38,0,0,1-2.92-3.44c-2.53-4.5-5.3-5.56-9.64-3.52-4.83,2.28-7.07,6.71-5.08,10.87a58.38,58.38,0,0,0,5.58,9.42c4.71,6.42-2.92,16.21-10.41,17.15-.9.12-2-1.56-3.05-2.41.89-.71,1.85-2.12,2.64-2,3.64.42,7-.77,7.55-4.08.46-2.65-1.3-5.78-2.38-8.58-.59-1.5-1.84-2.74-2.78-4.1-4.15-6-4.31-9.92-.62-15.09,3.46-4.86,10.37-7.46,15.82-6S271.33,185.8,269.5,193Z"/><path d="M116.07,400.46c1.93.14,5-.35,5.54.56,1.27,2.38,1.34,5.35-2.07,7L116,402.19Z"/><path d="M1098.23,318.44c8.07.47,15.2,3.2,19.22,11.3a13.5,13.5,0,0,0,1.69,3c3.57,4,5.07,8.11,1.37,12.89-4.45,5.74-10.19,11.3-17.35,9.22-5.42-1.57-9.64-7.38-14.3-11.41-.43-.38-.15-1.56-.2-2.37-.16-2.62.21-5.42-.59-7.84C1085.09,324.23,1088.74,318.51,1098.23,318.44Zm12,16.86c5.25-3.9,2.37-6.76-.75-8.38a29.83,29.83,0,0,0-11.24-3.16c-1.77-.14-4.81,2-5.4,3.68-1.61,4.69,1.88,9.54,6.74,10.61,1.45.32,3.12.51,4.22,1.36,1.92,1.47,4.35,3.2,4.86,5.24.32,1.26-2.45,3.39-4,5-.53.53-1.59.51-2.41.74,5.79,1.32,11.89-1.58,12.07-4.71C1114.48,341.94,1118,336.77,1110.18,335.3Z"/><path class="cls-2" d="M225.9,321.72c-5.36-1.7-12-3.3-18.09-6-2.12-.94-4.24-4.73-4.13-7.11.15-3.18,2.27-6.38,4-9.28.32-.53,3,.16,4.55.62,9,2.73,17.85,6.78,27.07,8.11,18.16,2.62,36.45,1.84,54.2-3.51,9.83-3,19.44-6.68,29.21-9.89,4.54-1.49,8.15.63,8.34,4.75a4.22,4.22,0,0,1-1.51,3.19c-10.94,7.15-23.15,9.84-36.08,10.5-6.09.32-12.1,2.07-18.18,2.83C259.35,317.89,243.36,319.68,225.9,321.72Z"/><path class="cls-2" d="M323.73,345.75c-1.45,9.22-5.56,13.61-13.38,14.22-10.77.83-21.81.13-32.29,2.25-14.12,2.87-28.12,1-42.15,1.63-8.6.38-17.19,1.5-25.78,1.47-5.4,0-10.5-1.84-12.37-8.13-1.06-3.6-.5-5.48,3.7-5.19,5.79.4,11.67-.71,17.14,2.89,1.58,1,4.9-.91,7.41-.86,10.46.2,20.92.67,31.39,1,18.74.54,37.17-1,55-7.3C315.91,346.48,319.78,346.4,323.73,345.75Z"/><path class="cls-3" d="M309.23,343.64l-27.33,5.88c2.55-4.95,4.8-9.3,7.05-13.65l-.83-.51-3.85,5c-1.84-7-3.43-13-5.23-19.88,8.36-.89,17.21-1.92,26.08-2.62.85-.06,2.61,2,2.68,3.08.31,5.28.09,10.58.25,15.87A54.37,54.37,0,0,0,309.23,343.64Z"/><path class="cls-3" d="M274,321.94c.95,7.31,1.91,14.25,2.74,21.21.54,4.57-.94,7.11-6.25,6.78-6.26-.38-12.55-.09-19.19-.09,1-7.77,1.92-15,2.73-22.26.28-2.55,1.38-3.74,4-3.95C263.1,323.22,268.16,322.57,274,321.94Z"/><path class="cls-3" d="M198.76,310.57c.42,8.42,5.93,10.56,11.43,12.57s8.6,6.22,8.71,12.3c.23,12.18.23,12.18-11.79,11.7-10.62-.42-10.81-.42-10.85-11.32,0-7.1.58-14.21,1-21.31C197.3,313.6,197.91,312.72,198.76,310.57Z"/><path class="cls-3" d="M247.86,350.18l-23.43-1.48,2.4-7.54c-3.86-3.07-5.17-8.9-2.67-13.05a5.82,5.82,0,0,1,3.92-2.28c4.44-.47,8.94-.39,13.39-.77,2.76-.24,4,.9,4.27,3.48C246.42,335.39,247.08,342.25,247.86,350.18Z"/><path class="cls-3" d="M312.17,342.1c1.17-4,2.29-7.41,3.14-10.91a4.87,4.87,0,0,0-.7-2.94,10,10,0,0,1,4.59-14c3.77-1.91,7.33-4.25,12.21-7.12-1.42,10.81-2.52,20.3-4.06,29.73-.23,1.4-2.39,3.13-4,3.55C319.92,341.33,316.26,341.53,312.17,342.1Z"/><path class="cls-5" d="M216.57,167.9c-1.45-5.17-12.86-8.46-17.67-5.7-.66.38-1.54,1.14-2,1-6.65-2.59-11.3,1.15-17.26,5.94.52-2.69.37-4.49,1.19-5.53,1.07-1.34,2.9-2.08,4.43-3.1H148.12c7,11.86,1.26,19.78-6.77,25.22a6.9,6.9,0,0,1-5.95.26c-2.31-1.22-4.82-3.31-5.68-5.61s.26-5.24.55-8.29c-3.12,2.32-6.53,4-5.72,8.63.87,5,4,7.89,8.74,8.18,7,.42,12.13,4.15,17.33,8,12.1,9,29.07,8.35,38.59,1.77,9.33-6.43,17.47-14.65,25.66-22.58C216.57,174.42,217.25,170.34,216.57,167.9ZM174,188.69a.67.67,0,0,1,0-1.33A.67.67,0,0,1,174,188.69Z"/><path class="cls-3" d="M1110.18,335.3c7.77,1.47,4.3,6.64,4.09,10.33-.18,3.13-6.28,6-12.07,4.71.82-.23,1.88-.21,2.41-.74,1.55-1.56,4.32-3.69,4-5-.51-2-2.94-3.77-4.86-5.24-1.1-.85-2.77-1-4.22-1.36-4.86-1.07-8.35-5.92-6.74-10.61.59-1.72,3.63-3.82,5.4-3.68a29.83,29.83,0,0,1,11.24,3.16C1112.55,328.54,1115.43,331.4,1110.18,335.3Z"/></g></g></svg>